<svg xmlns="http://www.w3.org/2000/svg" xmlns:xlink="http://www.w3.org/1999/xlink" width="80" height="80" viewBox="0 0 80 80">
  <defs>
    <clipPath id="clip-path">
      <rect id="Rect치ngulo_401318" data-name="Rect치ngulo 401318" width="46.086" height="45.294" fill="none"/>
    </clipPath>
  </defs>
  <g id="_15" data-name="15" transform="translate(-1150 -521)">
    <g id="Grupo_1099154" data-name="Grupo 1099154" transform="translate(621)">
      <circle id="Elipse_11515" data-name="Elipse 11515" cx="40" cy="40" r="40" transform="translate(529 521)" fill="#f1c12c"/>
    </g>
    <g id="Grupo_1099165" data-name="Grupo 1099165" transform="translate(1167 538)">
      <g id="Grupo_1099164" data-name="Grupo 1099164" transform="translate(0 0)" clip-path="url(#clip-path)">
        <path id="Trazado_874297" data-name="Trazado 874297" d="M29.729,45.294H16.356a.647.647,0,0,1-.647-.647v-9.3L7.656,40a.647.647,0,0,1-.883-.237L.087,28.18A.646.646,0,0,1,.323,27.3l8.053-4.65L.323,18a.646.646,0,0,1-.237-.883L6.773,5.532A.647.647,0,0,1,7.656,5.3l8.053,4.649V.647A.647.647,0,0,1,16.356,0H29.729a.647.647,0,0,1,.647.647v9.3L38.429,5.3a.646.646,0,0,1,.883.237L46,17.114a.647.647,0,0,1-.237.883L37.71,22.647l8.052,4.65A.647.647,0,0,1,46,28.18L39.312,39.761a.648.648,0,0,1-.883.237l-8.053-4.649v9.3a.647.647,0,0,1-.647.647M17,44h12.08V34.229a.647.647,0,0,1,.97-.561l8.463,4.886,6.04-10.461-8.462-4.886a.647.647,0,0,1,0-1.121L44.555,17.2,38.515,6.74l-8.463,4.885a.647.647,0,0,1-.97-.56V1.294H17v9.771a.647.647,0,0,1-.97.56L7.57,6.74,1.53,17.2l8.463,4.886a.647.647,0,0,1,0,1.121L1.53,28.093,7.57,38.554l8.462-4.886a.647.647,0,0,1,.97.561Z" transform="translate(0 0)"/>
        <path id="Trazado_874298" data-name="Trazado 874298" d="M35.388,60.286a.647.647,0,0,1-.647-.647V56.283a.647.647,0,1,1,1.294,0v3.356a.647.647,0,0,1-.647.647" transform="translate(-12.272 -19.653)"/>
        <path id="Trazado_874299" data-name="Trazado 874299" d="M35.388,20.9a.647.647,0,0,1-.647-.647v-5.17a.647.647,0,1,1,1.294,0v5.17a.647.647,0,0,1-.647.647" transform="translate(-12.272 -5.1)"/>
        <path id="Trazado_874300" data-name="Trazado 874300" d="M35.388,31.706a.647.647,0,0,1-.647-.647V27.046a.647.647,0,1,1,1.294,0v4.013a.647.647,0,0,1-.647.647" transform="translate(-12.272 -9.325)"/>
        <path id="Trazado_874301" data-name="Trazado 874301" d="M36.075,24.311H30.26a1.94,1.94,0,1,1,0-3.881h5.815a1.94,1.94,0,0,1,0,3.881" transform="translate(-10.004 -7.217)" fill="#fff"/>
        <path id="Trazado_874302" data-name="Trazado 874302" d="M33.09,43.073l.184-.62-.188.619c-2.225-.661-4.326-1.286-4.326-2.916s2.1-2.255,4.326-2.917c1.831-.543,4.105-1.219,4.105-2.092s-2.274-1.548-4.1-2.091a.647.647,0,1,1,.369-1.24c2.584.767,5.026,1.492,5.026,3.331s-2.442,2.563-5.026,3.331c-1.358.4-3.405,1.012-3.405,1.678s2.047,1.273,3.4,1.676Z" transform="translate(-10.159 -11.229)"/>
        <path id="Trazado_874303" data-name="Trazado 874303" d="M31.088,54.119a.647.647,0,0,1-.647-.647c0-1.309,1.649-1.8,3.244-2.273,1.054-.312,2.817-.836,2.817-1.328s-1.763-1.015-2.817-1.328a.647.647,0,1,1,.369-1.24c1.839.547,3.742,1.111,3.742,2.568s-1.9,2.022-3.742,2.568c-.693.206-2.318.689-2.318,1.032a.647.647,0,0,1-.647.647" transform="translate(-10.753 -16.7)"/>
        <path id="Trazado_874304" data-name="Trazado 874304" d="M32.422,31.179a.652.652,0,0,1-.184-.027,16.987,16.987,0,0,1-4.71-1.874,2.767,2.767,0,0,1-1.182-2.232.647.647,0,1,1,1.294,0,1.486,1.486,0,0,0,.651,1.187,16.394,16.394,0,0,0,4.317,1.679.647.647,0,0,1-.184,1.267" transform="translate(-9.306 -9.325)"/>
        <path id="Trazado_874305" data-name="Trazado 874305" d="M34.681,45.645a1.94,1.94,0,0,1-1.94-1.94V26.731a1.94,1.94,0,1,1,3.881,0V43.705a1.94,1.94,0,0,1-1.94,1.94" transform="translate(-11.565 -8.757)" fill="#fff"/>
        <rect id="Rect치ngulo_401317" data-name="Rect치ngulo 401317" width="1.294" height="20.737" transform="translate(22.469 17.017)"/>
        <path id="Trazado_874306" data-name="Trazado 874306" d="M31.308,42.231a1.941,1.941,0,0,1-.734-3.737c.734-.3,1.561-.546,2.359-.783a23.077,23.077,0,0,0,2.668-.9,1.941,1.941,0,0,1,1.6,3.535,25.462,25.462,0,0,1-3.163,1.088c-.744.221-1.444.429-2,.656a1.929,1.929,0,0,1-.733.145" transform="translate(-10.373 -12.941)" fill="#fff"/>
        <path id="Trazado_874307" data-name="Trazado 874307" d="M29.408,42.284a.647.647,0,0,1-.647-.647c0-1.63,2.1-2.255,4.326-2.917,1.832-.544,4.106-1.219,4.106-2.092a.647.647,0,0,1,1.294,0c0,1.838-2.442,2.563-5.026,3.33-1.359.4-3.406,1.013-3.406,1.678a.647.647,0,0,1-.647.647" transform="translate(-10.159 -12.71)"/>
        <path id="Trazado_874308" data-name="Trazado 874308" d="M26.993,26.289a.647.647,0,0,1-.647-.647,3.22,3.22,0,0,1,3.216-3.217l8.143,0a.647.647,0,1,1,0,1.294l-8.144,0a1.925,1.925,0,0,0-1.922,1.923.647.647,0,0,1-.647.647" transform="translate(-9.306 -7.921)"/>
        <path id="Trazado_874309" data-name="Trazado 874309" d="M30.381,56.591a1.94,1.94,0,0,1-1.94-1.94c0-2.275,2.409-2.99,4.168-3.513.477-.141.914-.271,1.314-.412a1.94,1.94,0,1,1,1.3,3.657c-.459.163-.961.314-1.465.464a15.512,15.512,0,0,0-1.572.525,1.94,1.94,0,0,1-1.8,1.22" transform="translate(-10.046 -17.879)" fill="#fff"/>
        <path id="Trazado_874310" data-name="Trazado 874310" d="M31.088,55.183a.647.647,0,0,1-.647-.647c0-1.309,1.649-1.8,3.244-2.273,1.054-.312,2.817-.836,2.817-1.328a.647.647,0,1,1,1.294,0c0,1.457-1.9,2.022-3.742,2.568-.693.206-2.318.689-2.318,1.032a.647.647,0,0,1-.647.647" transform="translate(-10.753 -17.764)"/>
        <path id="Trazado_874311" data-name="Trazado 874311" d="M34.114,13.176A2.985,2.985,0,1,1,37.1,10.191a2.989,2.989,0,0,1-2.985,2.985m0-4.676a1.691,1.691,0,1,0,1.691,1.691A1.694,1.694,0,0,0,34.114,8.5" transform="translate(-10.996 -2.546)"/>
      </g>
    </g>
  </g>
</svg>
