<svg xmlns="http://www.w3.org/2000/svg" xmlns:xlink="http://www.w3.org/1999/xlink" width="80" height="80" viewBox="0 0 80 80">
  <defs>
    <clipPath id="clip-path">
      <rect id="Rectángulo_401321" data-name="Rectángulo 401321" width="53.84" height="48.193" fill="none"/>
    </clipPath>
  </defs>
  <g id="_19" data-name="19" transform="translate(-1150 -815)">
    <g id="Grupo_1099162" data-name="Grupo 1099162" transform="translate(621 294)">
      <circle id="Elipse_11515" data-name="Elipse 11515" cx="40" cy="40" r="40" transform="translate(529 521)" fill="#f1c12c"/>
    </g>
    <g id="Grupo_1099170" data-name="Grupo 1099170" transform="translate(1163 831)">
      <g id="Grupo_1099169" data-name="Grupo 1099169" clip-path="url(#clip-path)">
        <path id="Trazado_874323" data-name="Trazado 874323" d="M5.261,60.5a.729.729,0,0,1-.606-1.133l5.865-8.784a.729.729,0,1,1,1.212.809L5.868,60.172a.728.728,0,0,1-.607.324" transform="translate(-1.229 -13.628)"/>
        <path id="Trazado_874324" data-name="Trazado 874324" d="M14.123,57.214a2.186,2.186,0,0,1-2.15-1.8L10.42,46.68a2.187,2.187,0,0,1,4.306-.766l1.552,8.73a2.189,2.189,0,0,1-2.155,2.57" transform="translate(-2.817 -11.962)" fill="#fff"/>
        <path id="Trazado_874325" data-name="Trazado 874325" d="M15.545,50.768a.729.729,0,0,1-.711-.574l-3.9-17.849a.727.727,0,0,1-.017-.155L10.891,18.2a3.968,3.968,0,0,1,7.265-2.21.729.729,0,1,1-1.21.812,2.511,2.511,0,0,0-4.6,1.4l.023,13.91,3.886,17.773a.729.729,0,0,1-.557.867.714.714,0,0,1-.156.017" transform="translate(-2.953 -3.859)"/>
        <path id="Trazado_874326" data-name="Trazado 874326" d="M22.165,54.571a.729.729,0,0,1-.729-.729V29.624a.729.729,0,1,1,1.458,0V53.842a.729.729,0,0,1-.729.729" transform="translate(-5.813 -7.836)"/>
        <path id="Trazado_874327" data-name="Trazado 874327" d="M38.284,16.173a3.6,3.6,0,1,0,3.6-3.6,3.6,3.6,0,0,0-3.6,3.6" transform="translate(-10.382 -3.41)" fill="#fff"/>
        <path id="Trazado_874328" data-name="Trazado 874328" d="M41.07,21.144a5.786,5.786,0,1,1,5.785-5.786,5.792,5.792,0,0,1-5.785,5.786m0-7.2a1.413,1.413,0,1,0,1.412,1.412,1.414,1.414,0,0,0-1.412-1.412" transform="translate(-9.569 -2.596)" fill="#fff"/>
        <path id="Trazado_874329" data-name="Trazado 874329" d="M38.284,16.173a3.6,3.6,0,1,0,3.6-3.6,3.6,3.6,0,0,0-3.6,3.6" transform="translate(-10.382 -3.41)" fill="#fff"/>
        <path id="Trazado_874330" data-name="Trazado 874330" d="M41.613,20.229A4.328,4.328,0,1,1,45.94,15.9a4.333,4.333,0,0,1-4.328,4.328m0-7.2a2.87,2.87,0,1,0,2.87,2.87,2.873,2.873,0,0,0-2.87-2.87" transform="translate(-10.111 -3.138)"/>
        <path id="Trazado_874331" data-name="Trazado 874331" d="M14.725,8.656a4.328,4.328,0,1,1,4.328-4.328,4.333,4.333,0,0,1-4.328,4.328m0-7.2a2.87,2.87,0,1,0,2.87,2.87,2.874,2.874,0,0,0-2.87-2.87" transform="translate(-2.819)"/>
        <path id="Trazado_874332" data-name="Trazado 874332" d="M38.948,55.574a11.491,11.491,0,0,1,0-22.981.729.729,0,0,1,0,1.458A10.033,10.033,0,1,0,48.98,44.083a.729.729,0,1,1,1.458,0A11.5,11.5,0,0,1,38.948,55.574" transform="translate(-7.446 -8.839)"/>
        <path id="Trazado_874333" data-name="Trazado 874333" d="M57.738,56.077A2.185,2.185,0,0,1,55.853,55l-5.224-8.854H42.415a4.315,4.315,0,0,1-4.232-3.5L36.077,31.67a2.186,2.186,0,0,1,4.294-.824l2.1,10.928h9.41a2.185,2.185,0,0,1,1.883,1.076l5.859,9.929a2.188,2.188,0,0,1-1.881,3.3" transform="translate(-9.773 -7.884)" fill="#fff"/>
        <path id="Trazado_874334" data-name="Trazado 874334" d="M46.171,33.55,45.414,29.6a3.366,3.366,0,0,0-3.5-2.8,3.239,3.239,0,0,0-2.9,3.838l2.106,10.98a2.123,2.123,0,0,0,2.085,1.723h9.462l5.859,9.929" transform="translate(-10.565 -7.265)" fill="#fff"/>
        <path id="Trazado_874335" data-name="Trazado 874335" d="M58.258,53.73a.727.727,0,0,1-.628-.359L51.982,43.8H42.936a2.855,2.855,0,0,1-2.8-2.314L38.03,30.506a3.969,3.969,0,0,1,3.552-4.7,4.109,4.109,0,0,1,4.277,3.388l.757,3.95a.728.728,0,1,1-1.431.274l-.758-3.949a2.639,2.639,0,0,0-2.715-2.211,2.512,2.512,0,0,0-2.251,2.975l2.106,10.98a1.4,1.4,0,0,0,1.369,1.131H52.4a.73.73,0,0,1,.628.359l5.858,9.929a.729.729,0,0,1-.257,1,.717.717,0,0,1-.37.1" transform="translate(-10.294 -6.994)"/>
        <path id="Trazado_874336" data-name="Trazado 874336" d="M64.845,55.466a.729.729,0,0,1-.65-.4L57.912,42.752a1.447,1.447,0,0,0-1.3-.793H49.626a.729.729,0,0,1,0-1.458h6.991a2.9,2.9,0,0,1,2.594,1.588l6.283,12.316a.729.729,0,0,1-.649,1.06" transform="translate(-13.26 -10.983)"/>
        <line id="Línea_597" data-name="Línea 597" x1="9.209" transform="translate(35.606 26.279)" fill="#fff"/>
        <path id="Trazado_874337" data-name="Trazado 874337" d="M57.792,36.515H48.584a.729.729,0,0,1,0-1.458h9.208a.729.729,0,0,1,0,1.458" transform="translate(-12.977 -9.507)"/>
        <path id="Trazado_874338" data-name="Trazado 874338" d="M28.683,30.087H18.8a2.186,2.186,0,0,1-1.662-.765l-2.713-3.173a2.187,2.187,0,0,1,3.324-2.842l2.057,2.407h8.873a2.186,2.186,0,0,1,0,4.373" transform="translate(-3.77 -6.113)" fill="#fff"/>
        <path id="Trazado_874339" data-name="Trazado 874339" d="M28.969,28.872H19.089a.728.728,0,0,1-.554-.255l-3.4-3.977a.729.729,0,0,1,1.108-.947l3.182,3.722h9.545a.729.729,0,1,1,0,1.458" transform="translate(-4.057 -6.356)"/>
        <line id="Línea_598" data-name="Línea 598" x1="6.486" transform="translate(18.427 17.819)" fill="#fff"/>
        <path id="Trazado_874340" data-name="Trazado 874340" d="M31.5,24.908H25.013a.729.729,0,1,1,0-1.458H31.5a.729.729,0,0,1,0,1.458" transform="translate(-6.585 -6.359)"/>
        <line id="Línea_599" data-name="Línea 599" x2="4.137" y2="5.664" transform="translate(14.289 12.156)" fill="#fff"/>
        <path id="Trazado_874341" data-name="Trazado 874341" d="M23.473,22.8a.728.728,0,0,1-.59-.3l-4.137-5.664a.729.729,0,0,1,1.177-.859l4.138,5.663a.729.729,0,0,1-.588,1.159" transform="translate(-5.045 -4.252)"/>
        <path id="Trazado_874342" data-name="Trazado 874342" d="M.728,55.441a.72.72,0,0,1-.322-.076.729.729,0,0,1-.331-.976L8.036,38.278a.728.728,0,0,1,1.307.644L1.382,55.035a.727.727,0,0,1-.654.406" transform="translate(0 -10.27)"/>
        <path id="Trazado_874343" data-name="Trazado 874343" d="M61.983,57.475a3.239,3.239,0,1,0,3.24-3.24,3.24,3.24,0,0,0-3.24,3.24" transform="translate(-16.809 -14.708)" fill="#fff"/>
        <path id="Trazado_874344" data-name="Trazado 874344" d="M64.409,62.086a5.426,5.426,0,1,1,5.426-5.426,5.432,5.432,0,0,1-5.426,5.426m0-6.478a1.053,1.053,0,1,0,1.053,1.052,1.054,1.054,0,0,0-1.053-1.052" transform="translate(-15.995 -13.894)" fill="#fff"/>
        <path id="Trazado_874345" data-name="Trazado 874345" d="M64.951,61.171A3.968,3.968,0,1,1,68.92,57.2a3.973,3.973,0,0,1-3.968,3.968m0-6.478a2.51,2.51,0,1,0,2.511,2.51,2.514,2.514,0,0,0-2.511-2.51" transform="translate(-16.538 -14.436)"/>
      </g>
    </g>
  </g>
</svg>
