<svg xmlns="http://www.w3.org/2000/svg" xmlns:xlink="http://www.w3.org/1999/xlink" width="94" height="94" viewBox="0 0 94 94">
  <defs>
    <clipPath id="clip-path">
      <rect id="Rectángulo_401335" data-name="Rectángulo 401335" width="56.571" height="58.33" fill="none"/>
    </clipPath>
  </defs>
  <g id="_24" data-name="24" transform="translate(-910 -2198)">
    <g id="Grupo_1099182" data-name="Grupo 1099182" transform="translate(-280.333 1799)">
      <path id="Trazado_873077" data-name="Trazado 873077" d="M47,0A47,47,0,1,1,0,47,47,47,0,0,1,47,0Z" transform="translate(1190.333 399)" fill="#95dbb3"/>
    </g>
    <g id="Grupo_1099190" data-name="Grupo 1099190" transform="translate(929 2216)">
      <g id="Grupo_1099189" data-name="Grupo 1099189" transform="translate(0 0)" clip-path="url(#clip-path)">
        <path id="Trazado_874376" data-name="Trazado 874376" d="M61.036,26.285H59.278V9.517a3.609,3.609,0,0,0-4.827-3.4L37.481,12.207l-.594-1.655L53.856,4.465a5.367,5.367,0,0,1,7.179,5.052Z" transform="translate(-4.465 -0.502)"/>
        <path id="Trazado_874377" data-name="Trazado 874377" d="M30.066,3c7.1,0,12.855,3.689,12.855,8.24s-5.756,8.24-12.855,8.24-12.855-3.689-12.855-8.24S22.966,3,30.066,3" transform="translate(-2.083 -0.363)" fill="#fff"/>
        <path id="Trazado_874378" data-name="Trazado 874378" d="M29.7,21.754c-8.687,0-15.492-4.778-15.492-10.877S21.016,0,29.7,0,45.195,4.778,45.195,10.877,38.39,21.754,29.7,21.754m0-16.481c-6.022,0-10.218,2.953-10.218,5.6s4.2,5.6,10.218,5.6,10.218-2.953,10.218-5.6-4.2-5.6-10.218-5.6" transform="translate(-1.72 0)" fill="#fff"/>
        <path id="Trazado_874379" data-name="Trazado 874379" d="M29.945,20.239c-7.572,0-13.734-4.091-13.734-9.119S22.373,2,29.945,2s13.734,4.091,13.734,9.119-6.162,9.119-13.734,9.119m0-16.481c-6.6,0-11.976,3.3-11.976,7.361s5.372,7.361,11.976,7.361,11.976-3.3,11.976-7.361S36.549,3.758,29.945,3.758" transform="translate(-1.962 -0.242)"/>
        <path id="Trazado_874380" data-name="Trazado 874380" d="M26.306,11.313a4.909,4.909,0,0,1-1.284-.167,3.958,3.958,0,0,1-1.1-.48,2.8,2.8,0,0,1-.839-.808.879.879,0,1,1,1.468-.967,1.059,1.059,0,0,0,.319.294,2.238,2.238,0,0,0,.616.263,3.265,3.265,0,0,0,1.646,0,2.239,2.239,0,0,0,.615-.263,1.071,1.071,0,0,0,.321-.3.879.879,0,1,1,1.468.967,2.8,2.8,0,0,1-.839.808,3.942,3.942,0,0,1-1.1.48,4.891,4.891,0,0,1-1.282.167" transform="translate(-2.776 -1.029)"/>
        <path id="Trazado_874381" data-name="Trazado 874381" d="M36.437,11.313a4.909,4.909,0,0,1-1.284-.167,3.935,3.935,0,0,1-1.1-.481,2.794,2.794,0,0,1-.839-.807.879.879,0,1,1,1.468-.967A1.059,1.059,0,0,0,35,9.186a2.226,2.226,0,0,0,.616.263,3.265,3.265,0,0,0,1.646,0,2.272,2.272,0,0,0,.617-.264,1.059,1.059,0,0,0,.319-.294.879.879,0,1,1,1.468.967,2.8,2.8,0,0,1-.839.808,3.947,3.947,0,0,1-1.1.48,4.886,4.886,0,0,1-1.282.167" transform="translate(-4.002 -1.029)"/>
        <path id="Trazado_874382" data-name="Trazado 874382" d="M26.306,16.807a4.909,4.909,0,0,1-1.284-.167,3.977,3.977,0,0,1-1.1-.479,2.807,2.807,0,0,1-.84-.809.879.879,0,1,1,1.468-.967,1.065,1.065,0,0,0,.32.3,2.246,2.246,0,0,0,.615.262,3.265,3.265,0,0,0,1.646,0,2.248,2.248,0,0,0,.617-.264,1.071,1.071,0,0,0,.319-.294.879.879,0,1,1,1.468.967,2.811,2.811,0,0,1-.839.808,3.964,3.964,0,0,1-1.1.48,4.891,4.891,0,0,1-1.282.167" transform="translate(-2.776 -1.694)"/>
        <path id="Trazado_874383" data-name="Trazado 874383" d="M36.437,16.807a4.909,4.909,0,0,1-1.284-.167,3.989,3.989,0,0,1-1.1-.479,2.814,2.814,0,0,1-.839-.809.879.879,0,1,1,1.468-.967,1.065,1.065,0,0,0,.32.3,2.235,2.235,0,0,0,.615.262,3.265,3.265,0,0,0,1.646,0,2.29,2.29,0,0,0,.618-.264,1.064,1.064,0,0,0,.318-.294.879.879,0,1,1,1.468.967,2.807,2.807,0,0,1-.839.808,3.986,3.986,0,0,1-1.106.48,4.886,4.886,0,0,1-1.282.167" transform="translate(-4.002 -1.694)"/>
        <path id="Trazado_874384" data-name="Trazado 874384" d="M55.692,39.365H.879A.879.879,0,0,1,0,38.486V33.212a.879.879,0,0,1,.879-.879H55.692a.879.879,0,0,1,.879.879v5.274a.879.879,0,0,1-.879.879M1.758,37.607H54.813V34.091H1.758Z" transform="translate(0 -3.914)"/>
        <path id="Trazado_874385" data-name="Trazado 874385" d="M12.677,29.092H.879a.879.879,0,0,1,0-1.758h11.8a.879.879,0,1,1,0,1.758" transform="translate(0 -3.309)"/>
        <path id="Trazado_874386" data-name="Trazado 874386" d="M13.751,65.085a4.64,4.64,0,1,1,4.64-4.641,4.646,4.646,0,0,1-4.64,4.641m0-7.522a2.882,2.882,0,1,0,2.882,2.881,2.885,2.885,0,0,0-2.882-2.881" transform="translate(-1.103 -6.754)"/>
        <path id="Trazado_874387" data-name="Trazado 874387" d="M49.333,65.085a4.64,4.64,0,1,1,4.639-4.641,4.646,4.646,0,0,1-4.639,4.641m0-7.522a2.882,2.882,0,1,0,2.881,2.881,2.885,2.885,0,0,0-2.881-2.881" transform="translate(-5.409 -6.754)"/>
        <rect id="Rectángulo_401330" data-name="Rectángulo 401330" width="1.758" height="12.72" transform="translate(11.769 37.208)"/>
        <rect id="Rectángulo_401331" data-name="Rectángulo 401331" width="1.758" height="12.72" transform="translate(43.045 37.208)"/>
        <rect id="Rectángulo_401332" data-name="Rectángulo 401332" width="18.479" height="1.758" transform="translate(19.046 52.811)"/>
        <rect id="Rectángulo_401333" data-name="Rectángulo 401333" width="26.002" height="1.758" transform="translate(15.285 43.129)"/>
        <rect id="Rectángulo_401334" data-name="Rectángulo 401334" width="1.758" height="20.242" transform="translate(54.813 38.088)"/>
      </g>
    </g>
  </g>
</svg>
