<svg xmlns="http://www.w3.org/2000/svg" xmlns:xlink="http://www.w3.org/1999/xlink" width="94" height="94" viewBox="0 0 94 94">
  <defs>
    <clipPath id="clip-path">
      <rect id="Rectángulo_401336" data-name="Rectángulo 401336" width="54.132" height="53.711" fill="none"/>
    </clipPath>
  </defs>
  <g id="_25" data-name="25" transform="translate(-1225 -2198)">
    <g id="Grupo_1099184" data-name="Grupo 1099184" transform="translate(34.667 1799)">
      <path id="Trazado_873077" data-name="Trazado 873077" d="M47,0A47,47,0,1,1,0,47,47,47,0,0,1,47,0Z" transform="translate(1190.333 399)" fill="#95dbb3"/>
    </g>
    <g id="Grupo_1099195" data-name="Grupo 1099195" transform="translate(1245 2218.145)">
      <g id="Grupo_1099194" data-name="Grupo 1099194" transform="translate(0 0)" clip-path="url(#clip-path)">
        <path id="Trazado_874388" data-name="Trazado 874388" d="M33.937,49.288H.786A.786.786,0,0,1,0,48.5V3.176A.786.786,0,0,1,.786,2.39H33.937a.786.786,0,0,1,.786.786V48.5a.786.786,0,0,1-.786.786M1.571,47.717h31.58V3.961H1.571Z" transform="translate(0 -0.512)"/>
        <path id="Trazado_874389" data-name="Trazado 874389" d="M9.515,20.542H9.489a.788.788,0,0,1-.643-.372L6.4,16.21a.786.786,0,1,1,1.336-.827l1.826,2.953L13.5,12.8a.786.786,0,0,1,1.28.912l-4.628,6.5a.785.785,0,0,1-.64.33" transform="translate(-1.346 -2.673)"/>
        <path id="Trazado_874390" data-name="Trazado 874390" d="M9.515,49.69H9.489a.788.788,0,0,1-.643-.372L6.4,45.358a.786.786,0,1,1,1.336-.827l1.826,2.953L13.5,41.95a.786.786,0,0,1,1.28.911l-4.628,6.5a.785.785,0,0,1-.64.33" transform="translate(-1.346 -8.919)"/>
        <path id="Trazado_874391" data-name="Trazado 874391" d="M9.515,35.117H9.489a.788.788,0,0,1-.643-.372L6.4,30.784a.786.786,0,1,1,1.336-.827l1.826,2.953L13.5,27.376a.786.786,0,0,1,1.28.911l-4.628,6.5a.785.785,0,0,1-.64.33" transform="translate(-1.346 -5.796)"/>
        <path id="Trazado_874392" data-name="Trazado 874392" d="M22.107,49.555a5.722,5.722,0,0,1,5.722-5.722H38.155a10.673,10.673,0,0,0,0-21.346v-5.2a18.358,18.358,0,0,1,0,36.717" transform="translate(-4.738 -3.705)" fill="#fff"/>
        <path id="Trazado_874393" data-name="Trazado 874393" d="M37.513,55.721V51.007a16,16,0,0,0,2.357-31.83V19.7a13.031,13.031,0,0,1-2.357,25.846H27.187a3.369,3.369,0,0,0-3.365,3.365H19.108a8.088,8.088,0,0,1,8.079-8.079H37.513a8.316,8.316,0,1,0,0-16.631,2.357,2.357,0,0,1-2.357-2.357v-5.2a2.357,2.357,0,0,1,2.357-2.357,20.715,20.715,0,1,1,0,41.431" transform="translate(-4.095 -3.062)" fill="#fff"/>
        <path id="Trazado_874394" data-name="Trazado 874394" d="M37.941,54.578V53.007a17.573,17.573,0,0,0,.786-35.128v3.635a11.459,11.459,0,0,1-.786,22.89H27.616a4.943,4.943,0,0,0-4.936,4.936H21.108a6.515,6.515,0,0,1,6.508-6.508H37.941a9.887,9.887,0,0,0,0-19.774.786.786,0,0,1-.786-.786v-5.2a.785.785,0,0,1,.786-.786,19.144,19.144,0,0,1,0,38.288" transform="translate(-4.524 -3.491)"/>
        <path id="Trazado_874395" data-name="Trazado 874395" d="M33.337,47.361H21.894a.786.786,0,1,1,0-1.571H33.337a.786.786,0,0,1,0,1.571" transform="translate(-4.524 -9.813)"/>
        <path id="Trazado_874396" data-name="Trazado 874396" d="M53.806,62.8H15.5a2.357,2.357,0,0,1,0-4.714H53.806a2.357,2.357,0,0,1,0,4.714" transform="translate(-2.816 -12.447)" fill="#fff"/>
        <path id="Trazado_874397" data-name="Trazado 874397" d="M54.234,61.652H15.926a.786.786,0,0,1,0-1.571H54.234a.786.786,0,0,1,0,1.571" transform="translate(-3.245 -12.876)"/>
        <path id="Trazado_874398" data-name="Trazado 874398" d="M53.806,67.076H15.5a2.357,2.357,0,1,1,0-4.714H53.806a2.357,2.357,0,0,1,0,4.714" transform="translate(-2.816 -13.365)" fill="#fff"/>
        <path id="Trazado_874399" data-name="Trazado 874399" d="M54.234,65.933H15.926a.786.786,0,1,1,0-1.571H54.234a.786.786,0,1,1,0,1.571" transform="translate(-3.245 -13.793)"/>
        <path id="Trazado_874400" data-name="Trazado 874400" d="M40.862,29.144l-8.357-8.357L50.012,3.279a.952.952,0,0,1,1.347,0l7.01,7.01a.954.954,0,0,1,0,1.347Z" transform="translate(-6.966 -0.643)" fill="#fff"/>
        <path id="Trazado_874401" data-name="Trazado 874401" d="M40.22,30.858a2.35,2.35,0,0,1-1.667-.691L30.2,21.81a2.356,2.356,0,0,1,0-3.333L47.7.97a3.309,3.309,0,0,1,4.68,0l7.01,7.009a3.315,3.315,0,0,1,0,4.682L41.887,30.167a2.35,2.35,0,0,1-1.666.691M35.2,20.143l5.024,5.024L55.067,10.32,50.044,5.3Z" transform="translate(-6.323 0)" fill="#fff"/>
        <path id="Trazado_874402" data-name="Trazado 874402" d="M40.648,29.715a.78.78,0,0,1-.555-.23l-8.357-8.357a.785.785,0,0,1,0-1.111L49.243,2.509a1.739,1.739,0,0,1,2.458,0l7.01,7.01a1.741,1.741,0,0,1,0,2.459L41.2,29.485a.78.78,0,0,1-.555.23M33.4,20.572l7.246,7.246L57.6,10.867a.168.168,0,0,0,0-.237L50.59,3.62a.168.168,0,0,0-.236,0Z" transform="translate(-6.752 -0.429)"/>
        <path id="Trazado_874403" data-name="Trazado 874403" d="M35.985,35.943a.784.784,0,0,1-.555-.23l-3.838-3.838A.786.786,0,1,1,32.7,30.764L36.54,34.6a.786.786,0,0,1-.555,1.341" transform="translate(-6.721 -6.544)"/>
        <path id="Trazado_874404" data-name="Trazado 874404" d="M64.787,6.384a.784.784,0,0,1-.555-.23l-2.8-2.8a.786.786,0,0,1,1.112-1.111l2.8,2.8a.786.786,0,0,1-.555,1.341" transform="translate(-13.117 -0.432)"/>
        <path id="Trazado_874405" data-name="Trazado 874405" d="M56.191,24.419a2.836,2.836,0,1,1-2.836-2.836,2.836,2.836,0,0,1,2.836,2.836" transform="translate(-10.827 -4.625)" fill="#fff"/>
        <path id="Trazado_874406" data-name="Trazado 874406" d="M52.711,28.97A5.193,5.193,0,1,1,57.9,23.776a5.2,5.2,0,0,1-5.193,5.193m0-5.673a.479.479,0,1,0,.479.479.479.479,0,0,0-.479-.479" transform="translate(-10.184 -3.982)" fill="#fff"/>
        <path id="Trazado_874407" data-name="Trazado 874407" d="M56.191,24.419a2.836,2.836,0,1,1-2.836-2.836,2.836,2.836,0,0,1,2.836,2.836" transform="translate(-10.827 -4.625)" fill="#fff"/>
        <path id="Trazado_874408" data-name="Trazado 874408" d="M53.14,27.827a3.622,3.622,0,1,1,3.622-3.622,3.626,3.626,0,0,1-3.622,3.622m0-5.673a2.051,2.051,0,1,0,2.051,2.051,2.053,2.053,0,0,0-2.051-2.051" transform="translate(-10.612 -4.411)"/>
      </g>
    </g>
  </g>
</svg>
