<svg xmlns="http://www.w3.org/2000/svg" width="295" height="257" viewBox="0 0 295 257">
  <g id="_26" data-name="26" transform="translate(-705 -2971)">
    <rect id="Rectángulo_401337" data-name="Rectángulo 401337" width="295" height="257" rx="12" transform="translate(705 2971)" fill="#fae9b5"/>
    <g id="Grupo_1099198" data-name="Grupo 1099198" transform="translate(727 3042.785)">
      <g id="Grupo_1099199" data-name="Grupo 1099199">
        <path id="Trazado_874409" data-name="Trazado 874409" d="M188.892,162.69h0a7.778,7.778,0,0,1,7.778-7.778H208.4a25.526,25.526,0,0,0,25.526-25.526h0A25.526,25.526,0,0,0,208.4,103.86H178.454a5.683,5.683,0,1,1,0-11.366h9.39a8.841,8.841,0,0,0,0-17.682H77.5a10.418,10.418,0,0,0,0,20.836h.324a6.816,6.816,0,0,1,0,13.633H37.556a10.418,10.418,0,1,0,0,20.836H60.309a11.188,11.188,0,1,1,0,22.376H34.93a34.93,34.93,0,0,0,0,69.861H235.5a25.943,25.943,0,1,0,0-51.887H196.67a7.778,7.778,0,0,1-7.778-7.778" transform="translate(0 -43.858)" fill="#f1c12c"/>
        <path id="Trazado_874410" data-name="Trazado 874410" d="M101.084,85.742l-2.122-.314a10.263,10.263,0,0,0-.887-3.572l.013-.038,1.725-1.294a.872.872,0,0,0,.18-1.216l-2.222-3a.863.863,0,0,0-1.207-.181L94.7,77.376a7.41,7.41,0,0,0-3.26-1.874l0-.01.485-2.092a.8.8,0,0,0-.7-.93l-3.648-.539c-.472-.07-.676.247-.746.718l-.3,2.123a10.461,10.461,0,0,0-3.606.882l-.055-.015-1.3-1.726a.878.878,0,0,0-1.22-.181l-3,2.222a.863.863,0,0,0-.182,1.207l1.264,1.8a8.642,8.642,0,0,0-1.86,3.193l-.01,0-2.118-.338a.669.669,0,0,0-.841.624l-.546,3.685a.725.725,0,0,0,.614.913l2.122.313a10.037,10.037,0,0,0,.893,3.53l-.01.017-1.723,1.284a.867.867,0,0,0-.18,1.211l2.223,3a.863.863,0,0,0,1.207.18L79.983,95.3a10.848,10.848,0,0,0,3.181,1.856l0,.01-.286,2.127c-.07.471.077.925.548.995l3.7.548a.928.928,0,0,0,1.02-.762l.11-2.157a6.427,6.427,0,0,0,3.286-.935v.007l1.481,1.758a.992.992,0,0,0,1.309.2l3.047-2.214a.863.863,0,0,0,.2-1.2l-1.242-1.854a7.427,7.427,0,0,0,1.882-3.246h.01l2.1.434a.9.9,0,0,0,1.082-.623l.542-3.66c.07-.472-.4-.768-.869-.838M84.515,90.914q-.072-.045-.143-.093-.215-.146-.415-.312-.1-.083-.2-.17c-.063-.058-.126-.118-.186-.179l-.09-.093a5.377,5.377,0,0,1-.473-.575,5.31,5.31,0,0,1-.39-.635c-.046-.088-.09-.178-.131-.269a5.373,5.373,0,0,1,1.9-6.678q.161-.108.329-.2l.113-.062q.114-.061.23-.117a5.3,5.3,0,0,1,.724-.285c.083-.026.167-.05.251-.072A5.384,5.384,0,0,1,90.506,82c.071.05.14.1.208.156q.153.12.3.252.1.088.186.179l.09.093c.059.062.117.126.173.192q.126.146.242.3c.051.069.1.139.149.211a5.448,5.448,0,0,1,.326.556q.058.115.112.233c.035.079.069.158.1.239q.071.181.129.368a5.4,5.4,0,0,1-.181,3.685c-.035.082-.071.162-.109.241q-.086.179-.184.349-.065.114-.136.223c-.031.049-.064.1-.1.144-.066.1-.134.189-.206.279-.053.068-.109.134-.165.2s-.091.1-.139.152-.083.088-.127.131l-.093.09c-.062.059-.127.117-.191.173l-.1.083q-.1.081-.2.158l-.1.075q-.21.149-.435.277l-.113.063c-.076.041-.153.08-.23.117s-.157.073-.236.106l-.12.049c-.081.032-.162.062-.244.089a5.382,5.382,0,0,1-4.432-.454q-.079-.047-.157-.1" transform="translate(-25.674 -106.163)" fill="#95dbb3"/>
        <path id="Trazado_874411" data-name="Trazado 874411" d="M134.25,44.182,133,44.338a6.02,6.02,0,0,0-1.063-1.88v-.024l.772-1a.513.513,0,0,0-.089-.716L130.9,39.369a.507.507,0,0,0-.711.087l-.859,1a4.348,4.348,0,0,0-2.137-.547V39.9l-.054-1.259a.467.467,0,0,0-.541-.416l-2.146.268c-.278.035-.343.246-.309.523l.162,1.248a6.132,6.132,0,0,0-1.9,1.065h-.034l-1.008-.771a.515.515,0,0,0-.718.09l-1.348,1.727a.507.507,0,0,0,.087.711l1,.819a5.061,5.061,0,0,0-.55,2.1h-.006l-1.25.142a.392.392,0,0,0-.377.485l.27,2.169a.425.425,0,0,0,.49.42l1.249-.156a5.882,5.882,0,0,0,1.059,1.855l0,.011-.773,1a.508.508,0,0,0,.089.713l1.727,1.345a.506.506,0,0,0,.711-.088l.811-1a6.356,6.356,0,0,0,2.089.549v.006l.172,1.247c.035.278.189.511.466.476l2.176-.271a.544.544,0,0,0,.457-.591l-.277-1.237a3.775,3.775,0,0,0,1.711-1.044v0l1.113.761a.583.583,0,0,0,.771-.094l1.374-1.73a.506.506,0,0,0-.073-.712l-.993-.853a4.36,4.36,0,0,0,.554-2.13h.005l1.256-.084c.277-.035.548-.245.514-.523l-.269-2.154c-.034-.278-.345-.372-.622-.337M125.7,49.708l-.1-.03c-.1-.033-.191-.07-.284-.111-.046-.021-.092-.043-.137-.065s-.09-.047-.134-.072l-.065-.038a3.205,3.205,0,0,1-.358-.25,3.159,3.159,0,0,1-.32-.3c-.04-.043-.079-.086-.116-.131a3.152,3.152,0,0,1,.027-4.074q.074-.086.154-.167l.054-.053c.036-.035.074-.07.112-.1a3.172,3.172,0,0,1,.365-.275c.043-.028.086-.054.131-.08a3.16,3.16,0,0,1,2.653-.233c.048.017.1.036.142.055.07.03.139.062.207.1.045.023.089.047.133.072l.065.038c.043.026.086.053.128.082q.094.063.184.133c.04.031.079.062.117.1a3.135,3.135,0,0,1,.272.263c.034.037.067.075.1.114s.064.079.095.119c.046.061.089.123.131.187a3.162,3.162,0,0,1,.476,2.111q-.01.078-.024.154-.021.114-.049.226-.019.074-.042.148c-.01.033-.021.065-.032.1-.022.064-.046.128-.072.19-.02.047-.041.093-.062.139s-.036.072-.054.108-.034.063-.051.094l-.038.065c-.026.043-.053.086-.081.127l-.043.062c-.029.041-.059.082-.09.122l-.047.059c-.064.078-.132.153-.2.225l-.054.053c-.036.035-.074.07-.112.1s-.077.066-.117.1l-.06.046c-.041.031-.082.06-.124.089a3.16,3.16,0,0,1-2.576.439l-.1-.029" transform="translate(-52.144 -86.409)" fill="#77af8f"/>
        <path id="Trazado_874412" data-name="Trazado 874412" d="M96.345,378.548,95.1,378.7a6.025,6.025,0,0,0-1.063-1.88V376.8l.772-1a.513.513,0,0,0-.089-.716l-1.727-1.346a.507.507,0,0,0-.711.087l-.859,1a4.347,4.347,0,0,0-2.137-.547v-.006l-.055-1.259a.466.466,0,0,0-.541-.415l-2.146.268c-.278.035-.343.246-.309.523l.162,1.248a6.131,6.131,0,0,0-1.9,1.065h-.034l-1.008-.771a.515.515,0,0,0-.718.09l-1.348,1.727a.507.507,0,0,0,.087.711l1,.819a5.061,5.061,0,0,0-.55,2.1h-.006l-1.25.142a.392.392,0,0,0-.377.485l.27,2.169a.425.425,0,0,0,.49.42l1.249-.156a5.883,5.883,0,0,0,1.059,1.855l0,.012-.773,1a.508.508,0,0,0,.089.712l1.727,1.345a.506.506,0,0,0,.711-.088l.811-1a6.356,6.356,0,0,0,2.089.549v.006l.172,1.247c.035.278.189.511.466.476l2.176-.271a.544.544,0,0,0,.457-.591L91,387.445a3.775,3.775,0,0,0,1.711-1.044v0l1.113.761a.583.583,0,0,0,.771-.094l1.374-1.73a.506.506,0,0,0-.073-.712l-.993-.853a4.359,4.359,0,0,0,.554-2.13h.005l1.256-.084c.278-.035.549-.245.514-.522l-.269-2.154c-.034-.278-.345-.372-.622-.337m-8.553,5.526-.1-.03c-.1-.033-.191-.07-.284-.111-.046-.021-.092-.043-.137-.065s-.09-.047-.134-.072l-.065-.038a3.2,3.2,0,0,1-.358-.25,3.161,3.161,0,0,1-.32-.3c-.04-.043-.079-.086-.116-.131A3.153,3.153,0,0,1,86.31,379q.074-.086.154-.167l.054-.053c.036-.035.074-.07.112-.1a3.169,3.169,0,0,1,.365-.275c.043-.028.086-.054.131-.08a3.16,3.16,0,0,1,2.653-.232c.048.017.1.036.142.055.07.03.139.062.207.1.045.023.089.047.133.072l.065.038q.065.039.128.082.094.063.184.133c.04.031.079.063.117.1a3.137,3.137,0,0,1,.272.263c.034.037.067.075.1.114s.064.079.095.119c.046.061.089.123.131.187a3.162,3.162,0,0,1,.476,2.111q-.01.078-.024.154-.02.114-.049.226c-.013.05-.027.1-.042.148-.01.033-.021.065-.032.1-.022.064-.046.128-.072.19-.02.047-.041.093-.062.139s-.036.072-.054.108-.034.063-.051.094l-.038.065c-.026.043-.053.086-.081.128l-.043.062c-.029.041-.059.082-.09.122l-.047.059c-.064.078-.132.153-.2.225l-.054.053c-.036.035-.074.07-.112.1s-.077.066-.117.1l-.06.046c-.041.031-.082.06-.124.089a3.16,3.16,0,0,1-2.576.439l-.1-.029" transform="translate(-47.064 -218.424)" fill="#fff"/>
        <path id="Trazado_874413" data-name="Trazado 874413" d="M195.673,201.187l-.771.1a3.724,3.724,0,0,0-.657-1.161v-.015l.477-.619a.316.316,0,0,0-.055-.442l-1.067-.832a.313.313,0,0,0-.439.054l-.531.618a2.687,2.687,0,0,0-1.32-.338v0l-.034-.778a.288.288,0,0,0-.334-.257l-1.327.166c-.171.021-.212.151-.191.323l.1.771a3.789,3.789,0,0,0-1.174.658h-.021l-.622-.476a.318.318,0,0,0-.444.055l-.833,1.068a.312.312,0,0,0,.054.439l.616.506a3.128,3.128,0,0,0-.34,1.3h0l-.773.087a.243.243,0,0,0-.233.3l.167,1.34a.263.263,0,0,0,.3.259l.772-.1a3.637,3.637,0,0,0,.655,1.147l0,.007-.477.616a.314.314,0,0,0,.055.44l1.067.831a.313.313,0,0,0,.439-.055l.5-.617a3.918,3.918,0,0,0,1.291.339v0l.106.77c.022.172.117.316.288.294l1.344-.167a.337.337,0,0,0,.283-.365l-.171-.764a2.335,2.335,0,0,0,1.057-.645v0l.688.47a.359.359,0,0,0,.476-.058l.849-1.069a.313.313,0,0,0-.046-.44l-.614-.527a2.691,2.691,0,0,0,.343-1.316h0l.776-.052c.171-.022.339-.151.317-.323l-.166-1.331c-.022-.172-.213-.23-.385-.209m-5.285,3.414-.059-.019c-.06-.02-.118-.043-.175-.069l-.084-.041c-.028-.014-.055-.029-.083-.045l-.04-.024a1.911,1.911,0,0,1-.221-.155,1.932,1.932,0,0,1-.2-.184c-.024-.026-.048-.053-.072-.081a1.947,1.947,0,0,1,.017-2.517c.03-.036.062-.07.095-.1l.034-.033c.022-.022.046-.043.069-.063a1.931,1.931,0,0,1,.225-.17l.081-.049a1.95,1.95,0,0,1,1.639-.144c.029.011.059.022.088.034s.086.038.128.059l.082.044.04.024c.027.016.053.033.079.05s.077.053.114.082l.072.059a1.945,1.945,0,0,1,.168.163c.022.023.042.046.062.07s.039.049.058.074.055.076.081.116a1.954,1.954,0,0,1,.294,1.3c0,.032-.009.063-.014.095-.009.047-.019.094-.031.14-.008.031-.017.061-.026.091s-.013.04-.02.06c-.014.04-.029.079-.045.118s-.025.058-.038.086-.022.045-.034.067-.021.039-.032.058l-.024.041c-.016.026-.033.053-.05.079l-.026.039c-.018.025-.036.05-.056.075l-.029.036q-.059.073-.125.139l-.034.033c-.022.022-.046.043-.069.063s-.048.041-.072.06l-.037.029c-.025.019-.05.037-.077.055a1.952,1.952,0,0,1-1.592.272l-.064-.018" transform="translate(-108.891 -115.784)" fill="#fff"/>
        <path id="Trazado_874414" data-name="Trazado 874414" d="M8.954,235.681H32.744s-1.274-7.55-6.191-4.772c0,0-.748-6.733-7.161-6.84s-5.237,7.7-5.237,7.7-5.38-1.145-5.2,3.917" transform="translate(-5.246 -131.356)" fill="#95dbb3"/>
        <path id="Trazado_874415" data-name="Trazado 874415" d="M562.9,282.856h16.539s-.886-5.249-4.3-3.317c0,0-.52-4.681-4.978-4.755s-3.641,5.35-3.641,5.35-3.74-.8-3.616,2.723" transform="translate(-329.989 -161.086)" fill="#c6d4f7"/>
        <path id="Trazado_874416" data-name="Trazado 874416" d="M544.076,76.06s-1.528-10.094-7.475-9.985-6.111,9.876-6.111,9.876-1.8-8.839-8.076-7.748-6.929,9.331-6.929,9.331c-5.184-2.4-6.44,3.442-6.44,3.442H550.1c-.538-4.865-6.026-4.915-6.026-4.915" transform="translate(-298.417 -100.754)" fill="#77af8f"/>
        <rect id="Rectángulo_401339" data-name="Rectángulo 401339" width="3.745" height="16.948" transform="translate(223.573 153.071)" fill="#fff"/>
        <rect id="Rectángulo_401340" data-name="Rectángulo 401340" width="3.745" height="21.891" transform="translate(231.441 148.128)" fill="#fff"/>
        <rect id="Rectángulo_401341" data-name="Rectángulo 401341" width="3.745" height="28.147" transform="translate(239.31 141.872)" fill="#fff"/>
        <path id="Trazado_874417" data-name="Trazado 874417" d="M544.858,344.429s8.122-1.293,13.219-10.5" transform="translate(-319.412 -195.762)" fill="none" stroke="#2e2854" stroke-linecap="round" stroke-linejoin="round" stroke-width="1.2"/>
        <path id="Trazado_874418" data-name="Trazado 874418" d="M572.567,334.733l1.754-.8v1.934" transform="translate(-335.656 -195.762)" fill="none" stroke="#2e2854" stroke-linecap="round" stroke-linejoin="round" stroke-width="1.2"/>
        <line id="Línea_605" data-name="Línea 605" x2="25.676" transform="translate(220.476 170.019)" fill="none" stroke="#2e2854" stroke-linecap="round" stroke-linejoin="round" stroke-width="1.2"/>
        <path id="Trazado_874419" data-name="Trazado 874419" d="M440.979,172.421v-.062a5.191,5.191,0,0,1,5.106-5.506c3.045,0,5.044,2.491,5.044,5.444v.062c0,2.984-2.03,5.506-5.106,5.506a5.143,5.143,0,0,1-5.044-5.444m7.413,0v-.062c0-1.723-.984-3.137-2.368-3.137-1.446,0-2.307,1.415-2.307,3.076v.062c0,1.753.984,3.137,2.368,3.137,1.446,0,2.307-1.415,2.307-3.076m-3.875,14.364L458.634,167.5a1.172,1.172,0,0,1,1.046-.554,1.208,1.208,0,0,1,1.231,1.2,1.392,1.392,0,0,1-.277.8l-14.118,19.285a1.26,1.26,0,0,1-1.076.554,1.182,1.182,0,0,1-1.2-1.2,1.39,1.39,0,0,1,.277-.8m9.473-3.353v-.062a5.09,5.09,0,1,1,10.15-.061v.061a5.209,5.209,0,0,1-5.106,5.506,5.144,5.144,0,0,1-5.044-5.444m7.413,0v-.062c0-1.722-.984-3.137-2.368-3.137-1.446,0-2.307,1.415-2.307,3.076v.061c0,1.754.984,3.138,2.368,3.138,1.446,0,2.307-1.415,2.307-3.076" transform="translate(-258.515 -97.815)" fill="#fff"/>
        <path id="Trazado_874420" data-name="Trazado 874420" d="M216.192,99.738V99.7a2.93,2.93,0,0,1,2.882-3.107,2.892,2.892,0,0,1,2.847,3.073V99.7a2.873,2.873,0,1,1-5.729.035m4.184,0V99.7c0-.972-.556-1.771-1.337-1.771-.816,0-1.3.8-1.3,1.736V99.7c0,.989.556,1.771,1.337,1.771.816,0,1.3-.8,1.3-1.736m-2.188,8.107,7.968-10.885a.662.662,0,0,1,.59-.312.682.682,0,0,1,.694.677.786.786,0,0,1-.156.451l-7.968,10.885a.711.711,0,0,1-.607.312.667.667,0,0,1-.677-.677.785.785,0,0,1,.156-.451m5.347-1.892v-.035a2.873,2.873,0,1,1,5.729-.035v.035a2.94,2.94,0,0,1-2.882,3.107,2.9,2.9,0,0,1-2.847-3.073m4.184,0v-.035c0-.972-.556-1.771-1.336-1.771-.816,0-1.3.8-1.3,1.736v.035c0,.99.555,1.771,1.336,1.771.816,0,1.3-.8,1.3-1.736" transform="translate(-126.738 -56.627)" fill="#fff"/>
        <path id="Trazado_874421" data-name="Trazado 874421" d="M31.457,323.559v11.084a1.046,1.046,0,0,1-1.052,1.033,1.018,1.018,0,0,1-1.033-1.033V325.4l-.751.432a.941.941,0,0,1-.526.15,1.053,1.053,0,0,1-.545-1.935l2.31-1.371c.019-.019.056-.019.075-.038.038,0,.056-.037.094-.056.037,0,.075-.019.113-.019a.114.114,0,0,1,.075-.019.315.315,0,0,1,.131-.019h.207a.111.111,0,0,0,.075.019.2.2,0,0,1,.113.037.113.113,0,0,1,.075.019c.056.037.075.056.113.056a.25.25,0,0,0,.075.056c.019.019.056.038.075.056.038.019.056.057.075.075a.267.267,0,0,1,.056.075l.075.075.019.038c0,.019.019.038.019.056.019.038.038.056.038.094.019.037.019.075.038.094a.809.809,0,0,0,.019.094.158.158,0,0,0,.038.132Zm2.761,10.689,4.6-10.952a1.042,1.042,0,0,1,1.372-.545,1.014,1.014,0,0,1,.526,1.334l-4.6,10.971a1.042,1.042,0,0,1-.958.62.9.9,0,0,1-.376-.075,1.015,1.015,0,0,1-.564-1.353m15.667.395a1.019,1.019,0,0,1-1.033,1.033H42.163a1.012,1.012,0,0,1-.77-.338,1.039,1.039,0,0,1,.056-1.466l5.561-5.034a2.356,2.356,0,0,0,.789-1.8,2.434,2.434,0,0,0-.62-1.634,2.384,2.384,0,0,0-1.8-.789,2.468,2.468,0,0,0-1.634.62l-.582.526a1.022,1.022,0,0,1-1.466-.075,1.039,1.039,0,0,1,.075-1.465l.582-.526a4.438,4.438,0,0,1,3.025-1.165,4.523,4.523,0,0,1,3.344,1.484,4.435,4.435,0,0,1,1.165,3.024,4.523,4.523,0,0,1-1.484,3.344l-3.55,3.212h4a1.035,1.035,0,0,1,1.033,1.052" transform="translate(-15.857 -189.074)" fill="#fff"/>
        <path id="Trazado_874422" data-name="Trazado 874422" d="M259.2,74.172s-1.2,14.675-4.837,24.055c0,0,21.4,17.008,65.895,2.241A57.091,57.091,0,0,1,313.7,71.856C314.29,55.285,313.41,36.7,292.97,36.7s-31.589,7.726-32.958,26.8Z" transform="translate(-149.114 -21.516)" fill="#12263f"/>
        <path id="Trazado_874423" data-name="Trazado 874423" d="M320.968,170.408l-.734,12.861,11.363.44-.263-13.985Z" transform="translate(-187.731 -99.497)" fill="#fae9b5"/>
        <path id="Trazado_874424" data-name="Trazado 874424" d="M321.411,174.736a18.777,18.777,0,0,0,10.7-.445l-.086-4.566-10.367.684Z" transform="translate(-188.421 -99.497)" fill="#d15046"/>
        <path id="Trazado_874425" data-name="Trazado 874425" d="M277.2,83.714s.666,4.921,2.078,4.694c1.833-.293,1.149-4.694,1.149-4.694s21.712,6.846,30.709-12.029a19.242,19.242,0,0,0,11.051,11.956s-.244,3.4,1.027,3.5,1.026-3.668,1.026-3.668,7.545,30.479-22.622,31.491c-26.228.88-24.418-31.247-24.418-31.247" transform="translate(-162.486 -42.024)" fill="#fae9b5"/>
        <path id="Trazado_874426" data-name="Trazado 874426" d="M258.509,97.186s-8.924-6.821-12.445,1.98c-3.983,9.958,8.435,16.308,14.4,9.169,0,0-1.247-3.007-1.955-11.149" transform="translate(-143.797 -55.496)" fill="#fae9b5"/>
        <path id="Trazado_874427" data-name="Trazado 874427" d="M254.36,110.2s1.017-3.987,4.837-4.271" transform="translate(-149.113 -62.099)" fill="none" stroke="#2e2854" stroke-linecap="round" stroke-linejoin="round" stroke-width="1.2"/>
        <path id="Trazado_874428" data-name="Trazado 874428" d="M261.777,112.789a7.231,7.231,0,0,1-2.26-4.37" transform="translate(-152.137 -63.558)" fill="none" stroke="#2e2854" stroke-linecap="round" stroke-linejoin="round" stroke-width="1.2"/>
        <path id="Trazado_874429" data-name="Trazado 874429" d="M389.955,97.05s3.13-4.254,6.455-.929.2,17.6-7.139,14.767c0,0,1.2-8.875.684-13.839" transform="translate(-228.202 -55.604)" fill="#fae9b5"/>
        <path id="Trazado_874430" data-name="Trazado 874430" d="M342.247,113.7a6.08,6.08,0,0,0,1.418,2.152c1.272.807,1.54,2.86-.7,2.421" transform="translate(-200.635 -66.654)" fill="none" stroke="#2e2854" stroke-linecap="round" stroke-linejoin="round" stroke-width="1.2"/>
        <path id="Trazado_874431" data-name="Trazado 874431" d="M326.569,137.882c1.913.858,5.117-1.311,7.781-.19" transform="translate(-191.445 -80.526)" fill="none" stroke="#2e2854" stroke-linecap="round" stroke-linejoin="round" stroke-width="1.2"/>
        <path id="Trazado_874432" data-name="Trazado 874432" d="M359.193,71.685a13.275,13.275,0,0,0,1.9,7.836" transform="translate(-210.545 -42.024)" fill="none" stroke="#2e2854" stroke-linecap="round" stroke-linejoin="round" stroke-width="1.2"/>
        <path id="Trazado_874433" data-name="Trazado 874433" d="M317.125,113.7c0,.6-.293,1.092-.655,1.092s-.655-.489-.655-1.092.293-1.092.655-1.092.655.489.655,1.092" transform="translate(-185.14 -66.014)" fill="#2e2854"/>
        <path id="Trazado_874434" data-name="Trazado 874434" d="M370.518,114.056c0,.6-.293,1.092-.655,1.092s-.655-.489-.655-1.092.293-1.092.655-1.092.655.489.655,1.092" transform="translate(-216.441 -66.223)" fill="#2e2854"/>
        <path id="Trazado_874435" data-name="Trazado 874435" d="M306.091,108.755a17.168,17.168,0,0,1,7.169-.482" transform="translate(-179.44 -63.353)" fill="none" stroke="#2e2854" stroke-linecap="round" stroke-linejoin="round" stroke-width="1.2"/>
        <path id="Trazado_874436" data-name="Trazado 874436" d="M362.549,100.866s2.406-3.69,6.821,0" transform="translate(-212.537 -58.169)" fill="none" stroke="#2e2854" stroke-linecap="round" stroke-linejoin="round" stroke-width="1.2"/>
        <path id="Trazado_874437" data-name="Trazado 874437" d="M371.076,147.527a5.134,5.134,0,1,0-6.782,6.683,18.4,18.4,0,0,0,6.782-6.683" transform="translate(-211.747 -84.631)" fill="#fdf6df"/>
        <path id="Trazado_874438" data-name="Trazado 874438" d="M296.1,143.657a5.131,5.131,0,0,0-5.117,4.779,20.1,20.1,0,0,0,5.582,5.466,5.133,5.133,0,0,0-.465-10.245" transform="translate(-170.585 -84.216)" fill="#fdf6df"/>
        <path id="Trazado_874439" data-name="Trazado 874439" d="M155.706,307.361s-8.847,17.614,5.488,25.7l10.521-12.286-2.351-8.913Z" transform="translate(-89.697 -180.184)" fill="#e8614e"/>
        <path id="Trazado_874440" data-name="Trazado 874440" d="M163.346,359.693l2.317-2.705a30.76,30.76,0,0,1-8.986-4.2,15.511,15.511,0,0,0,6.67,6.9" transform="translate(-91.848 -206.816)" fill="#d15046"/>
        <path id="Trazado_874441" data-name="Trazado 874441" d="M540.691,243.9a7.211,7.211,0,0,0,2.519-2.9c.739-1.78,1.425-3.22,2.463-2.833,1.321.493.179,4.389-.515,6.135,0,0-2.754-.351-4.467-.4" transform="translate(-316.969 -139.582)" fill="#e8614e"/>
        <path id="Trazado_874442" data-name="Trazado 874442" d="M413.616,294.826a21.674,21.674,0,0,0,18.736,9.635c11.823-.089,23.735-11.912,29.467-26.6s5.285-21.988,9.942-24.63,4.96-2.265,9.124-4.885,2.877-4.613,1.075-3.538c0,0,1.747-1.936.873-2.743s-3.863,1.881-3.863,1.881-.071-.948-1.324-.41-5.057,2.351-9.154,2.127-10.233.067-12.763,6.695S443.223,286.9,431.9,279.708Z" transform="translate(-242.474 -141.817)" fill="#e8614e"/>
        <path id="Trazado_874443" data-name="Trazado 874443" d="M443.068,325.934c-9.021,4.194-18.391,1.344-22.881-.551a21.4,21.4,0,0,0,16.017,6.374c11.822-.089,23.735-11.912,29.467-26.6A172.1,172.1,0,0,0,471,288.474c-6.467,7.457-8.061,28.221-27.933,37.46" transform="translate(-246.326 -169.112)" fill="#d15046"/>
        <path id="Trazado_874444" data-name="Trazado 874444" d="M566.331,248.907a27.307,27.307,0,0,1-8.792,5.646" transform="translate(-326.846 -145.917)" fill="none" stroke="#2e2854" stroke-linecap="round" stroke-linejoin="round" stroke-width="1.2"/>
        <path id="Trazado_874445" data-name="Trazado 874445" d="M562.93,246.824c-.048,1.269-1.885,3.284-6.094,4.381" transform="translate(-326.434 -144.696)" fill="none" stroke="#2e2854" stroke-linecap="round" stroke-linejoin="round" stroke-width="1.2"/>
        <path id="Trazado_874446" data-name="Trazado 874446" d="M449.525,304.2a25.631,25.631,0,0,0,3.878.257c11.823-.089,23.735-11.912,29.467-26.6s5.285-21.989,9.942-24.63,4.96-2.265,9.124-4.885,2.877-4.613,1.075-3.538c0,0,1.747-1.937.873-2.743s-3.863,1.881-3.863,1.881-.071-.948-1.324-.41-5.057,2.351-9.154,2.127-10.233.067-12.763,6.695" transform="translate(-263.525 -141.817)" fill="none" stroke="#2e2854" stroke-linecap="round" stroke-linejoin="round" stroke-width="1.2"/>
        <path id="Trazado_874447" data-name="Trazado 874447" d="M270.8,228.828c-1.349-11.825-9.629-33.631-34.1-35.519l-10.047,3.723-14.063-3.772c-10.626.483-25.326,2.865-36.55,11.3a84.118,84.118,0,0,0-27,35.871s9.539,9,25.66,9.807l13.46,1.233-.451,47.043h67.6V259.549a20.594,20.594,0,0,0,3.208,6.755s14.885-9.083,20.706-16.607c0,0-6.9-7.523-8.419-20.868" transform="translate(-87.368 -113.295)" fill="#fff"/>
        <path id="Trazado_874448" data-name="Trazado 874448" d="M256.929,343.316c6.549-5.32,11.245-10.312,17.164-11.049s7.023-2.66,6.634-3.786c0,0-24.652,1.89-37.476,9.527l-.113,11.781c3.31-.866,9.3-2.821,13.792-6.474" transform="translate(-142.534 -192.566)" fill="#dadde6"/>
        <line id="Línea_606" data-name="Línea 606" x1="10.812" y2="18.81" transform="translate(87.326 118.129)" fill="none" stroke="#2e2854" stroke-linecap="round" stroke-linejoin="round" stroke-width="1.2"/>
        <path id="Trazado_874449" data-name="Trazado 874449" d="M405.863,288.529v57.434" transform="translate(-237.929 -169.144)" fill="none" stroke="#2e2854" stroke-linecap="round" stroke-linejoin="round" stroke-width="1.2"/>
        <path id="Trazado_874450" data-name="Trazado 874450" d="M316.481,193.483a88.608,88.608,0,0,0-13.853-.369l15.443,14.1,8.668-14.046a49.893,49.893,0,0,0-10.258.32" transform="translate(-177.41 -113.149)" fill="#fdf6df"/>
        <path id="Trazado_874451" data-name="Trazado 874451" d="M339.951,227.324s1.209,4.366,1.344,13.636" transform="translate(-199.289 -133.264)" fill="none" stroke="#2e2854" stroke-linecap="round" stroke-linejoin="round" stroke-width="1.2"/>
        <path id="Trazado_874452" data-name="Trazado 874452" d="M339.951,208.476a81.613,81.613,0,0,1,14.778,8.061s-.386-15.2-4.248-21.364" transform="translate(-199.289 -114.416)" fill="none" stroke="#2e2854" stroke-linecap="round" stroke-linejoin="round" stroke-width="1.2"/>
        <path id="Trazado_874453" data-name="Trazado 874453" d="M298.438,194.459a51.025,51.025,0,0,0,4.158,23.07,122.269,122.269,0,0,1,12.964-9.471" transform="translate(-174.898 -113.998)" fill="none" stroke="#2e2854" stroke-linecap="round" stroke-linejoin="round" stroke-width="1.2"/>
        <path id="Trazado_874454" data-name="Trazado 874454" d="M180.175,315.093c5.188-4.026,34.948-2.7,34.948-2.7,1.859-2.776,3.773-3.067,7.221-3.314s5.016-3.965,6.538-2.891-1.567,3.9-1.567,3.9,2.743.1,5.7.1,6.4-2.049,6.9-.873-1.478,2.15-1.478,2.15,1.612-.5,2.049.458-.781,2.017-.781,2.017a.846.846,0,0,1,.412.75c-.034,2.116-10.427,3.964-10.427,3.964a37.492,37.492,0,0,0-6.471,2.668s-29.31,19.544-47.581,12.289a23.172,23.172,0,0,1-2.841-1.348Z" transform="translate(-101.298 -179.382)" fill="#e8614e"/>
        <path id="Trazado_874455" data-name="Trazado 874455" d="M223.37,342.828c-13.2,1.7-28.459,8.921-38.862,9.393a29.63,29.63,0,0,1-10.419-1.38l-1.295,3.012a23.2,23.2,0,0,0,2.841,1.348c18.271,7.255,47.581-12.289,47.581-12.289l.152-.084" transform="translate(-101.298 -200.976)" fill="#d15046"/>
        <path id="Trazado_874456" data-name="Trazado 874456" d="M310.837,313.9s.627-.878,1.331-1.707,1.826-2.842,3.013-2.327-1.344,4.053-2.284,4.747Z" transform="translate(-182.222 -181.605)" fill="#e8614e"/>
        <path id="Trazado_874457" data-name="Trazado 874457" d="M319.361,319.212s-2.321,1.321-8.524,1.859" transform="translate(-182.222 -187.132)" fill="none" stroke="#2e2854" stroke-linecap="round" stroke-linejoin="round" stroke-width="1.2"/>
        <path id="Trazado_874458" data-name="Trazado 874458" d="M321.9,325.192s-2.156,2.205-8.9,2.205" transform="translate(-183.491 -190.637)" fill="none" stroke="#2e2854" stroke-linecap="round" stroke-linejoin="round" stroke-width="1.2"/>
        <path id="Trazado_874459" data-name="Trazado 874459" d="M215.123,312.392c1.859-2.776,3.773-3.068,7.221-3.314s5.016-3.966,6.538-2.891-1.567,3.9-1.567,3.9,2.743.1,5.7.1,6.4-2.049,6.9-.873-1.478,2.15-1.478,2.15,1.612-.5,2.049.458-.781,2.017-.781,2.017a.845.845,0,0,1,.411.75c-.034,2.116-10.427,3.963-10.427,3.963a37.467,37.467,0,0,0-6.471,2.668s-29.31,19.544-47.581,12.289a23.239,23.239,0,0,1-2.841-1.348" transform="translate(-101.298 -179.382)" fill="none" stroke="#2e2854" stroke-linecap="round" stroke-linejoin="round" stroke-width="1.2"/>
        <path id="Trazado_874460" data-name="Trazado 874460" d="M353.784,268.03a3.617,3.617,0,1,0,0,5.115,3.617,3.617,0,0,0,0-5.115" transform="translate(-203.779 -156.506)" fill="#ffc96a"/>
        <path id="Trazado_874461" data-name="Trazado 874461" d="M354.452,270.027a2.677,2.677,0,1,0,0,3.785A2.677,2.677,0,0,0,354.452,270.027Z" transform="translate(-205.112 -157.839)" fill="none" stroke="#2e2854" stroke-linecap="round" stroke-linejoin="round" stroke-width="1.2"/>
        <path id="Trazado_874462" data-name="Trazado 874462" d="M352.625,272.137a.191.191,0,0,1,.271,0l.07.069a1.628,1.628,0,0,1,.663-.316.239.239,0,0,1,.247.057.245.245,0,0,1,0,.35.253.253,0,0,1-.123.066,1.628,1.628,0,0,0-.464.187l.606.606c.6-.36,1-.372,1.336-.035a.915.915,0,0,1-.057,1.288l.19.189a.191.191,0,0,1,0,.271.2.2,0,0,1-.275,0l-.2-.2a1.934,1.934,0,0,1-.894.4.244.244,0,0,1-.237-.067.246.246,0,0,1,.139-.417,1.577,1.577,0,0,0,.679-.256l-.622-.622c-.581.341-.969.382-1.326.025a.9.9,0,0,1,.06-1.267l-.066-.066a.2.2,0,0,1,0-.275m.95,1.2-.559-.559c-.183.221-.177.43-.038.568s.275.155.6-.009m.689.189.574.574c.18-.224.19-.436.038-.587s-.294-.155-.612.013" transform="translate(-206.584 -159.384)" fill="#e69c35"/>
        <path id="Trazado_874463" data-name="Trazado 874463" d="M273.14,259.04a3.617,3.617,0,1,0,0,5.115,3.617,3.617,0,0,0,0-5.115" transform="translate(-156.503 -151.236)" fill="#ffc96a"/>
        <path id="Trazado_874464" data-name="Trazado 874464" d="M273.808,261.037a2.676,2.676,0,1,0,0,3.785A2.677,2.677,0,0,0,273.808,261.037Z" transform="translate(-157.836 -152.568)" fill="none" stroke="#2e2854" stroke-linecap="round" stroke-linejoin="round" stroke-width="1.2"/>
        <path id="Trazado_874465" data-name="Trazado 874465" d="M271.981,263.147a.191.191,0,0,1,.271,0l.07.07a1.628,1.628,0,0,1,.663-.316.239.239,0,0,1,.247.057.245.245,0,0,1,0,.35.253.253,0,0,1-.123.066,1.629,1.629,0,0,0-.464.187l.606.606c.6-.36,1-.372,1.336-.035a.915.915,0,0,1-.057,1.288l.189.19a.19.19,0,0,1,0,.271.194.194,0,0,1-.275,0l-.2-.2a1.934,1.934,0,0,1-.894.4.245.245,0,0,1-.237-.067.246.246,0,0,1,.139-.417,1.577,1.577,0,0,0,.679-.256l-.622-.622c-.581.341-.969.382-1.326.025a.9.9,0,0,1,.06-1.267l-.066-.066a.2.2,0,0,1,0-.275m.95,1.2-.559-.559c-.183.221-.177.429-.038.568s.275.155.6-.009m.689.19.574.574c.18-.224.19-.436.038-.587s-.294-.155-.612.013" transform="translate(-159.308 -154.113)" fill="#e69c35"/>
        <rect id="Rectángulo_401342" data-name="Rectángulo 401342" width="23.496" height="11.755" transform="translate(121.745 108.68)" fill="#76ad86"/>
        <path id="Trazado_874466" data-name="Trazado 874466" d="M297.055,262.659a2.821,2.821,0,0,1-2.821,2.821" transform="translate(-172.489 -153.979)" fill="none" stroke="#2e2854" stroke-linecap="round" stroke-linejoin="round" stroke-width="1.2"/>
        <path id="Trazado_874467" data-name="Trazado 874467" d="M344.2,262.659a2.821,2.821,0,0,0,2.822,2.821" transform="translate(-201.78 -153.979)" fill="none" stroke="#2e2854" stroke-linecap="round" stroke-linejoin="round" stroke-width="1.2"/>
        <path id="Trazado_874468" data-name="Trazado 874468" d="M297.055,287.072a2.821,2.821,0,0,0-2.821-2.821" transform="translate(-172.489 -166.636)" fill="none" stroke="#2e2854" stroke-linecap="round" stroke-linejoin="round" stroke-width="1.2"/>
        <path id="Trazado_874469" data-name="Trazado 874469" d="M344.2,287.072a2.821,2.821,0,0,1,2.822-2.821" transform="translate(-201.78 -166.636)" fill="none" stroke="#2e2854" stroke-linecap="round" stroke-linejoin="round" stroke-width="1.2"/>
        <path id="Trazado_874470" data-name="Trazado 874470" d="M321.119,271.74a3.616,3.616,0,1,0-3.616,3.616,3.616,3.616,0,0,0,3.616-3.616" transform="translate(-184.01 -157.182)" fill="#87c699"/>
        <path id="Trazado_874471" data-name="Trazado 874471" d="M304.463,275.579a.907.907,0,1,0-.907.907A.907.907,0,0,0,304.463,275.579Z" transform="translate(-177.422 -161.021)" fill="none" stroke="#2e2854" stroke-linecap="round" stroke-linejoin="round" stroke-width="1.2"/>
        <path id="Trazado_874472" data-name="Trazado 874472" d="M338.22,275.579a.907.907,0,1,1,.907.907A.907.907,0,0,1,338.22,275.579Z" transform="translate(-198.275 -161.021)" fill="none" stroke="#2e2854" stroke-linecap="round" stroke-linejoin="round" stroke-width="1.2"/>
        <rect id="Rectángulo_401343" data-name="Rectángulo 401343" width="11.755" height="23.496" transform="matrix(0.259, -0.966, 0.966, 0.259, 131.717, 123.739)" fill="#87c699"/>
        <path id="Trazado_874473" data-name="Trazado 874473" d="M327.377,273.376a2.821,2.821,0,0,1-3.455,1.995" transform="translate(-189.893 -160.261)" fill="none" stroke="#2e2854" stroke-linecap="round" stroke-linejoin="round" stroke-width="1.2"/>
        <path id="Trazado_874474" data-name="Trazado 874474" d="M373.814,284.543A2.822,2.822,0,0,0,375.809,288" transform="translate(-219.084 -166.808)" fill="none" stroke="#2e2854" stroke-linecap="round" stroke-linejoin="round" stroke-width="1.2"/>
        <path id="Trazado_874475" data-name="Trazado 874475" d="M322.093,295.922a2.821,2.821,0,0,0-2-3.455" transform="translate(-187.651 -171.453)" fill="none" stroke="#2e2854" stroke-linecap="round" stroke-linejoin="round" stroke-width="1.2"/>
        <path id="Trazado_874476" data-name="Trazado 874476" d="M366.6,309.022a2.821,2.821,0,0,1,3.455-1.995" transform="translate(-214.911 -179.932)" fill="none" stroke="#2e2854" stroke-linecap="round" stroke-linejoin="round" stroke-width="1.2"/>
        <path id="Trazado_874477" data-name="Trazado 874477" d="M347.8,288.492a3.616,3.616,0,1,0-4.429,2.557,3.616,3.616,0,0,0,4.429-2.557" transform="translate(-199.725 -166.454)" fill="#9ce6b1"/>
        <path id="Trazado_874478" data-name="Trazado 874478" d="M331.847,287.027a.907.907,0,1,0-1.111.641A.907.907,0,0,0,331.847,287.027Z" transform="translate(-193.493 -167.595)" fill="none" stroke="#2e2854" stroke-linecap="round" stroke-linejoin="round" stroke-width="1.2"/>
        <path id="Trazado_874479" data-name="Trazado 874479" d="M364.454,295.764a.907.907,0,1,1,.641,1.111A.907.907,0,0,1,364.454,295.764Z" transform="translate(-213.636 -172.992)" fill="none" stroke="#2e2854" stroke-linecap="round" stroke-linejoin="round" stroke-width="1.2"/>
        <path id="Trazado_874480" data-name="Trazado 874480" d="M281.512,296.3a3.617,3.617,0,1,0-3.617,3.617,3.617,3.617,0,0,0,3.617-3.617" transform="translate(-160.79 -171.578)" fill="#ffc96a"/>
        <circle id="Elipse_11516" data-name="Elipse 11516" cx="2.677" cy="2.677" r="2.677" transform="translate(114.428 122.043)" fill="none" stroke="#2e2854" stroke-linecap="round" stroke-linejoin="round" stroke-width="1.2"/>
        <path id="Trazado_874481" data-name="Trazado 874481" d="M281.139,296.749a.191.191,0,0,1,.192.192v.1a1.634,1.634,0,0,1,.692.246.239.239,0,0,1,.134.215.246.246,0,0,1-.25.245.254.254,0,0,1-.134-.041,1.626,1.626,0,0,0-.46-.2v.857c.679.17.969.442.969.92s-.384.817-.951.871v.268a.19.19,0,0,1-.192.192.194.194,0,0,1-.2-.192v-.276a1.935,1.935,0,0,1-.915-.349.247.247,0,0,1,.125-.46.241.241,0,0,1,.147.049,1.579,1.579,0,0,0,.661.3v-.88c-.652-.17-.955-.415-.955-.92a.9.9,0,0,1,.938-.853v-.094a.2.2,0,0,1,.2-.192m-.179,1.523v-.79c-.286.026-.429.178-.429.374s.085.3.429.415m.353.621v.813c.286-.031.442-.174.442-.389,0-.2-.1-.317-.442-.424" transform="translate(-164.09 -173.963)" fill="#e69c35"/>
        <path id="Trazado_874482" data-name="Trazado 874482" d="M312.379,287.342a3.617,3.617,0,1,0-3.617,3.617,3.617,3.617,0,0,0,3.617-3.617" transform="translate(-178.885 -166.328)" fill="#ffc96a"/>
        <circle id="Elipse_11517" data-name="Elipse 11517" cx="2.677" cy="2.677" r="2.677" transform="translate(127.2 118.337)" fill="none" stroke="#2e2854" stroke-linecap="round" stroke-linejoin="round" stroke-width="1.2"/>
        <path id="Trazado_874483" data-name="Trazado 874483" d="M312.006,287.794a.191.191,0,0,1,.192.192v.1a1.632,1.632,0,0,1,.692.246.239.239,0,0,1,.134.215.246.246,0,0,1-.25.245.254.254,0,0,1-.134-.04,1.626,1.626,0,0,0-.46-.2v.857c.679.17.969.442.969.92s-.384.817-.951.871v.268a.19.19,0,0,1-.192.192.194.194,0,0,1-.2-.192v-.276a1.935,1.935,0,0,1-.915-.349.247.247,0,1,1,.272-.41,1.579,1.579,0,0,0,.661.3v-.88c-.652-.17-.955-.415-.955-.92a.9.9,0,0,1,.938-.853v-.094a.2.2,0,0,1,.2-.192m-.179,1.523v-.79c-.285.026-.429.178-.429.374s.085.3.429.415m.353.621v.813c.286-.031.442-.174.442-.389,0-.2-.1-.317-.442-.424" transform="translate(-182.185 -168.713)" fill="#e69c35"/>
        <path id="Trazado_874484" data-name="Trazado 874484" d="M282.6,254.324a3.617,3.617,0,1,0-3.617,3.617,3.617,3.617,0,0,0,3.617-3.617" transform="translate(-161.426 -146.972)" fill="#ffc96a"/>
        <circle id="Elipse_11518" data-name="Elipse 11518" cx="2.677" cy="2.677" r="2.677" transform="translate(114.877 104.676)" fill="none" stroke="#2e2854" stroke-linecap="round" stroke-linejoin="round" stroke-width="1.2"/>
        <path id="Trazado_874485" data-name="Trazado 874485" d="M282.224,254.776a.191.191,0,0,1,.192.192v.1a1.632,1.632,0,0,1,.692.246.239.239,0,0,1,.134.215.246.246,0,0,1-.25.245.254.254,0,0,1-.134-.04,1.626,1.626,0,0,0-.46-.2v.857c.679.17.969.442.969.92s-.384.817-.951.871v.268a.19.19,0,0,1-.192.192.194.194,0,0,1-.2-.192v-.276a1.935,1.935,0,0,1-.915-.349.247.247,0,1,1,.272-.41,1.579,1.579,0,0,0,.661.3v-.88c-.652-.17-.955-.415-.955-.92a.9.9,0,0,1,.938-.853v-.094a.2.2,0,0,1,.2-.192m-.179,1.523v-.79c-.285.026-.429.178-.429.374s.085.3.429.415m.353.621v.813c.286-.031.442-.174.442-.389,0-.2-.1-.317-.442-.424" transform="translate(-164.726 -149.357)" fill="#e69c35"/>
        <path id="Trazado_874486" data-name="Trazado 874486" d="M345.042,305.324a3.617,3.617,0,1,0-5.115,0,3.617,3.617,0,0,0,5.115,0" transform="translate(-198.654 -175.37)" fill="#ffc96a"/>
        <path id="Trazado_874487" data-name="Trazado 874487" d="M345.71,305.992a2.677,2.677,0,1,0-3.785,0A2.677,2.677,0,0,0,345.71,305.992Z" transform="translate(-199.987 -176.703)" fill="none" stroke="#2e2854" stroke-linecap="round" stroke-linejoin="round" stroke-width="1.2"/>
        <path id="Trazado_874488" data-name="Trazado 874488" d="M346.64,304.165a.191.191,0,0,1,0,.271l-.07.069a1.629,1.629,0,0,1,.316.663.239.239,0,0,1-.057.247.245.245,0,0,1-.35,0,.256.256,0,0,1-.066-.123,1.629,1.629,0,0,0-.187-.464l-.606.606c.36.6.373,1,.035,1.336a.915.915,0,0,1-1.288-.057l-.19.19a.191.191,0,0,1-.271,0,.2.2,0,0,1,0-.275l.2-.2a1.929,1.929,0,0,1-.4-.894.244.244,0,0,1,.066-.237.246.246,0,0,1,.417.139,1.583,1.583,0,0,0,.256.679l.622-.622c-.341-.581-.382-.969-.026-1.326a.9.9,0,0,1,1.267.06l.066-.067a.2.2,0,0,1,.275,0m-1.2.95.559-.559c-.221-.183-.429-.177-.568-.038s-.155.275.009.6m-.19.689-.574.574c.224.18.436.19.587.039s.155-.294-.013-.613" transform="translate(-201.481 -178.175)" fill="#e69c35"/>
        <path id="Trazado_874489" data-name="Trazado 874489" d="M234.819,261.442s2.792,2.941,4.943.551-3.474-1.349-.679,1.2,4.383-.517,4.383-.517" transform="translate(-137.658 -152.8)" fill="none" stroke="#2e2854" stroke-linecap="round" stroke-linejoin="round" stroke-width="1.2"/>
        <path id="Trazado_874490" data-name="Trazado 874490" d="M375.4,255.622s3.923,1.027,4.491-2.138-3.663.685.055,1.375,3.452-2.75,3.452-2.75" transform="translate(-220.069 -147.793)" fill="none" stroke="#2e2854" stroke-linecap="round" stroke-linejoin="round" stroke-width="1.2"/>
        <path id="Trazado_874491" data-name="Trazado 874491" d="M258.574,221.88s2.788.176,3.3,2.669-1.1,2.964-1.648,2.053,2.831-1.608,4.014.43a4.1,4.1,0,0,1,0,3.981" transform="translate(-151.584 -130.073)" fill="none" stroke="#2e2854" stroke-linecap="round" stroke-linejoin="round" stroke-width="1.2"/>
        <path id="Trazado_874492" data-name="Trazado 874492" d="M361.168,337.047s-2.649.889-4.059-1.228-.1-3.16.751-2.523-2.014,2.558-3.879,1.116a4.1,4.1,0,0,1-1.5-3.687" transform="translate(-206.617 -193.882)" fill="none" stroke="#2e2854" stroke-linecap="round" stroke-linejoin="round" stroke-width="1.2"/>
        <path id="Trazado_874493" data-name="Trazado 874493" d="M532.651,206.327c-.47-3.023-4.87-2.788-5.743-4.333s1.982-1.646,3.728-2.519,1.982-4.131-.638-5.374a5.4,5.4,0,0,1-2.9-3.871,12,12,0,0,0-4.619,6.713c.839,1.323.546,2.853.933,4.817a6.172,6.172,0,0,1-.293,3.068,12.013,12.013,0,0,0,7.587,6.649c1.1-1.724,2.235-3.268,1.943-5.149" transform="translate(-306.294 -111.519)" fill="#5f9e82"/>
        <path id="Trazado_874494" data-name="Trazado 874494" d="M558.454,190.772c-1.243.571-3.191.84-3.292,1.982s.581,3.56,2.138,3.392,1.289-1.881,2.632-1.915c1.034-.026,2.767,1.879,4.936,2.1a12.008,12.008,0,0,0-5.442-7.366,1.927,1.927,0,0,1-.972,1.809" transform="translate(-325.447 -110.776)" fill="#5f9e82"/>
        <path id="Trazado_874495" data-name="Trazado 874495" d="M564.734,212.24c0-.046,0-.092,0-.138a5.57,5.57,0,0,1-1.929-.359,7.859,7.859,0,0,0-5.408-.2,4.819,4.819,0,0,0-2.73,6.213c.842,2.1,3.487,2.3,4.916,4.333a11.972,11.972,0,0,0,5.154-9.848" transform="translate(-324.958 -123.785)" fill="#5f9e82"/>
        <path id="Trazado_874496" data-name="Trazado 874496" d="M547.452,193.5c-1.523,1.187.314,2.217,1.276,1.254s-.261-2.044-1.276-1.254" transform="translate(-320.592 -113.275)" fill="#5f9e82"/>
        <path id="Trazado_874497" data-name="Trazado 874497" d="M554.634,239.79a3.043,3.043,0,0,0-4.544.819c.059,0,.118,0,.177,0a11.954,11.954,0,0,0,4.366-.824" transform="translate(-322.479 -140.171)" fill="#5f9e82"/>
        <circle id="Elipse_11519" data-name="Elipse 11519" cx="11.988" cy="11.988" r="11.988" transform="translate(215.8 76.466)" fill="none" stroke="#2e2854" stroke-linecap="round" stroke-linejoin="round" stroke-width="1.2"/>
        <path id="Trazado_874498" data-name="Trazado 874498" d="M554.881,164.305s-5.46-.979-3.358-9.174c0,0,6.9,4.018,3.358,9.174" transform="translate(-323.037 -90.942)" fill="#87c699"/>
        <path id="Trazado_874499" data-name="Trazado 874499" d="M556.9,190.589s6.458,1.885,9.347-4.094c0,0-5.874-2.284-9.347,4.094" transform="translate(-326.473 -109.096)" fill="#87c699"/>
        <path id="Trazado_874500" data-name="Trazado 874500" d="M538.5,192.8a7.682,7.682,0,0,1-.8-9.856s4.695,4.709.8,9.856" transform="translate(-314.369 -107.248)" fill="#87c699"/>
        <path id="Trazado_874501" data-name="Trazado 874501" d="M521.1,207.487s-.961,5.923,4.86,6.595c0,0-.451-6.293-4.86-6.595" transform="translate(-305.452 -121.635)" fill="#87c699"/>
        <path id="Trazado_874502" data-name="Trazado 874502" d="M517.269,178.442s-5.629-1.772-5.549.634c.115,3.433,13.5,4.568,18.148-1.075s.258-14.644.258-14.644" transform="translate(-299.985 -95.765)" fill="none" stroke="#2e2854" stroke-linecap="round" stroke-linejoin="round" stroke-width="1.2"/>
        <path id="Trazado_874503" data-name="Trazado 874503" d="M542.819,223.424s-2.958,6.672,1.879,8.956c0,0,3.7-5.357-1.879-8.956" transform="translate(-317.692 -130.978)" fill="#87c699"/>
        <path id="Trazado_874504" data-name="Trazado 874504" d="M559.234,215.867s-.83-5.755,4.947-6.729c0,0,.579,7-4.947,6.729" transform="translate(-327.816 -122.603)" fill="#87c699"/>
        <path id="Trazado_874505" data-name="Trazado 874505" d="M584.176,225.373s-.245,4.235,5.174,4.434a4.408,4.408,0,0,0-5.174-4.434" transform="translate(-342.46 -132.102)" fill="#87c699"/>
        <path id="Trazado_874506" data-name="Trazado 874506" d="M518.129,229.887s-2.15-8.917,6.113-10.806,17.949,3.69,20.824.73c1.523-1.567-.255-3.528-1.693-4.46" transform="translate(-303.595 -126.245)" fill="none" stroke="#2e2854" stroke-linecap="round" stroke-linejoin="round" stroke-width="1.2"/>
        <path id="Trazado_874507" data-name="Trazado 874507" d="M584.848,168.395s3.814-1.376,2.49-4.306-2.63,2.639.823,1.1,1.287-4.222,1.287-4.222" transform="translate(-342.855 -94.365)" fill="none" stroke="#2e2854" stroke-linecap="round" stroke-linejoin="round" stroke-width="1.2"/>
        <path id="Trazado_874508" data-name="Trazado 874508" d="M497.788,234.759s-3.98.776-3.119,3.874,3-2.206-.645-1.215-1.918,3.975-1.918,3.975" transform="translate(-288.247 -137.623)" fill="none" stroke="#2e2854" stroke-linecap="round" stroke-linejoin="round" stroke-width="1.2"/>
        <path id="Trazado_874509" data-name="Trazado 874509" d="M506.593,155.181s2.788.176,3.3,2.669-1.1,2.964-1.648,2.053,2.831-1.608,4.013.43a4.1,4.1,0,0,1,0,3.981" transform="translate(-296.98 -90.972)" fill="none" stroke="#2e2854" stroke-linecap="round" stroke-linejoin="round" stroke-width="1.2"/>
        <path id="Trazado_874510" data-name="Trazado 874510" d="M600.681,228.472s2.595-1.036,4.121,1,.278,3.149-.609,2.56,1.868-2.666,3.81-1.331a4.1,4.1,0,0,1,1.706,3.6" transform="translate(-352.137 -133.782)" fill="none" stroke="#2e2854" stroke-linecap="round" stroke-linejoin="round" stroke-width="1.2"/>
        <circle id="Elipse_11520" data-name="Elipse 11520" cx="2.124" cy="2.124" r="2.124" transform="translate(64.721 75.095)" fill="none" stroke="#2e2854" stroke-linecap="round" stroke-linejoin="round" stroke-width="1.2"/>
        <circle id="Elipse_11521" data-name="Elipse 11521" cx="2.124" cy="2.124" r="2.124" transform="translate(19.488 17.736)" fill="none" stroke="#2e2854" stroke-linecap="round" stroke-linejoin="round" stroke-width="1.2"/>
        <path id="Trazado_874514" data-name="Trazado 874514" d="M464.624,48.058a2.124,2.124,0,1,0-2.124,2.124A2.124,2.124,0,0,0,464.624,48.058Z" transform="translate(-269.886 -26.928)" fill="none" stroke="#2e2854" stroke-linecap="round" stroke-linejoin="round" stroke-width="1.2"/>
        <circle id="Elipse_11522" data-name="Elipse 11522" cx="2.124" cy="2.124" r="2.124" transform="translate(203.501 170.103)" fill="none" stroke="#2e2854" stroke-linecap="round" stroke-linejoin="round" stroke-width="1.2"/>
        <circle id="Elipse_11523" data-name="Elipse 11523" cx="2.124" cy="2.124" r="2.124" transform="translate(79.895 167.895)" fill="none" stroke="#2e2854" stroke-linecap="round" stroke-linejoin="round" stroke-width="1.2"/>
        <line id="Línea_607" data-name="Línea 607" transform="translate(60.473 173.476)" fill="none" stroke="#2e2854" stroke-linecap="round" stroke-linejoin="round" stroke-width="2"/>
        <line id="Línea_608" data-name="Línea 608" transform="translate(251.685 141.852)" fill="none" stroke="#2e2854" stroke-linecap="round" stroke-linejoin="round" stroke-width="2"/>
        <line id="Línea_609" data-name="Línea 609" transform="translate(261.44 112.495)" fill="none" stroke="#2e2854" stroke-linecap="round" stroke-linejoin="round" stroke-width="2"/>
        <line id="Línea_610" data-name="Línea 610" transform="translate(88.675 71.407)" fill="none" stroke="#2e2854" stroke-linecap="round" stroke-linejoin="round" stroke-width="2"/>
        <line id="Línea_611" data-name="Línea 611" transform="translate(76.857 8.731)" fill="none" stroke="#2e2854" stroke-linecap="round" stroke-linejoin="round" stroke-width="2"/>
        <line id="Línea_612" data-name="Línea 612" transform="translate(44.57 123.007)" fill="none" stroke="#2e2854" stroke-linecap="round" stroke-linejoin="round" stroke-width="2"/>
        <line id="Línea_613" data-name="Línea 613" transform="translate(186 170.019)" fill="none" stroke="#2e2854" stroke-linecap="round" stroke-linejoin="round" stroke-width="2"/>
        <line id="Línea_614" data-name="Línea 614" transform="translate(21.611 161.545)" fill="none" stroke="#2e2854" stroke-linecap="round" stroke-linejoin="round" stroke-width="2"/>
        <line id="Línea_615" data-name="Línea 615" transform="translate(186 39.247)" fill="none" stroke="#2e2854" stroke-linecap="round" stroke-linejoin="round" stroke-width="2"/>
        <line id="Línea_616" data-name="Línea 616" transform="translate(186 98.52)" fill="none" stroke="#2e2854" stroke-linecap="round" stroke-linejoin="round" stroke-width="2"/>
        <line id="Línea_617" data-name="Línea 617" transform="translate(64.72 55.89)" fill="none" stroke="#2e2854" stroke-linecap="round" stroke-linejoin="round" stroke-width="2"/>
        <line id="Línea_618" data-name="Línea 618" transform="translate(241.993 52.656)" fill="none" stroke="#2e2854" stroke-linecap="round" stroke-linejoin="round" stroke-width="2"/>
        <line id="Línea_619" data-name="Línea 619" transform="translate(15.601 67.592)" fill="none" stroke="#2e2854" stroke-linecap="round" stroke-linejoin="round" stroke-width="2"/>
      </g>
    </g>
  </g>
</svg>
