<svg xmlns="http://www.w3.org/2000/svg" xmlns:xlink="http://www.w3.org/1999/xlink" width="94" height="94" viewBox="0 0 94 94">
  <defs>
    <clipPath id="clip-path">
      <rect id="Rectángulo_401365" data-name="Rectángulo 401365" width="60.446" height="62.693" transform="translate(0 0)" fill="none"/>
    </clipPath>
  </defs>
  <g id="_28" data-name="28" transform="translate(-421 -3900)">
    <g id="Grupo_1099178" data-name="Grupo 1099178" transform="translate(-769.333 3501)">
      <path id="Trazado_873077" data-name="Trazado 873077" d="M47,0A47,47,0,1,1,0,47,47,47,0,0,1,47,0Z" transform="translate(1190.333 399)" fill="#95dbb3"/>
    </g>
    <g id="Grupo_1099217" data-name="Grupo 1099217" transform="translate(434.554 3913.637)">
      <g id="Grupo_1099216" data-name="Grupo 1099216" clip-path="url(#clip-path)">
        <path id="Trazado_874537" data-name="Trazado 874537" d="M36.489,54.9a1,1,0,0,1-.919-.605L30.3,42.051l-3.034,7.06a1,1,0,0,1-.918.6L3,49.732H3a1,1,0,0,1,0-2l22.691-.015,3.693-8.592a1,1,0,0,1,1.837,0l5.268,12.244,3.717-8.647a1,1,0,0,1,1.838,0L44.182,47.7l8.269.04a1,1,0,0,1-.005,2h0L43.517,49.7a1,1,0,0,1-.914-.605L41.124,45.65l-3.716,8.645a1,1,0,0,1-.919.605"/>
        <path id="Trazado_874538" data-name="Trazado 874538" d="M36.489,36.27a1,1,0,0,1-.919-.6L30.3,23.421l-3.034,7.06a1,1,0,0,1-.917.6l-9.429.016h0a1,1,0,0,1,0-2l8.772-.015L29.383,20.5a1,1,0,0,1,1.837,0l5.268,12.244,3.717-8.648a1,1,0,0,1,1.838,0l2.139,4.979,8.269.04a1,1,0,0,1-.005,2h0l-8.924-.043a1,1,0,0,1-.914-.6l-1.479-3.443-3.716,8.646a1,1,0,0,1-.919.6"/>
        <path id="Trazado_874539" data-name="Trazado 874539" d="M3,51.733a3,3,0,0,1-3-3c0-7.7,7.59-13.96,16.92-13.96a3,3,0,0,1,0,6C11,40.773,6,44.418,6,48.733a3,3,0,0,1-3,3" fill="#fff"/>
        <path id="Trazado_874540" data-name="Trazado 874540" d="M16.92,62.693C7.59,62.693,0,56.43,0,48.733a3,3,0,0,1,6,0c0,4.314,5,7.96,10.92,7.96a3,3,0,0,1,0,6" fill="#fff"/>
        <path id="Trazado_874541" data-name="Trazado 874541" d="M16.92,40.773a3,3,0,0,1-3-3V3a3,3,0,0,1,6,0V37.773a3,3,0,0,1-3,3" fill="#fff"/>
        <path id="Trazado_874542" data-name="Trazado 874542" d="M57.826,60.693H16.92a1,1,0,1,1,0-2H57.826a.621.621,0,0,0,.62-.621V15.581a.621.621,0,0,0-.62-.621H16.92a1,1,0,1,1,0-2H57.826a2.624,2.624,0,0,1,2.62,2.621V58.072a2.624,2.624,0,0,1-2.62,2.621"/>
        <path id="Trazado_874543" data-name="Trazado 874543" d="M16.92,60.693C8.693,60.693,2,55.328,2,48.733V13.96C2,7.772,7.784,2.654,15.455,2.057a2.235,2.235,0,0,1,1.707.6,2.363,2.363,0,0,1,.758,1.732v32.1a2.335,2.335,0,0,1-2.211,2.325C9.144,39.288,4,43.644,4,48.733c0,5.492,5.8,9.96,12.92,9.96a1,1,0,0,1,0,2M15.63,4.05h-.019C8.991,4.567,4,8.827,4,13.96V42.709a15.494,15.494,0,0,1,11.567-5.888.352.352,0,0,0,.353-.33V4.388a.362.362,0,0,0-.115-.264.258.258,0,0,0-.175-.074"/>
      </g>
    </g>
  </g>
</svg>
