<svg xmlns="http://www.w3.org/2000/svg" xmlns:xlink="http://www.w3.org/1999/xlink" width="94" height="94" viewBox="0 0 94 94">
  <defs>
    <clipPath id="clip-path">
      <rect id="Rectángulo_401366" data-name="Rectángulo 401366" width="60.219" height="52.676" fill="none"/>
    </clipPath>
  </defs>
  <g id="_29" data-name="29" transform="translate(-421 -4063)">
    <g id="Grupo_1099178" data-name="Grupo 1099178" transform="translate(-769.333 3664)">
      <path id="Trazado_873077" data-name="Trazado 873077" d="M47,0A47,47,0,1,1,0,47,47,47,0,0,1,47,0Z" transform="translate(1190.333 399)" fill="#95dbb3"/>
    </g>
    <g id="Grupo_1099219" data-name="Grupo 1099219" transform="translate(440.231 4086.654)">
      <g id="Grupo_1099218" data-name="Grupo 1099218" transform="translate(0 0)" clip-path="url(#clip-path)">
        <path id="Trazado_874544" data-name="Trazado 874544" d="M6.529,52.69H.851a.818.818,0,1,1,0-1.637H6.529a4.048,4.048,0,0,0,4.044-3.667l.754-7.682a2.673,2.673,0,0,1,2.092-2.355l3.27-.719a.986.986,0,0,0,.673-1.4L12.133,24.648a4.718,4.718,0,0,1-.457-2.4c.029-.453.047-.913.047-1.375A22.1,22.1,0,0,0,.419,1.61a.818.818,0,1,1,.8-1.428A23.735,23.735,0,0,1,13.36,20.873c0,.5-.019.992-.05,1.481a3.073,3.073,0,0,0,.291,1.569l5.228,10.582a2.624,2.624,0,0,1-1.788,3.725l-3.27.719a1.041,1.041,0,0,0-.814.917L12.2,47.546A5.679,5.679,0,0,1,6.529,52.69" transform="translate(0 -0.014)"/>
        <path id="Trazado_874545" data-name="Trazado 874545" d="M64.7,23.8a.816.816,0,0,1-.577-.238L59.3,18.774a4.946,4.946,0,0,0-3.508-1.446H47.813a.818.818,0,1,1,0-1.637h7.976a6.575,6.575,0,0,1,4.662,1.922l4.821,4.79a.818.818,0,0,1-.577,1.4" transform="translate(-8.533 -2.849)"/>
        <path id="Trazado_874546" data-name="Trazado 874546" d="M50.888,24.138A2.455,2.455,0,0,1,48.65,22.7l-3.742-8.259a2.455,2.455,0,1,1,4.473-2.026l3.741,8.258a2.457,2.457,0,0,1-2.234,3.469" transform="translate(-8.114 -1.992)" fill="#fff"/>
        <path id="Trazado_874547" data-name="Trazado 874547" d="M45.747,20.509H34.239a.817.817,0,0,1-.748-.487l-3.359-7.584h-8.29a.82.82,0,0,1-.752-.5l-4.638-10.8A.818.818,0,0,1,17.2,0H38.21a4.619,4.619,0,0,1,4.614,4.614v6.642l3.668,8.1a.818.818,0,0,1-.746,1.156M34.772,18.872h9.706l-3.217-7.1a.812.812,0,0,1-.073-.337V4.614A2.981,2.981,0,0,0,38.21,1.637H18.447L22.382,10.8h8.283a.819.819,0,0,1,.748.487Z" transform="translate(-2.975 0)"/>
        <path id="Trazado_874548" data-name="Trazado 874548" d="M34.48,25.973a2.455,2.455,0,0,1,0-4.911l14.107,0h0a2.455,2.455,0,0,1,0,4.911l-14.107,0Z" transform="translate(-5.815 -3.824)" fill="#fff"/>
        <path id="Trazado_874549" data-name="Trazado 874549" d="M41.915,43.886A3.44,3.44,0,0,1,38.487,41.1a3.356,3.356,0,0,1,.444-2.294,3.407,3.407,0,0,1-2.91-2.745,3.366,3.366,0,0,1,.439-2.287A3.41,3.41,0,0,1,33.5,31.027a3.36,3.36,0,0,1,.439-2.286,3.415,3.415,0,0,1-2.951-2.752A3.337,3.337,0,0,1,34.285,22.1l15.949,0a.818.818,0,0,1,0,1.637l-15.949,0a1.7,1.7,0,0,0-1.676,1.991,1.793,1.793,0,0,0,1.814,1.41h9.061a.818.818,0,1,1,0,1.637l-6.734,0a1.7,1.7,0,0,0-1.629,1.991,1.788,1.788,0,0,0,1.809,1.408H45.1a.818.818,0,0,1,0,1.637H39.3A1.7,1.7,0,0,0,37.637,35.8a1.791,1.791,0,0,0,1.81,1.409H46.7a.818.818,0,1,1,0,1.637H41.779A1.7,1.7,0,0,0,40.1,40.841a1.792,1.792,0,0,0,1.813,1.409h11a11.274,11.274,0,0,0,9.336-4.6,10.866,10.866,0,0,0-1.057-13.725l-4.809-4.777a.818.818,0,0,1,1.154-1.161l4.821,4.789a12.509,12.509,0,0,1,1.233,15.81,12.909,12.909,0,0,1-10.678,5.3h-11Z" transform="translate(-5.619 -3.223)"/>
        <path id="Trazado_874550" data-name="Trazado 874550" d="M40.3,14.834H33.652a.818.818,0,0,1,0-1.637H40.3a.818.818,0,0,1,0,1.637" transform="translate(-5.962 -2.396)"/>
      </g>
    </g>
  </g>
</svg>
