<svg id="_39" data-name="39" xmlns="http://www.w3.org/2000/svg" width="70.687" height="70.686" viewBox="0 0 70.687 70.686">
  <path id="Trazado_874586" data-name="Trazado 874586" d="M70.687,35.785A35.343,35.343,0,1,1,35.343.442,35.343,35.343,0,0,1,70.687,35.785" transform="translate(0 -0.442)" fill="#77af8f"/>
  <path id="Trazado_874587" data-name="Trazado 874587" d="M573.343,720.031a4.84,4.84,0,0,1-3.433-1.423l-8.583-8.583a4.855,4.855,0,0,1,6.867-6.867l5.15,5.15,12.987-12.987a4.855,4.855,0,0,1,6.867,6.867l-16.42,16.42a4.84,4.84,0,0,1-3.433,1.423" transform="translate(-541.918 -671.816)" fill="#fff"/>
</svg>
