<svg xmlns="http://www.w3.org/2000/svg" xmlns:xlink="http://www.w3.org/1999/xlink" width="67" height="63" viewBox="0 0 67 63">
  <defs>
    <clipPath id="clip-path">
      <rect id="Rectángulo_401486" data-name="Rectángulo 401486" width="48" height="47" transform="translate(0.31 0.418)" fill="none"/>
    </clipPath>
  </defs>
  <g id="_61" data-name="61" transform="translate(-557 -2884)">
    <g id="Grupo_1099348" data-name="Grupo 1099348" transform="translate(566.69 2891.582)">
      <g id="Grupo_1099347" data-name="Grupo 1099347" clip-path="url(#clip-path)">
        <path id="Trazado_877518" data-name="Trazado 877518" d="M52.5,17.252A17.252,17.252,0,1,1,35.252,0,17.253,17.253,0,0,1,52.5,17.252" transform="translate(-3.884)" fill="#f1c12c"/>
        <path id="Trazado_877519" data-name="Trazado 877519" d="M39.526,13H16a2.352,2.352,0,0,1,2.353,2.353V46.72a3.137,3.137,0,0,0,3.137,3.137H41.878v-34.5A2.352,2.352,0,0,0,39.526,13" transform="translate(-3.453 -2.805)" fill="#fff"/>
        <path id="Trazado_877520" data-name="Trazado 877520" d="M27.526,6H4A2.352,2.352,0,0,1,6.353,8.353v29.8a3.137,3.137,0,0,0,3.137,3.137H29.878V8.353A2.352,2.352,0,0,0,27.526,6" transform="translate(-0.863 -1.295)" fill="#fff"/>
        <line id="Línea_682" data-name="Línea 682" x2="5" transform="translate(8.31 40.418)" fill="none" stroke="#2a5082" stroke-miterlimit="10" stroke-width="2"/>
        <path id="Trazado_877521" data-name="Trazado 877521" d="M16,13H39.526a2.352,2.352,0,0,1,2.353,2.353V45.936" transform="translate(-3.453 -2.805)" fill="none" stroke="#2a5082" stroke-miterlimit="10" stroke-width="2"/>
        <path id="Trazado_877522" data-name="Trazado 877522" d="M4,6H27.526a2.352,2.352,0,0,1,2.353,2.353V9.921" transform="translate(-0.863 -1.295)" fill="none" stroke="#2a5082" stroke-miterlimit="10" stroke-width="2"/>
        <path id="Trazado_877523" data-name="Trazado 877523" d="M18.252,48.347a3.137,3.137,0,0,1-3.137-3.137V13.842a2.353,2.353,0,1,0-4.705,0V38.936a2.353,2.353,0,0,1-4.705,0V8.353A2.353,2.353,0,1,0,1,8.353v2.353H4.137" transform="translate(-0.216 -1.295)" fill="none" stroke="#2a5082" stroke-miterlimit="10" stroke-width="2"/>
        <path id="Trazado_877524" data-name="Trazado 877524" d="M26.137,55.784V55H48.094v.784a3.137,3.137,0,0,1-3.137,3.137H23a3.137,3.137,0,0,0,3.137-3.137" transform="translate(-4.963 -11.869)" fill="#95dbb3"/>
        <path id="Trazado_877525" data-name="Trazado 877525" d="M26.137,55.784V55H48.094v.784a3.137,3.137,0,0,1-3.137,3.137H23A3.137,3.137,0,0,0,26.137,55.784Z" transform="translate(-4.963 -11.869)" fill="none" stroke="#2a5082" stroke-miterlimit="10" stroke-width="2"/>
        <circle id="Elipse_11531" data-name="Elipse 11531" cx="3" cy="3" r="3" transform="translate(19.31 19.418)" fill="none" stroke="#2a5082" stroke-linecap="round" stroke-miterlimit="10" stroke-width="2"/>
        <path id="Trazado_877526" data-name="Trazado 877526" d="M38.745,39.489h0a2.745,2.745,0,1,1,2.745-2.745A2.745,2.745,0,0,1,38.745,39.489Z" transform="translate(-7.769 -7.337)" fill="none" stroke="#2a5082" stroke-linecap="round" stroke-miterlimit="10" stroke-width="2"/>
        <line id="Línea_683" data-name="Línea 683" y1="13" x2="11" transform="translate(21.31 19.418)" fill="none" stroke="#2a5082" stroke-linecap="round" stroke-miterlimit="10" stroke-width="2"/>
      </g>
    </g>
    <rect id="Rectángulo_401488" data-name="Rectángulo 401488" width="67" height="63" transform="translate(557 2884)" fill="none"/>
  </g>
</svg>
