<svg xmlns="http://www.w3.org/2000/svg" width="57" height="57" viewBox="0 0 57 57">
  <g id="_69" data-name="69" transform="translate(-753 -1348)">
    <circle id="Elipse_11546" data-name="Elipse 11546" cx="28.5" cy="28.5" r="28.5" transform="translate(753 1348)" fill="#f1c12c"/>
    <path id="Trazado_877879" data-name="Trazado 877879" d="M10.791,0H.869V-2.148l4.57-4.8Q7.129-8.877,7.129-10.01a2.126,2.126,0,0,0-.4-1.4,1.43,1.43,0,0,0-1.162-.479,1.447,1.447,0,0,0-1.221.64,2.629,2.629,0,0,0-.469,1.6H.576a4.67,4.67,0,0,1,.654-2.417A4.588,4.588,0,0,1,3.047-13.8a5.4,5.4,0,0,1,2.6-.625,5.308,5.308,0,0,1,3.55,1.064A3.8,3.8,0,0,1,10.439-10.3a4.439,4.439,0,0,1-.312,1.636A7.173,7.173,0,0,1,9.155-7,24.477,24.477,0,0,1,7.031-4.658L5.2-2.539h5.6Z" transform="translate(775 1384)" fill="#12263f"/>
  </g>
</svg>
