<svg xmlns="http://www.w3.org/2000/svg" width="57" height="57" viewBox="0 0 57 57">
  <g id="_72" data-name="72" transform="translate(-224 -1160)">
    <circle id="Elipse_11524" data-name="Elipse 11524" cx="28.5" cy="28.5" r="28.5" transform="translate(224 1160)" fill="#f1c12c"/>
    <path id="Trazado_877881" data-name="Trazado 877881" d="M1.064-6.945l.869-7.273h8.311v2.559H4.609L4.287-8.836A3.882,3.882,0,0,1,5.21-9.2a4.211,4.211,0,0,1,1.118-.157A4.171,4.171,0,0,1,9.585-8.1,5.055,5.055,0,0,1,10.723-4.58a5.046,5.046,0,0,1-.61,2.476A4.2,4.2,0,0,1,8.4-.4,5.411,5.411,0,0,1,5.791.2a5.822,5.822,0,0,1-2.51-.551A4.5,4.5,0,0,1,1.445-1.868,3.675,3.675,0,0,1,.791-4.039h3.3A1.867,1.867,0,0,0,4.59-2.8a1.581,1.581,0,0,0,1.182.458q1.66,0,1.66-2.456Q7.432-7.07,5.4-7.07a2.027,2.027,0,0,0-1.719.741Z" transform="translate(247 1196)" fill="#12263f"/>
  </g>
</svg>
