<svg xmlns="http://www.w3.org/2000/svg" xmlns:xlink="http://www.w3.org/1999/xlink" width="295" height="408" viewBox="0 0 295 408">
  <defs>
    <clipPath id="clip-path">
      <rect id="Rectángulo_400961" data-name="Rectángulo 400961" width="295" height="408" rx="23" fill="#daf2e4"/>
    </clipPath>
    <clipPath id="clip-path-2">
      <rect id="Rectángulo_400958" data-name="Rectángulo 400958" width="45.07" height="123.853" fill="#c09a23"/>
    </clipPath>
    <clipPath id="clip-path-3">
      <rect id="Rectángulo_400954" data-name="Rectángulo 400954" width="81.258" height="156.86" fill="none"/>
    </clipPath>
  </defs>
  <g id="Enmascarar_grupo_1098659" data-name="Enmascarar grupo 1098659" clip-path="url(#clip-path)">
    <g id="Grupo_1098922" data-name="Grupo 1098922" transform="translate(238.93 358.558)">
      <g id="Grupo_1098889" data-name="Grupo 1098889" transform="translate(0 0)" clip-path="url(#clip-path-2)">
        <path id="Trazado_872998" data-name="Trazado 872998" d="M45.07,123.853v-99.4C45.07,10.969,34.961,0,22.535,0S0,10.969,0,24.452v99.4Z" transform="translate(0 0)" fill="#c09a23"/>
      </g>
    </g>
    <g id="t-1" transform="translate(-32.629 -87.86)">
      <g id="Grupo_1098880" data-name="Grupo 1098880" transform="translate(0 0)" clip-path="url(#clip-path-3)">
        <path id="Trazado_872978" data-name="Trazado 872978" d="M40.629,156.86A40.675,40.675,0,0,1,0,116.231V0H.534V116.231a40.095,40.095,0,1,0,80.189,0V0h.534V116.231A40.675,40.675,0,0,1,40.629,156.86"/>
        <path id="Trazado_872979" data-name="Trazado 872979" d="M46.422,150.975a34.783,34.783,0,0,1-34.744-34.743V0h.534V116.232a34.21,34.21,0,0,0,68.419,0V0h.534V116.232a34.783,34.783,0,0,1-34.743,34.743" transform="translate(-5.793 0)"/>
        <path id="Trazado_872980" data-name="Trazado 872980" d="M52.215,145.09a28.891,28.891,0,0,1-28.859-28.858V0h.534V116.232a28.324,28.324,0,0,0,56.649,0V0h.534V116.232A28.891,28.891,0,0,1,52.215,145.09" transform="translate(-11.586 0)"/>
        <path id="Trazado_872981" data-name="Trazado 872981" d="M58.008,139.2a23,23,0,0,1-22.973-22.973V0h.534V116.231a22.439,22.439,0,1,0,44.878,0V0h.534V116.231A23,23,0,0,1,58.008,139.2" transform="translate(-17.379 0)"/>
      </g>
    </g>
  </g>
</svg>
