<svg id="Grupo_1099506" data-name="Grupo 1099506" xmlns="http://www.w3.org/2000/svg" xmlns:xlink="http://www.w3.org/1999/xlink" width="44.526" height="39.609" viewBox="0 0 44.526 39.609">
  <defs>
    <clipPath id="clip-path">
      <rect id="Rectángulo_401585" data-name="Rectángulo 401585" width="44.526" height="39.609" fill="#12263f"/>
    </clipPath>
  </defs>
  <g id="Grupo_1099505" data-name="Grupo 1099505" clip-path="url(#clip-path)">
    <path id="Trazado_877804" data-name="Trazado 877804" d="M144.665,85.115a.516.516,0,1,1,0-1.033h11.388a.516.516,0,1,1,0,1.033Z" transform="translate(-116.008 -67.667)" fill="#12263f"/>
    <path id="Trazado_877805" data-name="Trazado 877805" d="M181.879,160.909a.516.516,0,1,1,0-1.033H186a.516.516,0,1,1,0,1.033Z" transform="translate(-145.956 -128.665)" fill="#12263f"/>
    <path id="Trazado_877806" data-name="Trazado 877806" d="M152.58,104.2a.516.516,0,1,1,0-1.033h9.743a.516.516,0,1,1,0,1.033Z" transform="translate(-122.377 -83.029)" fill="#12263f"/>
    <path id="Trazado_877807" data-name="Trazado 877807" d="M144.665,123.031a.516.516,0,1,1,0-1.033h11.388a.516.516,0,1,1,0,1.033Z" transform="translate(-116.008 -98.181)" fill="#12263f"/>
    <path id="Trazado_877808" data-name="Trazado 877808" d="M71.759,39.609a.517.517,0,0,1-.516-.516V30.949c.217.013.428.02.635.02.115,0,.251,0,.4-.006v7.614h28.541V11.081H91.285a.517.517,0,0,1-.516-.516V1.033H72.276V8.39c-.12,0-.251-.007-.4-.007-.207,0-.417.006-.635.019V.516A.517.517,0,0,1,71.759,0H91.285a.539.539,0,0,1,.1.01l.018,0a.547.547,0,0,1,.108.042l.033.018a.533.533,0,0,1,.1.076l.028.026,9.963,9.964.018.014a.511.511,0,0,1,.2.412.278.278,0,0,1-.005.044l0,.023,0,.045V39.092a.517.517,0,0,1-.516.516ZM91.8,10.049h8.286L91.8,1.763Z" transform="translate(-57.335)" fill="#12263f"/>
    <path id="Trazado_877809" data-name="Trazado 877809" d="M2.735,74.749a1.286,1.286,0,0,1-.921-.385L.381,72.93a1.306,1.306,0,0,1,0-1.844l5.267-5.134-.1-.215a9.824,9.824,0,0,1-.955-4.144,9.485,9.485,0,0,1,8.688-9.5c.332-.029.611-.043.878-.043.22,0,.429.009.639.029a9.541,9.541,0,0,1-.014,19.037c-.2.018-.4.028-.616.028h0c-.272,0-.57-.014-.887-.043a9.524,9.524,0,0,1-4.362-1.516l-.046-.03-.276-.07L3.654,74.368a1.291,1.291,0,0,1-.92.381M6.648,66.42.917,72l1.818,1.821,5.834-5.774.36.3c.076.064.112.094.138.113l.045.033.053.017h0a.53.53,0,0,0,.075.046l.04.024.013,0,.09.061a8.473,8.473,0,0,0,3.987,1.418c.293.026.551.038.788.038.188,0,.37-.008.541-.024A8.508,8.508,0,0,0,14.712,53.1c-.186-.017-.374-.026-.568-.026-.291,0-.555.02-.775.039a8.457,8.457,0,0,0-7.746,8.475,8.787,8.787,0,0,0,.992,3.975c.036.072.091.17.113.206l.213.353Z" transform="translate(0 -41.886)" fill="#12263f"/>
  </g>
</svg>
