<svg id="_1" data-name="1" xmlns="http://www.w3.org/2000/svg" xmlns:xlink="http://www.w3.org/1999/xlink" width="201.958" height="174.874" viewBox="0 0 201.958 174.874">
  <defs>
    <clipPath id="clip-path">
      <rect id="Rectángulo_401185" data-name="Rectángulo 401185" width="201.958" height="174.874" fill="none"/>
    </clipPath>
  </defs>
  <g id="Grupo_1098971" data-name="Grupo 1098971" clip-path="url(#clip-path)">
    <path id="Trazado_873916" data-name="Trazado 873916" d="M181.137,91.324s-5.777,34.781-34.158,37.1-52.106-2.175-75.365,14.417c-33.6,23.971-82.033-10.726-69.629-67.1S69.75,3.914,90.732.746c39.732-6,99.634,24.264,90.406,90.578" transform="translate(0 -0.001)" fill="#daf2e4" fill-rule="evenodd"/>
    <rect id="Rectángulo_401172" data-name="Rectángulo 401172" width="91.538" height="63.484" transform="translate(101.099 113.757) rotate(-59.865)" fill="#f1c12c"/>
    <rect id="Rectángulo_401173" data-name="Rectángulo 401173" width="1.034" height="47.35" transform="matrix(0.502, -0.865, 0.865, 0.502, 145.013, 55.114)" fill="#d5e5f5"/>
    <rect id="Rectángulo_401174" data-name="Rectángulo 401174" width="1.034" height="47.35" transform="matrix(0.502, -0.865, 0.865, 0.502, 148.452, 49.188)" fill="#d5e5f5"/>
    <rect id="Rectángulo_401175" data-name="Rectángulo 401175" width="1.034" height="47.35" transform="matrix(0.502, -0.865, 0.865, 0.502, 141.884, 60.503)" fill="#d5e5f5"/>
    <rect id="Rectángulo_401176" data-name="Rectángulo 401176" width="1.034" height="47.35" transform="matrix(0.502, -0.865, 0.865, 0.502, 138.755, 65.892)" fill="#d5e5f5"/>
    <rect id="Rectángulo_401177" data-name="Rectángulo 401177" width="1.034" height="47.35" transform="matrix(0.502, -0.865, 0.865, 0.502, 135.627, 71.282)" fill="#d5e5f5"/>
    <rect id="Rectángulo_401178" data-name="Rectángulo 401178" width="1.034" height="47.35" transform="matrix(0.502, -0.865, 0.865, 0.502, 132.498, 76.671)" fill="#d5e5f5"/>
    <rect id="Rectángulo_401179" data-name="Rectángulo 401179" width="1.034" height="47.35" transform="matrix(0.502, -0.865, 0.865, 0.502, 129.37, 82.061)" fill="#d5e5f5"/>
    <rect id="Rectángulo_401180" data-name="Rectángulo 401180" width="15.308" height="23.206" transform="translate(37.036 115.437)" fill="#e6f2ff"/>
    <path id="Trazado_873917" data-name="Trazado 873917" d="M286.875,585.544c0,3.6-32.3,6.527-72.141,6.527s-72.141-2.922-72.141-6.527,32.3-6.527,72.141-6.527,72.141,2.922,72.141,6.527" transform="translate(-103.233 -419.189)" fill="#d2e6fa"/>
    <path id="Trazado_873918" data-name="Trazado 873918" d="M318.729,282.11H226.564a3.978,3.978,0,0,1-3.978-3.978V162.177a3.978,3.978,0,0,1,3.978-3.978h92.165a3.978,3.978,0,0,1,3.978,3.978V278.132a3.978,3.978,0,0,1-3.978,3.978" transform="translate(-161.145 -114.531)" fill="#4a7096"/>
    <rect id="Rectángulo_401181" data-name="Rectángulo 401181" width="91.099" height="114.37" transform="translate(65.555 48.235)" fill="#f2f9ff"/>
    <rect id="Rectángulo_401182" data-name="Rectángulo 401182" width="52.117" height="42.038" transform="translate(98.075 61.091)" fill="#d4e8fc"/>
    <rect id="Rectángulo_401183" data-name="Rectángulo 401183" width="78.176" height="44.777" transform="translate(72.017 108.676)" fill="#d4e8fc"/>
    <circle id="Elipse_11476" data-name="Elipse 11476" cx="2.327" cy="2.327" r="2.327" transform="translate(179.763 111.904)" fill="none" stroke="#0d367f" stroke-linecap="round" stroke-linejoin="round" stroke-width="1.549"/>
    <circle id="Elipse_11477" data-name="Elipse 11477" cx="2.327" cy="2.327" r="2.327" transform="translate(126.184 20.464)" fill="none" stroke="#0d367f" stroke-linecap="round" stroke-linejoin="round" stroke-width="1.549"/>
    <circle id="Elipse_11478" data-name="Elipse 11478" cx="2.327" cy="2.327" r="2.327" transform="translate(22.582 68.2)" fill="none" stroke="#0d367f" stroke-linecap="round" stroke-linejoin="round" stroke-width="1.549"/>
    <path id="Trazado_873919" data-name="Trazado 873919" d="M423.149,258.557a15.313,15.313,0,1,1-15.313-15.313,15.313,15.313,0,0,1,15.313,15.313" transform="translate(-284.173 -176.101)" fill="#f1c12c"/>
    <path id="Trazado_873920" data-name="Trazado 873920" d="M457.6,255.5a15.314,15.314,0,0,1-9.6,27.243" transform="translate(-324.336 -184.975)" fill="none" stroke="#263a4d" stroke-linecap="round" stroke-linejoin="round" stroke-width="2.379"/>
    <path id="Trazado_873921" data-name="Trazado 873921" d="M394.49,255.878s2.7-7.649,10.492-9.7" transform="translate(-285.598 -178.223)" fill="none" stroke="#263a4d" stroke-linecap="round" stroke-linejoin="round" stroke-width="2.379"/>
    <path id="Trazado_873922" data-name="Trazado 873922" d="M443.448,281.8h0a1.74,1.74,0,0,1-1.735-1.735V265.484a1.735,1.735,0,1,1,3.47,0v14.582a1.74,1.74,0,0,1-1.735,1.735" transform="translate(-319.786 -190.946)" fill="#fff"/>
    <path id="Trazado_873923" data-name="Trazado 873923" d="M415.3,292.133h0a1.65,1.65,0,0,1,1.645-1.645h14.762a1.645,1.645,0,1,1,0,3.29H416.944a1.65,1.65,0,0,1-1.645-1.645" transform="translate(-300.663 -210.304)" fill="#fff"/>
    <line id="Línea_565" data-name="Línea 565" x2="0.586" y2="1.529" transform="translate(53.228 90.054)" fill="none" stroke="#877968" stroke-linecap="round" stroke-linejoin="round" stroke-width="1.59"/>
    <path id="Trazado_873924" data-name="Trazado 873924" d="M296.159,429.141h0a7.656,7.656,0,0,1-7.656-7.656h0a7.656,7.656,0,0,1,15.313,0h0a7.656,7.656,0,0,1-7.656,7.656" transform="translate(-208.867 -299.599)" fill="#a4c7eb"/>
    <path id="Trazado_873925" data-name="Trazado 873925" d="M309.3,433.78l1.878,3.034,3.436-6.067" transform="translate(-223.922 -311.846)" fill="none" stroke="#fff" stroke-linecap="round" stroke-linejoin="round" stroke-width="2.95"/>
    <path id="Trazado_873926" data-name="Trazado 873926" d="M296.159,501.692h0a7.656,7.656,0,1,1,7.656-7.656,7.656,7.656,0,0,1-7.656,7.656" transform="translate(-208.867 -352.123)" fill="#a4c7eb"/>
    <path id="Trazado_873927" data-name="Trazado 873927" d="M309.335,507.128l1.868,2.237,3.436-6.067" transform="translate(-223.949 -364.371)" fill="none" stroke="#fff" stroke-linecap="round" stroke-linejoin="round" stroke-width="2.95"/>
    <path id="Trazado_873928" data-name="Trazado 873928" d="M226.94,297.978A4.15,4.15,0,0,0,232.729,299l10.058-8.7-2.368-1.088-8.456,5.349Z" transform="translate(-164.297 -209.384)" fill="#a3543c" fill-rule="evenodd"/>
    <path id="Trazado_873929" data-name="Trazado 873929" d="M273.446,282.07l.55-2.352a2.044,2.044,0,0,1,.737-1.162l1.48-1.132a.878.878,0,0,1,1.39.553l-.844,2.914a3.032,3.032,0,0,1-1.2,1.628l-.973.672Z" transform="translate(-197.966 -200.716)" fill="#a3543c"/>
    <path id="Trazado_873930" data-name="Trazado 873930" d="M166.081,302.477c2.11,2.434,18.6,3.264,19.979,2.794,1.555-.529,9.075-5.971,9.075-5.971l-1.746-4.8s-8.532,4.465-9.366,4.243-10.6-3.212-10.6-3.212Z" transform="translate(-120.237 -213.208)" fill="#fff" fill-rule="evenodd"/>
    <path id="Trazado_873931" data-name="Trazado 873931" d="M143.572,605.716c-.026.855-9.347,1.547-20.819,1.547s-20.752-.693-20.727-1.547,9.347-1.547,20.819-1.547,20.752.693,20.727,1.547" transform="translate(-73.863 -437.399)" fill="#d2e6fa" fill-rule="evenodd"/>
    <path id="Trazado_873932" data-name="Trazado 873932" d="M193.243,588.627c1.648,1.86,2.85,2.332,3.244.291l-.494-3.974-3.225.046Z" transform="translate(-139.558 -423.48)" fill="#a3543c" fill-rule="evenodd"/>
    <path id="Trazado_873933" data-name="Trazado 873933" d="M146.7,380.9c5.839,6.618,5.967,2.607,5.967,2.607s3.774,24.979,3.721,25.807l1.873,26.4c.088,1.245.539,2.369-.531,2.508l-2.21.332c-2.12-7.806-9.173-13.682-7.31-25.892l-7.167-19.095c-8.589-14.191,5.657-12.67,5.657-12.67" transform="translate(-100.118 -275.728)" fill="#799ce0" fill-rule="evenodd"/>
    <path id="Trazado_873934" data-name="Trazado 873934" d="M162.983,471.616l-2.846-.016c-1.692.243-.718-.891-1.019-1.855-2.218-7.124-5.409-12.678-3.684-23.983l-7.167-19.095a3.547,3.547,0,0,1,4,1.983c8.722,16.59,6.108,33.177,10.719,42.966" transform="translate(-107.34 -308.819)" fill="#607cb3" fill-rule="evenodd"/>
    <path id="Trazado_873935" data-name="Trazado 873935" d="M127.927,389.778l-.306,31.027-.94,26.09-2.563.527c-1.472-9.4-6.724-16.437-4.145-27.819l-1-21.183,4.1-7.618Z" transform="translate(-86.131 -282.187)" fill="#a3543c" fill-rule="evenodd"/>
    <path id="Trazado_873936" data-name="Trazado 873936" d="M124.347,391.342l-.459,30.664-.625,22.691a1.239,1.239,0,0,1-1.194,1.271l-4.6.137a.971.971,0,0,1-.981-.866c-.2-2-.4-5.075-.532-6.242-.733-6.293-2.783-8.879-1.075-17.264a7.154,7.154,0,0,0,.116-2.079L112.238,393.5l5.961-1.563Z" transform="translate(-81.257 -283.319)" fill="#799ce0" fill-rule="evenodd"/>
    <path id="Trazado_873937" data-name="Trazado 873937" d="M139.97,596.175a20.174,20.174,0,0,1,1.531,3.42.725.725,0,0,1-.19.674.989.989,0,0,1-.715.315l-1.648.009a1.134,1.134,0,0,1-.679-.208l-.389-.285c-.648-.475-.579-1.037-.506-1.827a14.158,14.158,0,0,0,.027-1.74,2.542,2.542,0,0,1,2.57-.358" transform="translate(-99.422 -431.466)" fill="#241930" fill-rule="evenodd"/>
    <path id="Trazado_873938" data-name="Trazado 873938" d="M196.146,597.3l2.411,1.718a16.7,16.7,0,0,0,3.032,1.249c.268.527-.217.805-.633.875l-7.472-.156s-2.062-.358-.632-3.682c1.377.6,2.971,1.03,3.294,0" transform="translate(-139.252 -432.428)" fill="#241930" fill-rule="evenodd"/>
    <path id="Trazado_873939" data-name="Trazado 873939" d="M134.468,293.438l-2.928-1.01-4.2-.854-2.418.346c-2.324.51-5.859,1.158-7.152,4.454l-2.074,4.435a43.4,43.4,0,0,0-1.788,6.9c-1,7.11-.727,8.719-1.672,13.557,7.908,5.4,19.382,4.857,23.125,1.543-2.777-14.43,1.6-21.288-.895-29.376" transform="translate(-81.256 -211.09)" fill="#5a89d6" fill-rule="evenodd"/>
    <path id="Trazado_873940" data-name="Trazado 873940" d="M165.151,289.85s.743,5.263-2.592,4.657-3.9-5.151-3.9-5.151l2.663-1.342Z" transform="translate(-114.867 -208.513)" fill="#a3543c"/>
    <path id="Trazado_873941" data-name="Trazado 873941" d="M177.769,265.833a2.382,2.382,0,0,0-.445-3.495c-1.986-1.791-2.256,2.472-2.192,2.527s2.637.968,2.637.968" transform="translate(-126.783 -189.606)" fill="#1f1406" fill-rule="evenodd"/>
    <path id="Trazado_873942" data-name="Trazado 873942" d="M163.139,270.716s.288,2.188,1.94,2.217,1.614-4.72,1.614-4.72Z" transform="translate(-118.107 -194.177)" fill="#1f1406" fill-rule="evenodd"/>
    <path id="Trazado_873943" data-name="Trazado 873943" d="M168.887,275.345,168,279.606a1.412,1.412,0,0,1-1.073,1.06,1.82,1.82,0,0,1-1.609-.381l-.415-.357a1.832,1.832,0,0,1-.611-1.964l1.651-4.939Z" transform="translate(-118.881 -197.661)" fill="#a3543c" fill-rule="evenodd"/>
    <path id="Trazado_873944" data-name="Trazado 873944" d="M176.251,286.494l-.427,1.284-1.23-1.448Z" transform="translate(-126.4 -207.294)" fill="#633325" fill-rule="evenodd"/>
    <path id="Trazado_873945" data-name="Trazado 873945" d="M166.981,266.245a1.262,1.262,0,0,1,.987-1.481l2.357-.464a1.331,1.331,0,0,1,1.465,1,13.672,13.672,0,0,1,.471,3.692,1.53,1.53,0,0,1-1.085,1.554c-.723.142-3.023-.128-3.484-1.393a18.319,18.319,0,0,1-.711-2.906" transform="translate(-120.872 -191.328)" fill="#a3543c" fill-rule="evenodd"/>
    <path id="Trazado_873946" data-name="Trazado 873946" d="M161.641,265.293s-.457-2.655.546-3.695c1.348-1.4,3.2-2.2,5.3-.542,0,0,1.155.65-2.477,1.252-.461.076.278,2.273-.3,2.486a9.439,9.439,0,0,1-3.066.5" transform="translate(-116.948 -188.325)" fill="#1f1406" fill-rule="evenodd"/>
    <path id="Trazado_873947" data-name="Trazado 873947" d="M165.764,278.03a.946.946,0,0,0,1.257.447.968.968,0,0,0,.2-1.332.946.946,0,0,0-1.257-.447.968.968,0,0,0-.2,1.332" transform="translate(-119.883 -200.245)" fill="#a3543c" fill-rule="evenodd"/>
    <path id="Trazado_873948" data-name="Trazado 873948" d="M86.188,348.538a4.15,4.15,0,0,0-5.379,2.372L77.29,363.732l2.573-.414,4.049-9.15Z" transform="translate(-55.955 -252.127)" fill="#a3543c" fill-rule="evenodd"/>
    <path id="Trazado_873949" data-name="Trazado 873949" d="M72.6,399.011l-1.346,2.005a2.042,2.042,0,0,1-1.1.826l-1.784.536a.878.878,0,0,1-1.1-1.009l1.82-2.427a3.031,3.031,0,0,1,1.7-1.1l1.147-.285Z" transform="translate(-48.689 -287.82)" fill="#a3543c"/>
    <path id="Trazado_873950" data-name="Trazado 873950" d="M96.644,297.392c-3.215.2-13.89,12.789-14.356,14.172-.525,1.557-3.868,10.509-3.868,10.509l4.585,1.183s3.86-7.334,4.543-7.862S97.7,307.445,97.7,307.445Z" transform="translate(-56.774 -215.302)" fill="#fff" fill-rule="evenodd"/>
    <path id="Trazado_873951" data-name="Trazado 873951" d="M114.688,294.5a68.119,68.119,0,0,1,.576,15.8c-.658,6.563-2.932,23.377-3.5,36.127a6.993,6.993,0,0,1-6.814,6.7l-3.468.081,3.274-41.788,7.812-15.874Z" transform="translate(-73.469 -213.208)" fill="#fff" fill-rule="evenodd"/>
    <path id="Trazado_873952" data-name="Trazado 873952" d="M186.171,295.663s.548,29.193.954,35.492c.272,4.209,1.4,12.228,2.115,17.086a4.738,4.738,0,0,0,4.692,4.045s-4.2-30.741-4.081-34.368,1.338-17.128,1.338-17.128l-3.2-4.392Z" transform="translate(-134.782 -214.05)" fill="#fff" fill-rule="evenodd"/>
    <line id="Línea_566" data-name="Línea 566" x2="0.713" y2="2.366" transform="translate(55.27 89.217)" fill="none" stroke="#81a2c4" stroke-linecap="round" stroke-linejoin="round" stroke-width="1.549"/>
    <line id="Línea_567" data-name="Línea 567" y1="6.023" x2="9.343" transform="translate(65.555 86.092)" fill="none" stroke="#81a2c4" stroke-linecap="round" stroke-linejoin="round" stroke-width="1.549"/>
    <path id="Trazado_873953" data-name="Trazado 873953" d="M105.658,340.785l2.121-4.82,6.431-6.951" transform="translate(-76.493 -238.196)" fill="none" stroke="#81a2c4" stroke-linecap="round" stroke-linejoin="round" stroke-width="1.549"/>
    <path id="Trazado_873954" data-name="Trazado 873954" d="M412.57,434.938H375.318a.933.933,0,0,1-.931-.93v-.055a.933.933,0,0,1,.931-.93H412.57a.933.933,0,0,1,.931.93v.055a.933.933,0,0,1-.931.93" transform="translate(-271.044 -313.494)" fill="#bbd0f3"/>
    <path id="Trazado_873955" data-name="Trazado 873955" d="M391.208,453.392H375.345a.958.958,0,1,1,0-1.916h15.863a.958.958,0,0,1,0,1.916" transform="translate(-271.044 -326.854)" fill="#bbd0f3"/>
    <path id="Trazado_873956" data-name="Trazado 873956" d="M412.57,503.506H375.318a.933.933,0,0,1-.931-.931v-.055a.933.933,0,0,1,.931-.93H412.57a.933.933,0,0,1,.931.93v.055a.933.933,0,0,1-.931.931" transform="translate(-271.044 -363.135)" fill="#bbd0f3"/>
    <path id="Trazado_873957" data-name="Trazado 873957" d="M391.208,521.96H375.345a.958.958,0,1,1,0-1.916h15.863a.958.958,0,0,1,0,1.916" transform="translate(-271.044 -376.495)" fill="#bbd0f3"/>
    <path id="Trazado_873958" data-name="Trazado 873958" d="M180.13,279.547l1.256-.207s.122.87-.494.9-.762-.69-.762-.69" transform="translate(-130.408 -202.233)" fill="#fff" fill-rule="evenodd"/>
    <path id="Trazado_873959" data-name="Trazado 873959" d="M515.162,615.17c0,1.623-8.826,2.939-19.713,2.939s-19.713-1.316-19.713-2.939,8.826-2.939,19.713-2.939,19.713,1.316,19.713,2.939" transform="translate(-344.417 -443.235)" fill="#d2e6fa"/>
    <path id="Trazado_873960" data-name="Trazado 873960" d="M502.679,473.54l1.674,3.045v36.245a1.389,1.389,0,0,0,1.389,1.389h22.869A1.389,1.389,0,0,0,530,512.831V476.906l1.674-3.366Z" transform="translate(-363.923 -342.827)" fill="#eb895b"/>
    <path id="Trazado_873961" data-name="Trazado 873961" d="M525.893,473.54c17.352,3.648,15.9,19.636,15.726,34.787,0,4.9-6.687,5.893-7.455,5.893h11.253a1.389,1.389,0,0,0,1.389-1.389V476.906l1.674-3.366Z" transform="translate(-380.729 -342.827)" fill="#d6794d"/>
    <path id="Trazado_873962" data-name="Trazado 873962" d="M529.967,432h-22.9a2.19,2.19,0,0,0-2.19,2.19v3.4h27.285v-3.4a2.19,2.19,0,0,0-2.19-2.19" transform="translate(-365.511 -312.752)" fill="#9c4f2a"/>
    <path id="Trazado_873963" data-name="Trazado 873963" d="M528.1,458.133h-32.4v-3.612a2.262,2.262,0,0,1,2.262-2.262h27.875a2.262,2.262,0,0,1,2.262,2.262Z" transform="translate(-358.874 -327.421)" fill="#9c4f2a"/>
    <rect id="Rectángulo_401184" data-name="Rectángulo 401184" width="12.824" height="18.2" transform="translate(140.43 142.128)" fill="#f5a784"/>
    <line id="Línea_568" data-name="Línea 568" x2="26.702" transform="translate(139.361 124.838)" fill="none" stroke="#eb895b" stroke-linecap="round" stroke-linejoin="round" stroke-width="2.055"/>
    <line id="Línea_569" data-name="Línea 569" y2="4.426" transform="translate(143.322 120.13)" fill="none" stroke="#eb895b" stroke-linecap="round" stroke-linejoin="round" stroke-width="2.055"/>
    <line id="Línea_570" data-name="Línea 570" y2="4.426" transform="translate(148.272 120.13)" fill="none" stroke="#eb895b" stroke-linecap="round" stroke-linejoin="round" stroke-width="2.055"/>
    <line id="Línea_571" data-name="Línea 571" y2="4.426" transform="translate(153.221 120.13)" fill="none" stroke="#eb895b" stroke-linecap="round" stroke-linejoin="round" stroke-width="2.055"/>
    <line id="Línea_572" data-name="Línea 572" y2="4.426" transform="translate(158.17 120.13)" fill="none" stroke="#eb895b" stroke-linecap="round" stroke-linejoin="round" stroke-width="2.055"/>
    <line id="Línea_573" data-name="Línea 573" y2="4.426" transform="translate(162.028 120.13)" fill="none" stroke="#eb895b" stroke-linecap="round" stroke-linejoin="round" stroke-width="2.055"/>
    <path id="Trazado_873964" data-name="Trazado 873964" d="M254.712,69.779l-.731,78.648c-.056,5.186-2.535,7.909-7.542,7.069,0,0-3.62-.7-3.564-5.89" transform="translate(-175.833 -50.518)" fill="none" stroke="#2c4482" stroke-linecap="round" stroke-linejoin="round" stroke-width="4.187"/>
    <path id="Trazado_873965" data-name="Trazado 873965" d="M134.694,122.386c10.107-6.809,21.422-4.347,28.461.725,7.569-6.935,18.88-5.386,26.438.565a19.92,19.92,0,0,1,25.836.662c.739-22.529-18.351-41.283-38.9-41.765s-41.094,17.283-41.833,39.812" transform="translate(-97.514 -59.774)" fill="#59836b" fill-rule="evenodd"/>
    <path id="Trazado_873966" data-name="Trazado 873966" d="M264.242,123.7s.881-26.953-13.067-41.1c0,0-12.876,14.739-13.371,40.537,0,0,10.285-10.758,26.438.565" transform="translate(-172.162 -59.799)" fill="#95dbb3" fill-rule="evenodd"/>
  </g>
</svg>
