<svg xmlns="http://www.w3.org/2000/svg" width="85" height="86" viewBox="0 0 85 86">
  <g id="_100" data-name="100" transform="translate(-180 -6221)">
    <g id="Grupo_1099478" data-name="Grupo 1099478" transform="translate(-169 5737)">
      <g id="Grupo_1099287" data-name="Grupo 1099287" transform="translate(169 -156)">
        <rect id="Rectángulo_401163" data-name="Rectángulo 401163" width="85" height="86" rx="12" transform="translate(180 640)" fill="#77af8f"/>
      </g>
    </g>
    <g id="pagos" transform="translate(189 6130.525)">
      <path id="Trazado_877727" data-name="Trazado 877727" d="M245.252,188.611l-7.055-6.494-31.358,0,0,26.679,38.412,0Z" transform="translate(-180.1 -58.027)" fill="#6be8c7"/>
      <path id="Trazado_877728" data-name="Trazado 877728" d="M255.8,231.584a4.089,4.089,0,1,1,1.309.214A4.082,4.082,0,0,1,255.8,231.584Z" transform="translate(-220.311 -94.172)" fill="#fff"/>
      <path id="Trazado_877729" data-name="Trazado 877729" d="M82.335,172.173v13.994H63.784l1.22-21.4,3.485-1.3Z" transform="translate(-55.538 -41.79)" fill="#ffe8ca"/>
      <path id="Trazado_877730" data-name="Trazado 877730" d="M210.953,195.79l2.676-1.089s.8,2.994-.217,4.782a6.438,6.438,0,0,1-4.057,2.552" transform="translate(-182.29 -68.984)" fill="#3cd3a8"/>
      <path id="Trazado_877731" data-name="Trazado 877731" d="M159.459,209.307c-1.978.188-3.012-.028-7.065-1.6l3.863-2.725,4.491-2.373" transform="translate(-132.693 -75.868)" fill="#ffd2a1"/>
      <path id="Trazado_877732" data-name="Trazado 877732" d="M79.171,151.433h4.3a4.3,4.3,0,0,0,4.3-4.3v-1.074h13.494c5.779,0,5.463-7.518.342-7.518H82.488a9.924,9.924,0,0,0-4.7,1c-1.872.931-3.7,2.226-5.842,2.226H67.751l1.478,8.692Z" transform="translate(-58.992 -20.087)" fill="#ffe8ca"/>
      <path id="Trazado_877733" data-name="Trazado 877733" d="M17.639,124.766H9.894a1.7,1.7,0,0,0-1.7,1.7v28.56a1.7,1.7,0,0,0,1.7,1.7h7.746a1.7,1.7,0,0,0,1.7-1.7v-28.56A1.7,1.7,0,0,0,17.639,124.766Z" transform="translate(-7.138 -8.09)" fill="#b0f6ff"/>
      <path id="Trazado_877734" data-name="Trazado 877734" d="M19.335,297.064H8.2v7.982a1.7,1.7,0,0,0,1.7,1.7h7.746a1.7,1.7,0,0,0,1.7-1.7Z" transform="translate(-7.138 -158.114)" fill="#60d8e8"/>
      <path id="Trazado_877735" data-name="Trazado 877735" d="M2.755,149.546H7.25a1.06,1.06,0,1,0,0-2.12H2.755a.645.645,0,0,1-.636-.636v-6.922h9.017v6.922a1.06,1.06,0,0,0,2.12,0v-1.765h12.1v5.723a1.06,1.06,0,0,0,1.06,1.06H65.13a1.06,1.06,0,0,0,1.06-1.06V143.33a1.06,1.06,0,1,0-2.12,0v6.359h-36.6V131.346a5.355,5.355,0,0,0,2.359-4.437v-.014H42.273a5.166,5.166,0,0,0,4.461-2.08c.032,0,.064,0,.1,0H57.722l6.348,5.835v6.882a1.06,1.06,0,0,0,2.12,0v-7.348a1.059,1.059,0,0,0-.343-.78l-6.994-6.429a1.06,1.06,0,0,0-.717-.28H47.542a4.922,4.922,0,0,0,.041-.632,4.806,4.806,0,0,0-1.286-3.3,4.881,4.881,0,0,0-3.691-1.507H23.5a10.936,10.936,0,0,0-5.175,1.107c-.409.2-.814.422-1.207.634a9.969,9.969,0,0,1-3.858,1.469V118.23a2.759,2.759,0,0,0-2.755-2.755H2.755A2.759,2.759,0,0,0,0,118.23v28.56A2.759,2.759,0,0,0,2.755,149.546Zm15.367-28.684c.394-.213.766-.414,1.142-.6a8.842,8.842,0,0,1,4.231-.886H42.607a2.657,2.657,0,0,1,2.857,2.693c0,1.248-.838,2.706-3.2,2.706H28.772a1.06,1.06,0,0,0-1.06,1.06v1.074a3.24,3.24,0,0,1-3.237,3.237h-4.3a1.06,1.06,0,0,0,0,2.12h4.3a5.366,5.366,0,0,0,.878-.073v10.714h-12.1V122.59A11.363,11.363,0,0,0,18.123,120.863ZM2.755,117.595H10.5a.644.644,0,0,1,.636.636v19.519H2.119V118.23A.644.644,0,0,1,2.755,117.595Z" transform="translate(0 0)"/>
      <path id="Trazado_877736" data-name="Trazado 877736" d="M254.634,228.433a4.373,4.373,0,1,0-4.373-4.373A4.378,4.378,0,0,0,254.634,228.433Zm0-6.626a2.253,2.253,0,1,1-2.254,2.253A2.256,2.256,0,0,1,254.634,221.806Z" transform="translate(-217.908 -90.74)"/>
      <path id="Trazado_877737" data-name="Trazado 877737" d="M380.321,298.177H369.582a1.06,1.06,0,0,0,0,2.12h10.739a1.06,1.06,0,0,0,0-2.12Z" transform="translate(-320.881 -159.083)"/>
      <path id="Trazado_877738" data-name="Trazado 877738" d="M278.888,335.647a1.06,1.06,0,1,0,0-2.12h-25.8a1.06,1.06,0,1,0,0,2.12" transform="translate(-219.448 -189.863)"/>
    </g>
  </g>
</svg>
