<svg xmlns="http://www.w3.org/2000/svg" xmlns:xlink="http://www.w3.org/1999/xlink" width="94" height="94" viewBox="0 0 94 94">
  <defs>
    <clipPath id="clip-path">
      <rect id="Rectángulo_401304" data-name="Rectángulo 401304" width="65.055" height="63.227" fill="none"/>
    </clipPath>
    <clipPath id="clip-path-4">
      <rect id="Rectángulo_401288" data-name="Rectángulo 401288" width="10.429" height="14.693" fill="none"/>
    </clipPath>
    <clipPath id="clip-path-5">
      <rect id="Rectángulo_401289" data-name="Rectángulo 401289" width="16.549" height="14.638" fill="none"/>
    </clipPath>
    <clipPath id="clip-path-6">
      <rect id="Rectángulo_401290" data-name="Rectángulo 401290" width="9.204" height="16.567" fill="none"/>
    </clipPath>
    <clipPath id="clip-path-7">
      <rect id="Rectángulo_401291" data-name="Rectángulo 401291" width="9.896" height="4.225" fill="none"/>
    </clipPath>
    <clipPath id="clip-path-8">
      <rect id="Rectángulo_401292" data-name="Rectángulo 401292" width="3.314" height="5.456" fill="none"/>
    </clipPath>
    <clipPath id="clip-path-9">
      <rect id="Rectángulo_401293" data-name="Rectángulo 401293" width="3.541" height="2.215" fill="none"/>
    </clipPath>
    <clipPath id="clip-path-10">
      <rect id="Rectángulo_401294" data-name="Rectángulo 401294" width="8.107" height="5.25" fill="none"/>
    </clipPath>
    <clipPath id="clip-path-11">
      <rect id="Rectángulo_401295" data-name="Rectángulo 401295" width="19.018" height="26.601" fill="none"/>
    </clipPath>
    <clipPath id="clip-path-12">
      <rect id="Rectángulo_401296" data-name="Rectángulo 401296" width="14.022" height="30.07" fill="none"/>
    </clipPath>
    <clipPath id="clip-path-13">
      <rect id="Rectángulo_401297" data-name="Rectángulo 401297" width="3.916" height="7.263" fill="none"/>
    </clipPath>
    <clipPath id="clip-path-14">
      <rect id="Rectángulo_401298" data-name="Rectángulo 401298" width="1.588" height="2.672" fill="none"/>
    </clipPath>
    <clipPath id="clip-path-15">
      <rect id="Rectángulo_401299" data-name="Rectángulo 401299" width="8.027" height="4.865" fill="none"/>
    </clipPath>
    <clipPath id="clip-path-16">
      <rect id="Rectángulo_401300" data-name="Rectángulo 401300" width="1.427" height="2.206" fill="none"/>
    </clipPath>
    <clipPath id="clip-path-17">
      <rect id="Rectángulo_401301" data-name="Rectángulo 401301" width="13.953" height="8.97" fill="none"/>
    </clipPath>
    <clipPath id="clip-path-18">
      <rect id="Rectángulo_401302" data-name="Rectángulo 401302" width="12.546" height="28.907" fill="none"/>
    </clipPath>
  </defs>
  <g id="_11" data-name="11" transform="translate(-343 -1156)">
    <circle id="Elipse_11571" data-name="Elipse 11571" cx="47" cy="47" r="47" transform="translate(343 1156)" fill="#f1c12c"/>
    <g id="Grupo_1099144" data-name="Grupo 1099144" transform="translate(358 1171)">
      <g id="Grupo_1099143" data-name="Grupo 1099143" clip-path="url(#clip-path)">
        <g id="Grupo_1099095" data-name="Grupo 1099095">
          <g id="Grupo_1099094" data-name="Grupo 1099094" clip-path="url(#clip-path)">
            <path id="Trazado_874148" data-name="Trazado 874148" d="M159.541,232.036l-16.451-.154-4.986-.023-1.355,0-.353,0a.79.79,0,0,0-.12.006.744.744,0,0,0,.12.008l.352.008,1.355.017,4.985.026,16.452.01c6.421,0,12.236.008,16.445.038,2.1.015,3.808.034,4.985.056.588.011,1.046.023,1.355.034a2.552,2.552,0,0,1,.472.035,2.581,2.581,0,0,1-.473.03c-.31.009-.767.016-1.356.021-1.177.01-2.881.013-4.985.007-4.209-.012-10.024-.061-16.444-.126" transform="translate(-117.744 -200.328)" fill="#f5f5f5"/>
            <path id="Trazado_874149" data-name="Trazado 874149" d="M160.561,220.17l-16.226-2.638-4.921-.776-1.34-.2-.349-.048a.75.75,0,0,0-.12-.012.736.736,0,0,0,.117.026l.347.062,1.336.221,4.921.779,16.251,2.493c6.343.968,12.086,1.854,16.239,2.52,2.077.332,3.756.609,4.915.809.58.1,1.029.18,1.333.239a2.513,2.513,0,0,1,.461.106,2.5,2.5,0,0,1-.472-.041c-.308-.038-.76-.1-1.343-.184-1.165-.167-2.848-.422-4.926-.746-4.156-.647-9.892-1.575-16.224-2.61" transform="translate(-118.892 -187.053)" fill="#f5f5f5"/>
            <path id="Trazado_874150" data-name="Trazado 874150" d="M163.565,208.228l-15.6-5.089-4.734-1.519-1.29-.4-.337-.1a.745.745,0,0,0-.116-.03.716.716,0,0,0,.112.044l.333.114,1.284.423,4.733,1.523,15.644,4.949c6.107,1.927,11.635,3.68,15.628,4.973,2,.646,3.611,1.176,4.723,1.551.556.187.987.336,1.278.44a2.457,2.457,0,0,1,.438.176,2.482,2.482,0,0,1-.46-.113c-.3-.085-.735-.215-1.3-.387-1.123-.343-2.744-.852-4.744-1.49-4-1.275-9.513-3.07-15.6-5.061" transform="translate(-122.249 -173.739)" fill="#f5f5f5"/>
            <path id="Trazado_874151" data-name="Trazado 874151" d="M168.458,196.9l-14.579-7.41-4.429-2.224-1.209-.6-.316-.152a.756.756,0,0,0-.11-.047.737.737,0,0,0,.1.06l.31.163,1.2.614,4.427,2.228,14.647,7.281c5.719,2.837,10.894,5.414,14.628,7.3,1.868.943,3.375,1.714,4.413,2.254.519.27.921.482,1.191.63a2.479,2.479,0,0,1,.4.24,2.514,2.514,0,0,1-.435-.182c-.28-.129-.691-.325-1.217-.581-1.053-.511-2.572-1.262-4.443-2.2-3.743-1.871-8.9-4.486-14.586-7.382" transform="translate(-127.713 -161.116)" fill="#f5f5f5"/>
            <path id="Trazado_874152" data-name="Trazado 874152" d="M175.038,186.593l-13.208-9.534-4.017-2.87-1.1-.773-.288-.2a.709.709,0,0,0-.1-.063.73.73,0,0,0,.092.075l.28.208,1.086.789L161.8,177.1l13.3,9.416c5.192,3.671,9.889,7,13.274,9.435,1.693,1.215,3.058,2.205,4,2.9.469.346.832.616,1.075.8a2.446,2.446,0,0,1,.361.3,2.483,2.483,0,0,1-.4-.246c-.256-.17-.63-.426-1.109-.758-.958-.665-2.337-1.637-4.035-2.846-3.4-2.417-8.067-5.783-13.219-9.507" transform="translate(-135.068 -149.608)" fill="#f5f5f5"/>
            <path id="Trazado_874153" data-name="Trazado 874153" d="M183.117,177.49,171.6,166.076l-3.509-3.442-.961-.929-.253-.239a.753.753,0,0,0-.09-.078.7.7,0,0,0,.079.088l.243.248.946.943,3.506,3.444,11.628,11.312c4.542,4.412,8.648,8.413,11.6,11.327,1.478,1.457,2.668,2.641,3.484,3.465.408.412.723.735.933.956a2.4,2.4,0,0,1,.309.349,2.447,2.447,0,0,1-.357-.3c-.225-.207-.554-.516-.974-.917-.84-.8-2.047-1.97-3.53-3.421-2.968-2.9-7.044-6.932-11.537-11.39" transform="translate(-144.102 -139.44)" fill="#f5f5f5"/>
            <path id="Trazado_874154" data-name="Trazado 874154" d="M192.556,169.718,183,156.7l-2.915-3.931-.8-1.063-.212-.274a.7.7,0,0,0-.076-.09.716.716,0,0,0,.064.1l.2.282.784,1.075,2.912,3.933,9.676,12.932c3.78,5.044,7.2,9.617,9.649,12.943,1.227,1.662,2.213,3.012,2.887,3.95.337.469.6.835.769,1.085a2.376,2.376,0,0,1,.249.392,2.419,2.419,0,0,1-.3-.354c-.19-.238-.465-.593-.816-1.053-.7-.919-1.707-2.256-2.94-3.913-2.468-3.314-5.848-7.912-9.573-13" transform="translate(-154.656 -130.761)" fill="#f5f5f5"/>
            <path id="Trazado_874155" data-name="Trazado 874155" d="M203.232,163.41,195.889,149.1l-2.247-4.325-.62-1.172-.165-.3a.7.7,0,0,0-.061-.1.675.675,0,0,0,.047.107l.153.309.6,1.181,2.244,4.327,7.477,14.243c2.923,5.557,5.561,10.592,7.448,14.249.944,1.828,1.7,3.311,2.216,4.34.258.514.455.915.585,1.189a2.352,2.352,0,0,1,.183.425,2.357,2.357,0,0,1-.243-.4c-.149-.264-.364-.657-.636-1.164-.545-1.014-1.323-2.487-2.274-4.312-1.9-3.648-4.5-8.7-7.365-14.29" transform="translate(-166.578 -123.727)" fill="#f5f5f5"/>
            <path id="Trazado_874156" data-name="Trazado 874156" d="M214.926,158.754,209.991,143.5l-1.519-4.615-.423-1.252-.114-.324a.654.654,0,0,0-.044-.109.7.7,0,0,0,.03.113l.1.328.4,1.258,1.515,4.616,5.078,15.208c1.987,5.934,3.777,11.311,5.049,15.211.636,1.95,1.144,3.53,1.486,4.625.171.547.3.974.385,1.263a2.314,2.314,0,0,1,.112.448,2.324,2.324,0,0,1-.176-.428c-.1-.284-.253-.7-.44-1.246-.374-1.085-.9-2.658-1.548-4.606-1.29-3.894-3.038-9.284-4.959-15.239" transform="translate(-179.62 -118.543)" fill="#f5f5f5"/>
            <path id="Trazado_874157" data-name="Trazado 874157" d="M227.225,155.943l-2.4-15.818-.753-4.79-.215-1.3-.06-.338a.7.7,0,0,0-.025-.114.7.7,0,0,0,.011.117l.046.34.194,1.3.749,4.79,2.553,15.8c1,6.164,1.9,11.748,2.523,15.793.313,2.023.558,3.661.719,4.795.08.567.14,1.007.176,1.307a2.309,2.309,0,0,1,.038.459,2.334,2.334,0,0,1-.1-.449c-.057-.3-.136-.734-.233-1.3-.194-1.129-.462-2.764-.783-4.785-.644-4.043-1.5-9.633-2.431-15.807" transform="translate(-193.337 -115.417)" fill="#f5f5f5"/>
            <path id="Trazado_874158" data-name="Trazado 874158" d="M237.745,155.057c.058-6.243.11-11.893.148-15.989.009-2.043.016-3.7.021-4.845,0-.569,0-1.012,0-1.317,0-.148,0-.261-.005-.343a.059.059,0,1,0-.014,0c0,.081,0,.2-.008.343,0,.306-.009.748-.016,1.317-.006,1.148-.014,2.8-.024,4.845,0,4.1,0,9.746,0,15.989s0,11.892-.029,15.983c-.014,2.046-.033,3.7-.055,4.845-.011.572-.023,1.016-.034,1.317a2.357,2.357,0,0,1-.035.459,2.354,2.354,0,0,1-.031-.46c-.009-.3-.017-.746-.022-1.317-.011-1.144-.015-2.8-.01-4.845.01-4.091.057-9.742.12-15.982" transform="translate(-205.309 -114.435)" fill="#f5f5f5"/>
            <path id="Trazado_874159" data-name="Trazado 874159" d="M204.521,156.041l2.7-15.772.795-4.783.206-1.3.05-.339a.685.685,0,0,0,.012-.116.7.7,0,0,0-.027.114l-.063.337-.227,1.3-.8,4.783-2.555,15.8c-.992,6.166-1.9,11.747-2.582,15.784-.341,2.019-.624,3.651-.829,4.778-.1.563-.185,1-.245,1.3a2.334,2.334,0,0,1-.109.448,2.3,2.3,0,0,1,.042-.459c.039-.3.1-.739.188-1.305.172-1.132.432-2.768.765-4.788.663-4.04,1.614-9.615,2.675-15.77" transform="translate(-173.534 -115.542)" fill="#f5f5f5"/>
            <path id="Trazado_874160" data-name="Trazado 874160" d="M171.465,158.953l5.227-15.161,1.56-4.6.415-1.254.1-.327a.68.68,0,0,0,.03-.113.67.67,0,0,0-.045.109l-.117.323-.435,1.248-1.564,4.6-5.082,15.207c-1.979,5.937-3.779,11.31-5.107,15.192-.663,1.941-1.208,3.51-1.593,4.591-.192.541-.345.96-.452,1.242a2.322,2.322,0,0,1-.181.426,2.306,2.306,0,0,1,.116-.447c.087-.289.221-.714.4-1.26.353-1.092.875-2.667,1.531-4.611,1.31-3.888,3.153-9.248,5.2-15.164" transform="translate(-141.889 -118.797)" fill="#f5f5f5"/>
            <path id="Trazado_874161" data-name="Trazado 874161" d="M140.107,163.7l7.615-14.174,2.286-4.306.613-1.175.156-.307a.708.708,0,0,0,.049-.107.7.7,0,0,0-.062.1l-.168.3-.631,1.166-2.289,4.3-7.482,14.24c-2.916,5.56-5.564,10.591-7.5,14.222-.97,1.816-1.761,3.282-2.316,4.291-.277.5-.5.895-.647,1.158a2.39,2.39,0,0,1-.247.393,2.354,2.354,0,0,1,.187-.423c.133-.272.334-.671.6-1.183.525-1.024,1.3-2.5,2.259-4.32,1.923-3.639,4.61-8.651,7.587-14.18" transform="translate(-111.869 -124.099)" fill="#f5f5f5"/>
            <path id="Trazado_874162" data-name="Trazado 874162" d="M111.338,170.091l9.8-12.842,2.95-3.906.794-1.068.2-.28a.717.717,0,0,0,.065-.1.737.737,0,0,0-.077.09l-.214.272-.811,1.056-2.953,3.9-9.68,12.929c-3.774,5.049-7.2,9.615-9.7,12.907-1.25,1.646-2.267,2.973-2.978,3.886-.355.456-.634.809-.826,1.045a2.392,2.392,0,0,1-.307.351,2.383,2.383,0,0,1,.253-.39c.175-.249.438-.612.779-1.078.683-.932,1.683-2.272,2.926-3.923,2.485-3.3,5.945-7.844,9.774-12.853" transform="translate(-84.332 -131.24)" fill="#f5f5f5"/>
            <path id="Trazado_874163" data-name="Trazado 874163" d="M85.793,177.936l11.737-11.2,3.54-3.412.955-.935.246-.246a.693.693,0,0,0,.08-.087.743.743,0,0,0-.09.077l-.255.236-.97.92-3.542,3.41L85.861,178c-4.536,4.417-8.651,8.41-11.647,11.283-1.5,1.437-2.716,2.595-3.564,3.389-.424.4-.755.7-.983.908a2.443,2.443,0,0,1-.359.3,2.41,2.41,0,0,1,.312-.347c.213-.219.53-.539.943-.947.824-.817,2.026-1.99,3.518-3.433,2.983-2.887,7.128-6.85,11.712-11.22" transform="translate(-59.882 -140.014)" fill="#f5f5f5"/>
            <path id="Trazado_874164" data-name="Trazado 874164" d="M63.985,187.106l13.387-9.294,4.043-2.836,1.093-.779.282-.206a.692.692,0,0,0,.093-.074.781.781,0,0,0-.1.062l-.29.2-1.105.762-4.045,2.833-13.3,9.412c-5.188,3.677-9.891,7-13.311,9.386-1.71,1.193-3.1,2.153-4.062,2.808-.482.328-.859.58-1.116.748a2.481,2.481,0,0,1-.4.242,2.449,2.449,0,0,1,.364-.3c.245-.185.61-.452,1.083-.793.945-.683,2.32-1.66,4.024-2.86,3.408-2.4,8.137-5.689,13.365-9.312" transform="translate(-39.009 -150.266)" fill="#f5f5f5"/>
            <path id="Trazado_874165" data-name="Trazado 874165" d="M46.4,197.476l14.718-7.145,4.449-2.187,1.205-.6.312-.16a.7.7,0,0,0,.1-.059.747.747,0,0,0-.111.046l-.318.148-1.215.585-4.451,2.183-14.65,7.276c-5.716,2.844-10.9,5.411-14.657,7.248-1.88.919-3.406,1.655-4.464,2.157-.529.251-.941.443-1.223.569a2.508,2.508,0,0,1-.437.178,2.451,2.451,0,0,1,.407-.237c.272-.145.675-.354,1.2-.619,1.043-.531,2.558-1.287,4.435-2.213,3.753-1.853,8.952-4.382,14.7-7.167" transform="translate(-22.171 -161.848)" fill="#f5f5f5"/>
            <path id="Trazado_874166" data-name="Trazado 874166" d="M33.512,208.838,49.2,204.033l4.748-1.479,1.288-.412.334-.111a.725.725,0,0,0,.112-.043.737.737,0,0,0-.117.029l-.338.1-1.294.392-4.749,1.475-15.645,4.945c-6.1,1.935-11.636,3.678-15.647,4.917-2.006.62-3.632,1.114-4.758,1.447-.563.167-1,.293-1.3.375a2.49,2.49,0,0,1-.46.109,2.482,2.482,0,0,1,.44-.171c.292-.1.724-.246,1.282-.429,1.116-.364,2.735-.88,4.738-1.508,4.006-1.256,9.551-2.959,15.676-4.83" transform="translate(-9.829 -174.52)" fill="#f5f5f5"/>
            <path id="Trazado_874167" data-name="Trazado 874167" d="M25.737,220.791l16.274-2.346,4.928-.735,1.338-.209.347-.058a.06.06,0,1,0,0-.014l-.349.045-1.341.189L42,218.393l-16.251,2.491c-6.342.977-12.086,1.853-16.249,2.462-2.081.305-3.767.545-4.933.7-.583.078-1.036.136-1.344.171a2.51,2.51,0,0,1-.472.037,2.516,2.516,0,0,1,.462-.1c.3-.056.755-.132,1.336-.227,1.161-.189,2.843-.451,4.923-.764,4.16-.628,9.91-1.462,16.263-2.372" transform="translate(-2.379 -187.85)" fill="#f5f5f5"/>
            <path id="Trazado_874168" data-name="Trazado 874168" d="M23.259,231.175l16.451.134,4.986.017,1.356,0,.352-.005a.755.755,0,0,0,.12-.007.792.792,0,0,0-.12-.007l-.352-.008L44.7,231.28l-4.986-.02-16.452.01c-6.421.008-12.236.007-16.445-.018-2.1-.012-3.808-.03-4.985-.05-.589-.01-1.046-.021-1.355-.033A2.562,2.562,0,0,1,0,231.135a2.567,2.567,0,0,1,.473-.031c.31-.009.767-.017,1.356-.022,1.177-.012,2.881-.016,4.986-.013,4.209.007,10.024.049,16.445.106" transform="translate(0 -199.645)" fill="#f5f5f5"/>
            <path id="Trazado_874169" data-name="Trazado 874169" d="M26.022,198.9l16.23,2.618,4.922.77,1.34.2.349.048a.747.747,0,0,0,.12.011.73.73,0,0,0-.117-.026l-.347-.061-1.336-.22-4.922-.773L26.007,199c-6.344-.961-12.088-1.839-16.242-2.5-2.077-.33-3.757-.6-4.917-.8-.58-.1-1.029-.179-1.334-.237a2.508,2.508,0,0,1-.461-.106,2.507,2.507,0,0,1,.472.041c.308.038.761.1,1.343.182,1.165.166,2.848.418,4.927.74,4.157.642,9.894,1.563,16.228,2.59" transform="translate(-2.638 -168.783)" fill="#f5f5f5"/>
            <path id="Trazado_874170" data-name="Trazado 874170" d="M34.086,166.773l15.6,5.07,4.736,1.513,1.291.4.337.1a.739.739,0,0,0,.116.03.706.706,0,0,0-.112-.044l-.333-.114-1.284-.422-4.735-1.517-15.651-4.929c-6.11-1.919-11.64-3.666-15.635-4.954-2-.644-3.612-1.172-4.725-1.546-.557-.187-.988-.335-1.279-.439a2.457,2.457,0,0,1-.438-.175,2.483,2.483,0,0,1,.46.112c.3.084.735.214,1.3.385,1.123.342,2.745.849,4.746,1.485,4,1.27,9.517,3.058,15.605,5.041" transform="translate(-10.35 -138.023)" fill="#f5f5f5"/>
            <path id="Trazado_874171" data-name="Trazado 874171" d="M47.248,136.289l14.588,7.392,4.432,2.219,1.21.595.316.151a.754.754,0,0,0,.11.047.727.727,0,0,0-.1-.06l-.31-.163-1.2-.613-4.431-2.222L47.2,136.372c-5.723-2.83-10.9-5.4-14.638-7.284-1.869-.941-3.377-1.71-4.416-2.248-.519-.269-.921-.481-1.192-.628a2.462,2.462,0,0,1-.4-.24,2.511,2.511,0,0,1,.435.182c.28.129.691.324,1.218.579,1.054.51,2.573,1.259,4.446,2.192,3.746,1.867,8.9,4.475,14.595,7.364" transform="translate(-22.943 -108.839)" fill="#f5f5f5"/>
            <path id="Trazado_874172" data-name="Trazado 874172" d="M65.084,108.317l13.22,9.517,4.021,2.865,1.1.771.288.2a.06.06,0,1,0,.009-.012l-.28-.208-1.087-.788-4.019-2.868-13.308-9.4c-5.2-3.665-9.9-6.991-13.286-9.418-1.694-1.213-3.061-2.2-4-2.892-.47-.345-.832-.615-1.076-.8a2.431,2.431,0,0,1-.361-.3,2.493,2.493,0,0,1,.4.245c.256.17.63.425,1.11.757.959.664,2.339,1.634,4.039,2.841,3.4,2.413,8.075,5.773,13.231,9.491" transform="translate(-40.006 -82.065)" fill="#f5f5f5"/>
            <path id="Trazado_874173" data-name="Trazado 874173" d="M87.113,83.475l11.536,11.4,3.513,3.438.962.928.253.239a.727.727,0,0,0,.09.078.719.719,0,0,0-.079-.088l-.243-.248-.947-.942-3.511-3.44-11.642-11.3c-4.547-4.406-8.659-8.4-11.617-11.312-1.48-1.455-2.671-2.638-3.489-3.461-.409-.412-.724-.734-.935-.955a2.4,2.4,0,0,1-.309-.349,2.458,2.458,0,0,1,.357.3c.226.207.555.515.975.916.841.8,2.049,1.968,3.535,3.417,2.972,2.9,7.053,6.923,11.551,11.376" transform="translate(-61.081 -58.289)" fill="#f5f5f5"/>
            <path id="Trazado_874174" data-name="Trazado 874174" d="M112.848,62.265l9.571,13.005,2.92,3.927.8,1.062.212.274a.723.723,0,0,0,.076.091.7.7,0,0,0-.064-.1l-.2-.282-.785-1.074-2.917-3.929-9.692-12.92c-3.787-5.04-7.209-9.609-9.666-12.931-1.229-1.661-2.217-3.009-2.892-3.947-.338-.468-.6-.834-.771-1.084a2.374,2.374,0,0,1-.249-.392,2.415,2.415,0,0,1,.3.353c.19.238.465.593.817,1.052.7.918,1.709,2.254,2.945,3.909,2.472,3.311,5.859,7.905,9.59,12.984" transform="translate(-85.702 -37.988)" fill="#f5f5f5"/>
            <path id="Trazado_874175" data-name="Trazado 874175" d="M141.771,45.155l7.361,14.3,2.253,4.323.621,1.171.165.3a.682.682,0,0,0,.061.1.7.7,0,0,0-.048-.107l-.153-.309-.6-1.18-2.249-4.324-7.5-14.233c-2.93-5.553-5.575-10.586-7.467-14.24-.946-1.827-1.705-3.309-2.222-4.338-.258-.514-.456-.915-.586-1.188a2.336,2.336,0,0,1-.183-.425,2.377,2.377,0,0,1,.244.4c.149.264.364.656.638,1.163.547,1.014,1.326,2.486,2.28,4.309,1.909,3.646,4.515,8.7,7.383,14.281" transform="translate(-113.38 -21.606)" fill="#f5f5f5"/>
            <path id="Trazado_874176" data-name="Trazado 874176" d="M173.234,32.611l4.954,15.247,1.525,4.613.424,1.251.114.324a.675.675,0,0,0,.044.109.7.7,0,0,0-.03-.113l-.1-.328-.4-1.258-1.521-4.614-5.1-15.2c-1.995-5.932-3.792-11.306-5.069-15.2-.639-1.949-1.148-3.529-1.492-4.623-.172-.547-.3-.973-.387-1.263a2.315,2.315,0,0,1-.112-.448,2.35,2.35,0,0,1,.177.427c.1.284.254.7.442,1.246.376,1.084.907,2.657,1.554,4.6,1.3,3.893,3.051,9.28,4.979,15.232" transform="translate(-143.495 -9.592)" fill="#f5f5f5"/>
            <path id="Trazado_874177" data-name="Trazado 874177" d="M206.332,25.034l2.424,15.815.759,4.789.216,1.3.06.338a.059.059,0,1,0,.015,0l-.047-.34-.2-1.3-.755-4.789-2.573-15.793c-1.009-6.163-1.914-11.745-2.544-15.79-.315-2.022-.563-3.66-.725-4.794-.081-.567-.141-1.007-.177-1.306a2.327,2.327,0,0,1-.038-.459,2.322,2.322,0,0,1,.105.449c.058.3.137.734.234,1.3.2,1.128.465,2.763.79,4.784.649,4.042,1.51,9.631,2.451,15.8" transform="translate(-175.175 -2.332)" fill="#f5f5f5"/>
            <path id="Trazado_874178" data-name="Trazado 874178" d="M238.871,22.6c-.05,6.243-.095,11.893-.127,15.989-.006,2.043-.011,3.7-.015,4.845,0,.569,0,1.012.006,1.317,0,.148,0,.261.005.343a.687.687,0,0,0,.007.117.738.738,0,0,0,.007-.117c0-.081,0-.2.008-.343,0-.306.008-.748.014-1.317,0-1.148.01-2.8.018-4.845-.005-4.1-.013-9.746-.02-15.989s-.015-11.892.008-15.983c.011-2.045.028-3.7.049-4.845.01-.572.021-1.016.033-1.317A2.331,2.331,0,0,1,238.9,0a2.373,2.373,0,0,1,.032.46c.009.3.018.746.024,1.318.013,1.144.018,2.8.016,4.845,0,4.091-.044,9.742-.1,15.982" transform="translate(-206.264 0)" fill="#f5f5f5"/>
            <path id="Trazado_874179" data-name="Trazado 874179" d="M226.688,25.27l-2.683,15.775-.789,4.784-.2,1.3-.049.339a.664.664,0,0,0-.012.116.7.7,0,0,0,.026-.114l.063-.337.225-1.3.792-4.784,2.534-15.8c.984-6.167,1.885-11.75,2.562-15.788.338-2.019.619-3.652.823-4.779.1-.564.184-1,.243-1.3a2.311,2.311,0,0,1,.108-.448,2.314,2.314,0,0,1-.041.459c-.039.3-.1.739-.187,1.305-.17,1.132-.429,2.769-.758,4.789-.658,4.041-1.6,9.617-2.654,15.773" transform="translate(-192.631 -2.544)" fill="#f5f5f5"/>
            <path id="Trazado_874180" data-name="Trazado 874180" d="M214.395,33.086l-5.206,15.168-1.554,4.6-.413,1.255-.1.327a.687.687,0,0,0-.03.113.676.676,0,0,0,.045-.109l.117-.323.433-1.248,1.558-4.6L214.3,33.057c1.971-5.939,3.764-11.315,5.087-15.2.661-1.942,1.2-3.511,1.587-4.593.192-.541.344-.96.451-1.243a2.327,2.327,0,0,1,.18-.426,2.313,2.313,0,0,1-.115.447c-.086.289-.22.714-.4,1.26-.351,1.092-.872,2.669-1.524,4.613-1.3,3.89-3.14,9.252-5.177,15.17" transform="translate(-178.925 -10.019)" fill="#f5f5f5"/>
            <path id="Trazado_874181" data-name="Trazado 874181" d="M202.734,45.859l-7.6,14.183-2.28,4.309-.611,1.176-.155.308a.693.693,0,0,0-.048.107.7.7,0,0,0,.062-.1l.167-.3.63-1.167,2.284-4.307,7.463-14.249c2.908-5.564,5.55-10.6,7.485-14.231.967-1.817,1.757-3.284,2.311-4.293.277-.5.495-.9.646-1.159a2.387,2.387,0,0,1,.246-.393,2.367,2.367,0,0,1-.186.423c-.132.272-.333.672-.6,1.184-.524,1.025-1.293,2.5-2.253,4.322-1.918,3.642-4.6,8.657-7.568,14.19" transform="translate(-165.926 -22.239)" fill="#f5f5f5"/>
            <path id="Trazado_874182" data-name="Trazado 874182" d="M192.11,63.176,182.326,76.03l-2.945,3.909-.793,1.069-.2.28a.717.717,0,0,0-.065.1.72.72,0,0,0,.077-.09l.214-.272.81-1.057,2.948-3.907,9.663-12.94c3.767-5.053,7.187-9.624,9.682-12.919,1.247-1.647,2.263-2.976,2.973-3.889.355-.457.633-.809.825-1.046a2.393,2.393,0,0,1,.307-.351,2.394,2.394,0,0,1-.252.39c-.175.249-.437.613-.778,1.079-.682.932-1.68,2.274-2.92,3.927-2.48,3.305-5.934,7.851-9.757,12.865" transform="translate(-154.07 -38.806)" fill="#f5f5f5"/>
            <path id="Trazado_874183" data-name="Trazado 874183" d="M182.727,84.569,171.005,95.788l-3.535,3.417-.954.936-.245.246a.724.724,0,0,0-.08.087.712.712,0,0,0,.09-.077l.255-.237.969-.921,3.538-3.414L182.659,84.5c4.531-4.422,8.64-8.421,11.632-11.3,1.5-1.439,2.712-2.6,3.559-3.393.423-.4.754-.7.982-.909a2.459,2.459,0,0,1,.359-.3,2.4,2.4,0,0,1-.312.347c-.212.22-.53.539-.941.948-.823.818-2.024,1.993-3.513,3.438-2.979,2.89-7.119,6.859-11.7,11.234" transform="translate(-143.59 -59.273)" fill="#f5f5f5"/>
            <path id="Trazado_874184" data-name="Trazado 874184" d="M174.713,109.568l-13.375,9.31-4.039,2.841-1.092.78-.282.206a.709.709,0,0,0-.093.074.729.729,0,0,0,.1-.063l.29-.2,1.1-.764,4.041-2.838,13.287-9.428c5.183-3.683,9.882-7.012,13.3-9.4,1.708-1.2,3.095-2.156,4.059-2.814.482-.328.858-.581,1.115-.749a2.464,2.464,0,0,1,.4-.243,2.464,2.464,0,0,1-.363.3c-.245.185-.61.453-1.082.795-.944.683-2.318,1.663-4.021,2.865-3.405,2.405-8.13,5.7-13.353,9.329" transform="translate(-134.641 -83.189)" fill="#f5f5f5"/>
            <path id="Trazado_874185" data-name="Trazado 874185" d="M168.2,137.667,153.5,144.83l-4.446,2.192-1.2.6-.311.161a.724.724,0,0,0-.1.059.734.734,0,0,0,.11-.046l.318-.149,1.214-.586,4.448-2.189,14.64-7.294c5.712-2.851,10.888-5.425,14.647-7.266,1.879-.921,3.4-1.66,4.461-2.162.529-.251.941-.444,1.222-.571a2.494,2.494,0,0,1,.437-.178,2.465,2.465,0,0,1-.406.237c-.272.145-.675.355-1.2.621-1.042.532-2.557,1.29-4.432,2.219-3.75,1.858-8.947,4.394-14.69,7.185" transform="translate(-127.381 -110.078)" fill="#f5f5f5"/>
            <path id="Trazado_874186" data-name="Trazado 874186" d="M163.392,168.236l-15.685,4.825-4.746,1.485-1.287.413-.333.111a.69.69,0,0,0-.112.043.781.781,0,0,0,.117-.029l.338-.1,1.294-.393,4.747-1.482,15.639-4.965c6.1-1.942,11.631-3.693,15.641-4.936,2.005-.622,3.63-1.119,4.756-1.453.563-.167,1-.294,1.3-.376a2.485,2.485,0,0,1,.46-.109,2.492,2.492,0,0,1-.44.172c-.292.1-.724.247-1.282.43-1.116.366-2.734.883-4.736,1.514-4,1.261-9.547,2.971-15.67,4.849" transform="translate(-122.023 -139.338)" fill="#f5f5f5"/>
            <path id="Trazado_874187" data-name="Trazado 874187" d="M160.476,200.4l-16.271,2.366-4.927.741-1.338.211-.347.059a.777.777,0,0,0-.118.025.715.715,0,0,0,.12-.011l.35-.046,1.341-.191,4.927-.737,16.248-2.511c6.341-.985,12.084-1.868,16.245-2.483,2.081-.308,3.766-.549,4.932-.708.583-.079,1.036-.138,1.344-.173a2.52,2.52,0,0,1,.472-.038,2.511,2.511,0,0,1-.462.1c-.3.056-.755.133-1.335.229-1.161.191-2.843.454-4.922.77-4.159.633-9.909,1.474-16.26,2.393" transform="translate(-118.781 -170.125)" fill="#f5f5f5"/>
            <path id="Trazado_874188" data-name="Trazado 874188" d="M340.5,45.074l2.4-2.934-.982-.378.768-2.139-2.192,2.53,1.128.329Z" transform="translate(-294.189 -34.235)" fill="#e0e0e0"/>
            <path id="Trazado_874189" data-name="Trazado 874189" d="M397.1,264.284l2.274,3.036.6-.863,1.893,1.257-1.932-2.733L399.345,266Z" transform="translate(-343.095 -228.344)" fill="#12263f"/>
            <path id="Trazado_874190" data-name="Trazado 874190" d="M94.064,76.036l2.423,7.092,1.658-1.254,2.791,3.516L98.97,79.075l-1.726,1.551Z" transform="translate(-81.272 -65.696)" fill="#12263f"/>
            <path id="Trazado_874191" data-name="Trazado 874191" d="M216.431,313.852l1.63-5.84-1.68.078-.252-3.623-1.58,5.112,1.861-.245Z" transform="translate(-185.372 -263.062)" fill="#12263f"/>
            <path id="Trazado_874192" data-name="Trazado 874192" d="M168.624,83.842l-.014,2.734.721-.234.541,1.546.079-2.411-.78.328Z" transform="translate(-145.68 -72.44)" fill="#e0e0e0"/>
            <path id="Trazado_874193" data-name="Trazado 874193" d="M78.383,143.637l1.73,2.117.407-.64,1.4.848-1.475-1.91-.393.75Z" transform="translate(-67.724 -124.104)" fill="#e0e0e0"/>
            <path id="Trazado_874194" data-name="Trazado 874194" d="M265.322,309.311l-.014,2.734.721-.234.541,1.546.079-2.411-.781.328Z" transform="translate(-229.228 -267.248)" fill="#e0e0e0"/>
          </g>
        </g>
        <g id="Grupo_1099142" data-name="Grupo 1099142">
          <g id="Grupo_1099141" data-name="Grupo 1099141" clip-path="url(#clip-path)">
            <path id="Trazado_874195" data-name="Trazado 874195" d="M57.6,226.149a4.646,4.646,0,1,1-5.85-3.625,4.878,4.878,0,0,1,5.85,3.625" transform="translate(-41.9 -192.121)" fill="#455a64"/>
            <path id="Trazado_874196" data-name="Trazado 874196" d="M66.065,215.72c1.268,3.615.544,7.16-1.617,7.919s-4.942-1.557-6.211-5.172-.544-7.16,1.617-7.919,4.942,1.557,6.211,5.172" transform="translate(-49.777 -181.791)" fill="#59836b"/>
            <path id="Trazado_874197" data-name="Trazado 874197" d="M134.781,187.59c1.389,3.959.47,7.885-2.052,8.77s-5.693-1.607-7.082-5.565-.47-7.885,2.052-8.77,5.693,1.607,7.082,5.565" transform="translate(-108 -157.117)" fill="#ff725e"/>
            <path id="Trazado_874198" data-name="Trazado 874198" d="M85.176,208.772C83.469,205.251,84,199.632,84,199.632a4.773,4.773,0,0,1,0-1.458c.142-.427,2.185-1.008,2.185-1.008l-4.866-14.387-10.189,4.084,3.253,12.915s.512,5.012.867,7.288a49.252,49.252,0,0,0,1.316,6.687c.462,1.209,2.6,1.352,3.735,1.494s5.442-1.956,5.884-2.6.7-.356-1.011-3.877" transform="translate(-61.459 -157.922)" fill="#59836b"/>
            <g id="Grupo_1099098" data-name="Grupo 1099098" transform="translate(16.999 24.729)" opacity="0.3">
              <g id="Grupo_1099097" data-name="Grupo 1099097">
                <g id="Grupo_1099096" data-name="Grupo 1099096" clip-path="url(#clip-path-4)">
                  <path id="Trazado_874199" data-name="Trazado 874199" d="M134.781,187.59c1.389,3.959.47,7.885-2.052,8.77s-5.693-1.607-7.082-5.565-.47-7.885,2.052-8.77,5.693,1.607,7.082,5.565" transform="translate(-124.999 -181.846)"/>
                </g>
              </g>
            </g>
            <path id="Trazado_874200" data-name="Trazado 874200" d="M144.266,111.083s5.014-2.967,7.6-5.918c2.107-2.4,5-6.445,5-6.445l13.311,27.947a44.858,44.858,0,0,0-13.311-2.71c-6.091-.058-8.38-.018-8.38-.018Z" transform="translate(-124.647 -85.295)" fill="#e0e0e0"/>
            <path id="Trazado_874201" data-name="Trazado 874201" d="M140.629,192.577c1.25,3.563.659,7.015-1.321,7.71s-4.6-1.631-5.849-5.194-.659-7.015,1.321-7.71,4.6,1.631,5.849,5.194" transform="translate(-114.744 -161.795)" fill="#e0e0e0"/>
            <g id="Grupo_1099101" data-name="Grupo 1099101" transform="translate(18.129 19.95)" opacity="0.3">
              <g id="Grupo_1099100" data-name="Grupo 1099100">
                <g id="Grupo_1099099" data-name="Grupo 1099099" clip-path="url(#clip-path-5)">
                  <path id="Trazado_874202" data-name="Trazado 874202" d="M134.433,161.34c4.7-2.837,9.777-5.119,15.425-4.419a31.409,31.409,0,0,1-2.511-10.219c-3.572,4.886-8.173,9.353-14.038,10.846a17.626,17.626,0,0,0,.472,2.157c.237.677.652,1.635.652,1.635" transform="translate(-133.31 -146.702)" fill="#fff"/>
                </g>
              </g>
            </g>
            <g id="Grupo_1099104" data-name="Grupo 1099104" transform="translate(12.926 39.375)" opacity="0.2">
              <g id="Grupo_1099103" data-name="Grupo 1099103">
                <g id="Grupo_1099102" data-name="Grupo 1099102" clip-path="url(#clip-path-6)">
                  <path id="Trazado_874203" data-name="Trazado 874203" d="M98.014,305.711l.208-.107.267-.135.214-.105.267-.128.216-.1.275-.125.208-.093.3-.13.187-.08q.235-.1.47-.193l.145-.057.352-.138.2-.076.288-.108.219-.079.273-.1.222-.077.271-.092.22-.073.275-.089.213-.068.292-.09.192-.059q.231-.07.461-.136l.006,0c-.116-.3-1.125-2.373-2.249-5.47-1.207-3.328-.447-8.028-.715-8.251s-6.24,2.467-6.24,2.467.512,5.012.868,7.288a49.233,49.233,0,0,0,1.316,6.687q.022.058.049.112c.086-.049.172-.1.259-.145l.19-.1c.093-.05.185-.1.278-.148" transform="translate(-95.054 -289.539)" fill="#f5f5f5"/>
                </g>
              </g>
            </g>
            <g id="Grupo_1099107" data-name="Grupo 1099107" transform="translate(15.159 53.105)" opacity="0.3">
              <g id="Grupo_1099106" data-name="Grupo 1099106">
                <g id="Grupo_1099105" data-name="Grupo 1099105" clip-path="url(#clip-path-7)">
                  <path id="Trazado_874204" data-name="Trazado 874204" d="M118.444,390.511l-.006,0-.461.136-.192.059-.292.09-.213.068-.275.089-.22.073-.271.092-.222.077-.273.1-.219.079-.288.108-.2.076-.352.138-.145.057q-.235.095-.47.193l-.187.08-.3.13-.208.093-.275.125-.216.1-.267.128-.214.105-.267.135-.208.107-.278.148-.19.1c-.087.048-.172.1-.258.145.548,1.106,2.583,1.244,3.685,1.382,1.138.142,5.442-1.956,5.884-2.6.237-.343.419-.421.275-.961-.941-.23-1.805-.439-2.86-.66l-.013,0" transform="translate(-111.473 -390.507)"/>
                </g>
              </g>
            </g>
            <path id="Trazado_874205" data-name="Trazado 874205" d="M148.138,298.585a1.223,1.223,0,0,0-.512.146c-.11.11-.255,5.265.256,6.107.03.05-.037.037.256.219s1.652.761,2.069.49,1.4-1.148,1.331-1.514-.446-.645-.883-1.493a13.064,13.064,0,0,1-.543-3.189,12.172,12.172,0,0,0-1.975-.767" transform="translate(-127.458 -257.979)" fill="#f5f5f5"/>
            <g id="Grupo_1099110" data-name="Grupo 1099110" transform="translate(20.767 40.613)" opacity="0.3">
              <g id="Grupo_1099109" data-name="Grupo 1099109">
                <g id="Grupo_1099108" data-name="Grupo 1099108" clip-path="url(#clip-path-8)">
                  <path id="Trazado_874206" data-name="Trazado 874206" d="M156.02,304.1s0-.01,0-.014c-.073-.366-.446-.645-.883-1.493a13.063,13.063,0,0,1-.543-3.189,16.477,16.477,0,0,0-1.888-.759c.02.131.316,1.72.575,2.885a5.658,5.658,0,0,0,.842,1.953c.027-.018.046-.027.055-.025a10.4,10.4,0,0,1,1.843.644" transform="translate(-152.706 -298.646)"/>
                </g>
              </g>
            </g>
            <g id="Grupo_1099113" data-name="Grupo 1099113" transform="translate(20.543 45.425)" opacity="0.5">
              <g id="Grupo_1099112" data-name="Grupo 1099112">
                <g id="Grupo_1099111" data-name="Grupo 1099111" clip-path="url(#clip-path-9)">
                  <path id="Trazado_874207" data-name="Trazado 874207" d="M152.759,334.028c-.009,0-.028.008-.055.025-.267.176-1.354,1.252-1.642,1.538.034.023.078.052.139.09.293.183,1.652.761,2.069.49a4.372,4.372,0,0,0,1.3-1.33.349.349,0,0,0,.03-.169,10.408,10.408,0,0,0-1.843-.644" transform="translate(-151.062 -334.028)"/>
                </g>
              </g>
            </g>
            <path id="Trazado_874208" data-name="Trazado 874208" d="M124.164,391.449a.5.5,0,0,1-.1-.006c-.064-.006-.157-.02-.277-.043-.239-.044-.579-.141-.994-.265-.208-.06-.436-.125-.685-.174a2.015,2.015,0,0,0-.8-.026,13.66,13.66,0,0,0-1.762.589,27.186,27.186,0,0,0-3.123,1.3c-.388.192-.7.357-.911.473l-.245.133a.517.517,0,0,1-.088.043.5.5,0,0,1,.081-.055c.054-.034.134-.084.239-.145.209-.123.516-.3.9-.494a24.5,24.5,0,0,1,3.122-1.325,13.038,13.038,0,0,1,1.775-.586,1.818,1.818,0,0,1,.424-.025,3,3,0,0,1,.395.058c.251.052.48.12.688.183.414.13.749.233.985.286.118.027.21.045.273.056a.506.506,0,0,1,.1.02" transform="translate(-99.521 -337.692)" fill="#263238"/>
            <path id="Trazado_874209" data-name="Trazado 874209" d="M152.873,334.167a1.789,1.789,0,0,1-.249.227c-.158.134-.375.321-.61.533s-.441.411-.59.556a1.781,1.781,0,0,1-.249.226,1.442,1.442,0,0,1,.214-.261c.141-.154.343-.359.578-.573s.459-.4.626-.52a1.435,1.435,0,0,1,.281-.187" transform="translate(-130.616 -288.722)" fill="#263238"/>
            <path id="Trazado_874210" data-name="Trazado 874210" d="M154.746,305.546a.688.688,0,0,1-.1-.138,3.249,3.249,0,0,1-.211-.408,7.475,7.475,0,0,1-.417-1.453c-.125-.576-.221-1.1-.272-1.486-.026-.192-.042-.348-.05-.456a.741.741,0,0,1,0-.168.786.786,0,0,1,.032.165l.072.451c.063.38.168.9.292,1.479a8.8,8.8,0,0,0,.394,1.449c.143.357.274.558.263.565" transform="translate(-132.791 -260.444)" fill="#263238"/>
            <path id="Trazado_874211" data-name="Trazado 874211" d="M165.106,334.631c-.01.019-.38-.159-.861-.318s-.884-.24-.88-.26a.908.908,0,0,1,.27.029,4.912,4.912,0,0,1,1.238.411.9.9,0,0,1,.233.138" transform="translate(-141.149 -288.621)" fill="#263238"/>
            <g id="Grupo_1099116" data-name="Grupo 1099116" transform="translate(8.466 30.052)" opacity="0.3">
              <g id="Grupo_1099115" data-name="Grupo 1099115">
                <g id="Grupo_1099114" data-name="Grupo 1099114" clip-path="url(#clip-path-10)">
                  <path id="Trazado_874212" data-name="Trazado 874212" d="M70.16,220.988a4.857,4.857,0,0,0,.2,2.523s-5.15,1.638-7.62,2.728a3.412,3.412,0,0,1-.454-2.225Z" transform="translate(-62.251 -220.988)" fill="#fff"/>
                </g>
              </g>
            </g>
            <path id="Trazado_874213" data-name="Trazado 874213" d="M127.5,183.158a.277.277,0,0,1-.046.022l-.138.058a3.475,3.475,0,0,0-.5.277,3.95,3.95,0,0,0-1.333,1.6,7.178,7.178,0,0,0-.645,3.037,11.456,11.456,0,0,0,2.493,7.1,7.179,7.179,0,0,0,2.4,1.968,3.951,3.951,0,0,0,2.041.417,3.474,3.474,0,0,0,.565-.1l.144-.041a.292.292,0,0,1,.05-.012.267.267,0,0,1-.048.018l-.143.047a3.166,3.166,0,0,1-.566.112,3.926,3.926,0,0,1-2.065-.4,7.172,7.172,0,0,1-2.431-1.972,11.429,11.429,0,0,1-2.507-7.146,7.17,7.17,0,0,1,.666-3.058,3.925,3.925,0,0,1,1.363-1.6,3.179,3.179,0,0,1,.512-.267l.141-.052a.28.28,0,0,1,.049-.015" transform="translate(-107.8 -158.25)" fill="#263238"/>
            <path id="Trazado_874214" data-name="Trazado 874214" d="M145.471,290.892a.481.481,0,0,1-.133,0c-.085,0-.208-.017-.36-.036a9.109,9.109,0,0,1-2.3-.613c-.141-.059-.253-.11-.33-.148a.48.48,0,0,1-.116-.065,4.76,4.76,0,0,1,.464.167c.285.105.682.241,1.13.36s.86.2,1.159.25a4.723,4.723,0,0,1,.485.086" transform="translate(-122.89 -250.586)" fill="#263238"/>
            <path id="Trazado_874215" data-name="Trazado 874215" d="M100.849,289.487c.008.018-1.3.591-2.927,1.279S94.974,292,94.967,291.98s1.3-.591,2.927-1.279,2.947-1.232,2.955-1.213" transform="translate(-82.052 -250.119)" fill="#263238"/>
            <path id="Trazado_874216" data-name="Trazado 874216" d="M156.87,98.719a.219.219,0,0,1-.024.039l-.076.112-.3.424c-.262.367-.645.9-1.126,1.543s-1.06,1.414-1.72,2.252c-.33.419-.68.856-1.051,1.3q-.277.336-.573.675c-.2.228-.409.446-.616.674a26.283,26.283,0,0,1-2.611,2.288c-.843.654-1.629,1.208-2.3,1.661s-1.221.8-1.6,1.037c-.192.118-.343.208-.445.268l-.117.067a.223.223,0,0,1-.041.02.225.225,0,0,1,.038-.027l.114-.073.438-.279c.379-.244.927-.6,1.592-1.055s1.446-1.015,2.285-1.671a26.9,26.9,0,0,0,2.6-2.286c.207-.227.419-.444.614-.671s.388-.45.573-.674c.372-.445.722-.881,1.054-1.3.662-.836,1.244-1.6,1.731-2.242l1.144-1.529.31-.417.082-.108a.235.235,0,0,1,.03-.035" transform="translate(-124.648 -85.294)" fill="#263238"/>
            <path id="Trazado_874217" data-name="Trazado 874217" d="M175.321,284.041a.18.18,0,0,1,.042,0l.123,0,.472-.006,1.735-.008,5.725,0a31.438,31.438,0,0,1,5.694.571c.721.134,1.3.263,1.7.356.2.046.354.085.459.111l.119.031a.181.181,0,0,1,.04.013.188.188,0,0,1-.041-.006l-.12-.024-.461-.1c-.4-.085-.981-.206-1.7-.334a32.862,32.862,0,0,0-5.686-.549l-5.724-.023-1.735-.015-.472-.008-.123,0a.183.183,0,0,1-.042,0" transform="translate(-151.479 -245.397)" fill="#263238"/>
            <g id="Grupo_1099119" data-name="Grupo 1099119" transform="translate(30.736 13.704)" opacity="0.3">
              <g id="Grupo_1099118" data-name="Grupo 1099118">
                <g id="Grupo_1099117" data-name="Grupo 1099117" clip-path="url(#clip-path-11)">
                  <path id="Trazado_874218" data-name="Trazado 874218" d="M245.03,109.679l-17.767-8.9-1.075,1.51a30.637,30.637,0,0,0,1.572,13.058,31.051,31.051,0,0,0,6.2,11.17l3.552.863Z" transform="translate(-226.013 -100.775)"/>
                </g>
              </g>
            </g>
            <path id="Trazado_874219" data-name="Trazado 874219" d="M249.884,68.637c3.183,9.7,1.9,18.838-2.872,20.4S235.8,84.005,232.614,74.3s-1.9-18.838,2.872-20.4,11.215,5.034,14.4,14.738" transform="translate(-199.471 -46.371)" fill="#59836b"/>
            <path id="Trazado_874220" data-name="Trazado 874220" d="M267.456,90.316c2.621,7.992,2.159,15.319-1.031,16.366s-7.9-4.584-10.524-12.576-2.159-15.319,1.032-16.366,7.9,4.584,10.524,12.576" transform="translate(-219.632 -67.06)" fill="#e0e0e0"/>
            <g id="Grupo_1099122" data-name="Grupo 1099122" transform="translate(37.035 9.986)" opacity="0.3">
              <g id="Grupo_1099121" data-name="Grupo 1099121">
                <g id="Grupo_1099120" data-name="Grupo 1099120" clip-path="url(#clip-path-12)">
                  <path id="Trazado_874221" data-name="Trazado 874221" d="M284.7,86.38c-2.7-8.222-7.735-13.952-11.253-12.8a3.083,3.083,0,0,0-1.113.658,2.464,2.464,0,0,1,.275-.109c3.191-1.047,7.9,4.584,10.524,12.576s2.159,15.319-1.032,16.366a2.761,2.761,0,0,1-1.529.033,3.619,3.619,0,0,0,2.64.251C286.732,102.2,287.4,94.6,284.7,86.38" transform="translate(-272.335 -73.435)"/>
                </g>
              </g>
            </g>
            <path id="Trazado_874222" data-name="Trazado 874222" d="M259.758,165.025l8.313-1.8,1.509,4.6-7.55,4s-2.135-4.718-2.272-6.8" transform="translate(-224.433 -141.028)" fill="#ff725e"/>
            <g id="Grupo_1099125" data-name="Grupo 1099125" transform="translate(35.325 23.495)" opacity="0.2">
              <g id="Grupo_1099124" data-name="Grupo 1099124">
                <g id="Grupo_1099123" data-name="Grupo 1099123" clip-path="url(#clip-path-13)">
                  <path id="Trazado_874223" data-name="Trazado 874223" d="M262.077,172.77c-.13.053-1.668,2.762-.61,4.313a6.521,6.521,0,0,0,2.205,2.117l-1.539.832-1.608-4.261-.768-2.5Z" transform="translate(-259.757 -172.77)"/>
                </g>
              </g>
            </g>
            <path id="Trazado_874224" data-name="Trazado 874224" d="M318.793,164.943c.417,1.27.234,2.47-.408,2.681s-1.5-.648-1.917-1.918-.234-2.47.408-2.681,1.5.648,1.917,1.918" transform="translate(-273.238 -140.827)" fill="#ff725e"/>
            <path id="Trazado_874225" data-name="Trazado 874225" d="M318.581,164.763a.762.762,0,0,1-.047-.11c-.027-.074-.071-.18-.131-.315a4.514,4.514,0,0,0-.253-.476,3.157,3.157,0,0,0-.432-.564,1.45,1.45,0,0,0-.716-.439.626.626,0,0,0-.446.071.827.827,0,0,0-.316.372,2.324,2.324,0,0,0-.169,1.063,4.545,4.545,0,0,0,.724,2.208,2.329,2.329,0,0,0,.766.757.829.829,0,0,0,.475.113.626.626,0,0,0,.4-.207,1.449,1.449,0,0,0,.317-.777,3.149,3.149,0,0,0,.014-.711,4.485,4.485,0,0,0-.078-.534c-.032-.145-.059-.257-.081-.332a.757.757,0,0,1-.027-.116.739.739,0,0,1,.041.112c.027.074.058.185.094.33a4.191,4.191,0,0,1,.091.536,3.116,3.116,0,0,1,0,.721,1.491,1.491,0,0,1-.323.811.686.686,0,0,1-.438.229.89.89,0,0,1-.512-.117,2.376,2.376,0,0,1-.793-.776,4.57,4.57,0,0,1-.736-2.243,2.377,2.377,0,0,1,.179-1.094.89.89,0,0,1,.343-.4.685.685,0,0,1,.489-.075,1.491,1.491,0,0,1,.741.462,3.112,3.112,0,0,1,.43.579,4.193,4.193,0,0,1,.244.486c.057.138.1.246.119.322a.758.758,0,0,1,.033.115" transform="translate(-273.026 -140.647)" fill="#263238"/>
            <g id="Grupo_1099128" data-name="Grupo 1099128" transform="translate(43.619 23.154)" opacity="0.3">
              <g id="Grupo_1099127" data-name="Grupo 1099127">
                <g id="Grupo_1099126" data-name="Grupo 1099126" clip-path="url(#clip-path-14)">
                  <path id="Trazado_874226" data-name="Trazado 874226" d="M322.213,171.378c.239.728.134,1.416-.234,1.536s-.86-.372-1.1-1.1-.134-1.416.234-1.536.86.372,1.1,1.1" transform="translate(-320.753 -170.26)"/>
                </g>
              </g>
            </g>
            <path id="Trazado_874227" data-name="Trazado 874227" d="M256.747,78.536s-.028.014-.083.037-.139.052-.242.106a2.925,2.925,0,0,0-.8.618,6.53,6.53,0,0,0-1.39,3.42,16.552,16.552,0,0,0-.186,2.579,25.43,25.43,0,0,0,.194,2.964,36.589,36.589,0,0,0,4.221,12.869,25.445,25.445,0,0,0,1.6,2.5,16.565,16.565,0,0,0,1.677,1.967,6.529,6.529,0,0,0,3.145,1.932,2.925,2.925,0,0,0,1.011.024c.115-.018.2-.046.258-.058s.089-.019.089-.019a3.387,3.387,0,0,1-.344.091,2.867,2.867,0,0,1-1.018-.01,4.6,4.6,0,0,1-1.5-.6,8.828,8.828,0,0,1-1.678-1.327,16.459,16.459,0,0,1-1.69-1.968,25.282,25.282,0,0,1-1.609-2.506,36.336,36.336,0,0,1-4.229-12.894,25.261,25.261,0,0,1-.188-2.971,16.489,16.489,0,0,1,.2-2.587,8.828,8.828,0,0,1,.566-2.063,4.6,4.6,0,0,1,.853-1.368,2.869,2.869,0,0,1,.814-.612,3.358,3.358,0,0,1,.331-.13" transform="translate(-219.447 -67.856)" fill="#263238"/>
            <g id="Grupo_1099131" data-name="Grupo 1099131" transform="translate(36.885 25.893)" opacity="0.2">
              <g id="Grupo_1099130" data-name="Grupo 1099130">
                <g id="Grupo_1099129" data-name="Grupo 1099129" clip-path="url(#clip-path-15)">
                  <path id="Trazado_874228" data-name="Trazado 874228" d="M271.232,193.294l6.822-2.89s.529.9,1.2.934l-7.211,3.931Z" transform="translate(-271.232 -190.403)"/>
                </g>
              </g>
            </g>
            <g id="Grupo_1099134" data-name="Grupo 1099134" transform="translate(32.199 17.23)" opacity="0.3">
              <g id="Grupo_1099133" data-name="Grupo 1099133">
                <g id="Grupo_1099132" data-name="Grupo 1099132" clip-path="url(#clip-path-16)">
                  <path id="Trazado_874229" data-name="Trazado 874229" d="M236.93,126.7a4.375,4.375,0,0,0,0,2.206H238.2V126.7Z" transform="translate(-236.77 -126.703)" fill="#fff"/>
                </g>
              </g>
            </g>
            <g id="Grupo_1099137" data-name="Grupo 1099137" transform="translate(32.293 7.331)" opacity="0.3">
              <g id="Grupo_1099136" data-name="Grupo 1099136">
                <g id="Grupo_1099135" data-name="Grupo 1099135" clip-path="url(#clip-path-17)">
                  <path id="Trazado_874230" data-name="Trazado 874230" d="M243.214,53.911a5.683,5.683,0,0,0-2.817,1.4c-2.093,1.77-2.951,4.865-2.935,7.572a2.049,2.049,0,0,1,1.383,0,14.243,14.243,0,0,1,.719-4.017,4.537,4.537,0,0,1,5.928-3.022c2.4.687,4.258,2.5,5.922,4.407-2.534-3.684-5.505-6.04-8.2-6.337" transform="translate(-237.461 -53.911)" fill="#fff"/>
                </g>
              </g>
            </g>
            <path id="Trazado_874231" data-name="Trazado 874231" d="M319.912,280.266a.544.544,0,0,1-.038.094c-.029.06-.064.152-.125.263a5.29,5.29,0,0,1-.587.9,5.144,5.144,0,0,1-1.172,1.074,4.54,4.54,0,0,1-.835.436,4.246,4.246,0,0,1-.98.252,3.591,3.591,0,0,1-1.908-.335,6.9,6.9,0,0,1-1.356-.831c-.359-.276-.634-.518-.821-.688-.094-.084-.165-.153-.213-.2a.551.551,0,0,1-.071-.073.541.541,0,0,1,.08.062l.222.188c.192.164.472.4.833.669a7.085,7.085,0,0,0,1.352.812,3.562,3.562,0,0,0,1.873.324,4.231,4.231,0,0,0,.964-.246,4.543,4.543,0,0,0,.825-.426,5.22,5.22,0,0,0,1.169-1.051,5.725,5.725,0,0,0,.6-.879c.065-.108.1-.2.137-.256a.558.558,0,0,1,.051-.088" transform="translate(-269.403 -242.152)" fill="#fff"/>
            <g id="Grupo_1099140" data-name="Grupo 1099140" transform="translate(34.502 10.839)" opacity="0.3">
              <g id="Grupo_1099139" data-name="Grupo 1099139">
                <g id="Grupo_1099138" data-name="Grupo 1099138" clip-path="url(#clip-path-18)">
                  <path id="Trazado_874232" data-name="Trazado 874232" d="M259.134,101.918A46.326,46.326,0,0,1,255.05,87.8a18.2,18.2,0,0,1-.071-4.884,9.046,9.046,0,0,1,1.086-3.214c-2.848,1.485-3.171,8.539-.657,16.206,2.621,7.992,7.333,13.622,10.524,12.576a2.5,2.5,0,0,0,.323-.133,6.713,6.713,0,0,1-4.3-2.078,15.244,15.244,0,0,1-2.822-4.36" transform="translate(-253.709 -79.707)"/>
                </g>
              </g>
            </g>
          </g>
        </g>
        <path id="Trazado_874233" data-name="Trazado 874233" d="M374.859,134.472l8.356-1.5-1.285-1.831,4.58-1.931-7.3.882,1.323,2.007Z" transform="translate(-323.882 -111.635)" fill="#12263f"/>
        <path id="Trazado_874234" data-name="Trazado 874234" d="M369.189,74.422l5.3-4.243-2.062-.889,1.844-3.353-4.315,3.627,1.788.845Z" transform="translate(-318.983 -56.97)" fill="#12263f"/>
        <path id="Trazado_874235" data-name="Trazado 874235" d="M389.6,201.114l5.326,4.234.14-1.591,3.54,1.453-4.585-3.693-.143,1.686Z" transform="translate(-336.616 -173.765)" fill="#12263f"/>
      </g>
    </g>
  </g>
</svg>
