<svg xmlns="http://www.w3.org/2000/svg" xmlns:xlink="http://www.w3.org/1999/xlink" width="80" height="80" viewBox="0 0 80 80">
  <defs>
    <clipPath id="clip-path">
      <rect id="Rectángulo_401314" data-name="Rectángulo 401314" width="40.544" height="48.357" fill="none"/>
    </clipPath>
  </defs>
  <g id="_13" data-name="13" transform="translate(-529 -521)">
    <circle id="Elipse_11515" data-name="Elipse 11515" cx="40" cy="40" r="40" transform="translate(529 521)" fill="#f1c12c"/>
    <g id="Grupo_1099148" data-name="Grupo 1099148" transform="translate(549 537)">
      <g id="Grupo_1099147" data-name="Grupo 1099147" transform="translate(0 0)" clip-path="url(#clip-path)">
        <path id="Trazado_874260" data-name="Trazado 874260" d="M12.313,42.982a.751.751,0,0,1-.716-.525A56.23,56.23,0,0,1,9.3,29.511a.752.752,0,0,1,1.5-.081A54.619,54.619,0,0,0,13.029,42a.751.751,0,0,1-.49.943.743.743,0,0,1-.226.035m-3.924-17.3a.75.75,0,0,1-.594-.289C4.821,21.575,4.088,14.059,6.257,9.621a.751.751,0,0,1,1.35.66C5.689,14.206,6.357,21.1,8.98,24.465a.751.751,0,0,1-.592,1.213" transform="translate(-1.244 -2.287)"/>
        <path id="Trazado_874261" data-name="Trazado 874261" d="M28.208,48.357c-1.2,0-3.982-.651-3.982-6.686,0-10.162-1.33-15.314-3.953-15.314s-3.954,5.152-3.954,15.314c0,6.034-2.785,6.686-3.982,6.686-5.724,0-7.787-16.509-8.027-20.931a3.569,3.569,0,0,0-.721-2.014C-.273,20.458-1.166,11.424,1.637,5.685A9.413,9.413,0,0,1,10.516,0a9.091,9.091,0,0,1,5.233,1.516,7.782,7.782,0,0,0,4.524,1.322A7.782,7.782,0,0,0,24.8,1.516,9.087,9.087,0,0,1,30.029,0a9.414,9.414,0,0,1,8.88,5.685c2.8,5.739,1.91,14.773-1.951,19.727a3.575,3.575,0,0,0-.722,2.015c-.239,4.42-2.3,20.93-8.027,20.93m-7.935-23.5c3.773,0,5.456,5.187,5.456,16.817,0,1.936.322,5.183,2.48,5.183,2.285,0,5.873-7.421,6.527-19.509a5.06,5.06,0,0,1,1.036-2.858c3.488-4.474,4.322-12.952,1.787-18.143A8.031,8.031,0,0,0,30.029,1.5a7.723,7.723,0,0,0-4.476,1.312,9.258,9.258,0,0,1-5.28,1.526,9.264,9.264,0,0,1-5.28-1.525A7.718,7.718,0,0,0,10.516,1.5,8.03,8.03,0,0,0,2.987,6.345c-2.535,5.191-1.7,13.669,1.787,18.143A5.06,5.06,0,0,1,5.81,27.344c.654,12.088,4.242,19.51,6.527,19.51,2.158,0,2.48-3.247,2.48-5.183,0-11.63,1.683-16.817,5.457-16.817" transform="translate(0 0)"/>
      </g>
    </g>
  </g>
</svg>
