<svg xmlns="http://www.w3.org/2000/svg" xmlns:xlink="http://www.w3.org/1999/xlink" width="80" height="80" viewBox="0 0 80 80">
  <defs>
    <clipPath id="clip-path">
      <rect id="Rectángulo_401315" data-name="Rectángulo 401315" width="39.979" height="39.962" fill="none"/>
    </clipPath>
  </defs>
  <g id="_14" data-name="14" transform="translate(-835 -521)">
    <g id="Grupo_1099151" data-name="Grupo 1099151" transform="translate(306)">
      <circle id="Elipse_11515" data-name="Elipse 11515" cx="40" cy="40" r="40" transform="translate(529 521)" fill="#f1c12c"/>
    </g>
    <g id="Grupo_1099153" data-name="Grupo 1099153" transform="translate(855 541)">
      <g id="Grupo_1099152" data-name="Grupo 1099152" transform="translate(0 0)" clip-path="url(#clip-path)">
        <path id="Trazado_874262" data-name="Trazado 874262" d="M23.232,18.477a.62.62,0,0,1-.62-.62V5.691a1.317,1.317,0,0,0-2.633,0V8.53a.62.62,0,1,1-1.24,0V5.691a2.557,2.557,0,1,1,5.114,0V17.857a.62.62,0,0,1-.62.62" transform="translate(-7.117 -1.19)"/>
        <path id="Trazado_874263" data-name="Trazado 874263" d="M16.986,17.287a.62.62,0,0,1-.62-.62V2.557a1.317,1.317,0,1,0-2.633,0V16.047a.62.62,0,1,1-1.24,0V2.557a2.557,2.557,0,1,1,5.114,0v14.11a.62.62,0,0,1-.62.62" transform="translate(-4.744 0)"/>
        <path id="Trazado_874264" data-name="Trazado 874264" d="M6.866,22.01a.62.62,0,0,1-.62-.62V5.686a2.571,2.571,0,0,1,.8-1.856,2.538,2.538,0,0,1,1.9-.7A2.614,2.614,0,0,1,11.36,5.8v2.73a.62.62,0,1,1-1.24,0V5.8A1.393,1.393,0,0,0,8.874,4.371,1.321,1.321,0,0,0,7.9,4.73a1.306,1.306,0,0,0-.411.956v15.7a.62.62,0,0,1-.62.62" transform="translate(-2.372 -1.188)"/>
        <path id="Trazado_874265" data-name="Trazado 874265" d="M29.478,42.257a.62.62,0,0,1-.62-.62V8.6a1.317,1.317,0,0,0-2.633,0V18.961a.62.62,0,0,1-1.24,0V8.6a2.557,2.557,0,0,1,5.114,0V41.636a.62.62,0,0,1-.62.62" transform="translate(-9.489 -2.294)"/>
        <path id="Trazado_874266" data-name="Trazado 874266" d="M7.538,47.11a.62.62,0,0,1-.62-.62v-7.6c0-1.079-1.31-2.191-2.7-3.367C2.241,33.84,0,31.939,0,29.083v-8.5A1.761,1.761,0,0,1,.807,19.1a1.718,1.718,0,0,1,1.644-.132,4.5,4.5,0,0,1,2.664,4.106v4.275a.62.62,0,0,1-1.24,0V23.074A3.26,3.26,0,0,0,1.945,20.1a.482.482,0,0,0-.463.04.524.524,0,0,0-.241.442v8.5c0,2.281,1.922,3.912,3.781,5.488,1.613,1.368,3.136,2.66,3.136,4.314v7.6a.62.62,0,0,1-.62.62" transform="translate(0 -7.147)"/>
        <path id="Trazado_874267" data-name="Trazado 874267" d="M12.629,38.575a.62.62,0,0,1-.62-.62,5.149,5.149,0,0,0-5.143-5.143.62.62,0,1,1,0-1.24,6.39,6.39,0,0,1,6.383,6.383.62.62,0,0,1-.62.62" transform="translate(-2.372 -11.991)"/>
        <path id="Trazado_874268" data-name="Trazado 874268" d="M38.1,18.477a.62.62,0,0,1-.62-.62V5.691a2.557,2.557,0,0,1,5.114,0V8.53a.62.62,0,0,1-1.24,0V5.691a1.317,1.317,0,1,0-2.633,0V17.857a.62.62,0,0,1-.62.62" transform="translate(-14.234 -1.19)"/>
        <path id="Trazado_874269" data-name="Trazado 874269" d="M44.343,17.287a.62.62,0,0,1-.62-.62V2.557a2.557,2.557,0,1,1,5.114,0V16.047a.62.62,0,1,1-1.24,0V2.557a1.317,1.317,0,0,0-2.633,0v14.11a.62.62,0,0,1-.62.62" transform="translate(-16.606 0)"/>
        <path id="Trazado_874270" data-name="Trazado 874270" d="M54.463,22.01a.62.62,0,0,1-.62-.62V5.686a1.317,1.317,0,0,0-1.388-1.315A1.393,1.393,0,0,0,51.209,5.8v2.73a.62.62,0,1,1-1.24,0V5.8A2.614,2.614,0,0,1,52.39,3.133a2.557,2.557,0,0,1,2.694,2.553v15.7a.62.62,0,0,1-.62.62" transform="translate(-18.978 -1.188)"/>
        <path id="Trazado_874271" data-name="Trazado 874271" d="M31.85,42.257a.62.62,0,0,1-.62-.62V8.6a2.557,2.557,0,0,1,5.114,0V18.961a.62.62,0,1,1-1.24,0V8.6a1.317,1.317,0,0,0-2.633,0V41.636a.62.62,0,0,1-.62.62" transform="translate(-11.861 -2.294)"/>
        <path id="Trazado_874272" data-name="Trazado 874272" d="M51.926,47.11a.62.62,0,0,1-.62-.62v-7.6c0-1.653,1.524-2.945,3.137-4.314,1.859-1.577,3.781-3.206,3.781-5.488v-8.5a.524.524,0,0,0-.241-.442.484.484,0,0,0-.463-.04,3.26,3.26,0,0,0-1.929,2.973v4.275a.62.62,0,0,1-1.24,0V23.074a4.5,4.5,0,0,1,2.664-4.106,1.718,1.718,0,0,1,1.644.132,1.761,1.761,0,0,1,.807,1.482v8.5c0,2.855-2.242,4.756-4.22,6.434-1.388,1.177-2.7,2.288-2.7,3.367v7.6a.62.62,0,0,1-.62.62" transform="translate(-19.486 -7.147)"/>
        <path id="Trazado_874273" data-name="Trazado 874273" d="M47.542,38.575a.62.62,0,0,1-.62-.62,6.391,6.391,0,0,1,6.384-6.383.62.62,0,0,1,0,1.24,5.149,5.149,0,0,0-5.143,5.143.62.62,0,0,1-.62.62" transform="translate(-17.821 -11.991)"/>
        <path id="Trazado_874274" data-name="Trazado 874274" d="M33.691,22.734a4.637,4.637,0,0,0-6.907,2.449.242.242,0,0,1-.466,0,4.639,4.639,0,1,0-7.682,4.74l4.635,4.634,3.28,3.28,3.28-3.28,4.634-4.634a4.644,4.644,0,0,0-.775-7.189" transform="translate(-6.562 -8.355)" fill="#fff"/>
        <path id="Trazado_874275" data-name="Trazado 874275" d="M25.412,38.557a1.861,1.861,0,0,1-1.315-.545L16.182,30.1a6.5,6.5,0,0,1,8.339-9.911,6.693,6.693,0,0,1,.891.759,6.67,6.67,0,0,1,.892-.76A6.5,6.5,0,0,1,34.642,30.1l-7.914,7.914a1.858,1.858,0,0,1-1.315.545M20.768,22.719a2.691,2.691,0,0,0-1.475.429,2.784,2.784,0,0,0-.481,4.318l6.6,6.6,6.6-6.6a2.779,2.779,0,1,0-4.6-2.844,2.107,2.107,0,0,1-2,1.456h0a2.106,2.106,0,0,1-2-1.456,2.79,2.79,0,0,0-1.048-1.4,2.761,2.761,0,0,0-1.595-.5m6.177.741v0" transform="translate(-5.423 -7.214)" fill="#fff"/>
        <path id="Trazado_874276" data-name="Trazado 874276" d="M26.171,38.076a.622.622,0,0,1-.438-.182L17.818,29.98a5.26,5.26,0,0,1,6.743-8.024,5.3,5.3,0,0,1,1.61,1.819,5.259,5.259,0,1,1,8.353,6.205L26.61,37.894a.62.62,0,0,1-.438.182M21.527,22.243a3.931,3.931,0,0,0-2.155.628,4.057,4.057,0,0,0-1.833,2.978A4.006,4.006,0,0,0,18.7,29.1l7.476,7.476L33.647,29.1A4.007,4.007,0,0,0,34.8,25.849a4.057,4.057,0,0,0-1.833-2.978,4.017,4.017,0,0,0-5.977,2.124.869.869,0,0,1-.823.6h0a.868.868,0,0,1-.821-.6,4.006,4.006,0,0,0-3.822-2.752" transform="translate(-6.182 -7.973)"/>
      </g>
    </g>
  </g>
</svg>
