<svg xmlns="http://www.w3.org/2000/svg" xmlns:xlink="http://www.w3.org/1999/xlink" width="80" height="80" viewBox="0 0 80 80">
  <defs>
    <clipPath id="clip-path">
      <rect id="Rectángulo_401313" data-name="Rectángulo 401313" width="52" height="48.775" fill="none"/>
    </clipPath>
  </defs>
  <g id="_16" data-name="16" transform="translate(-220 -521)">
    <circle id="Elipse_11514" data-name="Elipse 11514" cx="40" cy="40" r="40" transform="translate(220 521)" fill="#f1c12c"/>
    <g id="Grupo_1099146" data-name="Grupo 1099146" transform="translate(233 535)">
      <g id="Grupo_1099145" data-name="Grupo 1099145" transform="translate(0 0)" clip-path="url(#clip-path)">
        <path id="Trazado_874236" data-name="Trazado 874236" d="M22.456,16.019A11.09,11.09,0,1,0,14.5,22.913l5.82,3.339-.018-6.71" transform="translate(-0.278 -0.278)" fill="#fff"/>
        <path id="Trazado_874237" data-name="Trazado 874237" d="M20.039,26.694a.716.716,0,0,1-.358-.1L14.1,23.4A11.814,11.814,0,1,1,22.851,16a.72.72,0,0,1-1.347-.51,10.369,10.369,0,1,0-7.442,6.447.719.719,0,0,1,.515.078l4.738,2.718L19.3,19.267a.719.719,0,0,1,.718-.722h0a.721.721,0,0,1,.72.718l.018,6.71a.72.72,0,0,1-.72.722" transform="translate(0 0)"/>
        <path id="Trazado_874238" data-name="Trazado 874238" d="M37.035,24.946a2.534,2.534,0,0,1-4.771-.859,21.464,21.464,0,0,1-.183-2.816h-.007A9.85,9.85,0,0,1,41.7,11.209,9.85,9.85,0,0,1,51.32,21.272a21.466,21.466,0,0,1-.183,2.817,2.541,2.541,0,0,1-5.063-.343" transform="translate(-8.986 -3.14)" fill="#fff"/>
        <path id="Trazado_874239" data-name="Trazado 874239" d="M47.776,27.642a4.725,4.725,0,0,1-4.7-4.737,2.16,2.16,0,0,1,4.319,0,.4.4,0,0,0,.383.418.4.4,0,0,0,.379-.356,19.3,19.3,0,0,0,.166-2.536,7.7,7.7,0,0,0-7.463-7.9,7.692,7.692,0,0,0-7.463,7.755c0,.049.005.1.005.148a19.342,19.342,0,0,0,.165,2.532.4.4,0,0,0,.38.359.385.385,0,0,0,.335-.214A2.159,2.159,0,1,1,38.11,25.1a4.694,4.694,0,0,1-8.827-1.575,23.588,23.588,0,0,1-.2-2.923c-.005-.058-.006-.116-.006-.174A12.022,12.022,0,0,1,40.857,8.209,12.022,12.022,0,0,1,52.64,20.431a23.758,23.758,0,0,1-.2,3.1,4.725,4.725,0,0,1-4.662,4.11" transform="translate(-8.146 -2.3)" fill="#fff"/>
        <path id="Trazado_874240" data-name="Trazado 874240" d="M32.429,28.068A2.33,2.33,0,0,0,34.758,30.4a2.3,2.3,0,0,0,.376-.038c1.052,4.272,3.635,7.3,6.662,7.3s5.61-3.025,6.661-7.3a2.321,2.321,0,1,0,.507-4.608" transform="translate(-9.085 -7.215)" fill="#fff"/>
        <path id="Trazado_874241" data-name="Trazado 874241" d="M40.956,38.974c-3.606,0-6.764-2.874-8.322-7.445a4.5,4.5,0,0,1-3.206-4.3,2.16,2.16,0,1,1,4.319,0,.171.171,0,0,0,.171.17l.027-.009A2.161,2.161,0,0,1,36.392,29c.819,3.329,2.7,5.653,4.565,5.653S44.7,32.331,45.52,29a2.158,2.158,0,0,1,2.44-1.616l.083.012a.181.181,0,0,0,.117-.172.164.164,0,0,0-.161-.16,2.16,2.16,0,1,1,.251-4.312,4.483,4.483,0,0,1,1.029,8.772c-1.558,4.572-4.716,7.447-8.322,7.447" transform="translate(-8.244 -6.374)" fill="#fff"/>
        <path id="Trazado_874242" data-name="Trazado 874242" d="M36.207,25.883a2.507,2.507,0,0,1-1.422.44,2.554,2.554,0,0,1-2.52-2.234,21.341,21.341,0,0,1-.184-2.817h-.006A9.85,9.85,0,0,1,41.7,11.21a9.85,9.85,0,0,1,9.623,10.062,21.483,21.483,0,0,1-.184,2.817,2.541,2.541,0,0,1-5.063-.343" transform="translate(-8.986 -3.14)" fill="#fff"/>
        <path id="Trazado_874243" data-name="Trazado 874243" d="M48.336,26.763a3.284,3.284,0,0,1-3.262-3.3.72.72,0,1,1,1.44,0,1.822,1.822,0,0,0,3.63.25,20.889,20.889,0,0,0,.177-2.723,9.141,9.141,0,0,0-8.9-9.343,9.136,9.136,0,0,0-8.9,9.251.781.781,0,0,1,.006.092,20.859,20.859,0,0,0,.177,2.722,1.839,1.839,0,0,0,1.808,1.61,1.789,1.789,0,0,0,1.015-.315.72.72,0,0,1,.813,1.188,3.223,3.223,0,0,1-1.828.566A3.282,3.282,0,0,1,31.271,23.9a22.261,22.261,0,0,1-.19-2.813.715.715,0,0,1-.006-.1A10.581,10.581,0,0,1,41.418,10.209,10.581,10.581,0,0,1,51.76,20.992a22.234,22.234,0,0,1-.19,2.911,3.282,3.282,0,0,1-3.234,2.86" transform="translate(-8.706 -2.86)"/>
        <path id="Trazado_874244" data-name="Trazado 874244" d="M32.329,28.053a2.5,2.5,0,0,0,2.4,2.345,2.241,2.241,0,0,0,.377-.038c1.052,4.272,3.634,7.3,6.661,7.3s5.61-3.024,6.661-7.3a2.265,2.265,0,0,0,.373.037,2.324,2.324,0,0,0,.134-4.645" transform="translate(-9.057 -7.215)" fill="#fff"/>
        <path id="Trazado_874245" data-name="Trazado 874245" d="M41.489,38.095c-3.163,0-5.949-2.83-7.206-7.262a3.208,3.208,0,0,1-2.95-2.995.72.72,0,0,1,1.434-.132A1.787,1.787,0,0,0,34.45,29.4a1.64,1.64,0,0,0,.261-.029.721.721,0,0,1,.816.538c.993,4.036,3.39,6.749,5.962,6.749s4.968-2.712,5.962-6.748a.718.718,0,0,1,.813-.539,1.6,1.6,0,0,0,.258.029,1.6,1.6,0,0,0,.093-3.207.72.72,0,0,1,.083-1.438,3.044,3.044,0,0,1,0,6.079c-1.258,4.434-4.043,7.263-7.206,7.263" transform="translate(-8.777 -6.934)"/>
        <path id="Trazado_874246" data-name="Trazado 874246" d="M48.006,24.791c-4.015,0-7.681-2.135-9.122-5.312a.72.72,0,1,1,1.311-.595c1.212,2.672,4.35,4.467,7.811,4.467a9.954,9.954,0,0,0,2.565-.332.72.72,0,0,1,.371,1.391,11.417,11.417,0,0,1-2.936.38" transform="translate(-10.876 -5.172)"/>
        <path id="Trazado_874247" data-name="Trazado 874247" d="M38.035,44.163a.719.719,0,0,1-.65-1.027l1.533-3.244a.72.72,0,1,1,1.3.615l-1.533,3.244a.719.719,0,0,1-.651.412" transform="translate(-10.454 -11.061)"/>
        <path id="Trazado_874248" data-name="Trazado 874248" d="M20.278,61.1a.719.719,0,0,1-.718-.689l-.436-9.973a4.63,4.63,0,0,1,3.814-4.778L32.817,44a.72.72,0,0,1,.239,1.42l-9.884,1.663a3.206,3.206,0,0,0-2.61,3.277L21,60.347a.719.719,0,0,1-.687.75h-.032" transform="translate(-5.355 -12.323)"/>
        <path id="Trazado_874249" data-name="Trazado 874249" d="M60.805,62.551a2.3,2.3,0,1,1-2.3-2.3,2.305,2.305,0,0,1,2.3,2.3" transform="translate(-15.744 -16.878)" fill="#fff"/>
        <path id="Trazado_874250" data-name="Trazado 874250" d="M58.221,65.295a3.024,3.024,0,1,1,3.024-3.024,3.028,3.028,0,0,1-3.024,3.024m0-4.609a1.585,1.585,0,1,0,1.584,1.585,1.587,1.587,0,0,0-1.584-1.585" transform="translate(-15.464 -16.598)"/>
        <path id="Trazado_874251" data-name="Trazado 874251" d="M31.763,52.516a.72.72,0,0,1-.72-.72v-6a.72.72,0,0,1,1.44,0v6a.72.72,0,0,1-.72.72" transform="translate(-8.697 -12.629)"/>
        <line id="Línea_596" data-name="Línea 596" y1="10.174" transform="translate(42.757 33.194)" fill="#fff"/>
        <path id="Trazado_874252" data-name="Trazado 874252" d="M59.118,56.726a.72.72,0,0,1-.72-.72V45.833a.72.72,0,0,1,1.44,0V56.006a.72.72,0,0,1-.72.72" transform="translate(-16.361 -12.639)"/>
        <path id="Trazado_874253" data-name="Trazado 874253" d="M33.64,63.738h-.607a.72.72,0,1,1,0-1.44h.474V58.167a3.317,3.317,0,1,0-6.633,0V62.3h.474a.72.72,0,1,1,0,1.44h-.607a1.308,1.308,0,0,1-1.307-1.307V58.167a4.756,4.756,0,1,1,9.513,0v4.264a1.308,1.308,0,0,1-1.307,1.307" transform="translate(-7.126 -14.963)"/>
        <path id="Trazado_874254" data-name="Trazado 874254" d="M43.334,58.276a.72.72,0,0,1-.666-.446l-5.3-12.849a.72.72,0,0,1,1.331-.549L44,57.281a.72.72,0,0,1-.392.94.709.709,0,0,1-.274.055" transform="translate(-10.454 -12.323)"/>
        <path id="Trazado_874255" data-name="Trazado 874255" d="M52.162,44.163a.72.72,0,0,1-.651-.412l-1.534-3.244a.72.72,0,0,1,1.3-.616l1.534,3.244a.72.72,0,0,1-.65,1.028" transform="translate(-13.982 -11.061)"/>
        <path id="Trazado_874256" data-name="Trazado 874256" d="M65.415,61.1h-.032a.719.719,0,0,1-.687-.75l.436-9.973a3.21,3.21,0,0,0-2.6-3.295l-9.89-1.664A.72.72,0,0,1,52.876,44l9.885,1.664a4.632,4.632,0,0,1,3.807,4.8l-.436,9.954a.719.719,0,0,1-.718.689" transform="translate(-14.579 -12.323)"/>
        <path id="Trazado_874257" data-name="Trazado 874257" d="M45.4,58.276a.709.709,0,0,1-.274-.055.72.72,0,0,1-.392-.94l5.3-12.849a.72.72,0,0,1,1.331.549l-5.3,12.849a.72.72,0,0,1-.666.446" transform="translate(-12.516 -12.323)"/>
        <path id="Trazado_874258" data-name="Trazado 874258" d="M19.147,17.032H9.012a.72.72,0,1,1,0-1.44H19.147a.72.72,0,0,1,0,1.44" transform="translate(-2.323 -4.368)"/>
        <path id="Trazado_874259" data-name="Trazado 874259" d="M16.052,20.126a.72.72,0,0,1-.72-.72V9.272a.72.72,0,0,1,1.44,0V19.407a.72.72,0,0,1-.72.72" transform="translate(-4.295 -2.396)"/>
      </g>
    </g>
  </g>
</svg>
