<svg xmlns="http://www.w3.org/2000/svg" xmlns:xlink="http://www.w3.org/1999/xlink" width="80" height="80" viewBox="0 0 80 80">
  <defs>
    <clipPath id="clip-path">
      <rect id="Rect치ngulo_401320" data-name="Rect치ngulo 401320" width="45.362" height="45.362" fill="none"/>
    </clipPath>
  </defs>
  <g id="_18" data-name="18" transform="translate(-835 -815)">
    <g id="Grupo_1099160" data-name="Grupo 1099160" transform="translate(306 294)">
      <circle id="Elipse_11515" data-name="Elipse 11515" cx="40" cy="40" r="40" transform="translate(529 521)" fill="#f1c12c"/>
    </g>
    <g id="Grupo_1099168" data-name="Grupo 1099168" transform="translate(852 832)">
      <g id="Grupo_1099167" data-name="Grupo 1099167" transform="translate(0 0)" clip-path="url(#clip-path)">
        <path id="Trazado_874312" data-name="Trazado 874312" d="M22.093,22.809a.7.7,0,0,1-.7-.7V3.233A3.237,3.237,0,0,1,24.622,0h9.434a.7.7,0,1,1,0,1.41H24.622A1.825,1.825,0,0,0,22.8,3.233V22.1a.7.7,0,0,1-.7.7" transform="translate(-6.314 0)"/>
        <path id="Trazado_874313" data-name="Trazado 874313" d="M31.822,12.646A3.251,3.251,0,0,1,28.574,9.4V4h1.41V9.4a1.838,1.838,0,0,0,3.676,0V4h1.41V9.4a3.251,3.251,0,0,1-3.248,3.248" transform="translate(-8.435 -1.181)"/>
        <path id="Trazado_874314" data-name="Trazado 874314" d="M63.067,50.568a.7.7,0,0,1-.7-.7V18.341a.7.7,0,0,1,1.41,0V49.863a.7.7,0,0,1-.7.7" transform="translate(-18.41 -5.207)"/>
        <path id="Trazado_874315" data-name="Trazado 874315" d="M.7,53.682a.7.7,0,0,1-.7-.7V28.89a.7.7,0,1,1,1.41,0V52.977a.7.7,0,0,1-.7.7" transform="translate(0 -8.321)"/>
        <path id="Trazado_874316" data-name="Trazado 874316" d="M44.657,41.795H.7a.7.7,0,0,1,0-1.41H44.657a.7.7,0,1,1,0,1.41" transform="translate(0 -11.922)"/>
        <path id="Trazado_874317" data-name="Trazado 874317" d="M44.657,50.073H.7a.7.7,0,0,1,0-1.41H44.657a.7.7,0,0,1,0,1.41" transform="translate(0 -14.366)"/>
        <path id="Trazado_874318" data-name="Trazado 874318" d="M29.811,32.592H12.488a2.114,2.114,0,1,1,0-4.229H29.811a2.114,2.114,0,1,1,0,4.229" transform="translate(-3.062 -8.373)" fill="#fff"/>
        <path id="Trazado_874319" data-name="Trazado 874319" d="M6.41,36.017H5a5.66,5.66,0,0,1,5.653-5.653H35.644v1.41H10.653A4.248,4.248,0,0,0,6.41,36.017" transform="translate(-1.476 -8.964)"/>
        <path id="Trazado_874320" data-name="Trazado 874320" d="M55.444,30.963a3.483,3.483,0,1,1-3.482-3.482,3.482,3.482,0,0,1,3.482,3.482" transform="translate(-14.311 -8.113)" fill="#fff"/>
        <path id="Trazado_874321" data-name="Trazado 874321" d="M51.077,35.675a5.6,5.6,0,1,1,5.6-5.6,5.6,5.6,0,0,1-5.6,5.6m0-6.965a1.368,1.368,0,1,0,1.368,1.368,1.37,1.37,0,0,0-1.368-1.368" transform="translate(-13.426 -7.227)" fill="#fff"/>
        <path id="Trazado_874322" data-name="Trazado 874322" d="M51.667,34.856a4.188,4.188,0,1,1,4.187-4.188,4.192,4.192,0,0,1-4.187,4.188m0-6.965a2.778,2.778,0,1,0,2.778,2.778,2.781,2.781,0,0,0-2.778-2.778" transform="translate(-14.016 -7.818)"/>
        <rect id="Rect치ngulo_401319" data-name="Rect치ngulo 401319" width="1.41" height="7.116" transform="translate(22.682 12.874)"/>
      </g>
    </g>
  </g>
</svg>
