<svg xmlns="http://www.w3.org/2000/svg" xmlns:xlink="http://www.w3.org/1999/xlink" width="94" height="94" viewBox="0 0 94 94">
  <defs>
    <clipPath id="clip-path">
      <rect id="Rectángulo_401329" data-name="Rectángulo 401329" width="58.064" height="54.353" fill="none"/>
    </clipPath>
  </defs>
  <g id="_23" data-name="23" transform="translate(-595 -2198)">
    <g id="Grupo_1099180" data-name="Grupo 1099180" transform="translate(-595.333 1799)">
      <path id="Trazado_873077" data-name="Trazado 873077" d="M47,0A47,47,0,1,1,0,47,47,47,0,0,1,47,0Z" transform="translate(1190.333 399)" fill="#95dbb3"/>
    </g>
    <g id="Grupo_1099188" data-name="Grupo 1099188" transform="translate(617 2218)">
      <g id="Grupo_1099187" data-name="Grupo 1099187" transform="translate(0 0)" clip-path="url(#clip-path)">
        <path id="Trazado_874362" data-name="Trazado 874362" d="M39.906,54.978H2.236A2.239,2.239,0,0,1,0,52.741V6.356A2.239,2.239,0,0,1,2.236,4.12h37.67a2.239,2.239,0,0,1,2.236,2.236V52.741a2.239,2.239,0,0,1-2.236,2.237M2.236,5.817a.54.54,0,0,0-.54.54V52.741a.54.54,0,0,0,.54.54h37.67a.54.54,0,0,0,.54-.54V6.356a.54.54,0,0,0-.54-.54Z" transform="translate(0 -0.625)"/>
        <path id="Trazado_874363" data-name="Trazado 874363" d="M33.717,44.954a1.268,1.268,0,0,1-.9-.372L27.27,39.034a1.273,1.273,0,0,1,0-1.8L53.154,11.353a1.271,1.271,0,0,1,1.8,0L60.5,16.9a1.272,1.272,0,0,1,0,1.8L34.617,44.581a1.268,1.268,0,0,1-.9.372" transform="translate(-4.08 -1.665)" fill="#fff"/>
        <path id="Trazado_874364" data-name="Trazado 874364" d="M53.826,12.025l5.546,5.546L33.489,43.454l-5.546-5.546Zm0-2.545a2.542,2.542,0,0,0-1.8.746L26.144,36.108a2.544,2.544,0,0,0,0,3.6l5.546,5.546a2.544,2.544,0,0,0,3.6,0L61.171,19.371a2.545,2.545,0,0,0,0-3.6l-5.546-5.546a2.542,2.542,0,0,0-1.8-.746" transform="translate(-3.853 -1.438)" fill="#fff"/>
        <rect id="Rectángulo_401327" data-name="Rectángulo 401327" width="36.604" height="7.844" transform="translate(24.09 36.469) rotate(-45)" fill="#fff"/>
        <path id="Trazado_874365" data-name="Trazado 874365" d="M33.793,44.605a.846.846,0,0,1-.6-.249l-5.546-5.546a.848.848,0,0,1,0-1.2L53.529,11.729a.848.848,0,0,1,1.2,0l5.546,5.546a.849.849,0,0,1,0,1.2L34.392,44.357a.846.846,0,0,1-.6.249m-4.347-6.395,4.347,4.347L58.476,17.875l-4.347-4.347Z" transform="translate(-4.156 -1.741)"/>
        <path id="Trazado_874366" data-name="Trazado 874366" d="M59.4,23.626a.846.846,0,0,1-.6-.249l-5.545-5.546a.848.848,0,1,1,1.2-1.2L60,22.178a.848.848,0,0,1-.6,1.448" transform="translate(-8.041 -2.485)"/>
        <path id="Trazado_874367" data-name="Trazado 874367" d="M23.554,52.647l9.655-4.11-5.545-5.545Z" transform="translate(-3.573 -6.521)" fill="#fff"/>
        <path id="Trazado_874368" data-name="Trazado 874368" d="M23.4,53.344a.849.849,0,0,1-.78-1.181l4.11-9.656a.849.849,0,0,1,1.38-.267l5.545,5.546a.848.848,0,0,1-.267,1.38l-9.655,4.11a.848.848,0,0,1-.333.068m4.4-9.017L25.007,50.89,31.57,48.1Z" transform="translate(-3.421 -6.37)"/>
        <path id="Trazado_874369" data-name="Trazado 874369" d="M17.31,22.513H8.969a.848.848,0,0,1,0-1.7H17.31a.848.848,0,1,1,0,1.7" transform="translate(-1.232 -3.158)"/>
        <path id="Trazado_874370" data-name="Trazado 874370" d="M17.31,31.024H8.969a.848.848,0,0,1,0-1.7H17.31a.848.848,0,1,1,0,1.7" transform="translate(-1.232 -4.449)"/>
        <path id="Trazado_874371" data-name="Trazado 874371" d="M17.31,39.535H8.969a.848.848,0,0,1,0-1.7H17.31a.848.848,0,1,1,0,1.7" transform="translate(-1.232 -5.74)"/>
        <path id="Trazado_874372" data-name="Trazado 874372" d="M17.31,48.046H8.969a.848.848,0,0,1,0-1.7H17.31a.848.848,0,1,1,0,1.7" transform="translate(-1.232 -7.031)"/>
        <rect id="Rectángulo_401328" data-name="Rectángulo 401328" width="18.327" height="6.99" transform="translate(11.909 0.848)" fill="#fff"/>
        <path id="Trazado_874373" data-name="Trazado 874373" d="M32.213,8.687H13.885a.848.848,0,0,1-.848-.848V.848A.849.849,0,0,1,13.885,0H32.213a.849.849,0,0,1,.848.848v6.99a.848.848,0,0,1-.848.848M14.734,6.99h16.63V1.7H14.734Z" transform="translate(-1.978 0)"/>
        <path id="Trazado_874374" data-name="Trazado 874374" d="M36.423,22.513h-8.43a.848.848,0,1,1,0-1.7h8.43a.848.848,0,1,1,0,1.7" transform="translate(-4.118 -3.158)"/>
        <path id="Trazado_874375" data-name="Trazado 874375" d="M32.961,25.975a.849.849,0,0,1-.848-.848V16.7a.848.848,0,0,1,1.7,0v8.43a.849.849,0,0,1-.848.848" transform="translate(-4.871 -2.404)"/>
      </g>
    </g>
  </g>
</svg>
