<svg xmlns="http://www.w3.org/2000/svg" xmlns:xlink="http://www.w3.org/1999/xlink" width="94" height="94" viewBox="0 0 94 94">
  <defs>
    <clipPath id="clip-path">
      <rect id="Rectángulo_401364" data-name="Rectángulo 401364" width="62.682" height="58.676" fill="none"/>
    </clipPath>
  </defs>
  <g id="_27" data-name="27" transform="translate(-421 -3737)">
    <g id="Grupo_1099178" data-name="Grupo 1099178" transform="translate(-769.333 3338)">
      <path id="Trazado_873077" data-name="Trazado 873077" d="M47,0A47,47,0,1,1,0,47,47,47,0,0,1,47,0Z" transform="translate(1190.333 399)" fill="#95dbb3"/>
    </g>
    <g id="Grupo_1099215" data-name="Grupo 1099215" transform="translate(439 3755)">
      <g id="Grupo_1099214" data-name="Grupo 1099214" transform="translate(0 0)" clip-path="url(#clip-path)">
        <path id="Trazado_874523" data-name="Trazado 874523" d="M43.08,59.023H2.414A2.417,2.417,0,0,1,0,56.608V6.534A2.417,2.417,0,0,1,2.414,4.12H43.08a2.417,2.417,0,0,1,2.414,2.414V56.608a2.417,2.417,0,0,1-2.414,2.415M2.414,5.952a.583.583,0,0,0-.582.582V56.608a.583.583,0,0,0,.582.583H43.08a.583.583,0,0,0,.582-.583V6.534a.583.583,0,0,0-.582-.582Z" transform="translate(0 -0.347)"/>
        <path id="Trazado_874524" data-name="Trazado 874524" d="M34.259,47.656a1.369,1.369,0,0,1-.972-.4L27.3,41.266a1.374,1.374,0,0,1,0-1.942l27.942-27.94a1.372,1.372,0,0,1,1.942,0l5.986,5.987a1.373,1.373,0,0,1,0,1.942L35.231,47.254a1.369,1.369,0,0,1-.972.4" transform="translate(-2.265 -0.925)" fill="#fff"/>
        <path id="Trazado_874525" data-name="Trazado 874525" d="M56.087,12.227l5.987,5.987L34.133,46.156l-5.987-5.987Zm0-2.747a2.744,2.744,0,0,0-1.942.8L26.2,38.226a2.746,2.746,0,0,0,0,3.885L32.19,48.1a2.746,2.746,0,0,0,3.885,0l27.941-27.94a2.747,2.747,0,0,0,0-3.886l-5.987-5.987a2.744,2.744,0,0,0-1.942-.8" transform="translate(-2.139 -0.798)" fill="#fff"/>
        <rect id="Rectángulo_401362" data-name="Rectángulo 401362" width="39.515" height="8.467" transform="translate(26.006 39.37) rotate(-45)" fill="#fff"/>
        <path id="Trazado_874526" data-name="Trazado 874526" d="M34.3,47.24a.913.913,0,0,1-.647-.268l-5.987-5.987a.915.915,0,0,1,0-1.295L55.608,11.748a.915.915,0,0,1,1.295,0l5.987,5.987a.916.916,0,0,1,0,1.295L34.949,46.972a.913.913,0,0,1-.647.268m-4.692-6.9L34.3,45.029,60.947,18.383l-4.692-4.692Z" transform="translate(-2.308 -0.967)"/>
        <path id="Trazado_874527" data-name="Trazado 874527" d="M59.908,24.2a.913.913,0,0,1-.647-.268l-5.986-5.987a.915.915,0,1,1,1.294-1.295l5.987,5.987a.916.916,0,0,1-.647,1.563" transform="translate(-4.464 -1.38)"/>
        <path id="Trazado_874528" data-name="Trazado 874528" d="M23.554,53.415l10.423-4.437-5.986-5.986Z" transform="translate(-1.984 -3.621)" fill="#fff"/>
        <path id="Trazado_874529" data-name="Trazado 874529" d="M23.47,54.247a.916.916,0,0,1-.843-1.275l4.437-10.424a.916.916,0,0,1,1.49-.288l5.986,5.987a.915.915,0,0,1-.288,1.49L23.829,54.174a.915.915,0,0,1-.359.073m4.748-9.734L25.2,51.6l7.084-3.015Z" transform="translate(-1.9 -3.536)"/>
        <path id="Trazado_874530" data-name="Trazado 874530" d="M18.041,22.648h-9a.916.916,0,1,1,0-1.832h9a.916.916,0,0,1,0,1.832" transform="translate(-0.684 -1.753)"/>
        <path id="Trazado_874531" data-name="Trazado 874531" d="M18.041,31.159h-9a.916.916,0,1,1,0-1.832h9a.916.916,0,0,1,0,1.832" transform="translate(-0.684 -2.47)"/>
        <path id="Trazado_874532" data-name="Trazado 874532" d="M18.041,39.67h-9a.916.916,0,0,1,0-1.832h9a.916.916,0,0,1,0,1.832" transform="translate(-0.684 -3.187)"/>
        <path id="Trazado_874533" data-name="Trazado 874533" d="M18.041,48.181h-9a.916.916,0,1,1,0-1.832h9a.916.916,0,1,1,0,1.832" transform="translate(-0.684 -3.904)"/>
        <rect id="Rectángulo_401363" data-name="Rectángulo 401363" width="19.784" height="7.546" transform="translate(12.856 0.916)" fill="#fff"/>
        <path id="Trazado_874534" data-name="Trazado 874534" d="M33.738,9.378H13.953a.916.916,0,0,1-.916-.916V.916A.916.916,0,0,1,13.953,0H33.738a.916.916,0,0,1,.916.916V8.462a.916.916,0,0,1-.916.916M14.869,7.546H32.821V1.832H14.869Z" transform="translate(-1.098 0)"/>
        <path id="Trazado_874535" data-name="Trazado 874535" d="M37.161,22.648h-9.1a.916.916,0,0,1,0-1.832h9.1a.916.916,0,1,1,0,1.832" transform="translate(-2.286 -1.753)"/>
        <path id="Trazado_874536" data-name="Trazado 874536" d="M33.029,26.781a.916.916,0,0,1-.916-.916v-9.1a.916.916,0,0,1,1.832,0v9.1a.916.916,0,0,1-.916.916" transform="translate(-2.705 -1.335)"/>
      </g>
    </g>
  </g>
</svg>
