<svg xmlns="http://www.w3.org/2000/svg" xmlns:xlink="http://www.w3.org/1999/xlink" width="94" height="94" viewBox="0 0 94 94">
  <defs>
    <clipPath id="clip-path">
      <rect id="Rectángulo_401326" data-name="Rectángulo 401326" width="52.398" height="58.33" fill="none"/>
    </clipPath>
  </defs>
  <g id="_30" data-name="30" transform="translate(-421 -4226)">
    <g id="Grupo_1099178" data-name="Grupo 1099178" transform="translate(-769.333 3827)">
      <path id="Trazado_873077" data-name="Trazado 873077" d="M47,0A47,47,0,1,1,0,47,47,47,0,0,1,47,0Z" transform="translate(1190.333 399)" fill="#95dbb3"/>
    </g>
    <g id="Grupo_1099186" data-name="Grupo 1099186" transform="translate(442 4244)">
      <g id="Grupo_1099185" data-name="Grupo 1099185" transform="translate(0 0)" clip-path="url(#clip-path)">
        <path id="Trazado_874346" data-name="Trazado 874346" d="M21.112,43.125a.861.861,0,0,1-.374-.084.875.875,0,0,1-.417-1.166l7.614-16.084a.875.875,0,0,1,1.582.748L21.9,42.624a.875.875,0,0,1-.792.5" transform="translate(-2.529 -3.161)"/>
        <path id="Trazado_874347" data-name="Trazado 874347" d="M.876,63.789c-.028,0-.056,0-.086,0A.875.875,0,0,1,0,62.829L1.161,50.858a5.818,5.818,0,0,1,4.872-5.185l12.412-1.989a.875.875,0,0,1,.277,1.728L6.31,47.4A4.069,4.069,0,0,0,2.9,51.026L1.746,63a.875.875,0,0,1-.87.79" transform="translate(0 -5.458)"/>
        <path id="Trazado_874348" data-name="Trazado 874348" d="M37.432,43.125a.875.875,0,0,1-.792-.5L29.026,26.54a.875.875,0,1,1,1.581-.748l7.614,16.084a.874.874,0,0,1-.417,1.166.854.854,0,0,1-.373.084" transform="translate(-3.617 -3.161)"/>
        <path id="Trazado_874349" data-name="Trazado 874349" d="M14.514,37.491a.875.875,0,0,1-.875-.875l-.009-13.85A14.505,14.505,0,0,1,27.9,8.07a14.505,14.505,0,0,1,14.272,14.7V36.612a.875.875,0,0,1-1.75,0V22.766A12.754,12.754,0,0,0,27.9,9.82,12.754,12.754,0,0,0,15.38,22.766l.009,13.85a.875.875,0,0,1-.874.875Z" transform="translate(-1.704 -1.008)"/>
        <path id="Trazado_874350" data-name="Trazado 874350" d="M37.958,25.524c0,8.317-4.188,15.06-9.353,15.06s-9.354-6.743-9.354-15.06" transform="translate(-2.406 -3.19)" fill="#fff"/>
        <path id="Trazado_874351" data-name="Trazado 874351" d="M28.479,41.333c-5.639,0-10.227-7.148-10.227-15.934a.875.875,0,1,1,1.75,0c0,7.821,3.8,14.184,8.477,14.184S36.957,33.22,36.957,25.4a.875.875,0,0,1,1.75,0c0,8.786-4.589,15.934-10.228,15.934" transform="translate(-2.281 -3.065)"/>
        <path id="Trazado_874352" data-name="Trazado 874352" d="M34.528,25.874c-5.472,0-10.465-2.906-12.425-7.231a.875.875,0,0,1,1.594-.722c1.681,3.71,6.034,6.2,10.831,6.2a13.789,13.789,0,0,0,3.551-.459.875.875,0,0,1,.451,1.691,15.52,15.52,0,0,1-4,.519" transform="translate(-2.753 -2.175)"/>
        <path id="Trazado_874353" data-name="Trazado 874353" d="M20.927,16.958a1.748,1.748,0,0,1-1.418-.723l-4.859-6.7a1.75,1.75,0,0,1,.215-2.3,19.065,19.065,0,0,1,26.1-.13A1.748,1.748,0,0,1,41.2,9.415L36.3,16.164a1.746,1.746,0,0,1-2.06.6,17.181,17.181,0,0,0-6.255-1.111,17.052,17.052,0,0,0-6.4,1.175,1.741,1.741,0,0,1-.662.13" transform="translate(-1.789 -0.25)" fill="#fff"/>
        <path id="Trazado_874354" data-name="Trazado 874354" d="M27.738,3.5A17.3,17.3,0,0,1,39.531,8.139l-4.893,6.749a18.93,18.93,0,0,0-6.9-1.234,18.815,18.815,0,0,0-7.062,1.3l-4.86-6.7A17.3,17.3,0,0,1,27.738,3.5m0-3.5A20.787,20.787,0,0,0,13.412,5.712a3.5,3.5,0,0,0-.43,4.6l4.86,6.7A3.5,3.5,0,0,0,22,18.2a15.273,15.273,0,0,1,5.735-1.044,15.437,15.437,0,0,1,5.612.988,3.5,3.5,0,0,0,4.12-1.2l4.894-6.749a3.5,3.5,0,0,0-.456-4.624A20.811,20.811,0,0,0,27.738,0" transform="translate(-1.539 0)" fill="#fff"/>
        <path id="Trazado_874355" data-name="Trazado 874355" d="M21.051,16.208a.876.876,0,0,1-.709-.361l-4.859-6.7a.875.875,0,0,1,.108-1.15A18.192,18.192,0,0,1,40.5,7.87a.876.876,0,0,1,.113,1.156l-4.892,6.749a.872.872,0,0,1-1.031.3A18.081,18.081,0,0,0,28.113,14.9a17.948,17.948,0,0,0-6.731,1.24.865.865,0,0,1-.332.066" transform="translate(-1.914 -0.375)" fill="#fff"/>
        <path id="Trazado_874356" data-name="Trazado 874356" d="M27.988,3.75A17.3,17.3,0,0,1,39.781,8.388l-4.893,6.749a18.93,18.93,0,0,0-6.9-1.234,18.815,18.815,0,0,0-7.062,1.3l-4.86-6.7A17.3,17.3,0,0,1,27.988,3.75m0-1.75A19.045,19.045,0,0,0,14.864,7.234a1.749,1.749,0,0,0-.214,2.3l4.86,6.7a1.75,1.75,0,0,0,2.08.592,17.049,17.049,0,0,1,6.4-1.174,17.184,17.184,0,0,1,6.255,1.111,1.751,1.751,0,0,0,2.061-.6L41.2,9.416A1.75,1.75,0,0,0,40.97,7.1,19.065,19.065,0,0,0,27.988,2" transform="translate(-1.789 -0.25)"/>
        <line id="Línea_600" data-name="Línea 600" y2="5.307" transform="translate(26.043 5.892)" fill="#fff"/>
        <path id="Trazado_874357" data-name="Trazado 874357" d="M29.639,12.79a.875.875,0,0,1-.875-.875V6.608a.875.875,0,0,1,1.75,0v5.307a.875.875,0,0,1-.875.875" transform="translate(-3.595 -0.716)"/>
        <line id="Línea_601" data-name="Línea 601" x2="5.307" transform="translate(23.39 8.545)" fill="#fff"/>
        <path id="Trazado_874358" data-name="Trazado 874358" d="M31.913,10.516H26.606a.875.875,0,0,1,0-1.75h5.307a.875.875,0,0,1,0,1.75" transform="translate(-3.216 -1.095)"/>
        <path id="Trazado_874359" data-name="Trazado 874359" d="M56.227,63.789a.875.875,0,0,1-.87-.79L54.2,51.026A4.069,4.069,0,0,0,50.793,47.4L38.38,45.412a.875.875,0,0,1,.277-1.728l12.412,1.989a5.818,5.818,0,0,1,4.872,5.186L57.1,62.829a.875.875,0,0,1-.786.956c-.03,0-.058,0-.086,0" transform="translate(-4.705 -5.458)"/>
        <path id="Trazado_874360" data-name="Trazado 874360" d="M48.671,62.218H42.735a.875.875,0,1,1,0-1.75h5.936a.875.875,0,0,1,0,1.75" transform="translate(-5.232 -7.557)"/>
        <path id="Trazado_874361" data-name="Trazado 874361" d="M28.717,53.047a8.509,8.509,0,0,1-8.5-8.5.875.875,0,0,1,1.75,0,6.749,6.749,0,1,0,13.5,0,.875.875,0,0,1,1.75,0,8.509,8.509,0,0,1-8.5,8.5" transform="translate(-2.527 -5.458)"/>
      </g>
    </g>
  </g>
</svg>
