<svg xmlns="http://www.w3.org/2000/svg" xmlns:xlink="http://www.w3.org/1999/xlink" width="94" height="94" viewBox="0 0 94 94">
  <defs>
    <clipPath id="clip-path">
      <rect id="Rectángulo_401367" data-name="Rectángulo 401367" width="57.679" height="51.188" fill="none"/>
    </clipPath>
  </defs>
  <g id="_31" data-name="31" transform="translate(-421 -4389)">
    <g id="Grupo_1099178" data-name="Grupo 1099178" transform="translate(-769.333 3990)">
      <path id="Trazado_873077" data-name="Trazado 873077" d="M47,0A47,47,0,1,1,0,47,47,47,0,0,1,47,0Z" transform="translate(1190.333 399)" fill="#95dbb3"/>
    </g>
    <g id="Grupo_1099221" data-name="Grupo 1099221" transform="translate(437.321 4405.174)">
      <g id="Grupo_1099220" data-name="Grupo 1099220" transform="translate(0 0)" clip-path="url(#clip-path)">
        <path id="Trazado_874551" data-name="Trazado 874551" d="M13.843,29.478l-1.264-.884,6.333-9.044a6.529,6.529,0,0,1,3.5-2.513L33.05,13.925l.433,1.481L22.848,18.518a4.983,4.983,0,0,0-2.673,1.916Z" transform="translate(-2.876 -3.184)"/>
        <path id="Trazado_874552" data-name="Trazado 874552" d="M59.285,24.718a.766.766,0,0,1-.311-.066L40.6,16.547a.772.772,0,0,1,.623-1.412L59.6,23.241a.771.771,0,0,1-.312,1.477" transform="translate(-9.179 -3.446)"/>
        <path id="Trazado_874553" data-name="Trazado 874553" d="M69.532,44.815H64.274A2.314,2.314,0,0,1,61.96,42.5V22.992a2.314,2.314,0,0,1,2.314-2.314h5.258a2.314,2.314,0,0,1,0,4.628H66.588V40.187h2.944a2.314,2.314,0,1,1,0,4.628" transform="translate(-14.167 -4.728)" fill="#fff"/>
        <path id="Trazado_874554" data-name="Trazado 874554" d="M69.99,43.73H64.731a.771.771,0,0,1-.771-.771V23.449a.771.771,0,0,1,.771-.771H69.99a.771.771,0,0,1,0,1.543H65.5V42.187H69.99a.771.771,0,0,1,0,1.543" transform="translate(-14.624 -5.185)"/>
        <path id="Trazado_874555" data-name="Trazado 874555" d="M50.193,47.225c-4.336,0-6.988-2.094-9.012-4.142L42.279,42c2.584,2.616,4.876,3.684,7.914,3.684A12.262,12.262,0,0,0,58.974,42l1.1,1.085a13.793,13.793,0,0,1-9.879,4.142" transform="translate(-9.416 -9.603)"/>
        <path id="Trazado_874556" data-name="Trazado 874556" d="M39.775,33.392a.771.771,0,1,1,0-1.543,8.845,8.845,0,0,0,6.335-2.658.772.772,0,1,1,1.1,1.085,10.379,10.379,0,0,1-7.433,3.116" transform="translate(-8.918 -6.622)"/>
        <path id="Trazado_874557" data-name="Trazado 874557" d="M11.93,40.648a6.828,6.828,0,0,1-.751-.041,2.673,2.673,0,0,1-2.154-1.578,2.831,2.831,0,0,1,.252-2.778l2.431-3.479a.772.772,0,0,1,1.265.885l-2.431,3.478a1.263,1.263,0,0,0-.111,1.258,1.127,1.127,0,0,0,.916.681,5.314,5.314,0,0,0,4.926-2.228L19.3,32.524a.771.771,0,0,1,1.264.884L17.538,37.73a6.848,6.848,0,0,1-5.608,2.918" transform="translate(-2.006 -7.361)"/>
        <path id="Trazado_874558" data-name="Trazado 874558" d="M34.484,21.187,45.2,5.91,41.04,3,29.855,18.95" transform="translate(-6.826 -0.686)" fill="#fff"/>
        <path id="Trazado_874559" data-name="Trazado 874559" d="M33.8,22.815A2.315,2.315,0,0,1,31.9,19.172L41.286,5.791l-.365-.255L31.063,19.593a2.314,2.314,0,1,1-3.789-2.657L38.46.985A2.315,2.315,0,0,1,41.682.418l4.156,2.91a2.315,2.315,0,0,1,.568,3.225L35.691,21.83a2.31,2.31,0,0,1-1.9.985" transform="translate(-6.14 0)" fill="#fff"/>
        <path id="Trazado_874560" data-name="Trazado 874560" d="M15.962,38.19,38.6,5.91,34.442,3,13.869,32.339l0,0L1,50.71a11.961,11.961,0,0,0,12.845-4.7,11.881,11.881,0,0,0,2.118-7.822" transform="translate(-0.228 -0.686)" fill="#fff"/>
        <path id="Trazado_874561" data-name="Trazado 874561" d="M3.8,51.644a12.645,12.645,0,0,1-3.221-.417A.771.771,0,0,1,.14,50.039L13.006,31.664a.565.565,0,0,1,.053-.067L33.582,2.329a.774.774,0,0,1,1.074-.189l4.156,2.91A.769.769,0,0,1,39,6.125L16.523,38.18A12.7,12.7,0,0,1,3.8,51.644M2.073,49.967A11.17,11.17,0,0,0,14.966,38.025a.771.771,0,0,1,.137-.507L37.3,5.871,34.4,3.846,14.272,32.553c-.017.023-.034.045-.052.066Z" transform="translate(0 -0.457)"/>
        <path id="Trazado_874562" data-name="Trazado 874562" d="M25.845,33.705H24.722a3.456,3.456,0,0,0-1.429.307" transform="translate(-5.326 -7.706)" fill="#fff"/>
        <path id="Trazado_874563" data-name="Trazado 874563" d="M22.608,35.642a2.315,2.315,0,0,1-.956-4.423,5.74,5.74,0,0,1,2.384-.513h1.122a2.314,2.314,0,0,1,0,4.628H24.037a1.151,1.151,0,0,0-.476.1,2.3,2.3,0,0,1-.953.207" transform="translate(-4.64 -7.021)" fill="#fff"/>
        <path id="Trazado_874564" data-name="Trazado 874564" d="M35.578,33.705H24.119a3.47,3.47,0,0,0,0,6.939H36.03" transform="translate(-4.721 -7.706)" fill="#fff"/>
        <path id="Trazado_874565" data-name="Trazado 874565" d="M35.8,41.187H23.89a4.24,4.24,0,1,1,0-8.481H35.35a.771.771,0,0,1,0,1.543H23.89a2.7,2.7,0,1,0,0,5.4H35.8a.771.771,0,1,1,0,1.543" transform="translate(-4.493 -7.478)"/>
        <path id="Trazado_874566" data-name="Trazado 874566" d="M28.085,65.9H22.733a.771.771,0,0,1,0-1.543h5.352a.771.771,0,1,1,0,1.543" transform="translate(-5.022 -14.716)"/>
        <path id="Trazado_874567" data-name="Trazado 874567" d="M45.615,65.9H40.262a.771.771,0,1,1,0-1.543h5.352a.771.771,0,0,1,0,1.543" transform="translate(-9.03 -14.716)"/>
        <path id="Trazado_874568" data-name="Trazado 874568" d="M63.145,65.9H57.792a.771.771,0,0,1,0-1.543h5.352a.771.771,0,0,1,0,1.543" transform="translate(-13.038 -14.716)"/>
        <path id="Trazado_874569" data-name="Trazado 874569" d="M36.828,51.556a3.811,3.811,0,0,1-3.807-3.807V42.472a.771.771,0,0,1,.771-.771h6.072a.771.771,0,0,1,.771.771v5.277a3.811,3.811,0,0,1-3.807,3.807m-2.265-8.312v4.505a2.265,2.265,0,0,0,4.529,0V43.244Z" transform="translate(-7.55 -9.535)"/>
        <path id="Trazado_874570" data-name="Trazado 874570" d="M28.957,51.556a3.811,3.811,0,0,1-3.807-3.807V42.472a.771.771,0,0,1,.771-.771h6.071a.771.771,0,0,1,.771.771v5.277a3.811,3.811,0,0,1-3.807,3.807m-2.265-8.312v4.505a2.264,2.264,0,0,0,4.529,0V43.244Z" transform="translate(-5.751 -9.535)"/>
      </g>
    </g>
  </g>
</svg>
