<svg id="_40" data-name="40" xmlns="http://www.w3.org/2000/svg" width="70.687" height="70.686" viewBox="0 0 70.687 70.686">
  <path id="Trazado_874584" data-name="Trazado 874584" d="M2785.376,35.342A35.343,35.343,0,1,1,2750.033,0a35.343,35.343,0,0,1,35.343,35.343" transform="translate(-2714.69 0.001)" fill="#e20f21"/>
  <path id="Trazado_874585" data-name="Trazado 874585" d="M3374.132,652.515l6.567-6.569a4.855,4.855,0,0,0-6.866-6.867l-6.568,6.569-6.568-6.569a4.855,4.855,0,0,0-6.867,6.867l6.568,6.569-6.568,6.569a4.855,4.855,0,1,0,6.867,6.867l6.568-6.569,6.568,6.569a4.855,4.855,0,1,0,6.866-6.867Z" transform="translate(-3331.922 -613.964)" fill="#fff"/>
</svg>
