<svg xmlns="http://www.w3.org/2000/svg" xmlns:xlink="http://www.w3.org/1999/xlink" width="420" height="267" viewBox="0 0 420 267">
  <defs>
    <clipPath id="clip-path">
      <rect id="Rectángulo_401447" data-name="Rectángulo 401447" width="332.22" height="213.061" fill="none"/>
    </clipPath>
    <clipPath id="clip-path-3">
      <rect id="Rectángulo_401445" data-name="Rectángulo 401445" width="28.999" height="28.999" fill="none"/>
    </clipPath>
  </defs>
  <g id="_41" data-name="41" transform="translate(-285 -1268.918)">
    <g id="Grupo_1099295" data-name="Grupo 1099295" transform="translate(0 173.918)">
      <rect id="Rectángulo_401353" data-name="Rectángulo 401353" width="420" height="267" transform="translate(285 1095)" fill="#daf2e4"/>
    </g>
    <g id="Grupo_1099324" data-name="Grupo 1099324" transform="translate(321.78 1298)">
      <g id="Grupo_1099323" data-name="Grupo 1099323" clip-path="url(#clip-path)">
        <g id="Grupo_1099322" data-name="Grupo 1099322">
          <g id="Grupo_1099321" data-name="Grupo 1099321" clip-path="url(#clip-path)">
            <path id="Trazado_877338" data-name="Trazado 877338" d="M320.79,197.406l23.257-77.942A35.18,35.18,0,0,0,314.565,74.48L198.623,60.441a35.181,35.181,0,0,0-30.018,11l-58.2,62.726a35.179,35.179,0,0,0,5.458,52.638l30.428,21.547a35.18,35.18,0,0,0,18.084,6.4l120.456,7.708a35.18,35.18,0,0,0,35.957-25.049" transform="translate(-15.889 -9.467)" fill="#95dbb3"/>
            <path id="Trazado_877339" data-name="Trazado 877339" d="M156.851,5.259,136.066.631a26.362,26.362,0,0,0-26.532,9.54L84.069,42.89a26.362,26.362,0,0,0,1.479,34.122l36.391,39.22a26.363,26.363,0,0,0,27.619,7.091l33.787-11.2A26.361,26.361,0,0,0,199.3,76.759l-23.928-56.11a26.364,26.364,0,0,0-18.52-15.39" transform="translate(-12.349 0)" fill="#59836b"/>
            <path id="Trazado_877340" data-name="Trazado 877340" d="M150.844,109.122H95.508l13.826-84.011h62.849l-12.606,76.6a8.851,8.851,0,0,1-8.734,7.414" transform="translate(-15.023 -3.95)" fill="#fff"/>
            <path id="Trazado_877341" data-name="Trazado 877341" d="M83.6,112.383h.046c.021-.213.046-.427.082-.642Z" transform="translate(-13.15 -17.576)" fill="#86abff"/>
            <path id="Trazado_877342" data-name="Trazado 877342" d="M139.884,112.5l-.061.234.038-.234H83.65a9.468,9.468,0,0,0,9.425,10.365h56.235a9.468,9.468,0,0,1-9.425-10.365" transform="translate(-13.151 -17.696)" fill="#86abff"/>
            <path id="Trazado_877343" data-name="Trazado 877343" d="M158.8,80.812H109.526a.576.576,0,0,0-.539.45.358.358,0,0,0,.36.45h49.276a.576.576,0,0,0,.539-.45.359.359,0,0,0-.361-.45" transform="translate(-17.141 -12.711)" fill="#b4ceff"/>
            <path id="Trazado_877344" data-name="Trazado 877344" d="M158.126,84.208H108.851a.577.577,0,0,0-.539.45.359.359,0,0,0,.361.45h49.276a.576.576,0,0,0,.539-.45.358.358,0,0,0-.361-.45" transform="translate(-17.035 -13.245)" fill="#b4ceff"/>
            <path id="Trazado_877345" data-name="Trazado 877345" d="M157.452,87.6H108.177a.576.576,0,0,0-.539.45.359.359,0,0,0,.361.45h49.276a.576.576,0,0,0,.539-.45.359.359,0,0,0-.361-.45" transform="translate(-16.929 -13.779)" fill="#b4ceff"/>
            <path id="Trazado_877346" data-name="Trazado 877346" d="M156.777,91H107.5a.576.576,0,0,0-.539.45.358.358,0,0,0,.36.45H156.6a.576.576,0,0,0,.539-.45.359.359,0,0,0-.361-.45" transform="translate(-16.823 -14.314)" fill="#b4ceff"/>
            <line id="Línea_622" data-name="Línea 622" x2="50.175" transform="translate(95.719 49.042)" fill="none" stroke="#242526" stroke-miterlimit="10" stroke-width="1"/>
            <line id="Línea_623" data-name="Línea 623" x2="50.175" transform="translate(94.816 53.586)" fill="none" stroke="#242526" stroke-miterlimit="10" stroke-width="1"/>
            <line id="Línea_624" data-name="Línea 624" x2="50.175" transform="translate(93.914 58.131)" fill="none" stroke="#242526" stroke-miterlimit="10" stroke-width="1"/>
            <line id="Línea_625" data-name="Línea 625" x2="50.175" transform="translate(93.011 62.676)" fill="none" stroke="#242526" stroke-miterlimit="10" stroke-width="1"/>
            <line id="Línea_626" data-name="Línea 626" x1="2.708" y2="13.635" transform="translate(113.22 49.042)" fill="none" stroke="#242526" stroke-miterlimit="10" stroke-width="1"/>
            <line id="Línea_627" data-name="Línea 627" x1="2.708" y2="13.635" transform="translate(126.794 49.042)" fill="none" stroke="#242526" stroke-miterlimit="10" stroke-width="1"/>
            <path id="Trazado_877347" data-name="Trazado 877347" d="M129.618,61.258H117.445a.359.359,0,0,1-.361-.45.577.577,0,0,1,.539-.45H129.8a.358.358,0,0,1,.361.45.576.576,0,0,1-.539.45" transform="translate(-18.415 -9.494)" fill="#b4ceff"/>
            <path id="Trazado_877348" data-name="Trazado 877348" d="M166.375,61.258h-9.809a.359.359,0,0,1-.361-.45.576.576,0,0,1,.539-.45h9.809a.358.358,0,0,1,.361.45.576.576,0,0,1-.539.45" transform="translate(-24.569 -9.494)" fill="#53e3b6"/>
            <path id="Trazado_877349" data-name="Trazado 877349" d="M146.844,61.258h-5.465a.359.359,0,0,1-.361-.45.577.577,0,0,1,.539-.45h5.465a.358.358,0,0,1,.361.45.576.576,0,0,1-.539.45" transform="translate(-22.18 -9.494)" fill="#b4ceff"/>
            <path id="Trazado_877350" data-name="Trazado 877350" d="M128.547,66.651H116.374a.359.359,0,0,1-.361-.45.577.577,0,0,1,.539-.45h12.173a.358.358,0,0,1,.361.45.576.576,0,0,1-.539.45" transform="translate(-18.247 -10.342)" fill="#b4ceff"/>
            <path id="Trazado_877351" data-name="Trazado 877351" d="M165.3,66.651H155.5a.359.359,0,0,1-.361-.45.576.576,0,0,1,.539-.45h9.809a.358.358,0,0,1,.361.45.576.576,0,0,1-.539.45" transform="translate(-24.4 -10.342)" fill="#53e3b6"/>
            <path id="Trazado_877352" data-name="Trazado 877352" d="M145.773,66.651h-5.464a.359.359,0,0,1-.362-.45.577.577,0,0,1,.54-.45h5.464a.358.358,0,0,1,.361.45.576.576,0,0,1-.539.45" transform="translate(-22.011 -10.342)" fill="#b4ceff"/>
            <path id="Trazado_877353" data-name="Trazado 877353" d="M127.476,72.044H115.3a.359.359,0,0,1-.361-.45.577.577,0,0,1,.539-.45h12.173a.358.358,0,0,1,.361.45.576.576,0,0,1-.539.45" transform="translate(-18.078 -11.19)" fill="#b4ceff"/>
            <path id="Trazado_877354" data-name="Trazado 877354" d="M164.233,72.044h-9.809a.359.359,0,0,1-.361-.45.576.576,0,0,1,.539-.45h9.809a.358.358,0,0,1,.361.45.576.576,0,0,1-.539.45" transform="translate(-24.232 -11.19)" fill="#53e3b6"/>
            <path id="Trazado_877355" data-name="Trazado 877355" d="M144.7,72.044h-5.464a.358.358,0,0,1-.361-.45.576.576,0,0,1,.539-.45h5.464a.358.358,0,0,1,.361.45.576.576,0,0,1-.539.45" transform="translate(-21.843 -11.19)" fill="#b4ceff"/>
            <path id="Trazado_877356" data-name="Trazado 877356" d="M127.764,49.988H117.338a1.054,1.054,0,0,1-1.06-1.323,1.694,1.694,0,0,1,1.585-1.323H128.29a1.055,1.055,0,0,1,1.061,1.323,1.694,1.694,0,0,1-1.587,1.323" transform="translate(-18.286 -7.447)" fill="#214fb3"/>
            <line id="Línea_628" data-name="Línea 628" x2="9.918" transform="translate(136.089 41.748)" fill="none" stroke="#242526" stroke-miterlimit="10" stroke-width="1"/>
            <line id="Línea_629" data-name="Línea 629" x2="9.918" transform="translate(136.873 38.887)" fill="none" stroke="#242526" stroke-miterlimit="10" stroke-width="1"/>
            <line id="Línea_630" data-name="Línea 630" x2="9.918" transform="translate(137.656 36.027)" fill="none" stroke="#242526" stroke-miterlimit="10" stroke-width="1"/>
            <rect id="Rectángulo_401426" data-name="Rectángulo 401426" width="68.394" height="31.695" transform="translate(256.842 119.199) rotate(-29.871)" fill="#53e3b6"/>
            <path id="Trazado_877357" data-name="Trazado 877357" d="M309.3,136.615l13.177,22.942,54.3-31.188L363.6,105.427Zm63-11.606a3.373,3.373,0,0,1-1.245,4.6l-44.613,25.624a3.374,3.374,0,0,1-4.605-1.246l-8.051-14.018a3.373,3.373,0,0,1,1.246-4.605l44.612-25.623a3.374,3.374,0,0,1,4.605,1.245Z" transform="translate(-48.651 -16.583)" fill="#39b38a"/>
            <path id="Trazado_877358" data-name="Trazado 877358" d="M371.934,130.245,327.04,156.03a3.211,3.211,0,0,1-4.384-1.186l-8.213-14.3a3.212,3.212,0,0,1,1.186-4.385l44.894-25.784a3.21,3.21,0,0,1,4.384,1.185l8.213,14.3A3.211,3.211,0,0,1,371.934,130.245Z" transform="translate(-49.393 -17.294)" fill="none" stroke="#242526" stroke-miterlimit="10" stroke-width="1"/>
            <path id="Trazado_877359" data-name="Trazado 877359" d="M355.265,131.579a8.711,8.711,0,1,0-3.215,11.892A8.711,8.711,0,0,0,355.265,131.579Z" transform="translate(-53.322 -20.008)" fill="none" stroke="#242526" stroke-miterlimit="10" stroke-width="1"/>
            <rect id="Rectángulo_401427" data-name="Rectángulo 401427" width="11.601" height="2.538" transform="matrix(0.867, -0.498, 0.498, 0.867, 272.098, 127.249)" fill="#39b38a"/>
            <rect id="Rectángulo_401428" data-name="Rectángulo 401428" width="11.601" height="2.538" transform="matrix(0.867, -0.498, 0.498, 0.867, 305.067, 108.313)" fill="#39b38a"/>
            <path id="Trazado_877360" data-name="Trazado 877360" d="M351.994,137.282a2.163,2.163,0,0,0-.932-.936,2.207,2.207,0,0,0-1.084-.206,8.051,8.051,0,0,0-1.211.2l-1.776-3.094a1.886,1.886,0,0,1,1.178-.088,2.065,2.065,0,0,1,.954.527l.072.075.437-.251-.111-.122a2.417,2.417,0,0,0-2.77-.558l-.534-.931-.435.249.522.908a2.408,2.408,0,0,0-1.182,1.365,2.233,2.233,0,0,0,1.122,2.513,2.182,2.182,0,0,0,1.064.182,8.6,8.6,0,0,0,1.208-.21l1.871,3.258a2.151,2.151,0,0,1-.934.151,2.1,2.1,0,0,1-.887-.255,1.885,1.885,0,0,1-.585-.486l-.071-.094-.435.25.089.12a2.384,2.384,0,0,0,.817.686,2.465,2.465,0,0,0,1.122.273,2.76,2.76,0,0,0,1.123-.227l.481.838.434-.249-.469-.816a2.543,2.543,0,0,0,.966-.929,2,2,0,0,0,.267-1.112,2.371,2.371,0,0,0-.311-1.027m-4.707-.668a1.7,1.7,0,0,1-.839-.147,1.555,1.555,0,0,1-.679-.679,1.473,1.473,0,0,1-.163-1.288,2.03,2.03,0,0,1,.935-1.036l1.717,2.992a6.745,6.745,0,0,1-.971.158m4.472,2.227a1.848,1.848,0,0,1-.925,1.095l-1.811-3.153a6.272,6.272,0,0,1,.963-.142,1.781,1.781,0,0,1,.863.174,1.889,1.889,0,0,1,.91,2.028" transform="translate(-54.272 -20.746)"/>
            <rect id="Rectángulo_401429" data-name="Rectángulo 401429" width="2.377" height="2.377" transform="translate(274.191 122.623) rotate(-74.875)" fill="none" stroke="#242526" stroke-miterlimit="10" stroke-width="1"/>
            <rect id="Rectángulo_401430" data-name="Rectángulo 401430" width="2.377" height="2.376" transform="translate(311.294 110.883) rotate(-74.87)" fill="none" stroke="#242526" stroke-miterlimit="10" stroke-width="1"/>
            <line id="Línea_631" data-name="Línea 631" x2="285.676" transform="translate(32.661 200.793)" fill="none" stroke="#242526" stroke-miterlimit="10" stroke-width="1"/>
            <line id="Línea_632" data-name="Línea 632" x2="6.271" y2="18.104" transform="translate(244.966 183.271)" fill="none" stroke="#242526" stroke-miterlimit="10" stroke-width="1"/>
            <path id="Trazado_877361" data-name="Trazado 877361" d="M301.595,73.928a17.378,17.378,0,0,0-12.882-1.845c-7.081,1.558-11.895,8.023-14.015,14.956-2.093,6.843-.9,21.478-2.034,32.559l46.138-.392c-3.49-13.316,5.306-46.624-17.207-45.279" transform="translate(-42.888 -11.266)" fill="#12263f"/>
            <path id="Trazado_877362" data-name="Trazado 877362" d="M305.947,99.19a18.442,18.442,0,0,1-2.678,10.253,18.68,18.68,0,0,1-7.045,6.538,7.326,7.326,0,0,1-8.547-1.535,19.308,19.308,0,0,1-3.283-5.622c-.153-.381-.288-.763-.409-1.134a23.865,23.865,0,0,1-1.019-4.576,26.584,26.584,0,0,1-.121-5.231l.535-7.194a11.359,11.359,0,0,1,8.193-10.155,14.1,14.1,0,0,1,12.076,3.474c1.182,1.079,1.921,3.878,2.042,5.478Z" transform="translate(-44.478 -12.635)" fill="#e2a161"/>
            <path id="Trazado_877363" data-name="Trazado 877363" d="M317.88,101.738a5.22,5.22,0,0,1-4.3,6c-2.844.469-6.665-1.737-7.134-4.581s2.592-5.25,5.436-5.719a5.22,5.22,0,0,1,6,4.3" transform="translate(-48.194 -15.315)" fill="#e2a161"/>
            <path id="Trazado_877364" data-name="Trazado 877364" d="M302.186,84.788s-3.442,7.815-23.732,9.878a22.64,22.64,0,0,1,2.8-11.874,15.5,15.5,0,0,1,9.771-7.559,11.514,11.514,0,0,1,11.43,3.816c1.149,1.486.192,3.919-.271,5.739" transform="translate(-43.798 -11.79)" fill="#12263f"/>
            <path id="Trazado_877365" data-name="Trazado 877365" d="M319.6,97.227a6.575,6.575,0,0,0-4.155-.94,26.347,26.347,0,0,1-4.333.122,7.476,7.476,0,0,1-6.5-8.3,19.271,19.271,0,0,1,1.751-6.867,11.044,11.044,0,0,1,10.177,4.582,17.921,17.921,0,0,1,3.064,11.4" transform="translate(-47.904 -12.764)" fill="#12263f"/>
            <path id="Trazado_877366" data-name="Trazado 877366" d="M277.5,97.9s17.372-.822,23.671-9.711" transform="translate(-43.649 -13.872)" fill="none" stroke="#242526" stroke-miterlimit="10" stroke-width="1"/>
            <path id="Trazado_877367" data-name="Trazado 877367" d="M314.652,101.6l-1.913,1.422a.412.412,0,0,0,.22.742l2.247.147" transform="translate(-49.165 -15.981)" fill="none" stroke="#242526" stroke-linejoin="round" stroke-width="1"/>
            <path id="Trazado_877368" data-name="Trazado 877368" d="M311.279,110.577a2.265,2.265,0,1,0,2.265-2.265" transform="translate(-48.962 -17.037)" fill="none" stroke="#fff" stroke-linejoin="round" stroke-width="1"/>
            <path id="Trazado_877369" data-name="Trazado 877369" d="M182.543,158.008l16.069,15.5,4.6-4.542L201.64,160.6Z" transform="translate(-28.713 -24.853)" fill="#e2a161"/>
            <path id="Trazado_877370" data-name="Trazado 877370" d="M202.6,156.314l-16.96,11.048a2.34,2.34,0,0,1-3.238-.683l-13.725-21.07a2.34,2.34,0,0,1,.683-3.237l16.961-11.049a2.34,2.34,0,0,1,3.237.684l13.725,21.069a2.34,2.34,0,0,1-.683,3.238" transform="translate(-26.473 -20.596)" fill="#214fb3"/>
            <rect id="Rectángulo_401431" data-name="Rectángulo 401431" width="5.658" height="4.43" transform="translate(156.05 140.478) rotate(-33.082)" fill="#fff"/>
            <rect id="Rectángulo_401432" data-name="Rectángulo 401432" width="5.658" height="4.43" transform="translate(147.898 127.963) rotate(-33.082)" fill="#86abff"/>
            <rect id="Rectángulo_401433" data-name="Rectángulo 401433" width="5.658" height="4.43" transform="translate(150.615 132.134) rotate(-33.082)" fill="#fff"/>
            <rect id="Rectángulo_401434" data-name="Rectángulo 401434" width="5.658" height="4.43" transform="translate(153.332 136.306) rotate(-33.082)" fill="#fff"/>
            <rect id="Rectángulo_401435" data-name="Rectángulo 401435" width="5.658" height="4.43" transform="translate(153.215 124.5) rotate(-33.082)" fill="#53e3b6"/>
            <rect id="Rectángulo_401436" data-name="Rectángulo 401436" width="5.658" height="4.43" transform="matrix(0.838, -0.546, 0.546, 0.838, 155.932, 128.67)" fill="#fff"/>
            <rect id="Rectángulo_401437" data-name="Rectángulo 401437" width="5.658" height="4.43" transform="translate(158.649 132.842) rotate(-33.082)" fill="#fff"/>
            <rect id="Rectángulo_401438" data-name="Rectángulo 401438" width="5.658" height="4.43" transform="translate(161.367 137.014) rotate(-33.082)" fill="#fff"/>
            <rect id="Rectángulo_401439" data-name="Rectángulo 401439" width="5.658" height="4.431" transform="translate(158.532 121.036) rotate(-33.082)" fill="#53e3b6"/>
            <rect id="Rectángulo_401440" data-name="Rectángulo 401440" width="5.658" height="4.431" transform="translate(161.249 125.207) rotate(-33.082)" fill="#86abff"/>
            <rect id="Rectángulo_401441" data-name="Rectángulo 401441" width="5.658" height="4.43" transform="translate(163.966 129.379) rotate(-33.082)" fill="#86abff"/>
            <rect id="Rectángulo_401442" data-name="Rectángulo 401442" width="5.658" height="4.43" transform="translate(166.684 133.55) rotate(-33.082)" fill="#86abff"/>
            <rect id="Rectángulo_401443" data-name="Rectángulo 401443" width="18.609" height="4.587" transform="matrix(0.838, -0.546, 0.546, 0.838, 144.846, 123.278)" fill="#86abff"/>
            <path id="Trazado_877371" data-name="Trazado 877371" d="M211.887,157.59l-2.867-17.917-17.692-4.792s.631,10.637,10.279,9.952c0,0-6.491,11.425,0,18.429l2.284,2.8Z" transform="translate(-30.095 -21.216)" fill="#e2a161"/>
            <path id="Trazado_877372" data-name="Trazado 877372" d="M191.328,136.348s1.663,9.447,10.279,8.717c0,0-6.4,10.307-.7,17.592" transform="translate(-30.095 -21.447)" fill="none" stroke="#242526" stroke-miterlimit="10" stroke-width="1"/>
            <path id="Trazado_877373" data-name="Trazado 877373" d="M316.3,133.614l-10.17-2.672-2.206-24.219-10.6,2.938-2.768,20.8-8.779,2.072c2.564,3.353,13.655,15.127,34.524,1.08" transform="translate(-44.321 -16.787)" fill="#e2a161"/>
            <path id="Trazado_877374" data-name="Trazado 877374" d="M297.34,125.019a18.643,18.643,0,0,0,7.045-6.536,17.315,17.315,0,0,0,1.905-4.3l-.191-2.1a16.953,16.953,0,0,1-1.223,2.355,18.646,18.646,0,0,1-7.045,6.537,7.017,7.017,0,0,1-4.228.675l-.537,4.032a7.027,7.027,0,0,0,4.273-.669" transform="translate(-46.097 -17.631)" fill="#242526"/>
            <path id="Trazado_877375" data-name="Trazado 877375" d="M313.312,141.158l-10.376-2.726c-20.869,14.048-31.961,2.274-34.524-1.08l-7.378,1.741a12.61,12.61,0,0,0-8.531,6.941l-16.533,35.45-23.219-23.5-15.928,16.446L232.93,218.41l34.507-11.692,7.489,20.02,49.448-10.98a10.891,10.891,0,0,0,8.581-12.839l-10.487-52.057a12.608,12.608,0,0,0-9.156-9.7" transform="translate(-30.959 -21.604)" fill="#fff"/>
            <path id="Trazado_877376" data-name="Trazado 877376" d="M273.989,217.263l-18.813-12.876s-2.946,5.151.847,8.254l-6.761-2.924-10.776,3.495a4.878,4.878,0,0,0,2.476,3.315,5.806,5.806,0,0,0,3.5.67l4.23-1.161-3.248,8.655L250.227,236l4.835,2.961s2.089-2.781.581-4.91l3.223-4.19s.045.076.131.213a13.493,13.493,0,0,0,14.689,5.834l6.74-1.553Z" transform="translate(-37.512 -32.149)" fill="#e2a161"/>
            <line id="Línea_633" data-name="Línea 633" x1="9.475" y1="2.454" transform="translate(211.181 183.887)" fill="none" stroke="#242526" stroke-miterlimit="10" stroke-width="1"/>
            <path id="Trazado_877377" data-name="Trazado 877377" d="M262.422,225.052l-9.121-1.423-4.857,8.353" transform="translate(-39.079 -35.175)" fill="none" stroke="#242526" stroke-miterlimit="10" stroke-width="1"/>
            <path id="Trazado_877378" data-name="Trazado 877378" d="M265.84,230.46l-8.247-1.792-6.257,9.509" transform="translate(-39.533 -35.968)" fill="none" stroke="#242526" stroke-miterlimit="10" stroke-width="1"/>
            <line id="Línea_634" data-name="Línea 634" x1="8.232" y1="3.257" transform="translate(218.511 180.493)" fill="none" stroke="#242526" stroke-miterlimit="10" stroke-width="1"/>
            <line id="Línea_635" data-name="Línea 635" x1="45.831" y2="9.95" transform="translate(236.477 175.164)" fill="none" stroke="#242526" stroke-miterlimit="10" stroke-width="1"/>
            <line id="Línea_636" data-name="Línea 636" x2="1.353" y2="19.238" transform="translate(276.958 156.518)" fill="none" stroke="#242526" stroke-miterlimit="10" stroke-width="1"/>
            <path id="Trazado_877379" data-name="Trazado 877379" d="M274.371,162.958l-4.2,17.611,2.554,25.9" transform="translate(-42.496 -25.632)" fill="none" stroke="#242526" stroke-miterlimit="10" stroke-width="1"/>
            <line id="Línea_637" data-name="Línea 637" x1="6.792" y1="7.598" transform="translate(205.011 159.879)" fill="none" stroke="#242526" stroke-miterlimit="10" stroke-width="1"/>
            <path id="Trazado_877380" data-name="Trazado 877380" d="M288.275,104.226a.619.619,0,1,1-.619-.619.618.618,0,0,1,.619.619" transform="translate(-45.149 -16.297)" fill="#242526"/>
            <path id="Trazado_877381" data-name="Trazado 877381" d="M298.607,104.226a.619.619,0,1,1-.619-.619.619.619,0,0,1,.619.619" transform="translate(-46.774 -16.297)" fill="#242526"/>
            <path id="Trazado_877382" data-name="Trazado 877382" d="M291.022,113.315l1.376-.917.8.4,1.7-.56,1.438.934s-2.687,3.524-5.306.145" transform="translate(-45.776 -17.654)" fill="#c98447"/>
            <path id="Trazado_877383" data-name="Trazado 877383" d="M304.654,108.858a2.945,2.945,0,1,0-2.945,2.945,2.945,2.945,0,0,0,2.945-2.945" transform="translate(-46.993 -16.659)" fill="#c98447"/>
            <path id="Trazado_877384" data-name="Trazado 877384" d="M286.8,110.163a2.944,2.944,0,0,1-2.371,2.892c-.153-.381-.288-.763-.41-1.134A23.806,23.806,0,0,1,283,107.345a3.038,3.038,0,0,1,.855-.126,2.942,2.942,0,0,1,2.944,2.944" transform="translate(-44.515 -16.865)" fill="#c98447"/>
            <path id="Trazado_877385" data-name="Trazado 877385" d="M291.6,102.753l-3.1,6.446,3.062.2-1.531,2.321s6.525,1.258,8.924-1.849" transform="translate(-45.38 -16.162)" fill="none" stroke="#242526" stroke-miterlimit="10" stroke-width="1"/>
            <path id="Trazado_877386" data-name="Trazado 877386" d="M296.323,99.129a5.064,5.064,0,0,1,5.075,1.2" transform="translate(-46.609 -15.555)" fill="none" stroke="#242526" stroke-miterlimit="10" stroke-width="1"/>
            <path id="Trazado_877387" data-name="Trazado 877387" d="M289.3,99.371a5.064,5.064,0,0,0-5.075,1.2" transform="translate(-44.706 -15.593)" fill="none" stroke="#242526" stroke-miterlimit="10" stroke-width="1"/>
            <line id="Línea_638" data-name="Línea 638" x1="13.338" y2="14.059" transform="translate(170.511 144.424)" fill="none" stroke="#242526" stroke-miterlimit="10" stroke-width="1"/>
            <path id="Trazado_877388" data-name="Trazado 877388" d="M277.269,138.414s5.924,10.9,21.058,10.464,21.2-9.245,21.2-9.245" transform="translate(-43.612 -21.772)" fill="none" stroke="#242526" stroke-miterlimit="10" stroke-width="1"/>
            <rect id="Rectángulo_401444" data-name="Rectángulo 401444" width="94.622" height="5.91" transform="translate(112.763 194.643)" fill="#f1c12c"/>
            <path id="Trazado_877389" data-name="Trazado 877389" d="M181.93,229.336H119.2l-14.9-46.346h62.732Z" transform="translate(-16.405 -28.783)" fill="#f1c12c"/>
            <path id="Trazado_877390" data-name="Trazado 877390" d="M148.5,208.611a4.669,4.669,0,1,1-5.574-4.076A4.894,4.894,0,0,1,148.5,208.611Z" transform="translate(-21.908 -32.158)" fill="none" stroke="#fff" stroke-miterlimit="10" stroke-width="1"/>
            <line id="Línea_639" data-name="Línea 639" x1="13.912" y1="43.263" transform="translate(151.146 155.837)" fill="none" stroke="#242526" stroke-miterlimit="10" stroke-width="1"/>
            <path id="Trazado_877391" data-name="Trazado 877391" d="M87.406,165.963a12.078,12.078,0,1,0-7.836,15.178,12.079,12.079,0,0,0,7.836-15.178" transform="translate(-10.038 -24.782)" fill="#eba537"/>
            <path id="Trazado_877392" data-name="Trazado 877392" d="M85.844,166.963a10.04,10.04,0,1,0-6.513,12.616,10.04,10.04,0,0,0,6.513-12.616" transform="translate(-10.419 -25.162)" fill="#ffbb48"/>
            <path id="Trazado_877393" data-name="Trazado 877393" d="M84.547,167.793a8.347,8.347,0,1,0-5.415,10.489A8.346,8.346,0,0,0,84.547,167.793Z" transform="translate(-10.735 -25.478)" fill="none" stroke="#242526" stroke-miterlimit="10" stroke-width="1"/>
            <path id="Trazado_877394" data-name="Trazado 877394" d="M78.951,170.862a2.073,2.073,0,0,1,.956.4,2.027,2.027,0,0,1,.667,1.046,2.216,2.216,0,0,1,.082,1.01,1.853,1.853,0,0,1-.463.962,2.449,2.449,0,0,1-1.128.681l-.078.024.287.9-.224.072-.29-.907a2.712,2.712,0,0,1-1.206.008,2.325,2.325,0,0,1-.984-.475,2.244,2.244,0,0,1-.619-.8l.224-.072a2.04,2.04,0,0,0,.5.642,2.224,2.224,0,0,0,.865.464,2.347,2.347,0,0,0,1.155.026l-1.218-3.818a8.77,8.77,0,0,1-1.3-.046,2.038,2.038,0,0,1-.941-.378,2.1,2.1,0,0,1-.527-2.521,2.287,2.287,0,0,1,1.4-1.034l.089-.029-.318-1,.223-.072.322,1.009a2.364,2.364,0,0,1,1.569.141,2.275,2.275,0,0,1,1,.9l-.223.071a2.192,2.192,0,0,0-.873-.764,2.085,2.085,0,0,0-1.406-.15l1.161,3.639a8.16,8.16,0,0,1,1.3.06m-3.579-.449a1.826,1.826,0,0,0,.85.345,7.336,7.336,0,0,0,1.181.049l-1.144-3.583-.089.029a2.169,2.169,0,0,0-1.242.884,1.611,1.611,0,0,0-.126,1.4,1.675,1.675,0,0,0,.569.874m4.889,3.394a2.02,2.02,0,0,0-.5-2.339,1.9,1.9,0,0,0-.866-.377,6.743,6.743,0,0,0-1.174-.064l1.2,3.763.078-.025a1.994,1.994,0,0,0,1.262-.957" transform="translate(-11.714 -26.103)"/>
            <path id="Trazado_877395" data-name="Trazado 877395" d="M86.427,166.589a10.8,10.8,0,1,0-7.008,13.573A10.8,10.8,0,0,0,86.427,166.589Z" transform="translate(-10.276 -25.02)" fill="none" stroke="#fff" stroke-miterlimit="10" stroke-width="1"/>
            <line id="Línea_640" data-name="Línea 640" x2="0.292" y2="0.917" transform="translate(62.285 133.644)" fill="none" stroke="#fff" stroke-miterlimit="10" stroke-width="1"/>
            <line id="Línea_641" data-name="Línea 641" x2="0.292" y2="0.917" transform="translate(69.143 155.143)" fill="none" stroke="#fff" stroke-miterlimit="10" stroke-width="1"/>
            <line id="Línea_642" data-name="Línea 642" x1="0.917" y2="0.292" transform="translate(76.152 141.277)" fill="none" stroke="#fff" stroke-miterlimit="10" stroke-width="1"/>
            <line id="Línea_643" data-name="Línea 643" x1="0.917" y2="0.292" transform="translate(54.653 148.135)" fill="none" stroke="#fff" stroke-miterlimit="10" stroke-width="1"/>
            <line id="Línea_644" data-name="Línea 644" x1="0.442" y2="0.855" transform="translate(70.816 134.398)" fill="none" stroke="#fff" stroke-miterlimit="10" stroke-width="1"/>
            <line id="Línea_645" data-name="Línea 645" x1="0.442" y2="0.855" transform="translate(60.464 154.45)" fill="none" stroke="#fff" stroke-miterlimit="10" stroke-width="1"/>
            <line id="Línea_646" data-name="Línea 646" x1="0.855" y1="0.442" transform="translate(75.459 149.808)" fill="none" stroke="#fff" stroke-miterlimit="10" stroke-width="1"/>
            <line id="Línea_647" data-name="Línea 647" x1="0.855" y1="0.442" transform="translate(55.407 139.455)" fill="none" stroke="#fff" stroke-miterlimit="10" stroke-width="1"/>
            <line id="Línea_648" data-name="Línea 648" x1="0.068" y2="0.96" transform="translate(66.628 133.117)" fill="none" stroke="#fff" stroke-miterlimit="10" stroke-width="1"/>
            <line id="Línea_649" data-name="Línea 649" x1="0.068" y2="0.961" transform="translate(65.025 155.627)" fill="none" stroke="#fff" stroke-miterlimit="10" stroke-width="1"/>
            <line id="Línea_650" data-name="Línea 650" x1="0.96" y1="0.068" transform="translate(76.636 145.62)" fill="none" stroke="#fff" stroke-miterlimit="10" stroke-width="1"/>
            <line id="Línea_651" data-name="Línea 651" x1="0.96" y1="0.068" transform="translate(54.126 144.016)" fill="none" stroke="#fff" stroke-miterlimit="10" stroke-width="1"/>
            <line id="Línea_652" data-name="Línea 652" x1="0.727" y2="0.63" transform="translate(74.022 137.145)" fill="none" stroke="#fff" stroke-miterlimit="10" stroke-width="1"/>
            <line id="Línea_653" data-name="Línea 653" x1="0.727" y2="0.63" transform="translate(56.972 151.928)" fill="none" stroke="#fff" stroke-miterlimit="10" stroke-width="1"/>
            <line id="Línea_654" data-name="Línea 654" x1="0.63" y1="0.727" transform="translate(72.937 153.014)" fill="none" stroke="#fff" stroke-miterlimit="10" stroke-width="1"/>
            <line id="Línea_655" data-name="Línea 655" x1="0.63" y1="0.727" transform="translate(58.154 135.963)" fill="none" stroke="#fff" stroke-miterlimit="10" stroke-width="1"/>
            <path id="Trazado_877396" data-name="Trazado 877396" d="M61.811,149.69c6.191-2.482,9.785-8.052,8.025-12.442s-8.205-5.937-14.4-3.454-9.786,8.052-8.026,12.442,8.205,5.936,14.4,3.454" transform="translate(-7.388 -20.859)" fill="#e39729"/>
            <path id="Trazado_877397" data-name="Trazado 877397" d="M61.144,147.882c6.192-2.482,9.785-8.052,8.025-12.442s-8.205-5.937-14.4-3.454-9.785,8.052-8.026,12.442,8.205,5.936,14.4,3.454" transform="translate(-7.283 -20.574)" fill="#eba537"/>
            <path id="Trazado_877398" data-name="Trazado 877398" d="M60.974,146.828c5.146-2.063,8.133-6.693,6.671-10.342s-6.821-4.934-11.967-2.871-8.133,6.693-6.671,10.342,6.821,4.934,11.967,2.871" transform="translate(-7.65 -20.862)" fill="#ffbb48"/>
            <path id="Trazado_877399" data-name="Trazado 877399" d="M56.784,135.585c3.763-1.508,7.66-.863,9.373,1.377-1.432-2.73-5.678-3.634-9.766-1.995-4.279,1.715-6.764,5.565-5.547,8.6a4.257,4.257,0,0,0,.577,1.01,4.272,4.272,0,0,1-.185-.392c-1.217-3.034,1.267-6.884,5.547-8.6" transform="translate(-7.949 -21.101)" fill="#e39729"/>
            <path id="Trazado_877400" data-name="Trazado 877400" d="M60.832,145.954c4.279-1.715,6.763-5.565,5.547-8.6s-5.671-4.1-9.95-2.387-6.763,5.565-5.547,8.6S56.553,147.669,60.832,145.954Z" transform="translate(-7.955 -21.101)" fill="none" stroke="#242526" stroke-miterlimit="10" stroke-width="1"/>
            <path id="Trazado_877401" data-name="Trazado 877401" d="M59.274,142.152a1.768,1.768,0,0,1-.42.769,2.68,2.68,0,0,1-1.03.655,3,3,0,0,1-.977.217,1.749,1.749,0,0,1-.913-.195,1.351,1.351,0,0,1-.622-.73l-.022-.054-.872.35-.062-.154.884-.355a1.55,1.55,0,0,1,.029-.891,2.08,2.08,0,0,1,.489-.8,2.879,2.879,0,0,1,.787-.581l.062.155a2.582,2.582,0,0,0-.635.469,2.1,2.1,0,0,0-.474.711,1.394,1.394,0,0,0-.061.86l3.721-1.492a5.147,5.147,0,0,1,.085-.972,1.683,1.683,0,0,1,.394-.755,2.472,2.472,0,0,1,.98-.635,2.315,2.315,0,0,1,1.468-.144,1.37,1.37,0,0,1,.954.879l.024.062.972-.388.062.154-.982.394a1.492,1.492,0,0,1-.185,1.183,2.621,2.621,0,0,1-.9.877l-.062-.155a2.48,2.48,0,0,0,.763-.763,1.335,1.335,0,0,0,.188-1.064l-3.546,1.422a4.891,4.891,0,0,1-.1.973m.544-2.719a1.537,1.537,0,0,0-.36.683,4.484,4.484,0,0,0-.083.881l3.49-1.4-.024-.062a1.274,1.274,0,0,0-.814-.782,1.969,1.969,0,0,0-1.35.124,2.21,2.21,0,0,0-.86.555m-3.424,4.142a2.271,2.271,0,0,0,1.369-.154,2.387,2.387,0,0,0,.9-.576,1.634,1.634,0,0,0,.391-.7,4.053,4.053,0,0,0,.1-.878l-3.666,1.47.022.054a1.21,1.21,0,0,0,.885.785" transform="translate(-8.55 -21.788)"/>
            <path id="Trazado_877402" data-name="Trazado 877402" d="M61.037,147.222c5.538-2.22,8.751-7.2,7.178-11.127s-7.339-5.309-12.877-3.089-8.751,7.2-7.177,11.127S55.5,149.441,61.037,147.222Z" transform="translate(-7.513 -20.754)" fill="none" stroke="#fff" stroke-miterlimit="10" stroke-width="1"/>
            <line id="Línea_656" data-name="Línea 656" x1="0.893" y2="0.358" transform="translate(60.702 114.983)" fill="none" stroke="#fff" stroke-miterlimit="10" stroke-width="1"/>
            <line id="Línea_657" data-name="Línea 657" x1="0.893" y2="0.358" transform="translate(39.756 123.379)" fill="none" stroke="#fff" stroke-miterlimit="10" stroke-width="1"/>
            <line id="Línea_658" data-name="Línea 658" x1="0.254" y1="0.634" transform="translate(53.525 126.468)" fill="none" stroke="#fff" stroke-miterlimit="10" stroke-width="1"/>
            <line id="Línea_659" data-name="Línea 659" x1="0.254" y1="0.634" transform="translate(47.573 111.618)" fill="none" stroke="#fff" stroke-miterlimit="10" stroke-width="1"/>
            <line id="Línea_660" data-name="Línea 660" x1="0.812" y1="0.195" transform="translate(59.78 121.544)" fill="none" stroke="#fff" stroke-miterlimit="10" stroke-width="1"/>
            <line id="Línea_661" data-name="Línea 661" x1="0.812" y1="0.195" transform="translate(40.76 116.981)" fill="none" stroke="#fff" stroke-miterlimit="10" stroke-width="1"/>
            <line id="Línea_662" data-name="Línea 662" y1="0.701" x2="0.453" transform="translate(45.148 127.228)" fill="none" stroke="#fff" stroke-miterlimit="10" stroke-width="1"/>
            <line id="Línea_663" data-name="Línea 663" y1="0.701" x2="0.453" transform="translate(55.751 110.791)" fill="none" stroke="#fff" stroke-miterlimit="10" stroke-width="1"/>
            <line id="Línea_664" data-name="Línea 664" x1="0.924" y2="0.098" transform="translate(61.044 118.166)" fill="none" stroke="#fff" stroke-miterlimit="10" stroke-width="1"/>
            <line id="Línea_665" data-name="Línea 665" x1="0.924" y2="0.098" transform="translate(39.383 120.456)" fill="none" stroke="#fff" stroke-miterlimit="10" stroke-width="1"/>
            <line id="Línea_666" data-name="Línea 666" y1="0.721" x2="0.095" transform="translate(49.508 127.451)" fill="none" stroke="#fff" stroke-miterlimit="10" stroke-width="1"/>
            <line id="Línea_667" data-name="Línea 667" y1="0.721" x2="0.095" transform="translate(51.748 110.547)" fill="none" stroke="#fff" stroke-miterlimit="10" stroke-width="1"/>
            <line id="Línea_668" data-name="Línea 668" x1="0.586" y1="0.441" transform="translate(57.249 124.306)" fill="none" stroke="#fff" stroke-miterlimit="10" stroke-width="1"/>
            <line id="Línea_669" data-name="Línea 669" x1="0.586" y1="0.441" transform="translate(43.517 113.973)" fill="none" stroke="#fff" stroke-miterlimit="10" stroke-width="1"/>
            <line id="Línea_670" data-name="Línea 670" y1="0.579" x2="0.721" transform="translate(41.865 125.857)" fill="none" stroke="#fff" stroke-miterlimit="10" stroke-width="1"/>
            <line id="Línea_671" data-name="Línea 671" y1="0.579" x2="0.721" transform="translate(58.765 112.284)" fill="none" stroke="#fff" stroke-miterlimit="10" stroke-width="1"/>
            <line id="Línea_672" data-name="Línea 672" transform="translate(275.247 39.364)" fill="none" stroke="#5780ee" stroke-linecap="round" stroke-miterlimit="10" stroke-width="3"/>
            <path id="Trazado_877403" data-name="Trazado 877403" d="M332.762,43.157a27.327,27.327,0,0,1,13.948-1.589c6.679,1.01,12.835,4.494,19.557,5.162a24.109,24.109,0,0,0,14.62-3.3" transform="translate(-52.341 -6.492)" fill="none" stroke="#5780ee" stroke-linecap="round" stroke-miterlimit="10" stroke-width="3" stroke-dasharray="0 6.937"/>
            <line id="Línea_673" data-name="Línea 673" transform="translate(330.955 35.289)" fill="none" stroke="#5780ee" stroke-linecap="round" stroke-miterlimit="10" stroke-width="3"/>
            <line id="Línea_674" data-name="Línea 674" transform="translate(1.264 165.477)" fill="none" stroke="#5780ee" stroke-linecap="round" stroke-miterlimit="10" stroke-width="3"/>
            <path id="Trazado_877404" data-name="Trazado 877404" d="M7.639,192.808a27.327,27.327,0,0,1,13.948-1.589c6.679,1.01,12.835,4.494,19.557,5.162a24.109,24.109,0,0,0,14.62-3.3" transform="translate(-1.202 -30.031)" fill="none" stroke="#5780ee" stroke-linecap="round" stroke-miterlimit="10" stroke-width="3" stroke-dasharray="0 6.937"/>
            <line id="Línea_675" data-name="Línea 675" transform="translate(56.972 161.401)" fill="none" stroke="#5780ee" stroke-linecap="round" stroke-miterlimit="10" stroke-width="3"/>
            <path id="Trazado_877405" data-name="Trazado 877405" d="M269.391,41.779l23.79-11.467a3.1,3.1,0,1,0-2.813-5.512L267.123,37.334Z" transform="translate(-42.017 -3.842)" fill="#5780ee"/>
            <path id="Trazado_877406" data-name="Trazado 877406" d="M259.133,43.374l2.11,4.135,6.891-3.321-2.268-4.444Z" transform="translate(-40.76 -6.251)" fill="#004eb8"/>
            <path id="Trazado_877407" data-name="Trazado 877407" d="M236.147,38.511a14.5,14.5,0,1,0,19.5,6.324A14.5,14.5,0,0,0,236.147,38.511Z" transform="translate(-35.9 -5.808)" fill="none" stroke="#214fb3" stroke-miterlimit="10" stroke-width="7"/>
            <g id="Grupo_1099320" data-name="Grupo 1099320" transform="translate(192.337 31.116)" opacity="0.29">
              <g id="Grupo_1099319" data-name="Grupo 1099319">
                <g id="Grupo_1099318" data-name="Grupo 1099318" clip-path="url(#clip-path-3)">
                  <path id="Trazado_877408" data-name="Trazado 877408" d="M236.147,38.511a14.5,14.5,0,1,0,19.5,6.324,14.5,14.5,0,0,0-19.5-6.324" transform="translate(-228.237 -36.924)" fill="#fff"/>
                </g>
              </g>
            </g>
            <path id="Trazado_877409" data-name="Trazado 877409" d="M237.259,40.379a12.763,12.763,0,1,0,17.17,5.567A12.763,12.763,0,0,0,237.259,40.379Z" transform="translate(-36.224 -6.132)" fill="none" stroke="#fff" stroke-miterlimit="10" stroke-width="1"/>
            <path id="Trazado_877410" data-name="Trazado 877410" d="M287.238,26.38l.16.313a1.89,1.89,0,0,1-.823,2.542L267.127,39.16l-2.521,1.286a1.889,1.889,0,0,1-2.388-.576" transform="translate(-41.245 -4.149)" fill="none" stroke="#fff" stroke-miterlimit="10" stroke-width="1"/>
            <path id="Trazado_877411" data-name="Trazado 877411" d="M92.242,145.861a1.329,1.329,0,1,0-1.328-1.328,1.343,1.343,0,0,0,1.328,1.328" transform="translate(-14.3 -22.525)" fill="#39b38a"/>
            <path id="Trazado_877412" data-name="Trazado 877412" d="M98.56,155.214h-.185a1.366,1.366,0,0,0-1.328,1.328c.016.118.032.236.047.353a1.327,1.327,0,0,0,.342.587l.269.207a1.311,1.311,0,0,0,.67.181h.185a1.476,1.476,0,0,0,.94-.388,1.471,1.471,0,0,0,.388-.94c-.015-.117-.031-.235-.047-.353a1.326,1.326,0,0,0-.341-.586l-.269-.208a1.329,1.329,0,0,0-.671-.181" transform="translate(-15.265 -24.414)" fill="#fff"/>
            <path id="Trazado_877413" data-name="Trazado 877413" d="M335.9,91.969h-.185a1.366,1.366,0,0,0-1.328,1.328c.016.118.032.236.047.353a1.326,1.326,0,0,0,.342.587l.269.207a1.32,1.32,0,0,0,.67.182h.185a1.366,1.366,0,0,0,1.328-1.329c-.016-.117-.031-.235-.047-.353a1.326,1.326,0,0,0-.341-.586l-.269-.208a1.331,1.331,0,0,0-.671-.181" transform="translate(-52.596 -14.466)" fill="#fff"/>
            <path id="Trazado_877414" data-name="Trazado 877414" d="M87.438,233.084a1.328,1.328,0,1,0-1.328-1.328,1.343,1.343,0,0,0,1.328,1.328" transform="translate(-13.544 -36.245)" fill="#fff"/>
            <path id="Trazado_877415" data-name="Trazado 877415" d="M341.759,103.449l.185-.185a1.366,1.366,0,0,0,0-1.878l-.269-.207A1.321,1.321,0,0,0,341,101l-.353.048a1.333,1.333,0,0,0-.586.341l-.184.185a1.366,1.366,0,0,0,0,1.878l.269.207a1.32,1.32,0,0,0,.67.182l.353-.048a1.329,1.329,0,0,0,.587-.341" transform="translate(-53.399 -15.886)" fill="#5780ee"/>
            <path id="Trazado_877416" data-name="Trazado 877416" d="M385.17,218.813l.185-.185a1.368,1.368,0,0,0,0-1.878l-.269-.207a1.314,1.314,0,0,0-.671-.181l-.353.047a1.333,1.333,0,0,0-.587.341l-.184.185a1.477,1.477,0,0,0-.389.939,1,1,0,0,0,.115.512.991.991,0,0,0,.275.427l.269.207a1.32,1.32,0,0,0,.67.182l.353-.048a1.328,1.328,0,0,0,.587-.341" transform="translate(-60.228 -34.032)" fill="#5780ee"/>
          </g>
        </g>
      </g>
    </g>
  </g>
</svg>
