<svg xmlns="http://www.w3.org/2000/svg" xmlns:xlink="http://www.w3.org/1999/xlink" width="72" height="72" viewBox="0 0 72 72">
  <defs>
    <clipPath id="clip-path">
      <rect id="Rectángulo_401578" data-name="Rectángulo 401578" width="37.339" height="35.671"/>
    </clipPath>
  </defs>
  <g id="_42" data-name="42" transform="translate(-193 -1716)">
    <circle id="Elipse_11554" data-name="Elipse 11554" cx="36" cy="36" r="36" transform="translate(193 1716)" fill="#95dbb3"/>
    <g id="Grupo_1099491" data-name="Grupo 1099491" transform="translate(212.188 1734.047)">
      <g id="Grupo_1099490" data-name="Grupo 1099490" clip-path="url(#clip-path)">
        <path id="Trazado_877741" data-name="Trazado 877741" d="M5.062,31.625H.459A.459.459,0,0,1,0,31.166V7.091a.459.459,0,0,1,.135-.324L6.763.138A.458.458,0,0,1,7.088,0H25.965a.459.459,0,0,1,.459.459V16.44a.459.459,0,1,1-.918,0V.921H7.278L.918,7.281V30.707H5.062a.459.459,0,1,1,0,.918" transform="translate(0 -0.002)"/>
        <path id="Trazado_877742" data-name="Trazado 877742" d="M7.091,7.546H.464a.459.459,0,0,1-.324-.783L6.767.135A.459.459,0,0,1,7.55.459V7.087a.459.459,0,0,1-.459.459m-5.52-.918H6.632V1.567Z" transform="translate(-0.004 0)"/>
        <path id="Trazado_877743" data-name="Trazado 877743" d="M30.441,75.361a.459.459,0,0,1-.324-.783l4.339-4.339a.459.459,0,0,1,.649,0l2.933,2.934,6.015-6.015a.459.459,0,0,1,.649.649l-6.339,6.339a.458.458,0,0,1-.649,0L34.78,71.212l-4.015,4.015a.457.457,0,0,1-.324.134" transform="translate(-24.588 -54.964)"/>
        <path id="Trazado_877744" data-name="Trazado 877744" d="M94.338,70.917a.459.459,0,0,1-.459-.459V67.942H91.363a.459.459,0,0,1,0-.918h2.975a.459.459,0,0,1,.459.459v2.976a.459.459,0,0,1-.459.459" transform="translate(-74.549 -54.965)"/>
        <path id="Trazado_877745" data-name="Trazado 877745" d="M144.115,170.147H131.221a.459.459,0,0,1-.459-.459v-5.251a.459.459,0,0,1,.459-.459h12.895a.459.459,0,0,1,.459.459v5.251a.459.459,0,0,1-.459.459m-12.436-.918h11.977V164.9H131.68Z" transform="translate(-107.236 -134.476)"/>
        <path id="Trazado_877746" data-name="Trazado 877746" d="M144.115,140.964H131.221a.459.459,0,0,1-.459-.459v-5.251a.459.459,0,0,1,.459-.459h12.895a.459.459,0,0,1,.459.459v5.251a.459.459,0,0,1-.459.459m-12.436-.918h11.977v-4.333H131.68Z" transform="translate(-107.236 -110.544)"/>
        <path id="Trazado_877747" data-name="Trazado 877747" d="M125.621,111.78H112.727a.459.459,0,0,1-.459-.459v-5.251a.459.459,0,0,1,.459-.459h12.895a.459.459,0,0,1,.459.459v5.251a.459.459,0,0,1-.459.459m-12.436-.918h11.977V106.53H113.186Z" transform="translate(-92.069 -86.611)"/>
        <path id="Trazado_877748" data-name="Trazado 877748" d="M53.952,170.147H41.058a.459.459,0,0,1-.459-.459v-5.251a.459.459,0,0,1,.459-.459H53.952a.459.459,0,0,1,.459.459v5.251a.459.459,0,0,1-.459.459m-12.436-.918H53.494V164.9H41.517Z" transform="translate(-33.295 -134.476)"/>
      </g>
    </g>
  </g>
</svg>
