<svg xmlns="http://www.w3.org/2000/svg" xmlns:xlink="http://www.w3.org/1999/xlink" width="72" height="72" viewBox="0 0 72 72">
  <defs>
    <clipPath id="clip-path">
      <rect id="Rectángulo_401581" data-name="Rectángulo 401581" width="35.483" height="40.634" fill="#12263f"/>
    </clipPath>
  </defs>
  <g id="_46" data-name="46" transform="translate(-193 -1832)">
    <circle id="Elipse_11558" data-name="Elipse 11558" cx="36" cy="36" r="36" transform="translate(193 1832)" fill="#95dbb3"/>
    <g id="Grupo_1099498" data-name="Grupo 1099498" transform="translate(211 1848)">
      <g id="Grupo_1099497" data-name="Grupo 1099497" clip-path="url(#clip-path)">
        <path id="Trazado_877764" data-name="Trazado 877764" d="M.5,40.634a.5.5,0,0,1-.5-.5V3.9a.5.5,0,0,1,.5-.5H7.313V.5a.5.5,0,0,1,.5-.5h.84a1.836,1.836,0,0,1,1.834,1.834V1.92l.171.268h7.461l.169-.268V1.834A1.836,1.836,0,0,1,20.125,0h.835a.5.5,0,0,1,.5.5V3.4h6.816a.5.5,0,0,1,.5.5V14.2a.5.5,0,1,1-1,0V4.4H21.462V7.295a.5.5,0,0,1-.5.5H7.815a.5.5,0,0,1-.5-.5V4.4H1V39.63H27.776v-13.1a.5.5,0,0,1,1,0V40.132a.5.5,0,0,1-.5.5ZM8.318,6.793h12.14V1h-.333a.831.831,0,0,0-.83.83,1.349,1.349,0,0,1-1.336,1.358H10.822A1.338,1.338,0,0,1,9.485,1.856.832.832,0,0,0,8.655,1H8.318Z" fill="#12263f"/>
        <path id="Trazado_877765" data-name="Trazado 877765" d="M59.909,90.349a.5.5,0,0,1,0-1h10.7a.5.5,0,0,1,0,1Z" transform="translate(-47.981 -72.16)" fill="#12263f"/>
        <path id="Trazado_877766" data-name="Trazado 877766" d="M59.909,108.3a.5.5,0,0,1,0-1h9.325a.5.5,0,0,1,0,1Z" transform="translate(-47.981 -86.656)" fill="#12263f"/>
        <path id="Trazado_877767" data-name="Trazado 877767" d="M59.909,126.247a.5.5,0,0,1,0-1H65.76a.5.5,0,1,1,0,1Z" transform="translate(-47.981 -101.154)" fill="#12263f"/>
        <path id="Trazado_877768" data-name="Trazado 877768" d="M59.909,144.195a.5.5,0,0,1,0-1H62.6a.5.5,0,0,1,0,1Z" transform="translate(-47.981 -115.65)" fill="#12263f"/>
        <path id="Trazado_877769" data-name="Trazado 877769" d="M27.632,88.252a.5.5,0,0,1-.331-.125l-1.33-1.168a.5.5,0,1,1,.663-.755l.946.83L29.557,84.7a.5.5,0,1,1,.767.65l-2.308,2.728a.506.506,0,0,1-.346.176Z" transform="translate(-20.837 -68.264)" fill="#12263f"/>
        <path id="Trazado_877770" data-name="Trazado 877770" d="M27.632,112.733a.5.5,0,0,1-.331-.125l-1.33-1.168a.5.5,0,0,1,.663-.755l.946.831,1.978-2.337a.5.5,0,0,1,.767.65l-2.308,2.728a.506.506,0,0,1-.346.176Z" transform="translate(-20.837 -88.036)" fill="#12263f"/>
        <path id="Trazado_877771" data-name="Trazado 877771" d="M27.632,136.732a.5.5,0,0,1-.331-.125l-1.33-1.168a.5.5,0,0,1,.663-.755l.945.831,1.978-2.337a.5.5,0,1,1,.767.65l-2.308,2.727a.506.506,0,0,1-.346.176Z" transform="translate(-20.837 -107.42)" fill="#12263f"/>
        <path id="Trazado_877772" data-name="Trazado 877772" d="M95.426,71.4l-2.479-2.479a.794.794,0,0,0-.547-.247.45.45,0,0,0-.327.126L76.1,84.775a2.3,2.3,0,0,0-.356.78c-.056.162-.112.327-.172.471-.4,1.308-.85,2.78-.916,2.975a1.515,1.515,0,0,0-.132.614h0c.01.07.062.2.3.2a1.571,1.571,0,0,0,.539-.13c.173-.059,1.228-.383,2.968-.91.064-.018.135-.036.234-.061a2.183,2.183,0,0,0,.889-.345L95.547,72.28a.449.449,0,0,0,.126-.327.8.8,0,0,0-.247-.548m-3.894-.555.917-.917,1.977,1.976-.917.917Zm-15.447,17.5-.118.036L76,88.267c.05-.161.1-.344.169-.562.119-.4.264-.888.451-1.474l.033-.1L78.226,87.7l-.193.058c-.857.259-1.493.451-1.949.591M90.778,71.6l1.969,1.969L79.083,87.238l-1.969-1.969Z" transform="translate(-60.19 -55.47)" fill="#12263f"/>
      </g>
    </g>
  </g>
</svg>
