<svg xmlns="http://www.w3.org/2000/svg" xmlns:xlink="http://www.w3.org/1999/xlink" width="72" height="72" viewBox="0 0 72 72">
  <defs>
    <clipPath id="clip-path">
      <rect id="Rectángulo_401583" data-name="Rectángulo 401583" width="44.349" height="42.359" fill="#12263f"/>
    </clipPath>
  </defs>
  <g id="Grupo_1099585" data-name="Grupo 1099585" transform="translate(-823 -1832)">
    <g id="Grupo_1099531" data-name="Grupo 1099531">
      <circle id="Elipse_11560" data-name="Elipse 11560" cx="36" cy="36" r="36" transform="translate(823 1832)" fill="#95dbb3"/>
    </g>
    <g id="Grupo_1099502" data-name="Grupo 1099502" transform="translate(837 1847)">
      <g id="Grupo_1099501" data-name="Grupo 1099501" clip-path="url(#clip-path)">
        <path id="Trazado_877783" data-name="Trazado 877783" d="M31.127,57.432H.519A.519.519,0,0,1,0,56.913V19.443a.519.519,0,0,1,1.038,0V56.394H31.127a.519.519,0,1,1,0,1.038" transform="translate(0 -15.073)" fill="#12263f"/>
        <path id="Trazado_877784" data-name="Trazado 877784" d="M50.046,38.508H19.436a.519.519,0,0,1-.519-.519V.519A.519.519,0,0,1,19.436,0h30.61a.519.519,0,0,1,.519.519V5.663a.519.519,0,1,1-1.038,0V1.038H19.955V37.47H49.527V24.812a.519.519,0,1,1,1.038,0V37.989a.519.519,0,0,1-.519.519" transform="translate(-15.068)" fill="#12263f"/>
        <path id="Trazado_877785" data-name="Trazado 877785" d="M78.821,26.828H67.959a.519.519,0,1,1,0-1.038H78.821a.519.519,0,1,1,0,1.038" transform="translate(-53.717 -20.542)" fill="#12263f"/>
        <path id="Trazado_877786" data-name="Trazado 877786" d="M61.8,49.19H40.836a.519.519,0,0,1,0-1.038H61.8a.519.519,0,1,1,0,1.038" transform="translate(-32.113 -38.354)" fill="#12263f"/>
        <path id="Trazado_877787" data-name="Trazado 877787" d="M60.141,71.177H40.833a.519.519,0,0,1,0-1.038H60.141a.519.519,0,0,1,0,1.038" transform="translate(-32.111 -55.866)" fill="#12263f"/>
        <path id="Trazado_877788" data-name="Trazado 877788" d="M50.11,117.573a6.17,6.17,0,0,1-.772-.049,5.3,5.3,0,0,1-2.02-.661.519.519,0,1,1,.528-.894,4.261,4.261,0,0,0,1.622.525c1.724.217,3.1-.478,3.269-1.237a.926.926,0,0,0-.187-.743,3.405,3.405,0,0,0-2.317-1.131,4.384,4.384,0,0,1-3.034-1.561,1.945,1.945,0,0,1-.355-1.562c.307-1.422,2.244-2.322,4.413-2.048a5.307,5.307,0,0,1,2.021.661.519.519,0,0,1-.528.894,4.258,4.258,0,0,0-1.622-.525c-1.725-.218-3.1.478-3.269,1.238a.926.926,0,0,0,.188.743,3.4,3.4,0,0,0,2.317,1.131,4.382,4.382,0,0,1,3.034,1.561,1.943,1.943,0,0,1,.355,1.562c-.27,1.25-1.8,2.1-3.641,2.1" transform="translate(-37.278 -86.152)" fill="#12263f"/>
        <path id="Trazado_877789" data-name="Trazado 877789" d="M63.087,102.81a.519.519,0,0,1-.519-.519v-1.634a.519.519,0,1,1,1.038,0v1.634a.519.519,0,0,1-.519.519" transform="translate(-49.836 -79.761)" fill="#12263f"/>
        <path id="Trazado_877790" data-name="Trazado 877790" d="M63.087,151.978a.519.519,0,0,1-.519-.519v-1.634a.519.519,0,0,1,1.038,0v1.634a.519.519,0,0,1-.519.519" transform="translate(-49.836 -118.924)" fill="#12263f"/>
        <path id="Trazado_877791" data-name="Trazado 877791" d="M108.259,158.373H99.894a.519.519,0,1,1,0-1.038h8.364a.519.519,0,1,1,0,1.038" transform="translate(-79.153 -125.319)" fill="#12263f"/>
        <path id="Trazado_877792" data-name="Trazado 877792" d="M124.032,50.345a2.318,2.318,0,0,1-1.41-.477l-.394-.3a2.346,2.346,0,0,1-.445-3.281l12.355-16.236a2.344,2.344,0,0,1,3.281-.446l.394.3a2.344,2.344,0,0,1,.445,3.28L125.9,49.423a2.324,2.324,0,0,1-1.548.9,2.419,2.419,0,0,1-.322.022M136,30.166a1.3,1.3,0,0,0-1.039.514L122.609,46.916a1.309,1.309,0,0,0,.248,1.826l.394.3a1.309,1.309,0,0,0,1.826-.248l12.356-16.237a1.3,1.3,0,0,0-.248-1.826l-.394-.3a1.3,1.3,0,0,0-.788-.265" transform="translate(-96.622 -23.201)" fill="#12263f"/>
        <path id="Trazado_877793" data-name="Trazado 877793" d="M197.879,25.016a.519.519,0,0,1-.412-.833l1.5-1.97a.519.519,0,0,1,.826.628l-1.5,1.97a.517.517,0,0,1-.413.2" transform="translate(-157.2 -17.53)" fill="#12263f"/>
        <path id="Trazado_877794" data-name="Trazado 877794" d="M191.026,63.26a.519.519,0,0,1-.412-.833l4.545-5.972a.519.519,0,1,1,.826.628l-4.545,5.972a.517.517,0,0,1-.413.2" transform="translate(-151.742 -44.804)" fill="#12263f"/>
        <path id="Trazado_877795" data-name="Trazado 877795" d="M120.664,128.28a.519.519,0,0,1-.412-.833l1.15-1.511a.519.519,0,1,1,.826.629l-1.15,1.511a.518.518,0,0,1-.413.2" transform="translate(-95.698 -100.146)" fill="#12263f"/>
        <path id="Trazado_877796" data-name="Trazado 877796" d="M131.456,110.055a.516.516,0,0,1-.314-.106l-3.294-2.507a.519.519,0,0,1,.628-.826l3.294,2.507a.519.519,0,0,1-.314.932" transform="translate(-101.669 -84.837)" fill="#12263f"/>
      </g>
    </g>
  </g>
</svg>
