<svg xmlns="http://www.w3.org/2000/svg" xmlns:xlink="http://www.w3.org/1999/xlink" width="72" height="72" viewBox="0 0 72 72">
  <defs>
    <clipPath id="clip-path">
      <rect id="Rectángulo_401586" data-name="Rectángulo 401586" width="39.544" height="43.48" fill="#12263f"/>
    </clipPath>
  </defs>
  <g id="_51" data-name="51" transform="translate(-508 -1947)">
    <circle id="Elipse_11563" data-name="Elipse 11563" cx="36" cy="36" r="36" transform="translate(508 1947)" fill="#95dbb3"/>
    <g id="Grupo_1099508" data-name="Grupo 1099508" transform="translate(524 1961)">
      <g id="Grupo_1099507" data-name="Grupo 1099507" clip-path="url(#clip-path)">
        <path id="Trazado_877810" data-name="Trazado 877810" d="M35.412,49.032H4.133A4.137,4.137,0,0,1,0,44.9V22.968a4.137,4.137,0,0,1,4.133-4.133H35.412a4.137,4.137,0,0,1,4.133,4.133V44.9a4.137,4.137,0,0,1-4.133,4.133M4.133,19.753A3.218,3.218,0,0,0,.918,22.968V44.9a3.218,3.218,0,0,0,3.214,3.214H35.412A3.218,3.218,0,0,0,38.626,44.9V22.968a3.218,3.218,0,0,0-3.214-3.214Z" transform="translate(0 -15.443)" fill="#12263f"/>
        <path id="Trazado_877811" data-name="Trazado 877811" d="M87.347.918H75.885a.459.459,0,0,1,0-.918H87.347a.459.459,0,0,1,0,.918" transform="translate(-61.844)" fill="#12263f"/>
        <path id="Trazado_877812" data-name="Trazado 877812" d="M107.712,187.341a.459.459,0,0,1-.459-.459v-4.992a.459.459,0,0,1,.918,0v4.992a.459.459,0,0,1-.459.459" transform="translate(-87.94 -148.76)" fill="#12263f"/>
        <path id="Trazado_877813" data-name="Trazado 877813" d="M96.659,215.174a2.886,2.886,0,1,1,2.887-2.886,2.89,2.89,0,0,1-2.887,2.886m0-4.854a1.968,1.968,0,1,0,1.968,1.968,1.97,1.97,0,0,0-1.968-1.968" transform="translate(-76.887 -171.694)" fill="#12263f"/>
        <path id="Trazado_877814" data-name="Trazado 877814" d="M36.134,82.785c-2.028,0-3.678-1.359-3.678-3.029a.459.459,0,1,1,.918,0c0,1.164,1.238,2.111,2.759,2.111s2.76-.947,2.76-2.111-1.238-2.111-2.76-2.111c-2.028,0-3.678-1.359-3.678-3.029s1.65-3.029,3.678-3.029,3.678,1.359,3.678,3.029a.459.459,0,1,1-.918,0c0-1.164-1.238-2.111-2.76-2.111s-2.759.947-2.759,2.111,1.238,2.111,2.759,2.111c2.028,0,3.678,1.359,3.678,3.029s-1.65,3.029-3.678,3.029" transform="translate(-26.612 -58.696)" fill="#12263f"/>
        <path id="Trazado_877815" data-name="Trazado 877815" d="M50.789,66.292a.459.459,0,0,1-.459-.459V64.469a.459.459,0,0,1,.918,0v1.364a.459.459,0,0,1-.459.459" transform="translate(-41.267 -52.484)" fill="#12263f"/>
        <path id="Trazado_877816" data-name="Trazado 877816" d="M50.789,130.962a.459.459,0,0,1-.459-.459v-1.364a.459.459,0,0,1,.918,0V130.5a.459.459,0,0,1-.459.459" transform="translate(-41.267 -105.509)" fill="#12263f"/>
        <path id="Trazado_877817" data-name="Trazado 877817" d="M123.005,58.133H109.937a.459.459,0,0,1,0-.918h13.068a.459.459,0,1,1,0,.918" transform="translate(-89.764 -46.912)" fill="#12263f"/>
        <path id="Trazado_877818" data-name="Trazado 877818" d="M123.005,101.051H109.937a.459.459,0,1,1,0-.918h13.068a.459.459,0,1,1,0,.918" transform="translate(-89.764 -82.102)" fill="#12263f"/>
        <path id="Trazado_877819" data-name="Trazado 877819" d="M123.005,143.967H109.937a.459.459,0,1,1,0-.918h13.068a.459.459,0,1,1,0,.918" transform="translate(-89.764 -117.29)" fill="#12263f"/>
      </g>
    </g>
  </g>
</svg>
