<svg xmlns="http://www.w3.org/2000/svg" xmlns:xlink="http://www.w3.org/1999/xlink" width="72" height="72" viewBox="0 0 72 72">
  <defs>
    <clipPath id="clip-path">
      <rect id="Rectángulo_401587" data-name="Rectángulo 401587" width="42.031" height="47.054" fill="#12263f"/>
    </clipPath>
  </defs>
  <g id="_52" data-name="52" transform="translate(-823 -1947)">
    <circle id="Elipse_11564" data-name="Elipse 11564" cx="36" cy="36" r="36" transform="translate(823 1947)" fill="#95dbb3"/>
    <g id="Grupo_1099510" data-name="Grupo 1099510" transform="translate(839.318 1961)">
      <g id="Grupo_1099509" data-name="Grupo 1099509" clip-path="url(#clip-path)">
        <path id="Trazado_877820" data-name="Trazado 877820" d="M33.075,47.054H.575A.575.575,0,0,1,0,46.48V5.11c0-.01,0-.019,0-.029A5.086,5.086,0,0,1,5.081,0h32.5a5.108,5.108,0,0,1,4.37,2.488.575.575,0,1,1-.988.587,3.932,3.932,0,0,0-7.314,1.967c0,.013,0,.026,0,.039v41.4a.575.575,0,0,1-.575.575M1.15,45.9H32.5V5.122c0-.014,0-.028,0-.042a5.071,5.071,0,0,1,1.866-3.931H5.08a3.936,3.936,0,0,0-3.931,3.9c0,.009,0,.018,0,.027Z" fill="#12263f"/>
        <path id="Trazado_877821" data-name="Trazado 877821" d="M23.46,151.931H18.6a.575.575,0,1,1,0-1.149H23.46a.575.575,0,1,1,0,1.149" transform="translate(-13.961 -116.801)" fill="#12263f"/>
        <path id="Trazado_877822" data-name="Trazado 877822" d="M66.755,151.931H61.893a.575.575,0,1,1,0-1.149h4.862a.575.575,0,1,1,0,1.149" transform="translate(-47.499 -116.801)" fill="#12263f"/>
        <path id="Trazado_877823" data-name="Trazado 877823" d="M110.05,151.931h-4.862a.575.575,0,1,1,0-1.149h4.862a.575.575,0,1,1,0,1.149" transform="translate(-81.037 -116.801)" fill="#12263f"/>
        <path id="Trazado_877824" data-name="Trazado 877824" d="M54.083,65.8a.575.575,0,0,1-.483-.886L61.982,51.88a.575.575,0,0,1,.967.622L54.567,65.533a.575.575,0,0,1-.484.264" transform="translate(-41.45 -39.984)" fill="#12263f"/>
        <path id="Trazado_877825" data-name="Trazado 877825" d="M40.277,52.639a3.383,3.383,0,0,1-3.071-3.62A3.383,3.383,0,0,1,40.277,45.4a3.383,3.383,0,0,1,3.071,3.619,3.383,3.383,0,0,1-3.071,3.62m0-6.09a2.548,2.548,0,0,0,0,4.94,2.548,2.548,0,0,0,0-4.94" transform="translate(-28.821 -35.169)" fill="#12263f"/>
        <path id="Trazado_877826" data-name="Trazado 877826" d="M87.92,95.873a3.668,3.668,0,1,1,3.071-3.62,3.383,3.383,0,0,1-3.071,3.62m0-6.09a2.548,2.548,0,1,0,1.922,2.47,2.251,2.251,0,0,0-1.922-2.47" transform="translate(-65.727 -68.659)" fill="#12263f"/>
      </g>
    </g>
  </g>
</svg>
