<svg xmlns="http://www.w3.org/2000/svg" xmlns:xlink="http://www.w3.org/1999/xlink" width="72" height="72" viewBox="0 0 72 72">
  <defs>
    <clipPath id="clip-path">
      <rect id="Rectángulo_401588" data-name="Rectángulo 401588" width="43.49" height="39.339" fill="#12263f"/>
    </clipPath>
  </defs>
  <g id="_53" data-name="53" transform="translate(-1138 -1947)">
    <circle id="Elipse_11565" data-name="Elipse 11565" cx="36" cy="36" r="36" transform="translate(1138 1947)" fill="#95dbb3"/>
    <g id="Grupo_1099512" data-name="Grupo 1099512" transform="translate(1152 1963)">
      <g id="Grupo_1099511" data-name="Grupo 1099511" clip-path="url(#clip-path)">
        <path id="Trazado_877827" data-name="Trazado 877827" d="M33.212,39.339H.525A.525.525,0,0,1,0,38.814V.525A.525.525,0,0,1,.525,0H33.212a.525.525,0,0,1,.525.525V14.858a.525.525,0,1,1-1.05,0V1.05H1.05v37.24H32.687V32.02a.525.525,0,1,1,1.05,0v6.794a.525.525,0,0,1-.525.525" fill="#12263f"/>
        <path id="Trazado_877828" data-name="Trazado 877828" d="M71.038,45.976H64.81a.525.525,0,0,1,0-1.05h6.228a.525.525,0,0,1,0,1.05" transform="translate(-51.056 -35.681)" fill="#12263f"/>
        <path id="Trazado_877829" data-name="Trazado 877829" d="M48.524,76.75H26.548a.525.525,0,0,1,0-1.05H48.524a.525.525,0,0,1,0,1.05" transform="translate(-20.668 -60.122)" fill="#12263f"/>
        <path id="Trazado_877830" data-name="Trazado 877830" d="M48.524,95.814H26.548a.525.525,0,0,1,0-1.05H48.524a.525.525,0,0,1,0,1.05" transform="translate(-20.668 -75.263)" fill="#12263f"/>
        <path id="Trazado_877831" data-name="Trazado 877831" d="M58.544,127.968a6.07,6.07,0,1,1,2.827-11.442.525.525,0,0,1-.491.927A5.02,5.02,0,1,0,59.3,126.86a4.613,4.613,0,0,0,.563-.117,5.034,5.034,0,0,0,3.525-3.526.525.525,0,0,1,1.013.275,6.087,6.087,0,0,1-4.265,4.265,5.549,5.549,0,0,1-.685.142,6.034,6.034,0,0,1-.909.07" transform="translate(-41.677 -91.993)" fill="#12263f"/>
        <path id="Trazado_877832" data-name="Trazado 877832" d="M76.161,129.084a.525.525,0,0,1-.371-.154l-2.342-2.342a.525.525,0,1,1,.742-.742l1.971,1.971,4.905-4.905a.525.525,0,0,1,.742.742l-5.276,5.276a.525.525,0,0,1-.371.154" transform="translate(-58.211 -97.496)" fill="#12263f"/>
        <path id="Trazado_877833" data-name="Trazado 877833" d="M128.612,78.915a1.48,1.48,0,0,1-1.475-1.406,6.941,6.941,0,0,1,1.719-4.946L139.4,60.525a2.019,2.019,0,0,1,2.849-.189l1.519,1.331a2.019,2.019,0,0,1,.189,2.849L133.411,76.553a6.941,6.941,0,0,1-4.676,2.356c-.042,0-.083.005-.124.005m12.308-18.029-.066,0a.962.962,0,0,0-.665.329L129.645,73.254a5.9,5.9,0,0,0-1.46,4.2.43.43,0,0,0,.465.407,5.9,5.9,0,0,0,3.973-2l10.544-12.038a.969.969,0,0,0-.091-1.367h0l-1.519-1.33a.963.963,0,0,0-.637-.24" transform="translate(-100.966 -47.522)" fill="#12263f"/>
      </g>
    </g>
  </g>
</svg>
