<svg xmlns="http://www.w3.org/2000/svg" xmlns:xlink="http://www.w3.org/1999/xlink" width="72" height="72" viewBox="0 0 72 72">
  <defs>
    <clipPath id="clip-path">
      <rect id="Rectángulo_401589" data-name="Rectángulo 401589" width="41.015" height="44.681" fill="#12263f"/>
    </clipPath>
  </defs>
  <g id="_54" data-name="54" transform="translate(-193 -2062)">
    <circle id="Elipse_11566" data-name="Elipse 11566" cx="36" cy="36" r="36" transform="translate(193 2062)" fill="#95dbb3"/>
    <g id="Grupo_1099514" data-name="Grupo 1099514" transform="translate(208 2076)">
      <g id="Grupo_1099513" data-name="Grupo 1099513" clip-path="url(#clip-path)">
        <path id="Trazado_877834" data-name="Trazado 877834" d="M20.507,44.681a.526.526,0,0,1-.2-.04C8.655,39.849.115,24.24,0,7.527A.528.528,0,0,1,.573,7c.643.055,1.332.084,2.048.084A26.184,26.184,0,0,0,20.153.136a.528.528,0,0,1,.709,0A26.182,26.182,0,0,0,38.394,7.081c.726,0,1.4-.027,2.048-.084a.528.528,0,0,1,.573.529C40.9,24.24,32.36,39.849,20.708,44.641a.525.525,0,0,1-.2.04M1.063,8.091c.3,15.993,8.4,30.812,19.445,35.489C31.548,38.9,39.654,24.084,39.952,8.091c-.5.03-1.014.045-1.558.045a27.188,27.188,0,0,1-17.886-6.9,27.189,27.189,0,0,1-17.887,6.9c-.535,0-1.057-.015-1.558-.045" transform="translate(0 0.001)" fill="#12263f"/>
        <path id="Trazado_877835" data-name="Trazado 877835" d="M33.835,58.334a.528.528,0,0,1-.233-.054c-8.868-4.359-15.617-16.138-16.793-29.31a.528.528,0,0,1,.5-.574,29.042,29.042,0,0,0,16.206-6.04.528.528,0,0,1,.641.84,30.146,30.146,0,0,1-16.244,6.222c1.278,12.6,7.727,23.773,16.156,27.915a.528.528,0,0,1-.233,1" transform="translate(-13.328 -17.642)" fill="#12263f"/>
        <path id="Trazado_877836" data-name="Trazado 877836" d="M68.032,93.2a.526.526,0,0,1-.373-.155L63.121,88.5a.528.528,0,0,1,.746-.746l4.165,4.165,8.981-8.981a.528.528,0,0,1,.746.746l-9.354,9.354a.526.526,0,0,1-.373.155" transform="translate(-49.933 -65.65)" fill="#12263f"/>
      </g>
    </g>
  </g>
</svg>
