<svg xmlns="http://www.w3.org/2000/svg" xmlns:xlink="http://www.w3.org/1999/xlink" width="72" height="72" viewBox="0 0 72 72">
  <defs>
    <clipPath id="clip-path">
      <rect id="Rectángulo_401591" data-name="Rectángulo 401591" width="47" height="42.514" fill="#12263f"/>
    </clipPath>
  </defs>
  <g id="_56" data-name="56" transform="translate(-823 -2062)">
    <circle id="Elipse_11568" data-name="Elipse 11568" cx="36" cy="36" r="36" transform="translate(823 2062)" fill="#95dbb3"/>
    <g id="Grupo_1099518" data-name="Grupo 1099518" transform="translate(836 2077)">
      <g id="Grupo_1099517" data-name="Grupo 1099517" clip-path="url(#clip-path)">
        <path id="Trazado_877844" data-name="Trazado 877844" d="M35.893,42.514H.567A.567.567,0,0,1,0,41.947V.567A.567.567,0,0,1,.567,0H35.893a.567.567,0,0,1,.567.567v15.49a.567.567,0,1,1-1.134,0V1.134H1.134V41.38H35.326V34.6a.567.567,0,1,1,1.134,0v7.342a.567.567,0,0,1-.567.567" fill="#12263f"/>
        <path id="Trazado_877845" data-name="Trazado 877845" d="M71.583,46.06H64.852a.567.567,0,0,1,0-1.134h6.731a.567.567,0,0,1,0,1.134" transform="translate(-49.988 -34.934)" fill="#12263f"/>
        <path id="Trazado_877846" data-name="Trazado 877846" d="M50.341,76.834H26.59a.567.567,0,0,1,0-1.134h23.75a.567.567,0,1,1,0,1.134" transform="translate(-20.235 -58.864)" fill="#12263f"/>
        <path id="Trazado_877847" data-name="Trazado 877847" d="M50.341,95.9H26.59a.567.567,0,0,1,0-1.134h23.75a.567.567,0,0,1,0,1.134" transform="translate(-20.235 -73.688)" fill="#12263f"/>
        <path id="Trazado_877848" data-name="Trazado 877848" d="M59.034,128.948a6.56,6.56,0,1,1,3.055-12.365.567.567,0,0,1-.531,1,5.425,5.425,0,1,0-1.706,10.166,4.987,4.987,0,0,0,.609-.127,5.441,5.441,0,0,0,3.81-3.811.567.567,0,0,1,1.094.3,6.578,6.578,0,0,1-4.609,4.609,5.991,5.991,0,0,1-.741.154,6.521,6.521,0,0,1-.982.075" transform="translate(-40.805 -90.069)" fill="#12263f"/>
        <path id="Trazado_877849" data-name="Trazado 877849" d="M76.392,129.594a.567.567,0,0,1-.4-.166L73.46,126.9a.567.567,0,1,1,.8-.8l2.13,2.13,5.3-5.3a.567.567,0,0,1,.8.8l-5.7,5.7a.568.568,0,0,1-.4.166" transform="translate(-56.993 -95.457)" fill="#12263f"/>
        <path id="Trazado_877850" data-name="Trazado 877850" d="M128.731,80.455a1.6,1.6,0,0,1-1.594-1.52,7.5,7.5,0,0,1,1.858-5.345l11.4-13.01a2.182,2.182,0,0,1,3.078-.2l1.641,1.438a2.182,2.182,0,0,1,.2,3.078l-11.4,13.01a7.5,7.5,0,0,1-5.053,2.547q-.068.006-.134.006m13.3-19.485-.071,0a1.04,1.04,0,0,0-.718.355l-11.4,13.01a6.375,6.375,0,0,0-1.578,4.541.465.465,0,0,0,.5.44,6.373,6.373,0,0,0,4.293-2.163l11.395-13.01a1.047,1.047,0,0,0-.1-1.478h0l-1.641-1.438a1.041,1.041,0,0,0-.689-.259" transform="translate(-98.854 -46.528)" fill="#12263f"/>
      </g>
    </g>
  </g>
</svg>
