<svg xmlns="http://www.w3.org/2000/svg" xmlns:xlink="http://www.w3.org/1999/xlink" width="72" height="72" viewBox="0 0 72 72">
  <defs>
    <clipPath id="clip-path">
      <rect id="Rectángulo_401593" data-name="Rectángulo 401593" width="37.127" height="46.592" fill="#12263f"/>
    </clipPath>
  </defs>
  <g id="_58" data-name="58" transform="translate(-656 -2177)">
    <g id="Grupo_1099524" data-name="Grupo 1099524">
      <circle id="Elipse_11570" data-name="Elipse 11570" cx="36" cy="36" r="36" transform="translate(656 2177)" fill="#95dbb3"/>
      <g id="Grupo_1099523" data-name="Grupo 1099523" transform="translate(673 2190)">
        <g id="Grupo_1099522" data-name="Grupo 1099522" clip-path="url(#clip-path)">
          <path id="Trazado_877861" data-name="Trazado 877861" d="M26.726,46.592H10.4A10.413,10.413,0,0,1,0,36.19V14.973A7.469,7.469,0,0,1,6.179,7.608,2.541,2.541,0,0,0,8.282,5.1V.57A.57.57,0,0,1,8.851,0H23.723a.57.57,0,1,1,0,1.139H9.421V5.1A3.679,3.679,0,0,1,6.377,8.73a6.331,6.331,0,0,0-5.238,6.243V36.19A9.273,9.273,0,0,0,10.4,45.453H26.726a9.273,9.273,0,0,0,9.262-9.262V14.973A6.331,6.331,0,0,0,30.75,8.73,3.679,3.679,0,0,1,27.706,5.1V.57a.57.57,0,1,1,1.139,0V5.1a2.541,2.541,0,0,0,2.1,2.506,7.468,7.468,0,0,1,6.179,7.365V36.19a10.413,10.413,0,0,1-10.4,10.4" fill="#12263f"/>
          <path id="Trazado_877862" data-name="Trazado 877862" d="M49.586,81.86a.57.57,0,0,1-.57-.57V76.82a.57.57,0,0,1,1.139,0v4.471a.57.57,0,0,1-.57.57" transform="translate(-38.068 -59.218)" fill="#12263f"/>
          <path id="Trazado_877863" data-name="Trazado 877863" d="M81.129,70.259a.57.57,0,0,1-.57-.57V65.219a.57.57,0,0,1,1.139,0V69.69a.57.57,0,0,1-.57.57" transform="translate(-62.565 -50.209)" fill="#12263f"/>
          <path id="Trazado_877864" data-name="Trazado 877864" d="M112.672,85.273a.57.57,0,0,1-.57-.57V80.233a.57.57,0,1,1,1.139,0V84.7a.57.57,0,0,1-.57.57" transform="translate(-87.062 -61.869)" fill="#12263f"/>
          <path id="Trazado_877865" data-name="Trazado 877865" d="M54.512,120.3a8.225,8.225,0,1,1,8.225-8.225,8.234,8.234,0,0,1-8.225,8.225m0-15.31a7.086,7.086,0,1,0,7.086,7.086,7.094,7.094,0,0,0-7.086-7.086" transform="translate(-35.948 -80.654)" fill="#12263f"/>
          <path id="Trazado_877866" data-name="Trazado 877866" d="M74.316,130.494a3.332,3.332,0,0,1-.546-.045,3.193,3.193,0,0,1-1.433-.613.57.57,0,0,1,.7-.9,2.052,2.052,0,0,0,.921.39,1.942,1.942,0,0,0,1.264-.192,1.048,1.048,0,0,0,.562-.728c.107-.644-.551-1.312-1.434-1.458a3.089,3.089,0,0,1-1.8-.949,2.1,2.1,0,0,1,.553-3.355,3.086,3.086,0,0,1,2.006-.322,3.2,3.2,0,0,1,1.432.613.57.57,0,0,1-.7.9,2.054,2.054,0,0,0-.921-.39,1.946,1.946,0,0,0-1.264.192.969.969,0,0,0-.264,1.6,1.948,1.948,0,0,0,1.136.588,2.6,2.6,0,0,1,2.373,2.767,2.165,2.165,0,0,1-1.131,1.537,2.988,2.988,0,0,1-1.46.367" transform="translate(-55.877 -94.964)" fill="#12263f"/>
          <path id="Trazado_877867" data-name="Trazado 877867" d="M58.759,22.105H52.747a.57.57,0,1,1,0-1.139h6.012a.57.57,0,1,1,0,1.139" transform="translate(-40.523 -16.283)" fill="#12263f"/>
        </g>
      </g>
    </g>
  </g>
</svg>
