<svg xmlns="http://www.w3.org/2000/svg" xmlns:xlink="http://www.w3.org/1999/xlink" width="295" height="190.337" viewBox="0 0 295 190.337">
  <defs>
    <clipPath id="clip-path">
      <rect id="Rectángulo_401477" data-name="Rectángulo 401477" width="217.151" height="161.24" fill="none"/>
    </clipPath>
    <clipPath id="clip-path-5">
      <rect id="Rectángulo_401467" data-name="Rectángulo 401467" width="166.775" height="117.641" fill="none"/>
    </clipPath>
    <clipPath id="clip-path-6">
      <rect id="Rectángulo_401468" data-name="Rectángulo 401468" width="180.688" height="10.293" fill="none"/>
    </clipPath>
  </defs>
  <g id="_59" data-name="59" transform="translate(-1125 -2371.918)">
    <g id="Grupo_1099343" data-name="Grupo 1099343" transform="translate(840 1276.918)">
      <rect id="Rectángulo_401353" data-name="Rectángulo 401353" width="295" height="190.337" transform="translate(285 1095)" fill="#fae9b5"/>
    </g>
    <g id="Grupo_1099342" data-name="Grupo 1099342" transform="translate(1156.401 2383)">
      <g id="Grupo_1099341" data-name="Grupo 1099341" clip-path="url(#clip-path)">
        <g id="Grupo_1099326" data-name="Grupo 1099326">
          <g id="Grupo_1099325" data-name="Grupo 1099325" clip-path="url(#clip-path)">
            <path id="Trazado_877419" data-name="Trazado 877419" d="M420.159,190.334a16.251,16.251,0,1,1-6.04-22.147,16.233,16.233,0,0,1,6.04,22.147" transform="translate(-205.152 -87.378)" fill="#fafafa"/>
            <path id="Trazado_877420" data-name="Trazado 877420" d="M421.1,192.7a12.384,12.384,0,1,1-4.6-16.877,12.37,12.37,0,0,1,4.6,16.877" transform="translate(-209.446 -91.667)" fill="#f5f5f5"/>
            <path id="Trazado_877421" data-name="Trazado 877421" d="M422.889,191.865a7.279,7.279,0,0,1,.456-1.455,13.132,13.132,0,0,0,.647-4,12.676,12.676,0,0,0-.3-2.767,12.409,12.409,0,0,0-1.1-2.986,12.146,12.146,0,0,0-2.052-2.839,12,12,0,0,0-1.391-1.227,12.089,12.089,0,0,0-3.364-1.79,12.085,12.085,0,0,0-1.8-.469,12.137,12.137,0,0,0-3.5-.115,12.38,12.38,0,0,0-3.09.758,12.658,12.658,0,0,0-2.465,1.295,13.139,13.139,0,0,0-2.957,2.775c-.6.763-.885,1.227-.951,1.191a3.628,3.628,0,0,1,.649-1.4,11.452,11.452,0,0,1,2.868-3.108,12.4,12.4,0,0,1,5.838-2.374,11.98,11.98,0,0,1,1.845-.109,12.173,12.173,0,0,1,1.923.176,12.653,12.653,0,0,1,1.942.491,12.7,12.7,0,0,1,3.629,1.931,12.627,12.627,0,0,1,1.492,1.336,12.628,12.628,0,0,1,2.162,3.087,12.4,12.4,0,0,1,1.294,6.168,11.466,11.466,0,0,1-.973,4.116,3.635,3.635,0,0,1-.8,1.323" transform="translate(-211.047 -91.17)" fill="#ebebeb"/>
            <path id="Trazado_877422" data-name="Trazado 877422" d="M413.186,198.745l-1.045,1.887-1.685-.934,1.017-1.836a9.127,9.127,0,0,1-3.448-3.671l2.065-1.543a7.783,7.783,0,0,0,2.606,3.007l1.559-2.814c-1.618-1.49-3.362-3.271-2.027-5.681.99-1.786,3.135-2.6,5.966-1.429l1.036-1.871,1.685.934-1.018,1.837a8.716,8.716,0,0,1,2.851,2.922l-1.99,1.606a7.892,7.892,0,0,0-2.092-2.3l-1.587,2.865c1.628,1.473,3.338,3.236,2.022,5.611-.971,1.752-3.091,2.559-5.914,1.414m2.441-8.38,1.324-2.392c-1-.293-1.629,0-1.937.556-.326.59,0,1.19.613,1.836m.649,5.666c.327-.59.015-1.18-.569-1.835l-1.288,2.326c.945.281,1.558.049,1.857-.49" transform="translate(-214.736 -96.763)" fill="#ebebeb"/>
          </g>
        </g>
        <g id="Grupo_1099328" data-name="Grupo 1099328">
          <g id="Grupo_1099327" data-name="Grupo 1099327" clip-path="url(#clip-path)">
            <path id="Trazado_877423" data-name="Trazado 877423" d="M214.8,338.341c0,.068-48.088.123-107.394.123-59.327,0-107.4-.055-107.4-.123s48.078-.123,107.4-.123c59.306,0,107.394.055,107.394.123" transform="translate(0 -177.998)" fill="#263238"/>
          </g>
        </g>
        <g id="Grupo_1099336" data-name="Grupo 1099336">
          <g id="Grupo_1099335" data-name="Grupo 1099335" clip-path="url(#clip-path)">
            <path id="Trazado_877424" data-name="Trazado 877424" d="M208.647,204.575H59.7a8.914,8.914,0,0,1-8.914-8.914V93.437a6.5,6.5,0,0,1,6.5-6.5H211.417a6.145,6.145,0,0,1,6.145,6.145V195.66a8.914,8.914,0,0,1-8.914,8.914" transform="translate(-26.728 -45.752)" fill="#455a64"/>
            <g id="Grupo_1099331" data-name="Grupo 1099331" transform="translate(24.059 41.182)" opacity="0.3">
              <g id="Grupo_1099330" data-name="Grupo 1099330">
                <g id="Grupo_1099329" data-name="Grupo 1099329" clip-path="url(#clip-path-5)">
                  <path id="Trazado_877425" data-name="Trazado 877425" d="M208.647,204.575H59.7a8.914,8.914,0,0,1-8.914-8.914V93.437a6.5,6.5,0,0,1,6.5-6.5H211.417a6.145,6.145,0,0,1,6.145,6.145V195.66a8.914,8.914,0,0,1-8.914,8.914" transform="translate(-50.787 -86.934)"/>
                </g>
              </g>
            </g>
            <path id="Trazado_877426" data-name="Trazado 877426" d="M209.64,327.614H44.683A8.618,8.618,0,0,1,36.065,319v-1.343a.332.332,0,0,1,.332-.332H216.42a.332.332,0,0,1,.333.332V320.5a7.113,7.113,0,0,1-7.113,7.113" transform="translate(-18.98 -167)" fill="#455a64"/>
            <g id="Grupo_1099334" data-name="Grupo 1099334" transform="translate(17.085 150.321)" opacity="0.3">
              <g id="Grupo_1099333" data-name="Grupo 1099333">
                <g id="Grupo_1099332" data-name="Grupo 1099332" clip-path="url(#clip-path-6)">
                  <path id="Trazado_877427" data-name="Trazado 877427" d="M209.64,327.614H44.683A8.618,8.618,0,0,1,36.065,319v-1.343a.332.332,0,0,1,.332-.332H216.42a.332.332,0,0,1,.333.332V320.5a7.113,7.113,0,0,1-7.113,7.113" transform="translate(-36.065 -317.321)"/>
                </g>
              </g>
            </g>
            <path id="Trazado_877428" data-name="Trazado 877428" d="M209.535,327.512s.082-.008.243-.017a5.667,5.667,0,0,0,.72-.065,7.1,7.1,0,0,0,4.263-2.251,7.075,7.075,0,0,0,1.337-2.116,7.335,7.335,0,0,0,.518-2.869q0-.789,0-1.628,0-.42,0-.852c0-.146.014-.289-.1-.379s-.244-.078-.395-.08l-40.175.029-132.543.027h-7.1a.256.256,0,0,0-.11.019.24.24,0,0,0-.137.159,1.877,1.877,0,0,0-.009.276v.6c-.008.4.01.8.034,1.191a8.217,8.217,0,0,0,.507,2.3,9.15,9.15,0,0,0,.478,1.078,9.242,9.242,0,0,0,.636.991,8.563,8.563,0,0,0,3.647,2.858,8.962,8.962,0,0,0,2.254.577c.77.074,1.555.059,2.338.059H59.853l35.192.006,59.588.019,40.172.029,10.922.018,2.84.009c.64,0,.968.01.968.01s-.328.006-.968.009l-2.84.009-10.922.018-40.172.029-59.588.02-35.192.005H45.947c-.781,0-1.566.016-2.358-.06a9.16,9.16,0,0,1-2.3-.588,8.747,8.747,0,0,1-3.725-2.919,7.849,7.849,0,0,1-1.139-2.113,8.4,8.4,0,0,1-.518-2.352c-.024-.4-.042-.807-.035-1.206v-.6a1.711,1.711,0,0,1,.015-.323.427.427,0,0,1,.243-.281.445.445,0,0,1,.183-.034h7.1l132.543.027,40.175.029.225,0a.369.369,0,0,1,.33.307c.01.083,0,.148,0,.222q0,.433,0,.852,0,.839,0,1.628a7.369,7.369,0,0,1-.531,2.89,7.112,7.112,0,0,1-1.354,2.126,6.818,6.818,0,0,1-1.624,1.316,6.7,6.7,0,0,1-2.67.922,5.32,5.32,0,0,1-.721.056c-.162.007-.244.008-.244.008" transform="translate(-18.876 -166.898)" fill="#455a64"/>
            <path id="Trazado_877429" data-name="Trazado 877429" d="M216,198.459H67.075a1.856,1.856,0,0,1-1.856-1.856V103.949a1.856,1.856,0,0,1,1.856-1.856H216a1.856,1.856,0,0,1,1.856,1.856V196.6A1.856,1.856,0,0,1,216,198.459" transform="translate(-34.324 -53.73)" fill="#fff"/>
            <path id="Trazado_877430" data-name="Trazado 877430" d="M215.9,198.357a2.963,2.963,0,0,0,.319-.034,1.862,1.862,0,0,0,.854-.4,1.842,1.842,0,0,0,.665-1.363q0-.939,0-2.175c0-3.3-.01-8.157-.018-14.417-.007-12.521-.017-30.637-.029-53.022q0-8.395-.006-17.569,0-2.292,0-4.628v-.585a4.106,4.106,0,0,0-.02-.576,1.776,1.776,0,0,0-1.485-1.5,3.537,3.537,0,0,0-.581-.023H215l-9.7,0-42.024.009-96.291.008a1.769,1.769,0,0,0-1.343.609,1.709,1.709,0,0,0-.361.661,2.488,2.488,0,0,0-.072.766v9.535q0,6.326,0,12.567,0,12.477,0,24.568t0,23.713q0,5.811,0,11.5,0,2.842,0,5.651,0,1.4,0,2.8v1.394a3.363,3.363,0,0,0,.136,1.338,1.771,1.771,0,0,0,1.536,1.083c.221.01.458,0,.685.005h8.193l10.669,0,20.4,0,36.616.011,53.019.029,14.415.018,3.749.009c.845,0,1.277.009,1.277.009s-.432.006-1.277.009l-3.749.009-14.415.018-53.019.029-36.616.011-20.4,0-10.669,0H67.558c-.232,0-.455.006-.694-.005a1.927,1.927,0,0,1-.7-.171,1.948,1.948,0,0,1-.985-1.016,1.9,1.9,0,0,1-.148-.706l0-.7q0-.7,0-1.394,0-1.4,0-2.8,0-2.809,0-5.651,0-5.685,0-11.5,0-11.621,0-23.713t0-24.568q0-6.239,0-12.567V104.12a2.671,2.671,0,0,1,.079-.817,1.9,1.9,0,0,1,.4-.73,1.953,1.953,0,0,1,1.482-.672l96.291.007,42.024.008,9.7,0h.594a3.621,3.621,0,0,1,.6.026,1.922,1.922,0,0,1,1.607,1.629,4.312,4.312,0,0,1,.021.6v.585q0,2.337,0,4.628,0,9.164-.006,17.569c-.012,22.385-.022,40.5-.029,53.022-.007,6.259-.013,11.12-.017,14.417q0,1.236-.008,2.176a1.853,1.853,0,0,1-1.546,1.767,1.4,1.4,0,0,1-.24.023l-.081,0" transform="translate(-34.22 -53.628)" fill="#263238"/>
            <path id="Trazado_877431" data-name="Trazado 877431" d="M192.109,316.9l2.242,3.8H225.9l2.082-3.8Z" transform="translate(-101.104 -166.78)" fill="#455a64"/>
            <path id="Trazado_877432" data-name="Trazado 877432" d="M226.638,93.816a1.252,1.252,0,1,1-1.252-1.251,1.251,1.251,0,0,1,1.252,1.251" transform="translate(-117.958 -48.715)" fill="#263238"/>
          </g>
        </g>
        <g id="Grupo_1099338" data-name="Grupo 1099338">
          <g id="Grupo_1099337" data-name="Grupo 1099337" clip-path="url(#clip-path)">
            <path id="Trazado_877433" data-name="Trazado 877433" d="M155.5,132.969v4.049h87.133V11.558L240.109,9.03Z" transform="translate(-81.838 -4.752)" fill="#e0e0e0"/>
            <path id="Trazado_877434" data-name="Trazado 877434" d="M215.984,132.818H151.189V8.614h86.765v102" transform="translate(-79.568 -4.533)" fill="#fff"/>
            <path id="Trazado_877435" data-name="Trazado 877435" d="M237.851,110.507s0-.161-.007-.478,0-.79-.007-1.411c0-1.247-.007-3.093-.012-5.5-.005-4.814-.013-11.863-.023-20.811-.008-17.9-.02-43.4-.034-73.8l.082.082-86.765.01.092-.092v.11c-.009,47.747-.017,91.349-.023,124.094l-.069-.069,47.368.03,12.916.018,3.363.01c.758,0,1.147.01,1.147.01s-.389.007-1.147.01l-3.363.01-12.916.019-47.368.03h-.069v-.069c-.006-32.745-.014-76.348-.023-124.094v-.2h.092l86.765.01h.082v.081c-.014,30.4-.025,55.9-.033,73.8-.01,8.948-.018,16-.023,20.811-.005,2.4-.009,4.251-.012,5.5,0,.621-.005,1.093-.007,1.411s-.007.478-.007.478" transform="translate(-79.465 -4.431)" fill="#263238"/>
            <rect id="Rectángulo_401470" data-name="Rectángulo 401470" width="37.896" height="20.428" transform="translate(77.108 11.785)" fill="#f1c12c"/>
            <path id="Trazado_877436" data-name="Trazado 877436" d="M285.946,34.734c0,.051-6.813.092-15.217.092s-15.218-.041-15.218-.092,6.813-.092,15.218-.092,15.217.041,15.217.092" transform="translate(-134.471 -18.231)" fill="#263238"/>
            <path id="Trazado_877437" data-name="Trazado 877437" d="M285.946,42.469c0,.051-6.813.092-15.217.092s-15.218-.041-15.218-.092,6.813-.092,15.218-.092,15.217.041,15.217.092" transform="translate(-134.471 -22.302)" fill="#263238"/>
            <path id="Trazado_877438" data-name="Trazado 877438" d="M285.946,50.2c0,.051-6.813.092-15.217.092s-15.218-.042-15.218-.092,6.813-.092,15.218-.092,15.217.041,15.217.092" transform="translate(-134.471 -26.372)" fill="#263238"/>
            <path id="Trazado_877439" data-name="Trazado 877439" d="M273.836,57.938c0,.051-4.1.092-9.162.092s-9.163-.042-9.163-.092,4.1-.092,9.163-.092,9.162.041,9.162.092" transform="translate(-134.471 -30.443)" fill="#263238"/>
            <path id="Trazado_877440" data-name="Trazado 877440" d="M238.765,76.623c0,.051-16.815.092-37.553.092s-37.556-.042-37.556-.092,16.811-.092,37.556-.092,37.553.041,37.553.092" transform="translate(-86.129 -40.277)" fill="#263238"/>
            <path id="Trazado_877441" data-name="Trazado 877441" d="M239.677,81.388c0,.051-16.631.092-37.142.092s-37.146-.041-37.146-.092,16.628-.092,37.146-.092,37.142.041,37.142.092" transform="translate(-87.041 -42.785)" fill="#263238"/>
            <rect id="Rectángulo_401471" data-name="Rectángulo 401471" width="75.109" height="4.358" transform="translate(77.527 42.246)" fill="#e0e0e0"/>
            <rect id="Rectángulo_401472" data-name="Rectángulo 401472" width="75.109" height="4.358" transform="translate(76.718 82.195)" fill="#e0e0e0"/>
            <rect id="Rectángulo_401473" data-name="Rectángulo 401473" width="29.956" height="4.358" transform="translate(77.527 60.729)" fill="#e0e0e0"/>
            <rect id="Rectángulo_401474" data-name="Rectángulo 401474" width="37.451" height="4.358" transform="translate(114.376 60.729)" fill="#e0e0e0"/>
            <path id="Trazado_877442" data-name="Trazado 877442" d="M207.436,106.406c0,.051-9.639.092-21.526.092s-21.529-.042-21.529-.092,9.637-.092,21.529-.092,21.526.041,21.526.092" transform="translate(-86.511 -55.951)" fill="#263238"/>
            <path id="Trazado_877443" data-name="Trazado 877443" d="M238.638,113.646c0,.051-16.663.092-37.212.092s-37.216-.041-37.216-.092,16.659-.092,37.216-.092,37.212.041,37.212.092" transform="translate(-86.421 -59.761)" fill="#263238"/>
            <path id="Trazado_877444" data-name="Trazado 877444" d="M238.638,120.5c0,.051-16.663.092-37.212.092s-37.216-.042-37.216-.092,16.659-.092,37.216-.092,37.212.041,37.212.092" transform="translate(-86.421 -63.37)" fill="#263238"/>
            <path id="Trazado_877445" data-name="Trazado 877445" d="M193.087,142.908c0,.051-6.7.092-14.965.092s-14.967-.042-14.967-.092,6.7-.092,14.967-.092,14.965.041,14.965.092" transform="translate(-85.866 -75.161)" fill="#263238"/>
            <path id="Trazado_877446" data-name="Trazado 877446" d="M193.64,149.974c0,.051-6.589.092-14.717.092s-14.717-.042-14.717-.092,6.588-.092,14.717-.092,14.717.041,14.717.092" transform="translate(-86.419 -78.88)" fill="#263238"/>
            <path id="Trazado_877447" data-name="Trazado 877447" d="M193.1,157.156c0,.051-6.646.092-14.843.092s-14.844-.042-14.844-.092,6.644-.092,14.844-.092,14.843.042,14.843.092" transform="translate(-86.002 -82.66)" fill="#263238"/>
            <path id="Trazado_877448" data-name="Trazado 877448" d="M193.1,164.128c0,.051-6.646.092-14.843.092s-14.844-.041-14.844-.092,6.644-.092,14.844-.092,14.843.042,14.843.092" transform="translate(-86.002 -86.329)" fill="#263238"/>
            <path id="Trazado_877449" data-name="Trazado 877449" d="M284.845,144.564c0,.051-6.94.092-15.5.092s-15.5-.041-15.5-.092,6.939-.092,15.5-.092,15.5.042,15.5.092" transform="translate(-133.593 -76.033)" fill="#263238"/>
            <path id="Trazado_877450" data-name="Trazado 877450" d="M246.322,144.444a5.179,5.179,0,0,1-.039-.613c-.015-.377-.033-.9-.04-1.522l.08.08-2.135.012.092-.091h0v.288c0,.1,0,.191,0,.286,0,.188,0,.372,0,.551,0,.355-.006.692-.009,1.007l-.08-.08c.622.008,1.146.026,1.522.041a5.111,5.111,0,0,1,.613.039,3.382,3.382,0,0,1-.562.039c-.371.015-.915.033-1.573.041h-.079v-.081c0-.315-.006-.652-.009-1.007,0-.18,0-.364,0-.551,0-.094,0-.189,0-.286v-.288h0l.092-.093,2.135.013h.081v.079c-.008.658-.026,1.2-.041,1.573a3.381,3.381,0,0,1-.039.562" transform="translate(-128.452 -74.846)" fill="#263238"/>
            <path id="Trazado_877451" data-name="Trazado 877451" d="M284.845,153.22c0,.051-6.94.092-15.5.092s-15.5-.042-15.5-.092,6.939-.092,15.5-.092,15.5.042,15.5.092" transform="translate(-133.593 -80.588)" fill="#263238"/>
            <path id="Trazado_877452" data-name="Trazado 877452" d="M246.322,153.1a5.179,5.179,0,0,1-.039-.613c-.015-.376-.033-.9-.04-1.522l.08.08-2.135.012.092-.091h0v.288c0,.1,0,.191,0,.286,0,.188,0,.372,0,.551,0,.355-.006.692-.009,1.007l-.08-.08c.622.008,1.146.026,1.522.041a5.115,5.115,0,0,1,.613.039,3.4,3.4,0,0,1-.562.039c-.371.015-.915.033-1.573.04h-.079V153.1c0-.315-.006-.652-.009-1.007,0-.18,0-.364,0-.551,0-.094,0-.189,0-.286v-.288h0l.092-.093,2.135.013h.081v.079c-.008.658-.026,1.2-.041,1.573a3.381,3.381,0,0,1-.039.562" transform="translate(-128.452 -79.401)" fill="#263238"/>
            <path id="Trazado_877453" data-name="Trazado 877453" d="M284.845,161.876c0,.051-6.94.092-15.5.092s-15.5-.042-15.5-.092,6.939-.092,15.5-.092,15.5.041,15.5.092" transform="translate(-133.593 -85.144)" fill="#263238"/>
            <path id="Trazado_877454" data-name="Trazado 877454" d="M246.322,161.755a5.178,5.178,0,0,1-.039-.613c-.015-.377-.033-.9-.04-1.522l.08.08-2.135.012.092-.091h0v.288c0,.1,0,.191,0,.286,0,.188,0,.372,0,.551,0,.355-.006.692-.009,1.007l-.08-.08c.622.008,1.146.026,1.522.041a5.113,5.113,0,0,1,.613.039,3.387,3.387,0,0,1-.562.039c-.371.015-.915.033-1.573.041h-.079v-.081c0-.315-.006-.652-.009-1.007,0-.18,0-.364,0-.551,0-.094,0-.189,0-.286v-.288h0l.092-.093,2.135.013h.081v.079c-.008.658-.026,1.2-.041,1.573a3.382,3.382,0,0,1-.039.562" transform="translate(-128.452 -83.956)" fill="#263238"/>
            <path id="Trazado_877455" data-name="Trazado 877455" d="M237.02,211.012s0-.12-.006-.35,0-.573-.006-1.02c0-.9-.008-2.228-.014-3.955-.007-3.452-.018-8.492-.031-14.865l.057.056-73.953.036h0l.092-.092c0,6.947,0,13.718,0,20.19l-.09-.09,52.818.041,15.514.026,4.172.011,1.082.006c.244,0,.371.006.371.006s-.12,0-.36.006l-1.071.006-4.153.012-15.493.026-52.881.041h-.09v-.09c0-6.472,0-13.243,0-20.19v-.092h.1l73.953.036h.057v.057c-.014,6.388-.024,11.44-.031,14.9-.006,1.721-.011,3.045-.014,3.942q0,.665-.006,1.011c0,.226-.006.338-.006.338" transform="translate(-85.768 -100.377)" fill="#263238"/>
            <path id="Trazado_877456" data-name="Trazado 877456" d="M237.352,201.549c0,.051-16.511.092-36.874.092s-36.877-.042-36.877-.092,16.508-.092,36.877-.092,36.874.041,36.874.092" transform="translate(-86.1 -106.023)" fill="#263238"/>
            <path id="Trazado_877457" data-name="Trazado 877457" d="M237.352,212.132c0,.051-16.511.092-36.874.092s-36.877-.041-36.877-.092,16.508-.092,36.877-.092,36.874.042,36.874.092" transform="translate(-86.1 -111.593)" fill="#263238"/>
            <path id="Trazado_877458" data-name="Trazado 877458" d="M237.352,222.832c0,.051-16.511.092-36.874.092s-36.877-.042-36.877-.092,16.508-.092,36.877-.092,36.874.041,36.874.092" transform="translate(-86.1 -117.224)" fill="#263238"/>
            <path id="Trazado_877459" data-name="Trazado 877459" d="M181.209,211.255c-.051,0-.092-4.567-.092-10.2s.042-10.2.092-10.2.092,4.566.092,10.2-.042,10.2-.092,10.2" transform="translate(-95.319 -100.443)" fill="#263238"/>
            <path id="Trazado_877460" data-name="Trazado 877460" d="M234,210.982c-.051,0-.092-4.361-.092-9.739s.042-9.74.092-9.74.092,4.36.092,9.74-.042,9.739-.092,9.739" transform="translate(-123.103 -100.785)" fill="#263238"/>
            <path id="Trazado_877461" data-name="Trazado 877461" d="M289.631,212.243c-.051,0-.092-4.5-.092-10.046s.042-10.047.092-10.047.092,4.5.092,10.047-.041,10.046-.092,10.046" transform="translate(-152.379 -101.125)" fill="#263238"/>
            <path id="Trazado_877462" data-name="Trazado 877462" d="M287.968,246.131l21.97-22.209h-21.97Z" transform="translate(-151.552 -117.846)" fill="#f5f5f5"/>
            <path id="Trazado_877463" data-name="Trazado 877463" d="M287.874,246.029c0-.742-.035-9.182-.084-22.209v-.084h.084l15.5-.008h6.69l-.154.154-15.738,15.835-6.3,6.31,6.306-6.429,15.6-15.844.064.155h-6.472l-15.5-.009.084-.084c-.049,13.028-.081,21.468-.084,22.209" transform="translate(-151.459 -117.744)" fill="#263238"/>
            <path id="Trazado_877464" data-name="Trazado 877464" d="M221.592,243c0,.051-12.914.092-28.84.092s-28.843-.042-28.843-.092,12.911-.092,28.843-.092,28.84.042,28.84.092" transform="translate(-86.262 -127.835)" fill="#263238"/>
            <path id="Trazado_877465" data-name="Trazado 877465" d="M221.592,249.155c0,.051-12.914.092-28.84.092s-28.843-.042-28.843-.092,12.911-.092,28.843-.092,28.84.042,28.84.092" transform="translate(-86.262 -131.077)" fill="#263238"/>
            <path id="Trazado_877466" data-name="Trazado 877466" d="M190.156,255.317c0,.051-5.876.092-13.124.092s-13.125-.042-13.125-.092,5.876-.092,13.125-.092,13.124.041,13.124.092" transform="translate(-86.261 -134.32)" fill="#263238"/>
            <path id="Trazado_877467" data-name="Trazado 877467" d="M177.454,38.5h-3.316V36.924h8.489V38.5h-3.315v8.432h-1.858Z" transform="translate(-91.646 -19.433)" fill="#fff"/>
            <path id="Trazado_877468" data-name="Trazado 877468" d="M198.873,44.612h-5l-.986,2.315H190.97l4.5-10h1.83l4.516,10h-1.944Zm-.614-1.458-1.886-4.373L194.5,43.155Z" transform="translate(-100.504 -19.432)" fill="#fff"/>
            <path id="Trazado_877469" data-name="Trazado 877469" d="M220.446,46.927l-2.715-3.8-2.686,3.8h-2.115l3.715-5.1-3.515-4.9h2.1l2.558,3.559,2.529-3.559h2.015l-3.5,4.83,3.758,5.173Z" transform="translate(-112.061 -19.432)" fill="#fff"/>
            <path id="Trazado_877470" data-name="Trazado 877470" d="M239.021,17.641c0,.051-17.058.092-38.095.092s-38.1-.041-38.1-.092,17.054-.092,38.1-.092,38.095.042,38.095.092" transform="translate(-85.693 -9.236)" fill="#e0e0e0"/>
            <path id="Trazado_877471" data-name="Trazado 877471" d="M201.185,20.566c0,.051-8.588.092-19.178.092s-19.18-.042-19.18-.092,8.586-.092,19.18-.092,19.178.041,19.178.092" transform="translate(-85.693 -10.775)" fill="#e0e0e0"/>
            <path id="Trazado_877472" data-name="Trazado 877472" d="M165.9,15.395a2.948,2.948,0,0,1-2.859-3.024V3.812a3.6,3.6,0,1,1,7.189,0,.474.474,0,1,1-.947,0,2.655,2.655,0,1,0-5.294,0v8.559a1.917,1.917,0,1,0,3.823.018l.037-4.49a.474.474,0,0,1,.474-.47h0a.473.473,0,0,1,.469.478l-.037,4.49a2.952,2.952,0,0,1-2.859,3" transform="translate(-85.804 -0.001)" fill="#263238"/>
          </g>
        </g>
        <g id="Grupo_1099340" data-name="Grupo 1099340">
          <g id="Grupo_1099339" data-name="Grupo 1099339" clip-path="url(#clip-path)">
            <path id="Trazado_877473" data-name="Trazado 877473" d="M426.783,81.177a3.993,3.993,0,0,0-4.735-3.055,4.465,4.465,0,1,0-7.97-3.5,7.984,7.984,0,0,0-14.5,6.659l4.375,18.993a5.186,5.186,0,0,0,8.993.52,4.613,4.613,0,0,0,6.319-6.319,3.12,3.12,0,0,0,4.308.085,5.062,5.062,0,0,0,1.393-4.409,14.573,14.573,0,0,0-1.609-4.508,3.992,3.992,0,0,0,3.429-4.471" transform="translate(-209.994 -36.989)" fill="#263238"/>
            <path id="Trazado_877474" data-name="Trazado 877474" d="M380.111,99.468A22.367,22.367,0,0,0,363.585,89.4c-3.916-.4-5.609.274-8.5.793a12.427,12.427,0,0,0-7.458,4.06,20.815,20.815,0,0,0-4.875,9.118A58.324,58.324,0,0,0,341.325,114a19.542,19.542,0,0,0,2.468,10.309l8.92,2.348c4.986.6,10.042,1.2,15.012.475s9.929-2.936,12.905-6.979c4.135-5.616,3.42-14.931-.519-20.684" transform="translate(-179.632 -46.987)" fill="#263238"/>
            <path id="Trazado_877475" data-name="Trazado 877475" d="M374.2,102.727,362.545,96.9l-3.185.1c-7.1-.583-12.664,6.816-13.205,12.555-.6,6.375-1.082,14.183-.472,18.972,1.226,9.63,9.235,11.11,9.235,11.11l.055,6.506c-.364,1.747,1.245,6.161,2.935,7.377,7.829-1.15,11.889-2.753,14.232-8.115l4.978-39.159a3.373,3.373,0,0,0-2.912-3.512" transform="translate(-181.778 -50.996)" fill="#ffc09d"/>
            <path id="Trazado_877476" data-name="Trazado 877476" d="M371.53,159.414a2.017,2.017,0,0,0-.59-1.3,2.068,2.068,0,0,0-2.485-.357,2.767,2.767,0,0,0-1.27,2.5,2.516,2.516,0,0,0,1.7,1.193c.111.019.234.089.336.039,1.19-.582,1.614-.578,1.569-.47-.223.536.764-.98.736-1.6" transform="translate(-193.241 -82.885)" fill="#ff9b6c"/>
            <path id="Trazado_877477" data-name="Trazado 877477" d="M352.484,140.378a1.23,1.23,0,0,0,1.148,1.277,1.177,1.177,0,0,0,1.3-1.069,1.23,1.23,0,0,0-1.146-1.277,1.178,1.178,0,0,0-1.3,1.07" transform="translate(-185.505 -73.313)" fill="#263238"/>
            <path id="Trazado_877478" data-name="Trazado 877478" d="M350.959,129.373c.148.165,1.1-.5,2.424-.451,1.323.025,2.273.736,2.422.578.073-.07-.074-.363-.487-.684a3.38,3.38,0,0,0-1.933-.661,3.247,3.247,0,0,0-1.936.56c-.416.3-.563.585-.491.659" transform="translate(-184.694 -67.444)" fill="#263238"/>
            <path id="Trazado_877479" data-name="Trazado 877479" d="M363.262,141.832a8.79,8.79,0,0,0-2.138-.453c-.337-.045-.655-.123-.7-.355a1.716,1.716,0,0,1,.256-.994q.515-1.211,1.08-2.541a44.175,44.175,0,0,0,2.453-6.658,44.168,44.168,0,0,0-2.983,6.445q-.544,1.339-1.038,2.558a1.952,1.952,0,0,0-.216,1.32.846.846,0,0,0,.541.511,2.287,2.287,0,0,0,.571.1,8.607,8.607,0,0,0,2.18.07" transform="translate(-189.419 -68.853)" fill="#263238"/>
            <path id="Trazado_877480" data-name="Trazado 877480" d="M365.46,183.715a24.431,24.431,0,0,0,12.951-3.029s-3.31,7.035-12.882,5.843Z" transform="translate(-192.335 -95.092)" fill="#ff9b6c"/>
            <path id="Trazado_877481" data-name="Trazado 877481" d="M370.332,156.237c-.215-.019-.262,1.416-1.523,2.4s-2.785.777-2.8.977c-.023.09.333.289.978.327a3.582,3.582,0,0,0,2.337-.734,3.113,3.113,0,0,0,1.185-2.013c.073-.6-.076-.959-.174-.954" transform="translate(-192.622 -82.224)" fill="#263238"/>
            <path id="Trazado_877482" data-name="Trazado 877482" d="M352.738,119.881c.212.33,1.233.145,2.414.28,1.185.1,2.153.477,2.422.193.12-.138,0-.457-.4-.794a3.766,3.766,0,0,0-3.9-.381c-.455.253-.631.543-.54.7" transform="translate(-185.627 -62.524)" fill="#263238"/>
            <path id="Trazado_877483" data-name="Trazado 877483" d="M377.449,141.3a1.23,1.23,0,0,1-1.269,1.157,1.176,1.176,0,0,1-1.19-1.192,1.23,1.23,0,0,1,1.267-1.157,1.177,1.177,0,0,1,1.191,1.193" transform="translate(-197.35 -73.735)" fill="#263238"/>
            <path id="Trazado_877484" data-name="Trazado 877484" d="M383.323,131.256c-.163.15-1.046-.6-2.368-.688-1.319-.106-2.335.507-2.467.336-.066-.076.109-.354.552-.633a3.386,3.386,0,0,1,1.989-.467,3.248,3.248,0,0,1,1.871.747c.385.34.5.638.423.7" transform="translate(-199.184 -68.308)" fill="#263238"/>
            <path id="Trazado_877485" data-name="Trazado 877485" d="M382.223,122.107c-.28.282-1.279-.1-2.5-.2-1.221-.136-2.277.047-2.495-.283-.095-.159.09-.449.563-.7a3.794,3.794,0,0,1,2.07-.352,3.746,3.746,0,0,1,1.957.739c.412.338.533.656.408.795" transform="translate(-198.514 -63.445)" fill="#263238"/>
            <path id="Trazado_877486" data-name="Trazado 877486" d="M387.528,118.551l-1.8,1.572c-6.551-7.439-19.032-25.73-18.34-24.645a20.879,20.879,0,0,1,10.294-.233c5.23,1.359,15.07,4.876,14.377,11.119s-4.53,12.187-4.53,12.187" transform="translate(-193.335 -49.837)" fill="#263238"/>
            <path id="Trazado_877487" data-name="Trazado 877487" d="M405.952,147.359c.024-.713.9-2.371,1.61-2.459,1.893-.235,5.284.02,5.167,4.8-.16,6.535-6.694,5.029-6.7,4.841-.005-.146-.159-4.718-.077-7.183" transform="translate(-213.633 -76.227)" fill="#ffc09d"/>
            <path id="Trazado_877488" data-name="Trazado 877488" d="M410.066,154.66c.029-.02.112.082.3.175a1.144,1.144,0,0,0,.852.038,2.817,2.817,0,0,0,1.366-2.5,3.759,3.759,0,0,0-.279-1.638,1.314,1.314,0,0,0-.836-.894.581.581,0,0,0-.68.3c-.092.181-.054.313-.089.323-.018.016-.138-.113-.079-.381a.726.726,0,0,1,.268-.4.862.862,0,0,1,.634-.152,1.6,1.6,0,0,1,1.165,1.042,3.866,3.866,0,0,1,.351,1.831,2.956,2.956,0,0,1-1.731,2.782,1.222,1.222,0,0,1-1.038-.2c-.2-.166-.229-.313-.207-.325" transform="translate(-215.807 -78.689)" fill="#ff9b6c"/>
            <path id="Trazado_877489" data-name="Trazado 877489" d="M414.274,115.471a8.8,8.8,0,0,1,.024-1.153,24.3,24.3,0,0,0-.1-3.127,22.422,22.422,0,0,0-10.4-16.953,24.237,24.237,0,0,0-2.741-1.507,8.8,8.8,0,0,1-1.038-.5.95.95,0,0,1,.289.077c.184.066.462.15.8.3a19.8,19.8,0,0,1,2.819,1.42,21.817,21.817,0,0,1,10.519,17.145,19.77,19.77,0,0,1-.011,3.156c-.024.372-.075.658-.1.852a.95.95,0,0,1-.062.294" transform="translate(-210.52 -48.537)" fill="#455a64"/>
            <path id="Trazado_877490" data-name="Trazado 877490" d="M294.832,245.715l-2.695.116-9.7,21.06-15.344,7.649.731,7.9s18.892-3.485,23.6-6.122,10.716-19.765,10.716-19.765c.03.122-6.383-10.838-6.383-10.838" transform="translate(-140.566 -129.315)" fill="#ffc09d"/>
            <path id="Trazado_877491" data-name="Trazado 877491" d="M251.239,283.663l-1.966-2.068a2.229,2.229,0,0,0-1.273-.353l-6.232.189a3.9,3.9,0,0,0-2.884,1.746l-2.266,3.857s-1.523,2.639-1.329,3.28a1.14,1.14,0,0,0,1.315.771s.216,1.219.624,1.468a1.913,1.913,0,0,0,1.514.1,1.284,1.284,0,0,0,1.227.742,1.5,1.5,0,0,0,.324-.06c.74-.224,1.073-1.657,1.073-1.657l3.16-.585s4.538,3.034,6.137,5.021,5.789.469,5.789.469l1.568-7.494Z" transform="translate(-123.819 -148.012)" fill="#ffc09d"/>
            <path id="Trazado_877492" data-name="Trazado 877492" d="M248.139,288.206a4.975,4.975,0,0,1-1.363.227c-.859.1-2.075.13-3.443.307l.148-.108a13.157,13.157,0,0,1-.809,1.492,16.668,16.668,0,0,1-3,3.544,5.73,5.73,0,0,1-1.563,1.117c-.036-.05.544-.493,1.373-1.32a20.544,20.544,0,0,0,2.853-3.55,14.663,14.663,0,0,0,.8-1.443l.046-.1.1-.011c1.406-.159,2.618-.143,3.477-.171a6.7,6.7,0,0,1,1.378.014" transform="translate(-125.313 -151.661)" fill="#ff9b6c"/>
            <path id="Trazado_877493" data-name="Trazado 877493" d="M250.544,294.29a3,3,0,0,1-1.174.313,8.952,8.952,0,0,1-3.048-.106l.222-.126a10.271,10.271,0,0,1-.455,1.13,9.517,9.517,0,0,1-2.343,3.077,3.962,3.962,0,0,1-1.338.878c-.035-.052.462-.4,1.149-1.081a11.026,11.026,0,0,0,2.176-3.043,11.276,11.276,0,0,0,.447-1.083l.059-.163.163.036a15.231,15.231,0,0,0,4.142.168" transform="translate(-127.574 -154.771)" fill="#ff9b6c"/>
            <path id="Trazado_877494" data-name="Trazado 877494" d="M260.779,294.093l-5.558-2.584a4.364,4.364,0,0,0-4.995.135l-2.991,1.548a.72.72,0,0,0-.4.358.67.67,0,0,0,.258.63,4.4,4.4,0,0,0,5.79.237,11.965,11.965,0,0,0,1.875,3.7,4.057,4.057,0,0,0,3.663,1.561" transform="translate(-129.897 -153.037)" fill="#ffc09d"/>
            <path id="Trazado_877495" data-name="Trazado 877495" d="M258.206,299.484c0,.009-.049.026-.149.049a2.183,2.183,0,0,1-.453.052,3.551,3.551,0,0,1-1.674-.406,5.236,5.236,0,0,1-1.97-1.8,14.487,14.487,0,0,1-1.455-3.1l.277.072a4.427,4.427,0,0,1-3.236,1.012,4.7,4.7,0,0,1-1.8-.5,4.278,4.278,0,0,1-.8-.555,2.363,2.363,0,0,1-.359-.367.736.736,0,0,1-.159-.6.706.706,0,0,1,.332-.415c.133-.082.246-.133.362-.2l.693-.358,1.356-.7a12.184,12.184,0,0,1,2.679-1.168,4.107,4.107,0,0,1,2.637.4c.752.342,1.429.677,2.058.976l2.958,1.444a7.094,7.094,0,0,1,1.062.578,7.118,7.118,0,0,1-1.127-.44l-3.011-1.331-2.07-.928a3.8,3.8,0,0,0-2.43-.345,12.226,12.226,0,0,0-2.58,1.156l-1.353.7-.692.36c-.236.12-.482.238-.494.357-.047.144.167.4.4.583a3.938,3.938,0,0,0,.725.5,4.347,4.347,0,0,0,1.651.469,4.1,4.1,0,0,0,2.979-.9l.193-.165.085.238a14.861,14.861,0,0,0,1.369,3.062,5.157,5.157,0,0,0,1.826,1.771,4,4,0,0,0,2.179.489" transform="translate(-129.679 -152.841)" fill="#ff9b6c"/>
            <path id="Trazado_877496" data-name="Trazado 877496" d="M314.184,216.066s5.534-10.622,6.9-12.942a18.644,18.644,0,0,1,6.695-6.2l10.2-2.36a5.262,5.262,0,0,0,5.29,5.464c8.067.555,13.089-7.293,13.089-7.293s9.212.947,11.756,2.016,9.74,4.08,10.8,13.648l2.465,15.62L361.917,225.5l10.837.224-3.929,25.829,3.07,10.22-44.249.161a91.165,91.165,0,0,0-1.234-18.645l-3.205-7.783a30.16,30.16,0,0,1-2.27-9.781c-.124-2.214-.063-3.89-.063-3.89s-4.993-1.716-6.691-5.774" transform="translate(-165.349 -101.434)" fill="#59836b"/>
            <path id="Trazado_877497" data-name="Trazado 877497" d="M345.592,288.606l32.629-9.794-.231-18.312,16.617-1.266s-.8,9.538-1.52,14.354c-1.79,11.966-3.645,16.776-5.9,18.853s-42.465,4.333-42.465,4.333Z" transform="translate(-181.423 -136.43)" fill="#ffc09d"/>
            <path id="Trazado_877498" data-name="Trazado 877498" d="M303.384,319.455a1.286,1.286,0,0,0,1.291.624,1.528,1.528,0,0,0,.316-.09c.716-.292.531-1.782.531-1.782l3.473-.847s4.8,2.6,6.581,4.425,5.807-.076,5.807-.076l.858-7.608-6.927-5.354s.424.318-.107-.742-2.533-.489-2.533-.489c-.359-.517-1.7-.608-1.7-.608L305.345,308a3.9,3.9,0,0,0-2.707,2.008L300.531,314s-1.056,2.835-.8,3.455a1.14,1.14,0,0,0,1.381.644s.418,1.777.9,1.8a3.891,3.891,0,0,0,1.379-.446" transform="translate(-157.721 -161.52)" fill="#ffc09d"/>
            <path id="Trazado_877499" data-name="Trazado 877499" d="M320.278,319.949c0,.06-.762.049-1.971.2a17.262,17.262,0,0,0-4.567,1.226,16.463,16.463,0,0,0-2.31,1.207c-.656.439-1.348.812-1.529,1.329a.693.693,0,0,0,.114.672.971.971,0,0,0,.457.329,1.5,1.5,0,0,0,.5.034c.015.007-.164.17-.54.1a1.065,1.065,0,0,1-.577-.336.91.91,0,0,1-.2-.878,1.823,1.823,0,0,1,.645-.853c.294-.226.6-.459.948-.681a14.909,14.909,0,0,1,7.033-2.407,6.571,6.571,0,0,1,2,.06" transform="translate(-162.946 -168.335)" fill="#ff9b6c"/>
            <path id="Trazado_877500" data-name="Trazado 877500" d="M322.16,327.546c0,.108-2.317.19-5.143.577s-5.086.91-5.112.806a5.66,5.66,0,0,1,1.451-.474,33.307,33.307,0,0,1,7.28-.982,5.716,5.716,0,0,1,1.524.072" transform="translate(-164.15 -172.341)" fill="#ff9b6c"/>
            <path id="Trazado_877501" data-name="Trazado 877501" d="M307.256,322.721a2.587,2.587,0,0,1-.118-.6,13.225,13.225,0,0,1-.133-1.662,7.112,7.112,0,0,1,.069-1.164,3.538,3.538,0,0,1,.462-1.281,7.789,7.789,0,0,1,1.959-2.344,10.731,10.731,0,0,1,2.61-1.583,9.825,9.825,0,0,1,2.424-.563c.7-.079,1.267-.108,1.659-.123a2,2,0,0,1,.612.015,18.536,18.536,0,0,1-2.235.362,10.7,10.7,0,0,0-2.335.62,11.18,11.18,0,0,0-2.506,1.555,7.81,7.81,0,0,0-1.9,2.229,4.327,4.327,0,0,0-.564,2.28c-.03,1.386.072,2.256-.006,2.26" transform="translate(-161.571 -164.933)" fill="#ff9b6c"/>
            <path id="Trazado_877502" data-name="Trazado 877502" d="M312.511,309.97c0,.054-.844.142-2.189.4-1.291.3-3.374.559-4.425,2.452a19.374,19.374,0,0,0-2.522,4.677,11.532,11.532,0,0,0-.373,2.168,1.573,1.573,0,0,1-.08-.6,5.706,5.706,0,0,1,.206-1.638,16.915,16.915,0,0,1,2.468-4.811,6.241,6.241,0,0,1,1.017-1.2,4.039,4.039,0,0,1,1.288-.731,12.215,12.215,0,0,1,2.378-.568,8.652,8.652,0,0,1,2.232-.151" transform="translate(-159.421 -163.118)" fill="#ff9b6c"/>
            <path id="Trazado_877503" data-name="Trazado 877503" d="M314.048,320.49a2.052,2.052,0,0,1-.357-.231l-1.01-.69a39.687,39.687,0,0,0-3.931-2.282l.082.009-3.467.87.109-.158a3.878,3.878,0,0,1,0,.865,1.6,1.6,0,0,1-.333.876.875.875,0,0,1-.45.25,1.241,1.241,0,0,1-.493.068,1.444,1.444,0,0,1-.912-.416,1.585,1.585,0,0,1-.169-.2l-.036-.054-.018-.027-.009-.013v0l.212.059,0,0-.007,0-.108.054c-.144.07-.29.136-.442.2a3.879,3.879,0,0,1-.472.157,1.737,1.737,0,0,1-.259.049.6.6,0,0,1-.33-.038,1.051,1.051,0,0,1-.381-.438,3.9,3.9,0,0,1-.212-.47,8.5,8.5,0,0,1-.3-.978l.216.126a1.338,1.338,0,0,1-1.344-.345,1.085,1.085,0,0,1-.3-.689,3.151,3.151,0,0,1,.072-.69,18.851,18.851,0,0,1,.774-2.6l0-.01.006-.011L301.3,311.6l.712-1.348a7,7,0,0,1,.794-1.314,3.809,3.809,0,0,1,1.209-.946,4.932,4.932,0,0,1,1.425-.413l5.306-1.017.023,0,.019,0a4.98,4.98,0,0,1,.958.174,1.6,1.6,0,0,1,.859.507l-.2-.046a1.969,1.969,0,0,1,1.832-.039,2.3,2.3,0,0,1,1.013,1.368l-.048-.071,4.772,3.667,1.288,1.014a3.181,3.181,0,0,1,.433.375,3.126,3.126,0,0,1-.48-.313l-1.331-.957-4.844-3.571-.033-.024-.016-.047a2.035,2.035,0,0,0-.892-1.187,1.678,1.678,0,0,0-1.542.053l-.12.062-.081-.108a1.353,1.353,0,0,0-.7-.379,4.746,4.746,0,0,0-.892-.155l.042,0-5.3,1.046a4.6,4.6,0,0,0-1.333.387,3.446,3.446,0,0,0-1.092.858,6.677,6.677,0,0,0-.749,1.251l-.712,1.348L300.5,313.9l.009-.021a18.892,18.892,0,0,0-.764,2.545,2.915,2.915,0,0,0-.068.608.742.742,0,0,0,.205.469,1,1,0,0,0,.987.248l.175-.043.042.169a8.2,8.2,0,0,0,.285.936,1.72,1.72,0,0,0,.426.731.331.331,0,0,0,.144,0,1.5,1.5,0,0,0,.214-.039,3.541,3.541,0,0,0,.432-.141c.143-.056.283-.117.421-.183l.1-.05.006,0h0c-.19-.054.261.072.215.06h0l.008.011.014.021.028.043a1.181,1.181,0,0,0,.132.155,1.124,1.124,0,0,0,.708.332.942.942,0,0,0,.385-.052.578.578,0,0,0,.311-.16,2.209,2.209,0,0,0,.271-1.5l-.009-.13.118-.028,3.479-.823.044-.01.037.02a34.047,34.047,0,0,1,3.9,2.388c.434.313.761.566.977.744a2.011,2.011,0,0,1,.316.285" transform="translate(-157.528 -161.339)" fill="#ff9b6c"/>
            <path id="Trazado_877504" data-name="Trazado 877504" d="M180.508,297.43l-13.651-33.66a1.953,1.953,0,0,1,1.927-2.624H212.62a2.075,2.075,0,0,1,1.867,1.115l13.128,32.106,27.537.439a1.939,1.939,0,1,1,0,3.871H182.434a2.062,2.062,0,0,1-1.926-1.247" transform="translate(-87.742 -137.437)" fill="#77af8f"/>
            <path id="Trazado_877505" data-name="Trazado 877505" d="M332.974,217.216c.056.031-.473,1.021-1.215,2.67a46.141,46.141,0,0,0-3.777,13.543c-.218,1.794-.279,2.915-.343,2.913a3.082,3.082,0,0,1-.039-.791c0-.509.03-1.245.105-2.152a38.4,38.4,0,0,1,3.8-13.633c.406-.815.757-1.461,1.024-1.9a3.076,3.076,0,0,1,.442-.657" transform="translate(-172.41 -114.317)" fill="#263238"/>
            <path id="Trazado_877506" data-name="Trazado 877506" d="M431.679,227.216a1.87,1.87,0,0,1-.4.063l-1.169.115-4.362.365-14.916,1.124-.192.015-.012-.192c-.125-1.981-.257-4.073-.393-6.223-.211-3.745-.392-7.313-.45-10.567a14.98,14.98,0,0,1,1.914-8.379,10.333,10.333,0,0,1,4.181-4.019,8.361,8.361,0,0,1,1.481-.576,2.919,2.919,0,0,1,.538-.131c.018.054-.74.207-1.948.843a10.443,10.443,0,0,0-4.012,4.023,14.851,14.851,0,0,0-1.792,8.232c.077,3.243.269,6.809.48,10.551.132,2.149.261,4.24.382,6.22l-.2-.178,14.926-.987,4.37-.253,1.173-.051a1.857,1.857,0,0,1,.408.005" transform="translate(-215.649 -104.629)" fill="#263238"/>
            <path id="Trazado_877507" data-name="Trazado 877507" d="M369.533,269.731a2.358,2.358,0,0,1-.652-.24,5.3,5.3,0,0,1-.729-.365,8.879,8.879,0,0,1-.922-.566,13.254,13.254,0,0,1-2.148-1.823,14.226,14.226,0,0,1-3.389-5.96,13.2,13.2,0,0,1-.468-2.778,8.858,8.858,0,0,1-.015-1.082,5.318,5.318,0,0,1,.059-.813,2.358,2.358,0,0,1,.127-.683c.078.007-.05.989.105,2.555a14.653,14.653,0,0,0,.539,2.7,14.963,14.963,0,0,0,3.306,5.814,14.7,14.7,0,0,0,2.045,1.843c1.267.934,2.176,1.327,2.142,1.4" transform="translate(-190.093 -134.424)" fill="#263238"/>
            <path id="Trazado_877508" data-name="Trazado 877508" d="M227.029,303.612c-.936.792-2.582.384-3.676-.91s-1.222-2.984-.285-3.776,2.582-.385,3.676.91,1.222,2.984.285,3.776" transform="translate(-117.067 -157.107)" fill="#fff"/>
          </g>
        </g>
      </g>
    </g>
  </g>
</svg>
