<svg xmlns="http://www.w3.org/2000/svg" xmlns:xlink="http://www.w3.org/1999/xlink" width="295" height="223.71" viewBox="0 0 295 223.71">
  <defs>
    <clipPath id="clip-path">
      <rect id="Rectángulo_401263" data-name="Rectángulo 401263" width="250" height="223.71" fill="none"/>
    </clipPath>
  </defs>
  <g id="_62" data-name="62" transform="translate(-915 -711.863)">
    <g id="Grupo_1099060" data-name="Grupo 1099060" transform="translate(915 711.863)">
      <g id="Grupo_1099059" data-name="Grupo 1099059" clip-path="url(#clip-path)">
        <path id="Trazado_873967" data-name="Trazado 873967" d="M229.5,94.207c30.054,36.462,13.138,75.135-7.854,93.716-5.543,4.906-14.2,7.221-20.753,8.391-35.255,6.3-40.689-31.533-75.669-29.147S52.694,194.106,12.274,134.511,40.475,4.988,84.911.8c72.02-6.787,92.347,30.02,144.593,93.406" transform="translate(0 0)" fill="#fcefe3" fill-rule="evenodd"/>
        <path id="Trazado_873968" data-name="Trazado 873968" d="M578.8,119.816a2.967,2.967,0,1,1-1.787-3.8A2.966,2.966,0,0,1,578.8,119.816Z" transform="translate(-371.498 -75.1)" fill="none" stroke="#3b260d" stroke-linecap="round" stroke-linejoin="round" stroke-width="1.787"/>
        <path id="Trazado_873969" data-name="Trazado 873969" d="M26.407,411.079a2.967,2.967,0,1,1-1.787-3.8A2.966,2.966,0,0,1,26.407,411.079Z" transform="translate(-13.386 -263.922)" fill="none" stroke="#3b260d" stroke-linecap="round" stroke-linejoin="round" stroke-width="1.787"/>
        <path id="Trazado_873970" data-name="Trazado 873970" d="M139.964,36.613a2.967,2.967,0,1,1-1.787-3.8A2.966,2.966,0,0,1,139.964,36.613Z" transform="translate(-87.004 -21.161)" fill="none" stroke="#3b260d" stroke-linecap="round" stroke-linejoin="round" stroke-width="1.787"/>
        <path id="Trazado_873971" data-name="Trazado 873971" d="M308.63,321.3v-1.629a5.4,5.4,0,0,0-5.4-5.4H265.665a5.4,5.4,0,0,0-5.4,5.4v1.632a6.572,6.572,0,0,0-5.825,6.528v3.349a3.224,3.224,0,0,0,3.225,3.225h53.582a3.224,3.224,0,0,0,3.224-3.225v-3.349a6.573,6.573,0,0,0-5.839-6.53" transform="translate(-164.95 -203.739)" fill="#735530"/>
        <path id="Trazado_873972" data-name="Trazado 873972" d="M333.051,334.408a3.225,3.225,0,0,0,3.224-3.225v-3.349a6.573,6.573,0,0,0-5.839-6.53v-1.63a5.4,5.4,0,0,0-5.4-5.4h-6.72c-8.9,11.814-21.126,17.453-30.484,20.135Z" transform="translate(-186.597 -203.739)" fill="#5e4627"/>
        <path id="Trazado_873973" data-name="Trazado 873973" d="M.7,612.95c0,2.723,48.329,4.931,107.946,4.931S216.6,615.674,216.6,612.95s-48.329-4.931-107.946-4.931S.7,610.227.7,612.95" transform="translate(-0.456 -394.171)" fill="#ede0d5" fill-rule="evenodd"/>
        <path id="Trazado_873974" data-name="Trazado 873974" d="M84.662,556.565h78.417V523.5H84.662c7.625,0,7.625,33.069,0,33.069" transform="translate(-54.885 -339.376)" fill="#faf3ed"/>
        <path id="Trazado_873975" data-name="Trazado 873975" d="M81.912,518.946h78.082v-4.017H81.912a2.009,2.009,0,0,0,0,4.017" transform="translate(-51.8 -333.822)" fill="#95dbb3"/>
        <path id="Trazado_873976" data-name="Trazado 873976" d="M82.06,615.7h77.933v-4.316H82.06a2.158,2.158,0,0,0,0,4.316" transform="translate(-51.8 -396.352)" fill="#95dbb3"/>
        <path id="Trazado_873977" data-name="Trazado 873977" d="M248.237,514.929H329.29c1.736,0,1.736,38.24,0,38.24H248.237c9.194,0,9.194-38.24,0-38.24" transform="translate(-160.929 -333.822)" fill="#59836b"/>
        <path id="Trazado_873978" data-name="Trazado 873978" d="M263.666,514.929H355.3a12.146,12.146,0,0,1,12.146,12.146v13.948A12.146,12.146,0,0,1,355.3,553.169H263.666c9.194,0,9.194-38.24,0-38.24" transform="translate(-170.932 -333.822)" fill="#95dbb3"/>
        <line id="Línea_574" data-name="Línea 574" x1="49.162" transform="translate(38.146 189.699)" fill="none" stroke="#c9c1b8" stroke-linecap="round" stroke-linejoin="round" stroke-width="1.716"/>
        <line id="Línea_575" data-name="Línea 575" x1="49.162" transform="translate(38.146 197.399)" fill="none" stroke="#c9c1b8" stroke-linecap="round" stroke-linejoin="round" stroke-width="1.716"/>
        <line id="Línea_576" data-name="Línea 576" x1="49.162" transform="translate(38.146 205.099)" fill="none" stroke="#c9c1b8" stroke-linecap="round" stroke-linejoin="round" stroke-width="1.716"/>
        <line id="Línea_577" data-name="Línea 577" x1="49.162" transform="translate(38.146 212.799)" fill="none" stroke="#c9c1b8" stroke-linecap="round" stroke-linejoin="round" stroke-width="1.716"/>
        <rect id="Rectángulo_401261" data-name="Rectángulo 401261" width="8.086" height="21.106" transform="translate(38.146 157.773)" fill="#99938b"/>
        <path id="Trazado_873979" data-name="Trazado 873979" d="M118.7,470.243H194.75v-18.8H118.7a65.362,65.362,0,0,0,0,18.8" transform="translate(-76.513 -292.664)" fill="#faf3ed"/>
        <path id="Trazado_873980" data-name="Trazado 873980" d="M110.467,446.891h78.082v-4.017H110.467a2.009,2.009,0,1,0,0,4.017" transform="translate(-70.312 -287.11)" fill="#99938b"/>
        <path id="Trazado_873981" data-name="Trazado 873981" d="M110.616,506.775h77.933v-4.316H110.616a2.158,2.158,0,1,0,0,4.316" transform="translate(-70.312 -325.738)" fill="#99938b"/>
        <path id="Trazado_873982" data-name="Trazado 873982" d="M280.5,442.874h89.922c3.222,0,5.834.794,5.834,4.017-5.383,4.962-6.285,12.9,0,16.94,0,3.222-2.612,4.317-5.834,4.317H280.5Z" transform="translate(-181.846 -287.11)" fill="#7d7469"/>
        <path id="Trazado_873983" data-name="Trazado 873983" d="M279.066,454.294h95.756c-3.747,5.976-3.54,11.6,0,16.94H279.067a46.485,46.485,0,0,1,0-16.94" transform="translate(-180.41 -294.513)" fill="#e0d6cd"/>
        <line id="Línea_578" data-name="Línea 578" x1="49.162" transform="translate(46.231 164.357)" fill="none" stroke="#c9c1b8" stroke-linecap="round" stroke-linejoin="round" stroke-width="1.716"/>
        <line id="Línea_579" data-name="Línea 579" x1="49.162" transform="translate(46.231 172.056)" fill="none" stroke="#c9c1b8" stroke-linecap="round" stroke-linejoin="round" stroke-width="1.716"/>
        <path id="Trazado_873984" data-name="Trazado 873984" d="M177.86,397.61h52.9V375.3h-52.9c5.144,0,5.144,22.31,0,22.31" transform="translate(-115.305 -243.303)" fill="#faf3ed"/>
        <path id="Trazado_873985" data-name="Trazado 873985" d="M176.005,372.427h52.679v-2.71H176.005a1.355,1.355,0,1,0,0,2.71" transform="translate(-113.224 -239.683)" fill="#edb07e"/>
        <path id="Trazado_873986" data-name="Trazado 873986" d="M176.105,437.7h52.578V434.79H176.105a1.456,1.456,0,0,0-1.456,1.456h0a1.456,1.456,0,0,0,1.456,1.456" transform="translate(-113.223 -281.869)" fill="#edb07e"/>
        <path id="Trazado_873987" data-name="Trazado 873987" d="M288.218,369.521H342.9c1.171,0,1.171,25.8,0,25.8H288.218c6.2,0,6.2-25.8,0-25.8" transform="translate(-186.848 -239.556)" fill="#edb07e"/>
        <path id="Trazado_873988" data-name="Trazado 873988" d="M298.627,369.521h61.823a8.194,8.194,0,0,1,8.194,8.194v9.411a8.194,8.194,0,0,1-8.194,8.194H298.627c6.2,0,6.2-25.8,0-25.8" transform="translate(-193.596 -239.556)" fill="#e69b5c"/>
        <line id="Línea_580" data-name="Línea 580" x1="33.168" transform="translate(68.202 135.762)" fill="none" stroke="#c9c1b8" stroke-linecap="round" stroke-linejoin="round" stroke-width="1.716"/>
        <line id="Línea_581" data-name="Línea 581" x1="33.168" transform="translate(68.202 140.957)" fill="none" stroke="#c9c1b8" stroke-linecap="round" stroke-linejoin="round" stroke-width="1.716"/>
        <line id="Línea_582" data-name="Línea 582" x1="33.168" transform="translate(68.202 146.152)" fill="none" stroke="#c9c1b8" stroke-linecap="round" stroke-linejoin="round" stroke-width="1.716"/>
        <line id="Línea_583" data-name="Línea 583" x1="33.168" transform="translate(68.202 151.346)" fill="none" stroke="#c9c1b8" stroke-linecap="round" stroke-linejoin="round" stroke-width="1.716"/>
        <path id="Trazado_873989" data-name="Trazado 873989" d="M359.111,553.04H340c5.891,0,5.891-38.31,0-38.31h19.106c6.05,0,6.05,38.31,0,38.31" transform="translate(-220.421 -333.693)" fill="#faf3ed"/>
        <rect id="Rectángulo_401262" data-name="Rectángulo 401262" width="10.043" height="90.718" transform="translate(114.562 26.104)" fill="#735530"/>
        <path id="Trazado_873990" data-name="Trazado 873990" d="M325.774,75.713h-6.468a6.4,6.4,0,0,1-6.213-4.872,2.518,2.518,0,0,1,2.446-3.118h14.007a2.518,2.518,0,0,1,2.411,3.243l-.058.193a6.4,6.4,0,0,1-6.125,4.554" transform="translate(-202.927 -43.903)" fill="#735530"/>
        <path id="Trazado_873991" data-name="Trazado 873991" d="M295.443,115.3H200.177a2.435,2.435,0,1,1,0-4.869h95.266a2.435,2.435,0,1,1,0,4.869" transform="translate(-128.194 -71.594)" fill="#5e4627"/>
        <path id="Trazado_873992" data-name="Trazado 873992" d="M157.329,208.349a.772.772,0,0,0-.616,1.238,15.985,15.985,0,0,0,12.7,6.276h16.17a15.986,15.986,0,0,0,12.7-6.276.772.772,0,0,0-.616-1.238Z" transform="translate(-101.493 -135.07)" fill="#735530"/>
        <path id="Trazado_873993" data-name="Trazado 873993" d="M158.757,152.993l20.169-30.032,20.168,30.032" transform="translate(-102.92 -79.715)" fill="none" stroke="#5e4627" stroke-linecap="round" stroke-linejoin="round" stroke-width="3"/>
        <path id="Trazado_873994" data-name="Trazado 873994" d="M404.186,208.349a.772.772,0,0,0-.616,1.238,15.985,15.985,0,0,0,12.7,6.276h16.17a15.986,15.986,0,0,0,12.7-6.276.772.772,0,0,0-.616-1.238Z" transform="translate(-261.527 -135.07)" fill="#735530"/>
        <path id="Trazado_873995" data-name="Trazado 873995" d="M405.614,152.993l20.169-30.032,20.168,30.032" transform="translate(-262.955 -79.715)" fill="none" stroke="#5e4627" stroke-linecap="round" stroke-linejoin="round" stroke-width="3"/>
        <path id="Trazado_873996" data-name="Trazado 873996" d="M559.216,345.572s-1.893-.256-6.044,1.271c-5.248,1.93-12.189,4.475-13.16,5.524s3.975,5.307,3.975,5.307l14.455-3.089Z" transform="translate(-350.002 -224.02)" fill="#c2ada0" fill-rule="evenodd"/>
        <path id="Trazado_873997" data-name="Trazado 873997" d="M564.509,622.35c0,.971,11.519,1.758,25.728,1.758s25.728-.787,25.728-1.758-11.519-1.759-25.728-1.759-25.728.787-25.728,1.759" transform="translate(-365.964 -402.322)" fill="#ede0d5" fill-rule="evenodd"/>
        <path id="Trazado_873998" data-name="Trazado 873998" d="M623.575,327.409a1.717,1.717,0,0,1,.394-1.345c2.466-3.1-2.315-5.564-3.695-6.668-1.44-1.152.411-3.661-2.715-4.854s-4.224.426-4.374.37c-.219-.082.26,3.085.26,3.085s1.56.576,1.4,3.744-1.07,4.779.781,7.352,9.749-.317,9.749-.317c-1.29-.068-1.7-.758-1.8-1.365" transform="translate(-397.484 -203.629)" fill="#4a2a1a" fill-rule="evenodd"/>
        <path id="Trazado_873999" data-name="Trazado 873999" d="M588.8,511.751s1.569-20.51-2.558-29.007l-1.938-27.8-9.582,3.533,10.994,53.44Z" transform="translate(-372.586 -294.937)" fill="#e3633d" fill-rule="evenodd"/>
        <path id="Trazado_874000" data-name="Trazado 874000" d="M658.833,603.192l-3.206-6.379,5.326-1.442,1.231,8.03Z" transform="translate(-425.035 -385.972)" fill="#e3633d" fill-rule="evenodd"/>
        <path id="Trazado_874001" data-name="Trazado 874001" d="M609.732,459.527l6.159,21.217s4.549,21,8.513,27.073l9.049.189-6.829-28.269-5.277-23.514Z" transform="translate(-395.282 -295.764)" fill="#735530" fill-rule="evenodd"/>
        <path id="Trazado_874002" data-name="Trazado 874002" d="M594.34,614.383l-2.682,1.953a18.39,18.39,0,0,1-3.4,1.42c-.287.6.274.915.749.994l8.487-.178s1.96-.407.222-4.185c-1.544.682-2.97,1.17-3.373,0" transform="translate(-381.308 -398.297)" fill="#4a2a1a" fill-rule="evenodd"/>
        <path id="Trazado_874003" data-name="Trazado 874003" d="M666,614.467l2.681,1.953a18.39,18.39,0,0,0,3.4,1.42c.287.6-.274.915-.749.994l-8.487-.178s-1.96-.407-.222-4.185c1.544.682,2.97,1.171,3.373,0" transform="translate(-429.108 -398.352)" fill="#4a2a1a" fill-rule="evenodd"/>
        <path id="Trazado_874004" data-name="Trazado 874004" d="M571.944,463.787l5.2,25.434,4,23.715h7.918a34.75,34.75,0,0,1-.814-5.636c.109-1.358.469-14.233-2.544-20.157l.239-24.124Z" transform="translate(-370.784 -300.17)" fill="#735530" fill-rule="evenodd"/>
        <path id="Trazado_874005" data-name="Trazado 874005" d="M603.064,487.143l.239-24.124-4.692.257.383,14.253a49.6,49.6,0,0,0,1.075,11.138c1.6,6.428,3.376,18.878,3.648,19.968.914,3.665-1.984,4.3-1.984,4.3h4.689a34.714,34.714,0,0,1-.814-5.636c.109-1.358.468-14.233-2.545-20.157" transform="translate(-388.072 -300.17)" fill="#5e4627" fill-rule="evenodd"/>
        <path id="Trazado_874006" data-name="Trazado 874006" d="M508.916,365.3c-5.3.018-7.085-.313-12.407-.417l-2.282,3.135c10.648,1.807,13.411,3.57,17.758,2.067,1.772-4.556-1.847-4.517-3.069-4.786" transform="translate(-320.401 -236.549)" fill="#c95836"/>
        <path id="Trazado_874007" data-name="Trazado 874007" d="M591.774,408.839l-18.462,1.407c-3,1.1-1.8,18.417-1.8,18.417l12.14.562c5.64-.118,12.311,4.306,13.013-5.092.8-10.742-4.886-15.293-4.886-15.293" transform="translate(-370.348 -265.045)" fill="#735530" fill-rule="evenodd"/>
        <path id="Trazado_874008" data-name="Trazado 874008" d="M613.621,445.559s-11.863,1.171-15.849-4.209l16.424-1.41s.17,3.744-.575,5.619" transform="translate(-387.528 -285.208)" fill="#5e4627" fill-rule="evenodd"/>
        <path id="Trazado_874009" data-name="Trazado 874009" d="M577.551,344.84l6.781-.793,1.859.073,7.066,2.464a5.2,5.2,0,0,1,2.575,6.447l-1.729,8.088a34.693,34.693,0,0,0,2.467,16.655c-10.019,3.72-23.792,3.538-26.953-1.058.533-12.567,3.056-23.788,7.935-31.876" transform="translate(-369.275 -223.042)" fill="#c2ada0" fill-rule="evenodd"/>
        <path id="Trazado_874010" data-name="Trazado 874010" d="M601.966,329.723l.65,4.879a1.64,1.64,0,0,0,1.011,1.308,1.613,1.613,0,0,0,1.624-.25l.434-.354a2.121,2.121,0,0,0,.716-2.136l-1.374-5.725Z" transform="translate(-390.247 -212.279)" fill="#c95836" fill-rule="evenodd"/>
        <path id="Trazado_874011" data-name="Trazado 874011" d="M602.17,338.1l.335,1.585,1.326-1.584Z" transform="translate(-390.379 -219.184)" fill="#873b24" fill-rule="evenodd"/>
        <path id="Trazado_874012" data-name="Trazado 874012" d="M599.741,343.562s-2.222,5.5,1.553,5.741,5.842-5.475,5.842-5.475l-2.757-1.225Z" transform="translate(-388.384 -222.106)" fill="#c95836"/>
        <path id="Trazado_874013" data-name="Trazado 874013" d="M602.818,320.688a1.428,1.428,0,0,0-.882-1.81L599.364,318a1.505,1.505,0,0,0-1.794.9,15.443,15.443,0,0,0-1.088,4.068,1.729,1.729,0,0,0,.981,1.906c.789.269,3.408.315,4.117-1.033a20.769,20.769,0,0,0,1.238-3.15" transform="translate(-386.68 -206.109)" fill="#c95836" fill-rule="evenodd"/>
        <path id="Trazado_874014" data-name="Trazado 874014" d="M608.2,322.363s-.019-4.05-.986-5.367c-1.3-1.77-3.251-2.951-5.86-1.412,0,0,.923,3.283,5.859,6.655Z" transform="translate(-389.847 -204.128)" fill="#4a2a1a" fill-rule="evenodd"/>
        <path id="Trazado_874015" data-name="Trazado 874015" d="M610.715,331.869a1.07,1.07,0,0,1-1.477.311,1.1,1.1,0,0,1-.022-1.524,1.07,1.07,0,0,1,1.477-.311,1.1,1.1,0,0,1,.022,1.524" transform="translate(-394.756 -214.041)" fill="#c95836" fill-rule="evenodd"/>
        <path id="Trazado_874016" data-name="Trazado 874016" d="M597.848,330.941l1.292.412s-.306.885-.9.612-.388-1.024-.388-1.024" transform="translate(-387.555 -214.545)" fill="#fff" fill-rule="evenodd"/>
        <path id="Trazado_874017" data-name="Trazado 874017" d="M638.147,372.172,628.8,361.355a4.665,4.665,0,0,1,.56-7.085,2.073,2.073,0,0,1,2.876.44l9.176,11.653Z" transform="translate(-406.753 -229.414)" fill="#c95836" fill-rule="evenodd"/>
        <path id="Trazado_874018" data-name="Trazado 874018" d="M647.627,386.846a4.8,4.8,0,0,1,1.762,6.544l-9.2,11.481-1.5-2.67,5.44-9.631Z" transform="translate(-414.05 -250.788)" fill="#c95836" fill-rule="evenodd"/>
        <path id="Trazado_874019" data-name="Trazado 874019" d="M638.025,429.37l-.355,2.657a2.237,2.237,0,0,0,.343,1.518l1.185,1.817a1.082,1.082,0,0,0,1.779.05l.258-3.364a3.371,3.371,0,0,0-.666-2.2l-.809-1.12Z" transform="translate(-413.381 -277.939)" fill="#c95836"/>
        <path id="Trazado_874020" data-name="Trazado 874020" d="M613.593,316.593s1.717-.106,2.066,2.319" transform="translate(-397.785 -205.243)" fill="none" stroke="#8b939c" stroke-linecap="round" stroke-linejoin="round" stroke-width="0.887"/>
        <path id="Trazado_874021" data-name="Trazado 874021" d="M624.236,357.312l8.592,10.017,1.14,1.629-3.176,6.637,3.42,2.972,6.474-8.021a5.99,5.99,0,0,0-.774-6.434c-2.559-3.146-9.509-11.815-9.509-11.815l-4.447-1.549Z" transform="translate(-404.685 -227.385)" fill="#c2ada0" fill-rule="evenodd"/>
        <path id="Trazado_874022" data-name="Trazado 874022" d="M635.039,377.819l-2.934-3.951.215-1.337" transform="translate(-409.786 -241.507)" fill="none" stroke="#807262" stroke-linecap="round" stroke-linejoin="round" stroke-width="1.444"/>
        <path id="Trazado_874023" data-name="Trazado 874023" d="M484.391,362.5l-3.31-1.136a2.92,2.92,0,0,0-2.031.051l-2.628,1.052a1.413,1.413,0,0,0-.516,2.265l4.24,1.192a4.393,4.393,0,0,0,2.987-.289l1.64-.748Z" transform="translate(-308.284 -234.164)" fill="#c95836"/>
        <path id="Trazado_874024" data-name="Trazado 874024" d="M518.671,364.118s5.667,3.816,2.2,4.559c-6.188,1.324-16.832.17-16.832.17l1.131-5.638,14.036-.642Z" transform="translate(-326.76 -235.049)" fill="#c2ada0"/>
        <path id="Trazado_874025" data-name="Trazado 874025" d="M580.582,361.674l.277,1.339-1.478,4.414" transform="translate(-375.606 -234.469)" fill="none" stroke="#807262" stroke-linecap="round" stroke-linejoin="round" stroke-width="1.444"/>
      </g>
    </g>
    <rect id="Rectángulo_401264" data-name="Rectángulo 401264" width="295" height="196" transform="translate(915 718)" fill="none"/>
  </g>
</svg>
