<svg xmlns="http://www.w3.org/2000/svg" xmlns:xlink="http://www.w3.org/1999/xlink" width="295" height="196" viewBox="0 0 295 196">
  <defs>
    <clipPath id="clip-path">
      <rect id="Rectángulo_401285" data-name="Rectángulo 401285" width="241.221" height="184.071" fill="none"/>
    </clipPath>
  </defs>
  <g id="_63" data-name="63" transform="translate(6545 10562)">
    <rect id="Rectángulo_401264" data-name="Rectángulo 401264" width="295" height="196" transform="translate(-6545 -10562)" fill="none"/>
    <g id="Grupo_1099090" data-name="Grupo 1099090" transform="translate(-6536.221 -10556.771)">
      <g id="Grupo_1099089" data-name="Grupo 1099089" clip-path="url(#clip-path)">
        <path id="Trazado_874097" data-name="Trazado 874097" d="M46.52,161.121A48.026,48.026,0,0,1,0,113.862c-.08-6.768,3.5-14.143,6.6-19.374,16.722-28.154,46.141-9.3,65.4-34.923S96.736-6.721,162.129.946s80.8,127.657,45.584,148.273c-24.156,14.14-109.782,13.622-161.193,11.9" transform="translate(0 0)" fill="#fcefe3" fill-rule="evenodd"/>
        <path id="Trazado_874098" data-name="Trazado 874098" d="M173.3,610.551c0,3.34,30.524,6.047,68.178,6.047s68.178-2.708,68.178-6.047S279.13,604.5,241.476,604.5s-68.178,2.707-68.178,6.047" transform="translate(-124.734 -435.1)" fill="#f5e7de" fill-rule="evenodd"/>
        <path id="Trazado_874099" data-name="Trazado 874099" d="M670.451,319.675l-1.221-1.82a1.753,1.753,0,0,0-1.041-.726l-1.732-.425a.943.943,0,0,0-1.144.991l1.667,2.194a2.646,2.646,0,0,0,1.615.956l1.117.218Z" transform="translate(-478.867 -227.933)" fill="#c95836"/>
        <path id="Trazado_874100" data-name="Trazado 874100" d="M675.458,325.814s7.613,10.2,12.568,10.717,2.854-3.834,1.129-4.786c-2.32-1.281-12.34-8.171-12.34-8.171Z" transform="translate(-486.171 -232.897)" fill="#c95836" fill-rule="evenodd"/>
        <path id="Trazado_874101" data-name="Trazado 874101" d="M699.137,334.02,691.8,328.5l-1.612,8.731,7.756,4.284,9.992-.294,2.393-8.3Z" transform="translate(-496.771 -236.44)" fill="#e0d3cc" fill-rule="evenodd"/>
        <path id="Trazado_874102" data-name="Trazado 874102" d="M345.817,261.444H252.293V117h94.725a7.31,7.31,0,0,1,7.31,7.31V252.932a8.511,8.511,0,0,1-8.511,8.511" transform="translate(-181.592 -84.21)" fill="#e69b5c"/>
        <path id="Trazado_874103" data-name="Trazado 874103" d="M201.171,261.444H185.9a4.629,4.629,0,0,1-4.629-4.629V120.579A3.583,3.583,0,0,1,184.851,117h16.32Z" transform="translate(-130.47 -84.21)" fill="#edb07e"/>
        <path id="Trazado_874104" data-name="Trazado 874104" d="M351.112,246.733h3.212v15.394h7.531v2.713H351.112Z" transform="translate(-252.718 -177.59)" fill="#fff"/>
        <path id="Trazado_874105" data-name="Trazado 874105" d="M403.081,259.941H396.99l-1.412,4.9h-3.267l5.9-18.107h3.766l5.9,18.107h-3.378Zm-.72-2.52-.637-2.215q-.443-1.439-.845-2.962t-.789-3.018h-.111q-.388,1.523-.775,3.032t-.831,2.949l-.637,2.215Z" transform="translate(-282.371 -177.59)" fill="#fff"/>
        <path id="Trazado_874106" data-name="Trazado 874106" d="M449.416,246.733h3.295l1.578,9.137q.221,1.467.443,2.907t.443,2.88h.111q.3-1.439.6-2.893t.6-2.893l2.215-9.137h2.8l2.215,9.137q.3,1.412.609,2.865t.609,2.921h.111q.221-1.467.429-2.907t.429-2.879l1.578-9.137h3.073L467.08,264.84h-3.987l-2.243-9.524q-.222-1.052-.429-2.09t-.374-2.091h-.111q-.194,1.053-.4,2.091t-.429,2.09l-2.187,9.524h-3.9Z" transform="translate(-323.474 -177.59)" fill="#fff"/>
        <line id="Línea_594" data-name="Línea 594" y2="136.014" transform="translate(77.053 38.913)" fill="none" stroke="#cf7021" stroke-linecap="round" stroke-linejoin="round" stroke-width="2.448"/>
        <rect id="Rectángulo_401284" data-name="Rectángulo 401284" width="78.425" height="124.339" transform="translate(83.519 42.477)" fill="none" stroke="#fff" stroke-miterlimit="10" stroke-width="2.913"/>
        <path id="Trazado_874107" data-name="Trazado 874107" d="M715.037,214.326c1.214,4.99-1,9.953-4.948,11.086s-8.129-2-9.343-6.986,1-9.953,4.948-11.086,8.129,2,9.343,6.985" transform="translate(-504.133 -149.07)" fill="#4f3a21" fill-rule="evenodd"/>
        <path id="Trazado_874108" data-name="Trazado 874108" d="M405.224,641.832c0,1.012,16.575,1.832,37.021,1.832s37.021-.82,37.021-1.832S462.691,640,442.245,640s-37.021.82-37.021,1.832" transform="translate(-291.666 -460.649)" fill="#f5e7de" fill-rule="evenodd"/>
        <path id="Trazado_874109" data-name="Trazado 874109" d="M248.444,40.1a2.364,2.364,0,1,1-1.424-3.024A2.364,2.364,0,0,1,248.444,40.1Z" transform="translate(-175.519 -26.586)" fill="none" stroke="#3b260d" stroke-linecap="round" stroke-linejoin="round" stroke-width="1.787"/>
        <path id="Trazado_874110" data-name="Trazado 874110" d="M682.361,129.1a2.364,2.364,0,1,1-1.424-3.024A2.364,2.364,0,0,1,682.361,129.1Z" transform="translate(-487.837 -90.647)" fill="none" stroke="#3b260d" stroke-linecap="round" stroke-linejoin="round" stroke-width="1.787"/>
        <path id="Trazado_874111" data-name="Trazado 874111" d="M54.467,456.889a2.364,2.364,0,1,1-1.424-3.025A2.363,2.363,0,0,1,54.467,456.889Z" transform="translate(-35.901 -326.575)" fill="none" stroke="#3b260d" stroke-linecap="round" stroke-linejoin="round" stroke-width="1.787"/>
        <path id="Trazado_874112" data-name="Trazado 874112" d="M478.461,582.078v-1.539a5.1,5.1,0,0,0-5.1-5.1H437.886a5.1,5.1,0,0,0-5.1,5.1v1.541a6.207,6.207,0,0,0-5.5,6.165v3.163a3.045,3.045,0,0,0,3.045,3.045h50.6a3.045,3.045,0,0,0,3.045-3.045v-3.163a6.207,6.207,0,0,0-5.515-6.167" transform="translate(-307.544 -414.18)" fill="#735530"/>
        <path id="Trazado_874113" data-name="Trazado 874113" d="M720.937,632.014c0,.806,8.773,1.459,19.594,1.459s19.595-.654,19.595-1.459-8.773-1.459-19.595-1.459-19.594.654-19.594,1.459" transform="translate(-518.905 -453.851)" fill="#f5e7de" fill-rule="evenodd"/>
        <path id="Trazado_874114" data-name="Trazado 874114" d="M753.391,501.327s4.173-17.731,1.35-24.746l3.933-24.053L747.4,453.3l2.848,48.2Z" transform="translate(-537.95 -325.714)" fill="#e3633d" fill-rule="evenodd"/>
        <path id="Trazado_874115" data-name="Trazado 874115" d="M745.146,624.176,743.4,625.8a16.669,16.669,0,0,1-2.926,1.179c-.281.5.162.76.551.825l7.056-.148s1.655-.338.482-3.473c-1.33.566-3.163.972-3.414,0" transform="translate(-532.901 -449.26)" fill="#4a2a1a" fill-rule="evenodd"/>
        <path id="Trazado_874116" data-name="Trazado 874116" d="M742.772,456.054l-.586,24.261,2.864,20.073h8.2a28.233,28.233,0,0,1-.321-4.687c.176-1.129-.288-11.553-2.417-16.48l3.286-20.349Z" transform="translate(-534.199 -328.251)" fill="#c2ada0" fill-rule="evenodd"/>
        <path id="Trazado_874117" data-name="Trazado 874117" d="M766.295,486.586l3.286-20.157-3.912.214-1.4,14.661c-.261,2.732-1.135,4.7-.694,7.4a87.6,87.6,0,0,1,.878,14.474,28.077,28.077,0,0,0,.274,4.677h3.892a28.077,28.077,0,0,1-.274-4.677c.187-1.127.031-11.676-2.047-16.592" transform="translate(-549.504 -335.719)" fill="#a39287" fill-rule="evenodd"/>
        <path id="Trazado_874118" data-name="Trazado 874118" d="M794.488,499.7s.71-17.943-3.483-25.043l-.765-24.341-11.126.782,12.37,48.769Z" transform="translate(-560.778 -324.119)" fill="#e3633d" fill-rule="evenodd"/>
        <path id="Trazado_874119" data-name="Trazado 874119" d="M811.5,624.074l-1.551,1.6a13.494,13.494,0,0,1-2.7,1.193c-.184.5.31.768.712.835l7.027-.149s1.589-.342-.2-3.515c-1.22.573-2.855,1.026-3.3.04" transform="translate(-581.003 -449.157)" fill="#4a2a1a" fill-rule="evenodd"/>
        <path id="Trazado_874120" data-name="Trazado 874120" d="M777.8,451.694l4.145,21.567,6.328,19.712h8.2a31.413,31.413,0,0,1-1.188-4.733c-.033-1.14-2.191-11.816-5.23-16.791l-.576-25.589Z" transform="translate(-559.833 -320.914)" fill="#c2ada0" fill-rule="evenodd"/>
        <path id="Trazado_874121" data-name="Trazado 874121" d="M761.165,409.995l-15.322,1.167c-2.492.915-1.5,15.284-1.5,15.284l10.075.467c4.681-.1,10.217,3.573,10.8-4.226.666-8.915-4.055-12.692-4.055-12.692" transform="translate(-535.612 -295.1)" fill="#c2ada0" fill-rule="evenodd"/>
        <path id="Trazado_874122" data-name="Trazado 874122" d="M746.706,341.757l1.829-1.471,4.707-1.547,3.009,1.617c6.928,2.757,6.744,11.339,6.744,11.339.732,7.31,1.32,10.688,1.5,15.93-8.028,4.16-18.284,2.6-21.227-.876,1.572-10.808,1.043-17.083,3.437-24.992" transform="translate(-534.978 -243.812)" fill="#e0d3cc" fill-rule="evenodd"/>
        <path id="Trazado_874123" data-name="Trazado 874123" d="M764.745,338.851s-2.378,4.458.764,4.254,4.276-4.437,4.276-4.437l-1.162-1.3Z" transform="translate(-549.815 -242.829)" fill="#c95836"/>
        <path id="Trazado_874124" data-name="Trazado 874124" d="M761.983,317.568s-1.449-1.507.371-3.28,2.121,2.187,2.062,2.241-2.433,1.039-2.433,1.039" transform="translate(-548.055 -225.884)" fill="#572a22" fill-rule="evenodd"/>
        <path id="Trazado_874125" data-name="Trazado 874125" d="M774.556,321.581s-.242,2.054-1.772,2.167-1.552-4.316-1.552-4.316Z" transform="translate(-555.105 -229.916)" fill="#572a22" fill-rule="evenodd"/>
        <path id="Trazado_874126" data-name="Trazado 874126" d="M765.749,326.836l1.608,3.653a1.242,1.242,0,0,0,1.173.714,1.764,1.764,0,0,0,1.389-.714l.31-.418a1.461,1.461,0,0,0,.119-1.751c-.861-1.45-2.364-4.258-2.364-4.258Z" transform="translate(-551.159 -233.248)" fill="#c95836" fill-rule="evenodd"/>
        <path id="Trazado_874127" data-name="Trazado 874127" d="M766.96,335.7l.448,1.16,1.079-1.448Z" transform="translate(-552.031 -241.421)" fill="#633c1d" fill-rule="evenodd"/>
        <path id="Trazado_874128" data-name="Trazado 874128" d="M766.969,317.666a1.121,1.121,0,0,0-.933-1.329l-2.19-.31a1.3,1.3,0,0,0-1.346,1.007,12.993,12.993,0,0,0-.393,3.465,1.352,1.352,0,0,0,1.025,1.392c.672.095,2.8-.276,3.213-1.48a17.714,17.714,0,0,0,.625-2.745" transform="translate(-548.536 -227.458)" fill="#c95836" fill-rule="evenodd"/>
        <path id="Trazado_874129" data-name="Trazado 874129" d="M769.774,316.556s.393-2.5-.549-3.415c-1.266-1.232-2.99-1.884-4.92-.23,0,0-1.063.666,2.311,1.039.428.047-.23,2.133.311,2.3a8.561,8.561,0,0,0,2.848.305" transform="translate(-550.005 -224.509)" fill="#572a22" fill-rule="evenodd"/>
        <path id="Trazado_874130" data-name="Trazado 874130" d="M776.453,328.037a.905.905,0,0,1-1.16.482.89.89,0,0,1-.2-1.231.906.906,0,0,1,1.16-.482.89.89,0,0,1,.2,1.231" transform="translate(-557.775 -235.167)" fill="#c95836" fill-rule="evenodd"/>
        <path id="Trazado_874131" data-name="Trazado 874131" d="M698.417,210.4c1.557,6.322-.947,12.527-5.594,13.859s-9.677-2.712-11.235-9.033.947-12.527,5.594-13.859,9.677,2.711,11.234,9.033" transform="translate(-490.25 -144.751)" fill="#735530" fill-rule="evenodd"/>
        <path id="Trazado_874132" data-name="Trazado 874132" d="M681.292,327.117h0a2.9,2.9,0,0,1-3.762-1.884l-15.581-51.92a3.191,3.191,0,0,1,2.035-3.873,2.9,2.9,0,0,1,3.762,1.884l15.581,51.92a3.191,3.191,0,0,1-2.035,3.873" transform="translate(-476.356 -193.814)" fill="#3d270c"/>
        <path id="Trazado_874133" data-name="Trazado 874133" d="M636.09,227.988q-13.872-2.225-24.889,7.138l-5.44-22.08c9.2,2.82,17.388-.16,24.889-7.138Z" transform="translate(-436.005 -148.204)" fill="#735530" fill-rule="evenodd"/>
        <path id="Trazado_874134" data-name="Trazado 874134" d="M716.489,407.638l-2.143-.513a1.872,1.872,0,0,0-1.289.162l-1.633.837a.921.921,0,0,0-.248,1.477l2.736.49a2.844,2.844,0,0,0,1.888-.374l1.016-.581Z" transform="translate(-511.684 -292.998)" fill="#c95836"/>
        <path id="Trazado_874135" data-name="Trazado 874135" d="M726.124,405.151s12.613,2.363,16.83-.537-.27-4.672-2.241-4.222c-2.651.606-14.989,2.235-14.989,2.235Z" transform="translate(-522.35 -288.138)" fill="#c95836" fill-rule="evenodd"/>
        <path id="Trazado_874136" data-name="Trazado 874136" d="M591.557,240.472c1.539,6.327-1.27,12.62-6.273,14.055s-10.307-2.53-11.846-8.857,1.27-12.62,6.273-14.055,10.307,2.53,11.846,8.857" transform="translate(-412.437 -166.497)" fill="#8c683b" fill-rule="evenodd"/>
        <path id="Trazado_874137" data-name="Trazado 874137" d="M581.527,251.947c1.214,4.99-1,9.953-4.948,11.086s-8.129-2-9.343-6.986,1-9.953,4.948-11.086,8.129,2,9.343,6.985" transform="translate(-408.037 -176.148)" fill="#735530" fill-rule="evenodd"/>
        <line id="Línea_595" data-name="Línea 595" y1="3.44" x2="0.505" transform="translate(210.316 101.458)" fill="none" stroke="#877968" stroke-linecap="round" stroke-linejoin="round" stroke-width="1.444"/>
        <path id="Trazado_874138" data-name="Trazado 874138" d="M729.9,395.01l10.234-1.607,2.719-3.09,6.6,2.726s-1.233,7.114-8.317,7.469-10.919-1.108-10.919-1.108Z" transform="translate(-525.359 -280.933)" fill="#e0d3cc" fill-rule="evenodd"/>
        <path id="Trazado_874139" data-name="Trazado 874139" d="M748.315,379.409l5.4-1.172,3.724-7.648.071-.826" transform="translate(-538.61 -266.143)" fill="none" stroke="#877968" stroke-linecap="round" stroke-linejoin="round" stroke-width="1.444"/>
        <path id="Trazado_874140" data-name="Trazado 874140" d="M749.614,401.477s7.665-.425,8.835-1.23,4.26-8.663,4.26-8.663" transform="translate(-539.545 -281.848)" fill="none" stroke="#877968" stroke-linecap="round" stroke-linejoin="round" stroke-width="1.444"/>
        <path id="Trazado_874141" data-name="Trazado 874141" d="M509.568,594.453a3.045,3.045,0,0,0,3.045-3.045v-3.163a6.207,6.207,0,0,0-5.515-6.167v-1.539a5.1,5.1,0,0,0-5.1-5.1h-6.346c-8.4,11.157-19.951,16.482-28.789,19.015Z" transform="translate(-336.031 -414.18)" fill="#5e4627"/>
        <path id="Trazado_874142" data-name="Trazado 874142" d="M212.939,420.123s.211-31.232,20.662-45.183c0,0,9.529,36.361-13.158,45.957-1.675.708-7.5-.774-7.5-.774" transform="translate(-153.266 -269.868)" fill="#169f9c"/>
        <path id="Trazado_874143" data-name="Trazado 874143" d="M147.456,354.289s-.682-23.36-18.986-29.107c0,0-4.462,36.233,17.036,59.127l4.451,2.221Z" transform="translate(-92.192 -234.054)" fill="#169f9c"/>
        <path id="Trazado_874144" data-name="Trazado 874144" d="M195.265,289.022c-24.009,31.326-6.98,70-6.98,70l5.721,1.446c19.668-40.269,1.26-71.443,1.26-71.443" transform="translate(-131.304 -208.028)" fill="#148384"/>
        <path id="Trazado_874145" data-name="Trazado 874145" d="M178.658,636.547c0,1.827-10.4,3.308-23.238,3.308s-23.238-1.481-23.238-3.308,10.4-3.308,23.238-3.308,23.238,1.481,23.238,3.308" transform="translate(-95.14 -455.783)" fill="#f5e7de"/>
        <path id="Trazado_874146" data-name="Trazado 874146" d="M174.042,555.523h-2.717a14.934,14.934,0,0,1-14.934-14.934V519.63h32.585v20.959a14.934,14.934,0,0,1-14.934,14.934" transform="translate(-112.565 -374.011)" fill="#e0d7cd"/>
        <path id="Trazado_874147" data-name="Trazado 874147" d="M208.713,541.835v-22.2c-4.277,22.513-9.242,29.132-24.9,33.811a18.525,18.525,0,0,0,8.608,2.082c9,0,16.293-6.129,16.293-13.689" transform="translate(-132.301 -374.012)" fill="#c4b5a7"/>
      </g>
    </g>
  </g>
</svg>
