<svg xmlns="http://www.w3.org/2000/svg" xmlns:xlink="http://www.w3.org/1999/xlink" width="295" height="196" viewBox="0 0 295 196">
  <defs>
    <clipPath id="clip-path">
      <rect id="Rectángulo_401283" data-name="Rectángulo 401283" width="233.92" height="185.601" fill="none"/>
    </clipPath>
  </defs>
  <g id="_64" data-name="64" transform="translate(6545 10982)">
    <rect id="Rectángulo_401264" data-name="Rectángulo 401264" width="295" height="196" transform="translate(-6545 -10982)" fill="none"/>
    <g id="Grupo_1099087" data-name="Grupo 1099087" transform="translate(-6538.92 -10976.801)">
      <g id="Grupo_1099086" data-name="Grupo 1099086" clip-path="url(#clip-path)">
        <path id="Trazado_874026" data-name="Trazado 874026" d="M25.364,166.273s-37.2-56.317,23.534-86.608C106.874,50.749,77.933,9.077,130.654.527c40.273-6.532,47.2,49.261,94.957,80.589,47.99,31.484-3.735,76.752-91.053,74.978-16.116-.328-84.149,36.071-109.194,10.18" transform="translate(-10.03 0)" fill="#fcefe3" fill-rule="evenodd"/>
        <path id="Trazado_874027" data-name="Trazado 874027" d="M488.007,87.571a2.43,2.43,0,1,1-1.464-3.109A2.43,2.43,0,0,1,488.007,87.571Z" transform="translate(-344.06 -60.027)" fill="none" stroke="#3b260d" stroke-linecap="round" stroke-linejoin="round" stroke-width="1.787"/>
        <path id="Trazado_874028" data-name="Trazado 874028" d="M180.62,190.992a2.43,2.43,0,1,1-1.463-3.109A2.43,2.43,0,0,1,180.62,190.992Z" transform="translate(-125.227 -133.654)" fill="none" stroke="#3b260d" stroke-linecap="round" stroke-linejoin="round" stroke-width="1.787"/>
        <path id="Trazado_874029" data-name="Trazado 874029" d="M768.979,505.414a2.43,2.43,0,1,1-1.463-3.109A2.43,2.43,0,0,1,768.979,505.414Z" transform="translate(-544.088 -357.495)" fill="none" stroke="#3b260d" stroke-linecap="round" stroke-linejoin="round" stroke-width="1.787"/>
        <path id="Trazado_874030" data-name="Trazado 874030" d="M93.05,595.132c.062.766-7.96,1.387-17.917,1.387s-18.081-.621-18.143-1.387,7.96-1.387,17.918-1.387,18.08.621,18.143,1.387" transform="translate(-40.572 -422.694)" fill="#f5e7de" fill-rule="evenodd"/>
        <path id="Trazado_874031" data-name="Trazado 874031" d="M207.079,610.443c.172,2.376-46.046,4.3-103.229,4.3S.172,612.819,0,610.443s46.046-4.3,103.229-4.3,103.679,1.926,103.85,4.3" transform="translate(0 -431.52)" fill="#f5e7de"/>
        <path id="Trazado_874032" data-name="Trazado 874032" d="M345.8,268.076H211.107a6.827,6.827,0,0,0-6.532,5.7l-12.994,89.141a4.812,4.812,0,0,0,4.87,5.7H331.146a6.828,6.828,0,0,0,6.532-5.7l12.993-89.141a4.812,4.812,0,0,0-4.87-5.7" transform="translate(-136.346 -190.847)" fill="#3d270c"/>
        <path id="Trazado_874033" data-name="Trazado 874033" d="M342.183,372.638H204.093l13.048-89.513h138.09Z" transform="translate(-145.296 -201.561)" fill="#d6cac3"/>
        <path id="Trazado_874034" data-name="Trazado 874034" d="M219.417,603.679H43.26a7.039,7.039,0,0,1-7.039-7.039H226.456a7.039,7.039,0,0,1-7.039,7.039" transform="translate(-25.786 -424.755)" fill="#3d270c"/>
        <path id="Trazado_874035" data-name="Trazado 874035" d="M449.647,191.833h45.236c12,0,20.075,9.727,18.039,21.726H445.961Z" transform="translate(-317.485 -136.568)" fill="#d9ccc5"/>
        <path id="Trazado_874036" data-name="Trazado 874036" d="M312.433,305.4H252.258L269.41,207.14c1.5-8.454,9.546-15.307,17.967-15.307h69.8c4.272.329,8.333.755,7.78,3.322-3.735-.729-7.18-.723-8.981,3.439l-2.673,15.05-11.076,63.628c-2.718,15.532-13.867,28.124-29.8,28.124" transform="translate(-179.586 -136.568)" fill="#fae9b5"/>
        <path id="Trazado_874037" data-name="Trazado 874037" d="M264.853,532.325H206.641c-12,0-20.075-9.727-18.039-21.726h60.739c-1.9,10.98,3.69,18,15.512,21.726" transform="translate(-134.045 -363.502)" fill="#fff6f0"/>
        <line id="Línea_584" data-name="Línea 584" x2="24.207" transform="translate(134.781 79.287)" fill="none" stroke="#968c7e" stroke-linecap="round" stroke-linejoin="round" stroke-width="2.726"/>
        <line id="Línea_585" data-name="Línea 585" x2="24.207" transform="translate(101.232 79.287)" fill="none" stroke="#968c7e" stroke-linecap="round" stroke-linejoin="round" stroke-width="2.726"/>
        <line id="Línea_586" data-name="Línea 586" x2="24.207" transform="translate(131.946 91.769)" fill="none" stroke="#968c7e" stroke-linecap="round" stroke-linejoin="round" stroke-width="2.726"/>
        <line id="Línea_587" data-name="Línea 587" x2="24.207" transform="translate(130.808 102.493)" fill="none" stroke="#968c7e" stroke-linecap="round" stroke-linejoin="round" stroke-width="2.726"/>
        <line id="Línea_588" data-name="Línea 588" x2="24.207" transform="translate(102.463 91.769)" fill="none" stroke="#968c7e" stroke-linecap="round" stroke-linejoin="round" stroke-width="2.726"/>
        <line id="Línea_589" data-name="Línea 589" x2="24.207" transform="translate(88.411 137.484)" fill="none" stroke="#968c7e" stroke-linecap="round" stroke-linejoin="round" stroke-width="2.726"/>
        <line id="Línea_590" data-name="Línea 590" x2="63.014" transform="translate(92.526 115.066)" fill="none" stroke="#968c7e" stroke-linecap="round" stroke-linejoin="round" stroke-width="2.726"/>
        <line id="Línea_591" data-name="Línea 591" x2="63.014" transform="translate(90.011 127.077)" fill="none" stroke="#968c7e" stroke-linecap="round" stroke-linejoin="round" stroke-width="2.726"/>
        <path id="Trazado_874041" data-name="Trazado 874041" d="M430.539,481.376s17.644-10.281,11.386-13.6c-5.164-2.737-7.246,15.574-4.422,15.762s6.826-5.364,8.683-4.987,3.739,6.681,7.126,3.293" transform="translate(-306.506 -332.819)" fill="none" stroke="#544d41" stroke-linecap="round" stroke-linejoin="round" stroke-width="1.5"/>
        <path id="Trazado_874042" data-name="Trazado 874042" d="M542.256,637.9c0,.59,9.231,1.069,20.617,1.069s20.617-.479,20.617-1.069-9.231-1.069-20.617-1.069-20.617.479-20.617,1.069" transform="translate(-386.039 -453.368)" fill="#f5e7de" fill-rule="evenodd"/>
        <path id="Trazado_874043" data-name="Trazado 874043" d="M644.094,504.014s3.788-18.656.579-26.038l1.593-19.243-10.112-5.252L640.7,504.2Z" transform="translate(-452.886 -322.839)" fill="#c76d50" fill-rule="evenodd"/>
        <path id="Trazado_874044" data-name="Trazado 874044" d="M639.755,626.457l-1.708,1.6a16.982,16.982,0,0,1-3.039,1.24c-.278.523.2.8.608.868l7.419-.155s1.73-.355.389-3.654c-1.38.6-3.373,1.127-3.669.1" transform="translate(-452.011 -445.911)" fill="#3d270c" fill-rule="evenodd"/>
        <path id="Trazado_874045" data-name="Trazado 874045" d="M633.955,459.225l1.184,22.1,2.441,21.486h8.632a29.749,29.749,0,0,1-.448-4.921c.158-1.185,1.073-12.429-1.281-17.6l1.247-23.357Z" transform="translate(-451.321 -325.297)" fill="#735530" fill-rule="evenodd"/>
        <path id="Trazado_874046" data-name="Trazado 874046" d="M591.146,502s6.944-18.656,4.984-26.038l7.6-25.308-11.977.813-4.03,50.717Z" transform="translate(-418.408 -320.829)" fill="#c76d50" fill-rule="evenodd"/>
        <path id="Trazado_874047" data-name="Trazado 874047" d="M616.68,407.123l-16.122,1.228c-2.622.963-1.575,16.082-1.575,16.082l10.6.491c5.056-.08,11.136.676,11.363-4.447.417-9.4-4.267-13.355-4.267-13.355" transform="translate(-426.276 -289.836)" fill="#735530" fill-rule="evenodd"/>
        <path id="Trazado_874048" data-name="Trazado 874048" d="M574.686,626.458l-1.979,1.6a20.157,20.157,0,0,1-3.248,1.24c-.367.523.061.8.461.868l7.446-.155s1.79-.355,1.007-3.654c-1.481.6-3.563,1.127-3.686.1" transform="translate(-405.305 -445.911)" fill="#3d270c" fill-rule="evenodd"/>
        <path id="Trazado_874049" data-name="Trazado 874049" d="M588.732,462.918l-2.962,22.669-1.193,21.486h8.632a29.614,29.614,0,0,1,.385-4.921c.359-1.185,3.176-12.429,1.7-17.6l4.9-21.066Z" transform="translate(-416.168 -329.557)" fill="#735530" fill-rule="evenodd"/>
        <path id="Trazado_874050" data-name="Trazado 874050" d="M633.955,473.736l1.386-4.636,4.783-.157" transform="translate(-451.321 -333.846)" fill="none" stroke="#3b260d" stroke-linecap="round" stroke-linejoin="round" stroke-width="1.787"/>
        <path id="Trazado_874051" data-name="Trazado 874051" d="M504.773,462.047l-3.852,8.482,8.491-3.609Z" transform="translate(-356.612 -328.937)" fill="#1e2e3d" fill-rule="evenodd"/>
        <path id="Trazado_874052" data-name="Trazado 874052" d="M507.855,462.047l-2.6,5.737c.038,1,.585,1.519,1.718,1.486l5.527-2.349Z" transform="translate(-359.694 -328.937)" fill="#fff" fill-rule="evenodd"/>
        <path id="Trazado_874053" data-name="Trazado 874053" d="M561.922,321.43h0c-1.24-1.456-3.7-1.3-5.472.339l-41.964,38.958c-1.769,1.643,2.741,6.938,4.51,5.3l41.963-38.958c1.769-1.643,2.2-4.178.962-5.634" transform="translate(-365.982 -228.118)" fill="#e69b5c"/>
        <path id="Trazado_874054" data-name="Trazado 874054" d="M665.589,323.85c-1.383-1.289-2.979-1.779-3.564-1.094s.062,2.285,1.445,3.575,2.979,1.779,3.564,1.094-.062-2.286-1.445-3.575" transform="translate(-471.151 -229.554)" fill="#fff" fill-rule="evenodd"/>
        <path id="Trazado_874055" data-name="Trazado 874055" d="M662.558,315.374l3.566-3.3,4.683,4.959-3.346,3.109Z" transform="translate(-471.683 -222.172)" fill="#fff" fill-rule="evenodd"/>
        <path id="Trazado_874056" data-name="Trazado 874056" d="M677.862,312.571c-1.383-1.289-2.979-1.779-3.564-1.094s.062,2.285,1.445,3.575,2.979,1.779,3.564,1.094-.062-2.286-1.445-3.575" transform="translate(-479.888 -221.524)" fill="#6e4616" fill-rule="evenodd"/>
        <path id="Trazado_874057" data-name="Trazado 874057" d="M674.831,304.095l3.566-3.3,4.683,4.959-3.346,3.109Z" transform="translate(-480.421 -214.142)" fill="#6e4616" fill-rule="evenodd"/>
        <path id="Trazado_874058" data-name="Trazado 874058" d="M689.95,301.709c-1.339-1.307-2.877-1.835-3.437-1.18s.071,2.246,1.41,3.553,2.877,1.835,3.437,1.18-.071-2.246-1.41-3.553" transform="translate(-488.592 -213.75)" fill="#87561b" fill-rule="evenodd"/>
        <line id="Línea_592" data-name="Línea 592" y1="39.403" x2="42.631" transform="translate(148.925 96.184)" fill="none" stroke="#ffcd87" stroke-miterlimit="10" stroke-width="1.796"/>
        <path id="Trazado_874059" data-name="Trazado 874059" d="M607.49,324.565l2.2,3.713a1.5,1.5,0,0,0,1.392.677,1.915,1.915,0,0,0,1.478-.822l.3-.453a1.7,1.7,0,0,0,0-2.006l-3.163-4.123Z" transform="translate(-432.48 -228.915)" fill="#c76d50" fill-rule="evenodd"/>
        <path id="Trazado_874060" data-name="Trazado 874060" d="M609.372,334.495l.832,1.159.761-1.791Z" transform="translate(-433.82 -237.681)" fill="#704421" fill-rule="evenodd"/>
        <path id="Trazado_874061" data-name="Trazado 874061" d="M606.223,316.477a1.247,1.247,0,0,0-1.269-1.218l-2.372.056a1.314,1.314,0,0,0-1.2,1.276,13.488,13.488,0,0,0,.334,3.662,1.51,1.51,0,0,0,1.379,1.266c.728-.017,2.889-.769,3.063-2.088a18.128,18.128,0,0,0,.065-2.955" transform="translate(-428.11 -224.437)" fill="#c76d50" fill-rule="evenodd"/>
        <path id="Trazado_874062" data-name="Trazado 874062" d="M606.508,316.645a3.117,3.117,0,0,0,1.282-4.637,3.2,3.2,0,0,0-.759-.8c-1.6-1.059-3.555-1.438-5.229.61a8.885,8.885,0,0,0,4.7,4.825Z" transform="translate(-428.431 -220.942)" fill="#3d270c" fill-rule="evenodd"/>
        <path id="Trazado_874063" data-name="Trazado 874063" d="M609.559,324.774a.934.934,0,0,1-1.117.7.956.956,0,0,1-.477-1.242.934.934,0,0,1,1.117-.7.956.956,0,0,1,.477,1.242" transform="translate(-432.774 -230.3)" fill="#c76d50" fill-rule="evenodd"/>
        <path id="Trazado_874064" data-name="Trazado 874064" d="M592.548,337.777l5.772-1.492,1.617-.158,2.8.251c1.65.48,4.561.6,6.6,6.313l1.088,4.457c2.009,5.1,1.884,12.968,2.989,18.343-8.225,4.409-21.37,5.731-24.652,2.13-.544-5.762-1.9-14.847-1.325-19.874.519-4.513,3.569-6.385,5.112-9.969" transform="translate(-418.103 -239.293)" fill="#148384" fill-rule="evenodd"/>
        <path id="Trazado_874065" data-name="Trazado 874065" d="M633.787,339.151c3.2.906,16.5,13.15,12.448,17.7-7.829,8.805-18.252-3.786-18.252-3.786s13.512,4.977,12.96,4.327-8.174-9.75-8.174-9.75Z" transform="translate(-447.07 -241.446)" fill="#148384" fill-rule="evenodd"/>
        <path id="Trazado_874066" data-name="Trazado 874066" d="M553.608,448.721l-.937,2.138a1.95,1.95,0,0,1-.943.975l-1.7.817a.943.943,0,0,1-1.346-.768l1.33-2.621a2.936,2.936,0,0,1,1.492-1.337l1.109-.468Z" transform="translate(-390.61 -318.55)" fill="#c76d50"/>
        <path id="Trazado_874067" data-name="Trazado 874067" d="M570.151,341.854s-5.174.941-6.114,9.778c-.2,1.9-.059,7.978-1.223,9.688-5.532,8.125-6.978,10.872-6.978,10.872l4.025,3.078L571.21,362.85Z" transform="translate(-395.707 -243.37)" fill="#148384"/>
        <path id="Trazado_874068" data-name="Trazado 874068" d="M659.437,359.52s3.339,12.908,3.9,14.446" transform="translate(-469.461 -255.947)" fill="none" stroke="#334659" stroke-linecap="round" stroke-linejoin="round" stroke-width="0.923"/>
        <path id="Trazado_874069" data-name="Trazado 874069" d="M594.2,387.548c.149-.164,3.424-2.879,3.2-4.963s-.911-10.2-.911-10.2l.244-.565" transform="translate(-423.018 -264.705)" fill="none" stroke="#334659" stroke-linecap="round" stroke-linejoin="round" stroke-width="0.923"/>
        <path id="Trazado_874070" data-name="Trazado 874070" d="M124.3,313.407s4.06-1.869,5.417,3.39c.905,3.506,2.935,4.821,1.873,8.1s-10.636-1.882-10.636-1.882l.431-6.166Z" transform="translate(-86.106 -222.889)" fill="#ff9d69" fill-rule="evenodd"/>
        <path id="Trazado_874071" data-name="Trazado 874071" d="M137.2,495.03s-4.3-18.513-1.431-25.838L131.7,444.079l12.024-2.512-3.9,53.609Z" transform="translate(-93.757 -314.357)" fill="#e3633d" fill-rule="evenodd"/>
        <path id="Trazado_874072" data-name="Trazado 874072" d="M98.786,632.518c.021.824-8.923,1.491-19.977,1.491s-20.032-.667-20.052-1.491,8.923-1.491,19.977-1.491,20.032.667,20.052,1.491" transform="translate(-41.83 -449.236)" fill="#f5e7de" fill-rule="evenodd"/>
        <path id="Trazado_874073" data-name="Trazado 874073" d="M191.868,352.092c3.938-2.065,6.382-3.616,10.287-5.782l2.769,1.489c-7.153,5.536-8.381,8.433-12.223,9.009-5.432-4.167-2.7,1.138-.833-4.716" transform="translate(-134.911 -246.542)" fill="#e3633d"/>
        <path id="Trazado_874074" data-name="Trazado 874074" d="M233,344.137l2.109-.78a1.893,1.893,0,0,1,1.317.005l1.733.646a.927.927,0,0,1,.4,1.46l-2.709.829a2.862,2.862,0,0,1-1.943-.147l-1.085-.462Z" transform="translate(-165.75 -244.358)" fill="#e3633d"/>
        <path id="Trazado_874075" data-name="Trazado 874075" d="M153.728,347.082s9.618,3.807,14.349,5.751l-.96,2.28a17.9,17.9,0,0,0-.076,2.244l-10.8-4-1.65-.593.378-2.691Z" transform="translate(-109.441 -247.092)" fill="#e3633d" fill-rule="evenodd"/>
        <path id="Trazado_874076" data-name="Trazado 874076" d="M151.683,624.687,154,626.343a15.992,15.992,0,0,0,2.915,1.2c.256.508-.213.776-.614.843l-7.2-.151s-1.67-.345-.277-3.548c1.324.578,2.543.992,2.859,0" transform="translate(-105.555 -444.723)" fill="#4a2a1a" fill-rule="evenodd"/>
        <path id="Trazado_874077" data-name="Trazado 874077" d="M101.914,433.056l-4.03,29.9-6.558,26.074L89.7,487.725c-.287-9.059-2.894-14.955.961-25.924l1.67-27.125,4.784-.632Z" transform="translate(-63.056 -308.298)" fill="#e3633d" fill-rule="evenodd"/>
        <path id="Trazado_874078" data-name="Trazado 874078" d="M88.635,622.983a1.252,1.252,0,0,1,.593,1.671,12.406,12.406,0,0,0-.788,2.014c-.06.212-.291.922-.529.965a.805.805,0,0,1-.655-.167l-1.064-.9a.882.882,0,0,1-.307-.522c-.021-.12-.046-.265-.073-.417-.12-.7.273-1.06.81-1.585a15.1,15.1,0,0,0,1.1-1.23,1.875,1.875,0,0,1,.916.171" transform="translate(-61.075 -443.386)" fill="#4a2a1a" fill-rule="evenodd"/>
        <path id="Trazado_874079" data-name="Trazado 874079" d="M115.1,345.42l-5.765-.673-1.575.062-5.937,2.09a4.313,4.313,0,0,0-2.045,5.466l1.639,6.858c-1.427,5.173-2.139,8.8-1.735,14.123,8.573,3.155,12.583,3.192,15.165-.706-.286-4.228,1.23-8.771,2.113-12.488,1.7-7.17.739-10.6-1.86-14.732" transform="translate(-70.815 -245.43)" fill="#e3cbbb" fill-rule="evenodd"/>
        <path id="Trazado_874080" data-name="Trazado 874080" d="M133.162,329.028s.145,2.281.265,4.171a1.352,1.352,0,0,1-.625,1.239,1.366,1.366,0,0,1-1.392.025l-.419-.234a1.851,1.851,0,0,1-.948-1.682c.07-1.766.2-4.982.2-4.982Z" transform="translate(-92.578 -233.198)" fill="#e3633d" fill-rule="evenodd"/>
        <path id="Trazado_874081" data-name="Trazado 874081" d="M138.238,337.661l-.05,1.295-1.332-1.055Z" transform="translate(-97.43 -240.385)" fill="#b83f3f" fill-rule="evenodd"/>
        <path id="Trazado_874082" data-name="Trazado 874082" d="M129.159,344.067s2,4.663-1.194,4.868-5.069-4.642-5.069-4.642l2.311-1.039Z" transform="translate(-87.491 -244.367)" fill="#e3633d"/>
        <path id="Trazado_874083" data-name="Trazado 874083" d="M79.458,376.122l5.09-7.114a4.009,4.009,0,0,0-1.512-5.869l-1.558-.794L73.745,376.6Z" transform="translate(-52.5 -257.957)" fill="#e3633d" fill-rule="evenodd"/>
        <path id="Trazado_874084" data-name="Trazado 874084" d="M64.032,407.8a4.049,4.049,0,0,0-5.713.476l-6.242,10.641,2.573.433,5.937-7.109Z" transform="translate(-37.074 -289.639)" fill="#e3633d" fill-rule="evenodd"/>
        <path id="Trazado_874085" data-name="Trazado 874085" d="M126.508,319.737a1.181,1.181,0,0,1,.765-1.507l2.189-.664a1.31,1.31,0,0,1,1.512.816,13.323,13.323,0,0,1,.884,3.48,1.427,1.427,0,0,1-.85,1.585c-.671.2-2.893.162-3.481-1a18.081,18.081,0,0,1-1.019-2.707" transform="translate(-90.02 -226.045)" fill="#e3633d" fill-rule="evenodd"/>
        <path id="Trazado_874086" data-name="Trazado 874086" d="M122.055,319.455s-.748-2.492.084-3.578c1.119-1.46,2.786-2.4,4.983-1.014,0,0,.019.773-2.508,1.819-1.025.425-.072,2.482-2.559,2.773" transform="translate(-86.672 -223.672)" fill="#ff9d69" fill-rule="evenodd"/>
        <path id="Trazado_874087" data-name="Trazado 874087" d="M126.475,331.267a.827.827,0,1,0,.033-1.29.919.919,0,0,0-.033,1.29" transform="translate(-89.866 -234.816)" fill="#e3633d" fill-rule="evenodd"/>
        <path id="Trazado_874088" data-name="Trazado 874088" d="M140.623,332.285l-1.1.309s.251.759.76.547.339-.856.339-.856" transform="translate(-99.328 -236.558)" fill="#fff" fill-rule="evenodd"/>
        <path id="Trazado_874089" data-name="Trazado 874089" d="M46.842,446.168,45.1,447.581a1.856,1.856,0,0,1-1.244.41l-1.839-.072a.941.941,0,0,1-.841-1.273L43.469,445a2.807,2.807,0,0,1,1.879-.472l1.169.1Z" transform="translate(-29.267 -316.454)" fill="#e3633d"/>
        <path id="Trazado_874090" data-name="Trazado 874090" d="M235.241,343.2l1.48-.884a.552.552,0,0,0,.179-.764.568.568,0,0,0-.769-.2l-1.48.884a.552.552,0,0,0-.179.764.568.568,0,0,0,.769.2" transform="translate(-166.864 -242.959)" fill="#e3633d" fill-rule="evenodd"/>
        <path id="Trazado_874091" data-name="Trazado 874091" d="M104.5,395.4a44.569,44.569,0,0,1,4.1,17.41c.22,11.021-1.028,25.376-1.028,25.376-8.989.994-3.942,7.552-25.771-.72,0,0,2.73-6.5,3.168-11.941s-1.64-19.561,3.87-30.526c0,0,14.672,4.558,15.664.4" transform="translate(-58.236 -281.201)" fill="#735530" fill-rule="evenodd"/>
        <path id="Trazado_874092" data-name="Trazado 874092" d="M85.113,425.521c.438-5.441-1.64-19.561,3.87-30.526,0,0,2.049.636,4.667,1.217-4.786,10.771-2.876,24.067-3.3,29.309-.062.763-.168,1.547-.306,2.33a11.74,11.74,0,0,0,9.52,13.43l.084.015c-2.59.731-6.784.3-17.7-3.834,0,0,2.73-6.5,3.168-11.942" transform="translate(-58.338 -281.202)" fill="#664b2b" fill-rule="evenodd"/>
        <path id="Trazado_874093" data-name="Trazado 874093" d="M116.325,338.426s-2.811,2.193-2.251,3.658,4.725,5.18,3.882,6.854,4.146-1.612,1.514-4.909-1.758-4.77-1.758-4.77Z" transform="translate(-81.159 -240.93)" fill="#ff9d69" fill-rule="evenodd"/>
        <path id="Trazado_874094" data-name="Trazado 874094" d="M160.63,351.189s-.038-1.511-3.463-2.2c-2.145-.431-9.311-4.209-12.531-3.278l5.236,7.067s6.406,4.587,10.887,3.5Z" transform="translate(-102.968 -246.012)" fill="#e3cbbb" fill-rule="evenodd"/>
        <path id="Trazado_874095" data-name="Trazado 874095" d="M87.68,364.668c-.023.1-5.542,8.406-6.177,9.488S79,375.2,79,375.2a21.024,21.024,0,0,1-3.763-2.291,5.088,5.088,0,0,1,.474-2.832c.7-1.256,7.005-11.733,7.005-11.733s6.434-.161,4.959,6.326" transform="translate(-53.541 -255.108)" fill="#e3cbbb" fill-rule="evenodd"/>
        <path id="Trazado_874096" data-name="Trazado 874096" d="M113.409,375.475c.079.026,1.63-4.22,1.63-4.22" transform="translate(-80.737 -264.301)" fill="none" stroke="#bfab9e" stroke-linecap="round" stroke-linejoin="round" stroke-width="0.918"/>
        <line id="Línea_593" data-name="Línea 593" x1="1.234" y1="2.729" transform="translate(45.511 103.823)" fill="none" stroke="#bfab9e" stroke-linecap="round" stroke-linejoin="round" stroke-width="0.918"/>
      </g>
    </g>
  </g>
</svg>
