<svg xmlns="http://www.w3.org/2000/svg" width="57" height="57" viewBox="0 0 57 57">
  <g id="_75" data-name="75" transform="translate(-224 -1160)">
    <circle id="Elipse_11524" data-name="Elipse 11524" cx="28.5" cy="28.5" r="28.5" transform="translate(224 1160)" fill="#f1c12c"/>
    <path id="Trazado_877884" data-name="Trazado 877884" d="M10.459-10.42a3.283,3.283,0,0,1-.513,1.826,3.734,3.734,0,0,1-1.411,1.27,4.109,4.109,0,0,1,1.611,1.362,3.515,3.515,0,0,1,.6,2.046A3.721,3.721,0,0,1,9.429-.908,5.454,5.454,0,0,1,5.811.2,5.554,5.554,0,0,1,2.158-.913a3.7,3.7,0,0,1-1.338-3,3.56,3.56,0,0,1,.586-2.021,3.984,3.984,0,0,1,1.66-1.387,3.755,3.755,0,0,1-1.426-1.27,3.26,3.26,0,0,1-.518-1.826,3.648,3.648,0,0,1,1.26-2.93,5.064,5.064,0,0,1,3.4-1.074A5.1,5.1,0,0,1,9.2-13.35,3.648,3.648,0,0,1,10.459-10.42ZM7.441-4.18a1.877,1.877,0,0,0-.454-1.353,1.581,1.581,0,0,0-1.2-.474,1.6,1.6,0,0,0-1.2.474A1.865,1.865,0,0,0,4.131-4.18a1.881,1.881,0,0,0,.464,1.343,1.592,1.592,0,0,0,1.216.493,1.53,1.53,0,0,0,1.182-.488A1.915,1.915,0,0,0,7.441-4.18Zm-1.66-7.705a1.216,1.216,0,0,0-1.011.435,1.886,1.886,0,0,0-.347,1.206,2,2,0,0,0,.352,1.23,1.213,1.213,0,0,0,1.035.469,1.163,1.163,0,0,0,1.011-.469,2.062,2.062,0,0,0,.337-1.23,1.89,1.89,0,0,0-.347-1.2A1.233,1.233,0,0,0,5.781-11.885Z" transform="translate(247 1196)" fill="#12263f"/>
  </g>
</svg>
