<svg xmlns="http://www.w3.org/2000/svg" xmlns:xlink="http://www.w3.org/1999/xlink" width="210" height="213" viewBox="0 0 210 213">
  <defs>
    <clipPath id="clip-path">
      <path id="Trazado_877570" data-name="Trazado 877570" d="M129.814,214.675a76.426,76.426,0,1,0,76.427-76.428,76.428,76.428,0,0,0-76.427,76.428" transform="translate(-129.814 -138.247)" fill="none"/>
    </clipPath>
  </defs>
  <g id="_94" data-name="94" transform="translate(-180 -3936)">
    <g id="Grupo_1099408" data-name="Grupo 1099408" transform="translate(-105 2841)">
      <rect id="Rectángulo_401353" data-name="Rectángulo 401353" width="210" height="213" transform="translate(285 1095)" fill="#daf2e4"/>
    </g>
    <g id="Grupo_1099411" data-name="Grupo 1099411" transform="translate(-207.266)">
      <g id="Grupo_1099410" data-name="Grupo 1099410" transform="translate(415.919 3978.705)">
        <g id="Grupo_1099409" data-name="Grupo 1099409" clip-path="url(#clip-path)">
          <rect id="Rectángulo_401547" data-name="Rectángulo 401547" width="211.656" height="211.662" transform="translate(-27.576 -29.367)" fill="#f1c12c"/>
          <path id="Trazado_877555" data-name="Trazado 877555" d="M419.767,726.532l-14.584-51.178-41.341-2.589-13.476,53.767Z" transform="translate(-303.516 -559.221)" fill="#262254"/>
          <path id="Trazado_877556" data-name="Trazado 877556" d="M369.848,361.021,401.3,347.268l30.924,13.768-6.763,58.637H376.611Z" transform="translate(-318.859 -302.867)" fill="#95dbb3"/>
          <path id="Trazado_877557" data-name="Trazado 877557" d="M456.368,352.2l-10,4.976s2.27,4.546,12.666,5.9a17.671,17.671,0,0,0,15.988-6.158l-9.293-4.716Z" transform="translate(-379.121 -306.748)" fill="#f29083"/>
          <path id="Trazado_877558" data-name="Trazado 877558" d="M540.713,452.423l.967,33.478h31.935c-1.15-7.878-2.971-17.7-4.661-26.265-1.654-8.4-3.184-15.6-3.825-18.593-.2-.953-.319-1.48-.319-1.48l21-3.333-8.275-50.686a9.985,9.985,0,0,0-5.576-7.009l-11.71-5.817-1.627-.763a.586.586,0,0,1-.207-.165.572.572,0,0,1-.095-.526.585.585,0,0,0,.025-.17.574.574,0,0,0-.379-.541l-9.156-3.286a.583.583,0,0,0-.771.447l-8.386,47.95.666,23.1Z" transform="translate(-452.591 -318.591)" fill="#fffffd"/>
          <path id="Trazado_877559" data-name="Trazado 877559" d="M571.423,724.841c-6.734-.906-20.055-4.738-28.241-7.213l-.4-13.66,24.813,2.28c.641,2.992,2.171,10.192,3.825,18.593" transform="translate(-455.061 -583.795)" fill="#dbe9ff"/>
          <path id="Trazado_877560" data-name="Trazado 877560" d="M553.792,408.321l5.782,4.611a.907.907,0,0,1,.145,1.272l-14.607,18.4,12.757-20.365-5.08-3.68,9.925-19.873a.586.586,0,0,0,.207.165l1.627.763Z" transform="translate(-456.893 -335.49)" fill="#dbe9ff"/>
          <path id="Trazado_877561" data-name="Trazado 877561" d="M542.647,432.571a.25.25,0,0,1-.211-.382l12.961-20.64-4.891-3.541a.25.25,0,0,1-.078-.313l9.8-19.829a.249.249,0,1,1,.447.221l-9.71,19.64,4.91,3.555a.25.25,0,0,1,.065.335l-13.085,20.838a.249.249,0,0,1-.212.117" transform="translate(-454.755 -334.732)" fill="#210602"/>
          <path id="Trazado_877562" data-name="Trazado 877562" d="M565.183,618.147h-3.742a.249.249,0,1,1,0-.5h3.742a.249.249,0,0,1,0,.5" transform="translate(-469.556 -515.812)" fill="#210602"/>
          <path id="Trazado_877563" data-name="Trazado 877563" d="M570.837,764.274a.249.249,0,0,1-.013-.5l3.524-.187a.249.249,0,1,1,.027.5l-3.524.187h-.013" transform="translate(-476.957 -630.751)" fill="#210602"/>
          <path id="Trazado_877564" data-name="Trazado 877564" d="M238.9,416.522l-.227,22.066-.017,1.739-.092,8.955-.03,2.884-.357,34.594H203.2c2.088-12.8,8.2-37.032,10.925-49.345C203.012,444.6,191.89,449.8,186.793,448.3c-5.868-1.737-17.156-21.5-15.761-29.429,3.62-20.569,32.692-34.057,32.692-34.057A9.984,9.984,0,0,1,209.3,377.8l7.133-3.3,2.487-1.15a.613.613,0,0,0,.339-.407.578.578,0,0,0,.023-.16.6.6,0,0,0-.028-.185.622.622,0,0,1,.389-.773l9.945-3.476a.55.55,0,0,1,.724.422Z" transform="translate(-162.183 -319.45)" fill="#fffffd"/>
          <path id="Trazado_877565" data-name="Trazado 877565" d="M392.336,413.727l4.675-3.923L385.2,391.656l2.487-1.15a.613.613,0,0,0,.339-.407l10.167,20.143-4,2.782,12.38,20.694-14.391-18.583a1.021,1.021,0,0,1,.151-1.407" transform="translate(-330.949 -336.6)" fill="#dbe9ff"/>
          <path id="Trazado_877566" data-name="Trazado 877566" d="M416.654,434.421a.249.249,0,0,1-.214-.121l-12.661-21.166a.25.25,0,0,1,.072-.333l3.817-2.658-10-19.7a.249.249,0,1,1,.445-.226l10.1,19.9a.25.25,0,0,1-.08.318l-3.8,2.649,12.542,20.966a.249.249,0,0,1-.214.377" transform="translate(-340.745 -336.581)" fill="#210602"/>
          <path id="Trazado_877567" data-name="Trazado 877567" d="M468.109,612.631c-.725,0-1.316-.783-1.316-1.745s.59-1.745,1.316-1.745,1.316.783,1.316,1.745-.59,1.745-1.316,1.745m0-2.992c-.442,0-.817.571-.817,1.246s.374,1.246.817,1.246.817-.571.817-1.246-.374-1.246-.817-1.246" transform="translate(-395.211 -509.111)" fill="#210602"/>
          <path id="Trazado_877568" data-name="Trazado 877568" d="M461.836,760.469c-.725,0-1.316-.783-1.316-1.745s.59-1.745,1.316-1.745,1.316.783,1.316,1.745-.59,1.745-1.316,1.745m0-2.992c-.443,0-.817.571-.817,1.246s.374,1.246.817,1.246.817-.571.817-1.246-.374-1.246-.817-1.246" transform="translate(-390.27 -625.545)" fill="#210602"/>
          <path id="Trazado_877569" data-name="Trazado 877569" d="M418.144,692.153l-.092,8.955-19.239-6.36,1.018-6.677Z" transform="translate(-341.671 -571.275)" fill="#dbe9ff"/>
        </g>
      </g>
      <path id="Trazado_877571" data-name="Trazado 877571" d="M60,449.133a1.321,1.321,0,0,1-1.009,2.179c-4.374-.2,10.451,5.967,11.407,3.376,1.02-2.765-10.4-5.556-10.4-5.556" transform="translate(342.517 3595.612)" fill="#fa9b8c"/>
      <path id="Trazado_877572" data-name="Trazado 877572" d="M78.234,391.226V313.158a2.147,2.147,0,0,1,2.147-2.147h58.882a2.147,2.147,0,0,1,2.147,2.147v78.068a2.146,2.146,0,0,1-2.147,2.147H80.381a2.146,2.146,0,0,1-2.147-2.147" transform="translate(326.729 3704.394)" fill="#003882"/>
      <rect id="Rectángulo_401548" data-name="Rectángulo 401548" width="56.688" height="75.874" transform="translate(408.206 4018.648)" fill="#fffffd"/>
      <path id="Trazado_877573" data-name="Trazado 877573" d="M186.663,290.22c-5.059-20.7-20.35-10.437-22.169,0h-5.669l1,4.658h28.942l2.5-4.658Zm-5.3,0H170.032c.223-5.565,8.888-11.917,11.328,0" transform="translate(263.257 3730.203)" fill="#5997e7"/>
      <path id="Trazado_877574" data-name="Trazado 877574" d="M64.706,439.143c-.771-.584-2.168-1.755-2.582-1.662a1.752,1.752,0,0,0-1.242,1.834c.01.815,3.578,3.488,4.9,3s.169-2.228-1.077-3.173" transform="translate(340.395 3604.792)" fill="#ffb4a1"/>
      <path id="Trazado_877575" data-name="Trazado 877575" d="M52.88,457.577c-.366-.152-1.686.491-1.43,2.644.067.565,1.971,2.07,1.987,2.22.121,1.085-.561,1.711-.388,2.805.042.265,1.685,1.5,1.729,1.757.063.362-.337,2.185-.034,2.512.751.81,5.849,4.627,6.245,3.949a2.2,2.2,0,0,0,.434-1.246c.018-.8-2.857-2.967-3.373-3.26,1.415.554,4.427,2.219,5.025,1.887A1.791,1.791,0,0,0,63.1,468.8a22.145,22.145,0,0,0-5.784-4.52,30.192,30.192,0,0,0,4.307,1.747c.431.072,1.039-1.35.379-2.09a37.553,37.553,0,0,0-9.126-6.358" transform="translate(347.849 3588.978)" fill="#ffb4a1"/>
      <path id="Trazado_877576" data-name="Trazado 877576" d="M69.218,483.872a.247.247,0,0,1-.134-.039,39.551,39.551,0,0,0-4.265-2.282,8.709,8.709,0,0,1-.785-.393.25.25,0,0,1,.278-.414c.075.05.374.192.721.356a40.019,40.019,0,0,1,4.319,2.312.25.25,0,0,1-.134.46" transform="translate(337.999 3570.749)" fill="#210602"/>
      <path id="Trazado_877577" data-name="Trazado 877577" d="M72.953,504.817a.248.248,0,0,1-.125-.034c-1.961-1.144-3.258-1.8-4.205-2.276a18.518,18.518,0,0,1-2.2-1.227.249.249,0,1,1,.281-.412,18.2,18.2,0,0,0,2.14,1.194c.953.481,2.257,1.139,4.231,2.291a.249.249,0,0,1-.126.465" transform="translate(336.114 3554.901)" fill="#210602"/>
      <path id="Trazado_877578" data-name="Trazado 877578" d="M209.747,423.727H180.331a.374.374,0,0,1,0-.749h29.416a.374.374,0,0,1,0,.749" transform="translate(246.614 3616.211)" fill="#003882"/>
      <path id="Trazado_877579" data-name="Trazado 877579" d="M209.747,438.387H180.331a.374.374,0,0,1,0-.749h29.416a.374.374,0,0,1,0,.749" transform="translate(246.614 3604.665)" fill="#003882"/>
      <path id="Trazado_877580" data-name="Trazado 877580" d="M198.032,453.047h-17.7a.374.374,0,0,1,0-.749h17.7a.374.374,0,1,1,0,.749" transform="translate(246.614 3593.119)" fill="#003882"/>
      <path id="Trazado_877581" data-name="Trazado 877581" d="M133.672,416.871l2.159,5.235h1.319l3.931-9.178-4.821,6.869Z" transform="translate(283.067 3624.125)" fill="#f26979"/>
      <path id="Trazado_877582" data-name="Trazado 877582" d="M209.747,497.07H180.331a.374.374,0,1,1,0-.749h29.416a.374.374,0,1,1,0,.749" transform="translate(246.614 3558.448)" fill="#003882"/>
      <path id="Trazado_877583" data-name="Trazado 877583" d="M209.747,511.731H180.331a.374.374,0,0,1,0-.749h29.416a.374.374,0,0,1,0,.749" transform="translate(246.614 3546.901)" fill="#003882"/>
      <path id="Trazado_877584" data-name="Trazado 877584" d="M190.907,526.391H180.33a.374.374,0,1,1,0-.749h10.577a.374.374,0,0,1,0,.749" transform="translate(246.615 3535.355)" fill="#003882"/>
      <path id="Trazado_877585" data-name="Trazado 877585" d="M133.672,490.215l2.159,5.235h1.319l3.931-9.178-4.821,6.869Z" transform="translate(283.067 3566.361)" fill="#f26979"/>
      <path id="Trazado_877586" data-name="Trazado 877586" d="M201.483,570.414H180.33a.374.374,0,1,1,0-.749h21.153a.374.374,0,0,1,0,.749" transform="translate(246.615 3500.684)" fill="#003882"/>
      <path id="Trazado_877587" data-name="Trazado 877587" d="M199.409,585.075H180.33a.374.374,0,1,1,0-.749h19.079a.374.374,0,1,1,0,.749" transform="translate(246.615 3489.137)" fill="#003882"/>
      <path id="Trazado_877588" data-name="Trazado 877588" d="M184.661,599.735H180.33a.374.374,0,1,1,0-.749h4.331a.374.374,0,0,1,0,.749" transform="translate(246.615 3477.591)" fill="#003882"/>
      <path id="Trazado_877589" data-name="Trazado 877589" d="M133.672,563.559l2.159,5.235h1.319l3.931-9.178-4.821,6.869Z" transform="translate(283.067 3508.598)" fill="#f26979"/>
      <path id="Trazado_877590" data-name="Trazado 877590" d="M586.235,576.784s-1.293,12.409-1.415,13.524-14.01,2.117-14.01,2.117-.29,12.6.125,12.6,17.96-10.786,17.96-10.786Z" transform="translate(-61.135 3495.077)" fill="#dbe9ff"/>
      <path id="Trazado_877591" data-name="Trazado 877591" d="M319.362,602.3c-5.863-3.413-12.379-10.167-17.628-11.4-1.964-.462-10.566-1.034-11.6-.772-.287.073-.712.854-1.031,1.774-.946-.073-2.276.2-2.35.444a5.889,5.889,0,0,0,.121,3.486,15.31,15.31,0,0,0,2.468,2.191,3.4,3.4,0,0,0-.108,1.827c.433,1.021,6.317,4.829,10.289,6.949s18.784,6.922,18.784,6.922Z" transform="translate(162.66 3484.623)" fill="#ffb4a1"/>
      <path id="Trazado_877592" data-name="Trazado 877592" d="M307.511,599.98a.248.248,0,0,1-.089-.016c-2.448-.93-10.893-2.1-11.595-2.158a.25.25,0,0,1,.044-.5c.708.063,9.239,1.243,11.728,2.188a.25.25,0,0,1-.089.483" transform="translate(155.536 3478.912)" fill="#210602"/>
      <path id="Trazado_877593" data-name="Trazado 877593" d="M300.311,612.006a.257.257,0,0,1-.058-.007c-1.941-.461-10.557-3.213-12.778-4a.25.25,0,1,1,.166-.471c2.215.783,10.8,3.526,12.727,3.983a.25.25,0,0,1-.057.492" transform="translate(162.066 3470.873)" fill="#210602"/>
      <path id="Trazado_877594" data-name="Trazado 877594" d="M307.484,630.769a.246.246,0,0,1-.093-.018c-1.774-.709-7.648-3.091-8.777-3.946a.25.25,0,0,1,.3-.4c1.107.838,7.409,3.379,8.661,3.881a.25.25,0,0,1-.093.481" transform="translate(153.24 3456.035)" fill="#210602"/>
      <path id="Trazado_877595" data-name="Trazado 877595" d="M484.287,645.512c-2.957-3.608-11.734-5.487-21.375-7.032,0,0-36.621-3.906-48.2-5.519l-3.965,16.147c18.23,4.683,46.561,10.861,58.56,11.851,11.984.988,16.695-7.353,14.978-15.446" transform="translate(64.848 3450.834)" fill="#fffffd"/>
      <path id="Trazado_877596" data-name="Trazado 877596" d="M465.15,659.817l-.033,0c-10.984-1.458-38.878-6.511-55.364-11.394a.25.25,0,0,1-.172-.3l3.965-16.147a.249.249,0,0,1,.485.119l-3.908,15.916c16.488,4.854,44.139,9.861,55.059,11.31a.25.25,0,0,1-.033.5" transform="translate(65.773 3451.759)" fill="#210602"/>
      <path id="Trazado_877597" data-name="Trazado 877597" d="M476.687,584.485l-.028,0-48.2-5.519a.25.25,0,0,1,.057-.5l47.874,5.482-2.984-19.578a.249.249,0,1,1,.493-.075l3.033,19.9a.249.249,0,0,1-.247.287" transform="translate(51.073 3505.077)" fill="#210602"/>
      <path id="Trazado_877598" data-name="Trazado 877598" d="M562.787,40.58a.25.25,0,0,1-.107-.475c5.055-2.386,9.89-7.861,8.3-16.073a.25.25,0,0,1,.49-.1c1.645,8.493-3.351,14.154-8.576,16.619a.251.251,0,0,1-.106.024" transform="translate(-54.697 3930.646)" fill="#eac89f"/>
      <path id="Trazado_877599" data-name="Trazado 877599" d="M518.78,18.621q-.412.509-.846.966c-5.327,5.584-12.974,4.9-14.593-1.988a11.337,11.337,0,0,1-.262-1.679c-.716-8.1,5.209-14.456,10.359-15.709,6.951-1.689,14.466,7.046,5.342,18.411" transform="translate(-7.823 3949.338)" fill="#12263f"/>
      <path id="Trazado_877600" data-name="Trazado 877600" d="M519.124,84.127c-5.327,5.584-12.974,4.9-14.593-1.988,4.738-.561,10.97.127,14.593,1.988" transform="translate(-9.013 3884.798)" fill="#cf9e72"/>
      <path id="Trazado_877601" data-name="Trazado 877601" d="M419.608,94.527c-12.938.812-6.863,34.518,13.054,35.827,21.513,1.414,23.673-21.766,18.992-32.648-6.224-14.47-30.63-13.4-32.047-3.179" transform="translate(63.244 3880.944)" fill="#12263f"/>
      <path id="Trazado_877602" data-name="Trazado 877602" d="M493.092,282.9v18.962c0,4.241-16.467,4.241-16.467,0V282.9Z" transform="translate(12.965 3726.535)" fill="#f29083"/>
      <path id="Trazado_877603" data-name="Trazado 877603" d="M489.814,322.524c-2.774,5-9.8,5.339-13.189,4.025v-5.22c3.723,1.789,8.745,2.7,13.189,1.2" transform="translate(12.965 3696.267)" fill="#f07676"/>
      <path id="Trazado_877604" data-name="Trazado 877604" d="M452.224,109.021c-9.414,0-17.046,8.21-17.046,23.545s7.682,23.545,17.046,23.545c9.1,0,17.046-8.21,17.046-23.545s-7.632-23.545-17.046-23.545" transform="translate(45.608 3863.476)" fill="#f29083"/>
      <path id="Trazado_877605" data-name="Trazado 877605" d="M498.178,278.831c-1.331-.665-4.816-.031-4.816-.031a5.751,5.751,0,0,0,5.011,2.7c3.7,0,4.414-2.266,4.622-2.765-1.515-.083-2.862-.572-4.816.093" transform="translate(-0.217 3730.009)" fill="#f07676"/>
      <path id="Trazado_877606" data-name="Trazado 877606" d="M484.7,322.02a15.265,15.265,0,0,1-8.1-2.251.25.25,0,0,1,.264-.423,14.767,14.767,0,0,0,7.84,2.176,15.849,15.849,0,0,0,5.933-1.211.249.249,0,1,1,.2.459,16.373,16.373,0,0,1-6.129,1.251" transform="translate(13.081 3697.859)" fill="#210602"/>
      <path id="Trazado_877607" data-name="Trazado 877607" d="M551.772,223.294a1.412,1.412,0,1,1-1.374-1.737,1.588,1.588,0,0,1,1.374,1.737" transform="translate(-44.055 3774.845)" fill="#210602"/>
      <path id="Trazado_877608" data-name="Trazado 877608" d="M469.837,223.294a1.412,1.412,0,1,1-1.374-1.737,1.588,1.588,0,0,1,1.374,1.737" transform="translate(20.475 3774.845)" fill="#210602"/>
      <path id="Trazado_877609" data-name="Trazado 877609" d="M496.054,279.057a14.708,14.708,0,0,1-5.578-1.033.249.249,0,0,1,.2-.456c2.449,1.09,7.638,1.572,10.194-.155a.249.249,0,1,1,.279.413,9.362,9.362,0,0,1-5.1,1.231" transform="translate(2.173 3730.888)" fill="#210602"/>
      <path id="Trazado_877610" data-name="Trazado 877610" d="M508.406,257.146a5.645,5.645,0,0,1-2.174-.4.249.249,0,0,1,.206-.454,4.837,4.837,0,0,0,3.272.123.249.249,0,1,1,.277.415,3.152,3.152,0,0,1-1.581.313" transform="translate(-10.237 3747.504)" fill="#210602"/>
      <path id="Trazado_877611" data-name="Trazado 877611" d="M469.988,203.13c0,.726-3.986.975-4.071,0s4.071-1.484,4.071,0" transform="translate(21.399 3790.092)" fill="#210602"/>
      <path id="Trazado_877612" data-name="Trazado 877612" d="M544.748,204.756c0,.726,3.986.975,4.071,0s-4.071-1.484-4.071,0" transform="translate(-40.687 3788.812)" fill="#210602"/>
      <path id="Trazado_877613" data-name="Trazado 877613" d="M587.841,208.076c2.6-.031,5.062-1.748,6.131,1.052s-1.78,6.517-3.9,7.573-2.233-8.625-2.233-8.625" transform="translate(-74.626 3785.895)" fill="#f29083"/>
      <path id="Trazado_877614" data-name="Trazado 877614" d="M600.865,218.642a18.619,18.619,0,0,1,0,3.234c1.127-.409,1.882-2.789,1.144-3.409-.58-.487-1.144.174-1.144.174" transform="translate(-84.883 3777.42)" fill="#f07676"/>
      <path id="Trazado_877615" data-name="Trazado 877615" d="M419.416,208.076c-2.6-.031-5.062-1.748-6.131,1.052s1.78,6.517,3.9,7.573,2.233-8.625,2.233-8.625" transform="translate(63.033 3785.895)" fill="#f29083"/>
      <path id="Trazado_877616" data-name="Trazado 877616" d="M424.657,218.642a18.616,18.616,0,0,0,0,3.234c-1.127-.409-1.882-2.789-1.144-3.409.58-.487,1.144.174,1.144.174" transform="translate(55.026 3777.42)" fill="#f07676"/>
      <path id="Trazado_877617" data-name="Trazado 877617" d="M435.4,127c2.838-1.5,3.087-9.011,7.749-11.965,14.594-4.777,21.92,13.914,27.384,11.738.067-8.992-5.072-21.955-18.144-21.955-16.036,0-17.146,15.732-16.989,22.182" transform="translate(45.442 3866.788)" fill="#12263f"/>
      <path id="Trazado_877618" data-name="Trazado 877618" d="M497.56,150.477c-2.075,0-3.837-2.742-5.839-5.856-2.508-3.9-5.629-8.757-10.318-9.595-3.051-.545-6.4.6-10.252,3.5a.249.249,0,0,1-.3-.4c3.964-2.989,7.444-4.165,10.64-3.594,4.9.876,8.09,5.833,10.65,9.816,2.26,3.517,4.046,6.294,6.155,5.483a.25.25,0,0,1,.179.466,2.53,2.53,0,0,1-.915.177" transform="translate(17.591 3843.492)" fill="#cf9e72"/>
      <path id="Trazado_877619" data-name="Trazado 877619" d="M405.9,139.786a.249.249,0,0,1-.2-.107c-1.089-1.558-2.96-9.3-.257-14.217,1.477-2.688,4.027-3.97,7.581-3.813a.25.25,0,0,1,.238.26.252.252,0,0,1-.26.238c-3.349-.147-5.744,1.047-7.122,3.554-2.5,4.542-.887,12.095.229,13.691a.25.25,0,0,1-.2.392" transform="translate(70.124 3853.54)" fill="#eac89f"/>
      <path id="Trazado_877620" data-name="Trazado 877620" d="M437.168,256.369a.25.25,0,0,1-.225-.141,9.906,9.906,0,0,1-.67-4.888,22.013,22.013,0,0,0-.04-2.9.25.25,0,1,1,.5-.049,22.406,22.406,0,0,1,.042,2.959,9.392,9.392,0,0,0,.621,4.655.25.25,0,0,1-.116.333.246.246,0,0,1-.108.025" transform="translate(44.777 3753.885)" fill="#eac89f"/>
      <path id="Trazado_877621" data-name="Trazado 877621" d="M580.993,264a.247.247,0,0,1-.138-.042.25.25,0,0,1-.07-.346c2.11-3.179,2.084-5.3,2.051-7.985a27.752,27.752,0,0,1,.449-6.145.249.249,0,0,1,.49.1,27.351,27.351,0,0,0-.44,6.043c.034,2.771.062,4.96-2.134,8.267a.249.249,0,0,1-.208.112" transform="translate(-69.036 3753.009)" fill="#eac89f"/>
    </g>
  </g>
</svg>
