<svg xmlns="http://www.w3.org/2000/svg" width="85" height="86" viewBox="0 0 85 86">
  <g id="_96" data-name="96" transform="translate(-349 -484)">
    <g id="Grupo_1099287" data-name="Grupo 1099287" transform="translate(169 -156)">
      <rect id="Rectángulo_401163" data-name="Rectángulo 401163" width="85" height="86" rx="12" transform="translate(180 640)" fill="#f1c12c"/>
    </g>
    <g id="reshot-icon-money-document-DFRGMZHVWK" transform="translate(317.842 482.503)">
      <g id="Grupo_1099301" data-name="Grupo 1099301" transform="translate(54.31 16.649)">
        <g id="Grupo_1099288" data-name="Grupo 1099288" transform="translate(0 0)">
          <path id="Trazado_874575" data-name="Trazado 874575" d="M64.3,27.79V69.266H58.538V20.877H91.95V27.79Z" transform="translate(-58.538 -20.877)" fill="#c1c1c1"/>
        </g>
        <g id="Grupo_1099289" data-name="Grupo 1099289" transform="translate(5.761 6.913)">
          <rect id="Rectángulo_401408" data-name="Rectángulo 401408" width="33.412" height="48.389" fill="#e5e5e4"/>
        </g>
        <g id="Grupo_1099290" data-name="Grupo 1099290" transform="translate(10.369 12.674)">
          <rect id="Rectángulo_401409" data-name="Rectángulo 401409" width="12.673" height="2.304" fill="#c1c1c1"/>
        </g>
        <g id="Grupo_1099291" data-name="Grupo 1099291" transform="translate(10.369 17.282)">
          <rect id="Rectángulo_401410" data-name="Rectángulo 401410" width="20.738" height="2.304" fill="#c1c1c1"/>
        </g>
        <g id="Grupo_1099292" data-name="Grupo 1099292" transform="translate(10.369 21.891)">
          <rect id="Rectángulo_401411" data-name="Rectángulo 401411" width="10.369" height="2.304" fill="#c1c1c1"/>
        </g>
        <g id="Grupo_1099293" data-name="Grupo 1099293" transform="translate(24.195 21.891)">
          <rect id="Rectángulo_401412" data-name="Rectángulo 401412" width="10.369" height="2.304" fill="#c1c1c1"/>
        </g>
        <g id="Grupo_1099294" data-name="Grupo 1099294" transform="translate(10.369 26.499)">
          <rect id="Rectángulo_401413" data-name="Rectángulo 401413" width="10.369" height="2.304" fill="#c1c1c1"/>
        </g>
        <g id="Grupo_1099295" data-name="Grupo 1099295" transform="translate(24.195 26.499)">
          <rect id="Rectángulo_401414" data-name="Rectángulo 401414" width="10.369" height="2.304" fill="#c1c1c1"/>
        </g>
        <g id="Grupo_1099296" data-name="Grupo 1099296" transform="translate(17.282 33.412)">
          <circle id="Elipse_11529" data-name="Elipse 11529" cx="8.641" cy="8.641" r="8.641" fill="#ffda88"/>
        </g>
        <g id="Grupo_1099297" data-name="Grupo 1099297" transform="translate(17.282 33.412)">
          <path id="Trazado_874576" data-name="Trazado 874576" d="M141.544,185.541a8.636,8.636,0,0,1,7.489-8.556,8.641,8.641,0,1,0,0,17.111A8.636,8.636,0,0,1,141.544,185.541Z" transform="translate(-139.24 -176.9)" fill="#ffe2a9"/>
        </g>
        <g id="Grupo_1099298" data-name="Grupo 1099298" transform="translate(22.641 36.183)">
          <path id="Trazado_874577" data-name="Trazado 874577" d="M170.194,196.471a2.552,2.552,0,0,0-.775-.865,8.458,8.458,0,0,0-1.366-.7c-.824-.331-1.233-.725-1.233-1.178a.837.837,0,0,1,.237-.595.774.774,0,0,1,.568-.248,3.381,3.381,0,0,1,1.4.576l.932-1.463a2.422,2.422,0,0,0-1.836-.885v-.658c0-.342-.4-.618-1.152-.618s-1.152.277-1.152.618v.758a3.024,3.024,0,0,0-.733.613,2.979,2.979,0,0,0-.558,2.037,2.358,2.358,0,0,0,1.293,1.944,5.909,5.909,0,0,0,1.134.609c.991.424,1.456.76,1.456,1.24a.921.921,0,0,1-.322.666,1.058,1.058,0,0,1-.683.32c-.671.047-1.224-.425-2-.993l-1.144,1.454a5.491,5.491,0,0,0,1.554,1.233v.618c0,.343.5.618,1.152.618.614,0,1.152-.276,1.152-.618v-.618a3.186,3.186,0,0,0,1.405-.617,2.8,2.8,0,0,0,.985-2.05A2.425,2.425,0,0,0,170.194,196.471Z" transform="translate(-164.264 -189.842)" fill="#7fd3b9"/>
        </g>
        <g id="Grupo_1099299" data-name="Grupo 1099299" transform="translate(0 0)">
          <rect id="Rectángulo_401415" data-name="Rectángulo 401415" width="2.304" height="48.389" fill="#d6d6d6"/>
        </g>
        <g id="Grupo_1099300" data-name="Grupo 1099300" transform="translate(5.761 6.913)">
          <rect id="Rectángulo_401416" data-name="Rectángulo 401416" width="2.304" height="48.389" fill="#efefef"/>
        </g>
      </g>
      <g id="Grupo_1099312" data-name="Grupo 1099312" transform="translate(53.158 15.497)">
        <g id="Grupo_1099302" data-name="Grupo 1099302" transform="translate(11.521 13.826)">
          <rect id="Rectángulo_401417" data-name="Rectángulo 401417" width="12.673" height="2.304" fill="#161616"/>
        </g>
        <g id="Grupo_1099303" data-name="Grupo 1099303" transform="translate(11.521 18.434)">
          <rect id="Rectángulo_401418" data-name="Rectángulo 401418" width="20.738" height="2.304" fill="#161616"/>
        </g>
        <g id="Grupo_1099304" data-name="Grupo 1099304" transform="translate(11.521 23.043)">
          <rect id="Rectángulo_401419" data-name="Rectángulo 401419" width="10.369" height="2.304" fill="#161616"/>
        </g>
        <g id="Grupo_1099305" data-name="Grupo 1099305" transform="translate(25.347 23.043)">
          <rect id="Rectángulo_401420" data-name="Rectángulo 401420" width="10.369" height="2.304" fill="#161616"/>
        </g>
        <g id="Grupo_1099306" data-name="Grupo 1099306" transform="translate(11.521 27.651)">
          <rect id="Rectángulo_401421" data-name="Rectángulo 401421" width="10.369" height="2.304" fill="#161616"/>
        </g>
        <g id="Grupo_1099307" data-name="Grupo 1099307" transform="translate(25.347 27.651)">
          <rect id="Rectángulo_401422" data-name="Rectángulo 401422" width="10.369" height="2.304" fill="#161616"/>
        </g>
        <g id="Grupo_1099308" data-name="Grupo 1099308" transform="translate(23.793 37.335)">
          <path id="Trazado_874578" data-name="Trazado 874578" d="M170.194,196.471a2.552,2.552,0,0,0-.775-.865,8.458,8.458,0,0,0-1.366-.7c-.824-.331-1.233-.725-1.233-1.178a.837.837,0,0,1,.237-.595.774.774,0,0,1,.568-.248,3.381,3.381,0,0,1,1.4.576l.932-1.463a2.422,2.422,0,0,0-1.836-.885v-.658c0-.342-.4-.618-1.152-.618s-1.152.277-1.152.618v.758a3.024,3.024,0,0,0-.733.613,2.979,2.979,0,0,0-.558,2.037,2.358,2.358,0,0,0,1.293,1.944,5.909,5.909,0,0,0,1.134.609c.991.424,1.456.76,1.456,1.24a.921.921,0,0,1-.322.666,1.058,1.058,0,0,1-.683.32c-.671.047-1.224-.425-2-.993l-1.144,1.454a5.491,5.491,0,0,0,1.554,1.233v.618c0,.343.5.618,1.152.618.614,0,1.152-.276,1.152-.618v-.618a3.186,3.186,0,0,0,1.405-.617,2.8,2.8,0,0,0,.985-2.05A2.425,2.425,0,0,0,170.194,196.471Z" transform="translate(-164.264 -189.842)" fill="#161616"/>
        </g>
        <g id="Grupo_1099309" data-name="Grupo 1099309" transform="translate(17.282 33.412)">
          <path id="Trazado_874579" data-name="Trazado 874579" d="M143.653,191.106a9.793,9.793,0,1,1,9.793-9.793A9.8,9.8,0,0,1,143.653,191.106Zm0-17.282a7.489,7.489,0,1,0,7.489,7.489A7.5,7.5,0,0,0,143.653,173.824Z" transform="translate(-133.86 -171.52)" fill="#161616"/>
        </g>
        <g id="Grupo_1099310" data-name="Grupo 1099310" transform="translate(0 0)">
          <path id="Trazado_874580" data-name="Trazado 874580" d="M60.071,66.191H54.31a1.152,1.152,0,0,1-1.152-1.152V55.822a1.152,1.152,0,1,1,2.3,0v8.065h3.456V23.562a1.152,1.152,0,0,1,1.152-1.152h26.5V17.8H55.462V51.213a1.152,1.152,0,0,1-2.3,0V16.649A1.152,1.152,0,0,1,54.31,15.5H87.722a1.152,1.152,0,0,1,1.152,1.152v6.913a1.152,1.152,0,0,1-1.152,1.152h-26.5V65.039A1.152,1.152,0,0,1,60.071,66.191Z" transform="translate(-53.158 -15.497)" fill="#161616"/>
        </g>
        <g id="Grupo_1099311" data-name="Grupo 1099311" transform="translate(5.761 6.913)">
          <path id="Trazado_874581" data-name="Trazado 874581" d="M114.623,98.472h-3.456a1.152,1.152,0,1,1,0-2.3h2.3V50.082H82.363V96.167h24.195a1.152,1.152,0,0,1,0,2.3H81.211a1.152,1.152,0,0,1-1.152-1.152V48.93a1.152,1.152,0,0,1,1.152-1.152h33.412a1.152,1.152,0,0,1,1.152,1.152V97.319A1.152,1.152,0,0,1,114.623,98.472Z" transform="translate(-80.059 -47.778)" fill="#161616"/>
        </g>
      </g>
    </g>
  </g>
</svg>
