<svg xmlns="http://www.w3.org/2000/svg" xmlns:xlink="http://www.w3.org/1999/xlink" width="133" height="133" viewBox="0 0 133 133">
  <defs>
    <filter id="Elipse_11473" x="0" y="0" width="133" height="133" filterUnits="userSpaceOnUse">
      <feOffset dx="4" dy="13" input="SourceAlpha"/>
      <feGaussianBlur stdDeviation="6.5" result="blur"/>
      <feFlood flood-opacity="0.11"/>
      <feComposite operator="in" in2="blur"/>
      <feComposite in="SourceGraphic"/>
    </filter>
  </defs>
  <g id="a2" transform="translate(-876.833 -398.5)">
    <g id="Grupo_1098907" data-name="Grupo 1098907" transform="translate(-298 6)">
      <g transform="matrix(1, 0, 0, 1, 1174.83, 392.5)" filter="url(#Elipse_11473)">
        <circle id="Elipse_11473-2" data-name="Elipse 11473" cx="47" cy="47" r="47" transform="translate(15.5 6.5)" fill="#f1c12c"/>
      </g>
    </g>
    <g id="Law_Book" transform="translate(820.604 347.168)">
      <g id="Grupo_1098970" data-name="Grupo 1098970" transform="translate(84.5 75.8)">
        <rect id="Rectángulo_401164" data-name="Rectángulo 401164" width="0.998" height="0.998" transform="translate(24.298 29.917)" fill="#fbc749"/>
        <rect id="Rectángulo_401165" data-name="Rectángulo 401165" width="5.217" height="0.998" transform="translate(32.043 24.298)" fill="#75b4e2"/>
        <path id="Trazado_873910" data-name="Trazado 873910" d="M169.416,92.136h1.82V113.31h8.437v1.4h3.108v-2.4h-1.208v-1.82h1.208v-1h-2.109v-4.621H193.73v4.621h-2.109v1h1.208v1.82h-1.208v6.618h1.208v1.82h-1.208v1h2.109v4.621H180.671v-4.621h2.109v-1h-1.208v-1.82h1.208v-2.4h-3.108v1.4h-8.437v12.237h31.93V87H170.318a4.714,4.714,0,0,0-4.718,4.718V113.31h3.816Zm8.421-1.32h18.678v7.439H177.837Z" transform="translate(-152.541 -85.197)" fill="#f1ebe0"/>
        <path id="Trazado_873911" data-name="Trazado 873911" d="M205.472,146.671H170.821a4.715,4.715,0,0,0-4.621,3.816h7.439v1.82H166.2a4.715,4.715,0,0,0,4.621,3.816h32.832V149.2h1.82v6.924h1V104.5h-1Z" transform="translate(-153.045 -99.879)" fill="#fff"/>
        <rect id="Rectángulo_401166" data-name="Rectángulo 401166" width="5.217" height="6.618" transform="translate(32.043 27.116)" fill="#75b4e2"/>
        <rect id="Rectángulo_401167" data-name="Rectángulo 401167" width="15.055" height="3.816" transform="translate(27.116 7.423)" fill="#75b4e2"/>
        <rect id="Rectángulo_401168" data-name="Rectángulo 401168" width="20.675" height="0.998" transform="translate(1.82 29.917)" fill="#75b4e2"/>
        <path id="Trazado_873912" data-name="Trazado 873912" d="M169.416,279.1H165.6v14.266a6.564,6.564,0,0,1,3.816-1.948Z" transform="translate(-152.541 -246.365)" fill="#283de2"/>
        <rect id="Rectángulo_401169" data-name="Rectángulo 401169" width="9.436" height="0.998" transform="translate(29.933 21.48)" fill="#fbc749"/>
        <rect id="Rectángulo_401170" data-name="Rectángulo 401170" width="5.217" height="0.998" transform="translate(32.043 35.553)" fill="#75b4e2"/>
        <path id="Trazado_873913" data-name="Trazado 873913" d="M270.4,314v1h9.42v-1H270.4Z" transform="translate(-240.467 -275.645)" fill="#fbc749"/>
        <path id="Trazado_873914" data-name="Trazado 873914" d="M260.378,110.7H241.7v7.439h18.678Zm-1.82,5.62H243.5V112.5h15.055Z" transform="translate(-216.388 -105.08)" fill="#17171d"/>
        <path id="Trazado_873915" data-name="Trazado 873915" d="M136.928,75.8H102.276a6.542,6.542,0,0,0-6.537,6.537V103.93H84.5v4.621H95.739v18.775h0a6.542,6.542,0,0,0,6.537,6.537h37.453V78.634h-2.818V75.8ZM97.559,82.321a4.714,4.714,0,0,1,4.718-4.718h32.832v43.169h-31.93V108.535h8.437v-1.4h3.108v2.4h-1.208v1.82h1.208v1h-2.109v4.621h13.059v-4.621h-2.109v-1h1.208v-1.82h-1.208v-6.618h1.208V101.1h-1.208v-1h2.109V95.476H112.614V100.1h2.109v1h-1.208v1.82h1.208v2.4h-3.108v-1.4h-8.437V82.74h-1.82v21.174H97.542V82.321ZM108.8,106.716v-1h1v1Zm7.745-5.62v-1h5.217v1Zm5.2,1.82v6.618h-5.217v-6.618Zm-7.31-4.637v-1h9.436v1Zm2.109,13.075h5.217v1h-5.217Zm7.02,2.8h.29v1h-9.436v-1h9.146ZM86.32,106.716v-1h20.675v1Zm11.239,1.82h3.816v12.3a6.612,6.612,0,0,0-3.816,1.948ZM137.91,80.421v51.606h-1V125.1h-1.82v6.924H102.276a4.715,4.715,0,0,1-4.621-3.816h7.439v-1.82H97.655a4.715,4.715,0,0,1,4.621-3.816h34.651V80.421Z" transform="translate(-84.5 -75.8)" fill="#17171d"/>
      </g>
    </g>
  </g>
</svg>
