<svg xmlns="http://www.w3.org/2000/svg" xmlns:xlink="http://www.w3.org/1999/xlink" width="123" height="123" viewBox="0 0 123 123">
  <defs>
    <filter id="Elipse_11474" x="0" y="0" width="123" height="123" filterUnits="userSpaceOnUse">
      <feOffset dx="4" dy="13" input="SourceAlpha"/>
      <feGaussianBlur stdDeviation="6.5" result="blur"/>
      <feFlood flood-opacity="0.11"/>
      <feComposite operator="in" in2="blur"/>
      <feComposite in="SourceGraphic"/>
    </filter>
  </defs>
  <g id="a3" transform="translate(-891.833 -411.5)">
    <g transform="matrix(1, 0, 0, 1, 891.83, 411.5)" filter="url(#Elipse_11474)">
      <circle id="Elipse_11474-2" data-name="Elipse 11474" cx="42" cy="42" r="42" transform="translate(15.5 6.5)" fill="#f1c12c"/>
    </g>
    <g id="informe-medico_1_" data-name="informe-medico (1)" transform="translate(919.333 425.536)">
      <g id="Grupo_1098899" data-name="Grupo 1098899" transform="translate(0.869 6.333)">
        <path id="Trazado_873020" data-name="Trazado 873020" d="M48.556,63.709a5.033,5.033,0,0,1,5.033,5.033V108.98a5.033,5.033,0,0,1-5.033,5.033H12.532A5.033,5.033,0,0,1,7.5,108.98V68.742a5.033,5.033,0,0,1,5.033-5.033H48.556Z" transform="translate(-7.499 -57.83)" fill="#a6e7f0"/>
        <path id="Trazado_873021" data-name="Trazado 873021" d="M104.3,63.71v1.878a4.758,4.758,0,0,0,4.752,4.752H123.2a4.758,4.758,0,0,0,4.752-4.752V63.71Z" transform="translate(-93.082 -57.831)" fill="#6bd9e7"/>
        <path id="Trazado_873022" data-name="Trazado 873022" d="M273.769,158.789c-.108.046-.215.093-.322.143l-1.458.68-1.458-.68a9.838,9.838,0,0,0-10.174,16.7l9.523,7.355a3.439,3.439,0,0,0,3.888.221V158.789Z" transform="translate(-227.679 -141.203)" fill="#6bd9e7"/>
        <path id="Trazado_873023" data-name="Trazado 873023" d="M75.081,93.71a1.559,1.559,0,0,1,1.557,1.557v40.238a1.559,1.559,0,0,1-1.557,1.557H39.057a1.559,1.559,0,0,1-1.557-1.557V95.267a1.559,1.559,0,0,1,1.557-1.557Z" transform="translate(-34.024 -84.355)" fill="#f9f7f8"/>
        <path id="Trazado_873024" data-name="Trazado 873024" d="M270.294,183.258V158.824a9.838,9.838,0,0,0-9.935,16.808l9.523,7.355A3.407,3.407,0,0,0,270.294,183.258Z" transform="translate(-227.68 -141.203)" fill="#efedef"/>
        <path id="Trazado_873025" data-name="Trazado 873025" d="M106.69,93.71a4.76,4.76,0,0,0,4.475,3.154H125.32A4.76,4.76,0,0,0,129.8,93.71Z" transform="translate(-95.197 -84.355)" fill="#efedef"/>
        <path id="Trazado_873026" data-name="Trazado 873026" d="M140.887,15.549H139.5a.291.291,0,0,1-.291-.291V14.4a1.436,1.436,0,0,0-1.436-1.436h-7.921a1.436,1.436,0,0,0-1.436,1.436v.858a.291.291,0,0,1-.291.291h-1.39a2.435,2.435,0,0,0-2.435,2.435v2.738a2.435,2.435,0,0,0,2.435,2.435h14.155a2.435,2.435,0,0,0,2.435-2.435V17.984A2.435,2.435,0,0,0,140.887,15.549Z" transform="translate(-110.764 -12.965)" fill="#f9f7f8"/>
        <path id="Trazado_873027" data-name="Trazado 873027" d="M301.628,181.466a7.521,7.521,0,0,0-9.509-2.752l-1.979.923a1.086,1.086,0,0,1-.918,0l-1.979-.923a7.52,7.52,0,0,0-10.252,9.373l.709.313.484,1.153-.293.272a7.507,7.507,0,0,0,1.575,1.656l9.523,7.355a1.132,1.132,0,0,0,1.383,0l9.523-7.355a7.5,7.5,0,0,0,1.846-2.072l-.129-.324.4-1.021.493-.393A7.509,7.509,0,0,0,301.628,181.466Z" transform="translate(-245.371 -158.885)" fill="#f37c7c"/>
      </g>
      <g id="Grupo_1098900" data-name="Grupo 1098900" transform="translate(0 5.464)">
        <path id="Trazado_873028" data-name="Trazado 873028" d="M46.959,93.634a.869.869,0,0,0-.869.869v7.848a4.169,4.169,0,0,1-4.164,4.164H5.9a4.169,4.169,0,0,1-4.164-4.164V62.112A4.169,4.169,0,0,1,5.9,57.948h5.024a.869.869,0,1,0,0-1.738H5.9a5.909,5.909,0,0,0-5.9,5.9V102.35a5.909,5.909,0,0,0,5.9,5.9H41.926a5.909,5.909,0,0,0,5.9-5.9V94.5a.869.869,0,0,0-.869-.869Z" transform="translate(0 -50.33)"/>
        <path id="Trazado_873029" data-name="Trazado 873029" d="M311.869,57.948h5.024a4.169,4.169,0,0,1,4.164,4.164v5.426a.869.869,0,1,0,1.738,0V62.112a5.909,5.909,0,0,0-5.9-5.9h-5.024a.869.869,0,1,0,0,1.738Z" transform="translate(-274.967 -50.33)"/>
        <path id="Trazado_873030" data-name="Trazado 873030" d="M30.869,177.61a.869.869,0,0,0-.869.869v31.205a2.429,2.429,0,0,0,2.426,2.426H68.45a2.429,2.429,0,0,0,2.426-2.426v-7.813a.869.869,0,0,0-1.738,0v7.813a.689.689,0,0,1-.688.688H32.426a.689.689,0,0,1-.688-.688V178.479A.869.869,0,0,0,30.869,177.61Z" transform="translate(-26.524 -157.665)"/>
        <path id="Trazado_873031" data-name="Trazado 873031" d="M37.671,86.21H32.426A2.429,2.429,0,0,0,30,88.636v5.33a.869.869,0,1,0,1.738,0v-5.33a.689.689,0,0,1,.688-.688h5.245a.869.869,0,0,0,0-1.738Z" transform="translate(-26.524 -76.855)"/>
        <path id="Trazado_873032" data-name="Trazado 873032" d="M309.959,87.948H315.2a.689.689,0,0,1,.688.688v5.458a.869.869,0,0,0,1.738,0V88.636A2.429,2.429,0,0,0,315.2,86.21h-5.245a.869.869,0,0,0,0,1.738Z" transform="translate(-273.278 -76.855)"/>
        <path id="Trazado_873033" data-name="Trazado 873033" d="M120.1,17.394h4.04a.869.869,0,1,0,0-1.738H120.1a1.568,1.568,0,0,1-1.566-1.566V11.352A1.568,1.568,0,0,1,120.1,9.786h1.39a1.161,1.161,0,0,0,1.16-1.16V7.769a.567.567,0,0,1,.567-.567h7.921a.567.567,0,0,1,.567.567v.857a1.161,1.161,0,0,0,1.16,1.16h1.39a1.568,1.568,0,0,1,1.566,1.566V14.09a1.568,1.568,0,0,1-1.566,1.566h-6.411a.869.869,0,0,0,0,1.738h6.411a3.308,3.308,0,0,0,3.3-3.3V11.352a3.308,3.308,0,0,0-3.3-3.3h-.812v-.28a2.307,2.307,0,0,0-2.3-2.3h-7.921a2.307,2.307,0,0,0-2.3,2.3v.28H120.1a3.308,3.308,0,0,0-3.3,3.3V14.09A3.308,3.308,0,0,0,120.1,17.394Z" transform="translate(-103.265 -5.464)"/>
        <path id="Trazado_873034" data-name="Trazado 873034" d="M182.365,54.477a.869.869,0,0,0-.869-.869h-5.511a.869.869,0,1,0,0,1.738H181.5A.869.869,0,0,0,182.365,54.477Z" transform="translate(-154.827 -48.03)"/>
        <path id="Trazado_873035" data-name="Trazado 873035" d="M295.72,174.415a8.418,8.418,0,0,0-10.608-3.07l-1.979.923a.217.217,0,0,1-.183,0l-1.979-.923a8.39,8.39,0,0,0-8.676,14.242l9.523,7.355a2,2,0,0,0,2.446,0l3.632-2.805a.869.869,0,1,0-1.062-1.376l-3.632,2.805a.263.263,0,0,1-.321,0l-9.523-7.355a6.672,6.672,0,0,1-1.011-.968h3.645a.869.869,0,0,0,.838-.637l.979-3.538,2.72,7.544a.869.869,0,0,0,.813.574h0a.869.869,0,0,0,.815-.567l2.582-6.959.78,2.552a.869.869,0,0,0,.831.615h7.709a6.656,6.656,0,0,1-1.337,1.385l-2.936,2.268a.869.869,0,1,0,1.062,1.376l2.936-2.268a8.39,8.39,0,0,0,1.932-11.172ZM287,181.089l-1.344-4.4a.869.869,0,0,0-1.646-.048l-2.65,7.142-2.841-7.879a.869.869,0,0,0-1.655.063l-1.53,5.534h-4.046a6.651,6.651,0,0,1,8.952-8.586l1.978.923a1.95,1.95,0,0,0,1.653,0l1.979-.923a6.648,6.648,0,0,1,9.109,8.169H287Z" transform="translate(-237.863 -151.434)"/>
        <path id="Trazado_873036" data-name="Trazado 873036" d="M76.977,151.152H81.06a1.8,1.8,0,0,0,1.8-1.8v-4.5a1.8,1.8,0,0,0-1.8-1.8H76.977a1.8,1.8,0,0,0-1.8,1.8v4.5A1.8,1.8,0,0,0,76.977,151.152Zm-.06-6.3a.06.06,0,0,1,.06-.06H81.06a.06.06,0,0,1,.06.06v4.5a.06.06,0,0,1-.06.06H76.977a.06.06,0,0,1-.06-.06Z" transform="translate(-66.469 -127.112)"/>
        <path id="Trazado_873037" data-name="Trazado 873037" d="M75.179,248.079a1.8,1.8,0,0,0,1.8,1.8H81.06a1.8,1.8,0,0,0,1.8-1.8v-4.5a1.8,1.8,0,0,0-1.8-1.8H76.977a1.8,1.8,0,0,0-1.8,1.8Zm1.738-4.5a.06.06,0,0,1,.06-.06H81.06a.06.06,0,0,1,.06.06v4.5a.06.06,0,0,1-.06.06H76.977a.06.06,0,0,1-.06-.06Z" transform="translate(-66.469 -214.399)"/>
        <path id="Trazado_873038" data-name="Trazado 873038" d="M75.179,346.8a1.8,1.8,0,0,0,1.8,1.8H81.06a1.8,1.8,0,0,0,1.8-1.8v-4.5a1.8,1.8,0,0,0-1.8-1.8H76.977a1.8,1.8,0,0,0-1.8,1.8Zm1.738-4.5a.06.06,0,0,1,.06-.06H81.06a.06.06,0,0,1,.06.06v4.5a.06.06,0,0,1-.06.06H76.977a.06.06,0,0,1-.06-.06Z" transform="translate(-66.469 -301.684)"/>
        <path id="Trazado_873039" data-name="Trazado 873039" d="M157.085,148.5h10.109a.869.869,0,1,0,0-1.738H157.085a.869.869,0,1,0,0,1.738Z" transform="translate(-138.116 -130.388)"/>
        <path id="Trazado_873040" data-name="Trazado 873040" d="M157.085,196.507h10.109a.869.869,0,1,0,0-1.738H157.085a.869.869,0,1,0,0,1.738Z" transform="translate(-138.116 -172.836)"/>
        <path id="Trazado_873041" data-name="Trazado 873041" d="M157.085,246.958h10.109a.869.869,0,1,0,0-1.738H157.085a.869.869,0,1,0,0,1.738Z" transform="translate(-138.116 -217.441)"/>
        <path id="Trazado_873042" data-name="Trazado 873042" d="M168.584,293.23h-11.5a.869.869,0,1,0,0,1.738h11.5a.869.869,0,1,0,0-1.738Z" transform="translate(-138.116 -259.889)"/>
        <path id="Trazado_873043" data-name="Trazado 873043" d="M173.083,343.682h-16a.869.869,0,1,0,0,1.738h16a.869.869,0,1,0,0-1.738Z" transform="translate(-138.116 -304.495)"/>
        <path id="Trazado_873044" data-name="Trazado 873044" d="M176.747,391.692H157.085a.869.869,0,1,0,0,1.738h19.662a.869.869,0,0,0,0-1.738Z" transform="translate(-138.116 -346.943)"/>
      </g>
    </g>
  </g>
</svg>
