<svg xmlns="http://www.w3.org/2000/svg" width="35.159" height="35.824" viewBox="0 0 35.159 35.824">
  <g id="t3" transform="translate(-4.751 0)">
    <g id="Grupo_1098905" data-name="Grupo 1098905" transform="translate(5.276 0.525)">
      <g id="Grupo_1098903" data-name="Grupo 1098903" transform="translate(0)">
        <g id="Grupo_1098902" data-name="Grupo 1098902">
          <path id="Trazado_873045" data-name="Trazado 873045" d="M29.312,42.274c17.554-7.189,17.053-27.418,17.053-27.418C40.848,9.339,29.312,7.5,29.312,7.5S17.777,9.339,12.26,14.856c0,0-.5,20.229,17.053,27.418Z" transform="translate(-12.258 -7.5)" fill="#a2c6fe"/>
          <path id="Trazado_873046" data-name="Trazado 873046" d="M29.312,42.317C11.758,35.127,12.26,14.9,12.26,14.9c5.4-5.4,16.555-7.275,17.037-7.353-.374.073-7.27,1.447-12.13,5.18A5.67,5.67,0,0,0,14.98,17.7C15.47,23.509,17.852,36.78,29.312,42.317Z" transform="translate(-12.258 -7.542)" fill="#7898d5"/>
          <path id="Trazado_873047" data-name="Trazado 873047" d="M79.761,88.551A22.562,22.562,0,0,1,68.256,75.23,32.579,32.579,0,0,1,66.5,66.855c3.862-2.962,10.286-4.649,13.256-5.2,2.971.558,9.409,2.255,13.262,5.2a32.582,32.582,0,0,1-1.754,8.374A22.561,22.561,0,0,1,79.761,88.551Z" transform="translate(-62.707 -57.864)" fill="#f5f0f0"/>
          <path id="Trazado_873048" data-name="Trazado 873048" d="M79.761,88.551a22.562,22.562,0,0,1-11.5-13.321A32.566,32.566,0,0,1,66.5,66.854c3.862-2.961,10.286-4.649,13.256-5.2a34.866,34.866,0,0,0-6.537,2.156,7.448,7.448,0,0,0-4.242,8.325c.207.983.468,2.026.8,3.1C71.7,81.434,75.051,85.908,79.761,88.551Z" transform="translate(-62.707 -57.863)" fill="#e8ded8"/>
        </g>
      </g>
      <g id="Grupo_1098904" data-name="Grupo 1098904" transform="translate(10.446 9.629)">
        <path id="Trazado_873049" data-name="Trazado 873049" d="M173.829,148.973q-1.036-.045-2.071-.072a.784.784,0,0,1-.763-.763q-.028-1.036-.072-2.071a.779.779,0,0,0-.622-.732,10.934,10.934,0,0,0-4.273,0,.779.779,0,0,0-.622.732q-.045,1.036-.072,2.071a.784.784,0,0,1-.763.763q-1.036.028-2.071.072a.779.779,0,0,0-.732.622,10.933,10.933,0,0,0,0,4.273.779.779,0,0,0,.732.622q1.036.045,2.071.072a.784.784,0,0,1,.763.763q.028,1.036.072,2.071a.779.779,0,0,0,.622.732,10.935,10.935,0,0,0,4.273,0,.779.779,0,0,0,.622-.732q.045-1.036.072-2.071a.784.784,0,0,1,.763-.763q1.036-.028,2.071-.072a.779.779,0,0,0,.732-.622,10.934,10.934,0,0,0,0-4.273.779.779,0,0,0-.732-.622Z" transform="translate(-161.555 -145.123)" fill="#dd636e"/>
      </g>
    </g>
    <g id="Grupo_1098906" data-name="Grupo 1098906" transform="translate(4.751 0)">
      <path id="Trazado_873050" data-name="Trazado 873050" d="M39.908,7.868a.525.525,0,0,0-.154-.358c-2.348-2.348-5.983-4.324-10.806-5.875A48.421,48.421,0,0,0,22.413.007a.523.523,0,0,0-.165,0,48.421,48.421,0,0,0-6.536,1.628C10.89,3.186,7.254,5.162,4.907,7.51a.525.525,0,0,0-.154.358,34.816,34.816,0,0,0,1.972,11.2,29.476,29.476,0,0,0,5.132,9.252,26.046,26.046,0,0,0,10.275,7.467.525.525,0,0,0,.4,0A26.048,26.048,0,0,0,32.8,28.318a29.477,29.477,0,0,0,5.132-9.252A34.812,34.812,0,0,0,39.908,7.868ZM36.932,18.756a28.41,28.41,0,0,1-4.948,8.907,24.979,24.979,0,0,1-9.654,7.069,24.979,24.979,0,0,1-9.654-7.069,28.412,28.412,0,0,1-4.948-8.907A34.988,34.988,0,0,1,5.8,8.1c5.145-4.978,15.5-6.867,16.529-7.045C23.363,1.235,33.714,3.124,38.86,8.1A34.991,34.991,0,0,1,36.932,18.756Z" transform="translate(-4.751 0)"/>
      <path id="Trazado_873051" data-name="Trazado 873051" d="M72.682,54.159c-.887.165-8.8,1.717-13.479,5.3a.525.525,0,0,0-.2.455,32.894,32.894,0,0,0,1.783,8.513,23.085,23.085,0,0,0,11.77,13.616.525.525,0,0,0,.459,0A23.085,23.085,0,0,0,84.78,68.428a32.9,32.9,0,0,0,1.783-8.512.525.525,0,0,0-.2-.455,19.735,19.735,0,0,0-3.137-1.918.525.525,0,0,0-.47.938,19.26,19.26,0,0,1,2.742,1.644,31.827,31.827,0,0,1-1.7,7.951A22.1,22.1,0,0,1,72.781,80.988,22.1,22.1,0,0,1,61.77,68.076a32.341,32.341,0,0,1-1.7-7.953,25.4,25.4,0,0,1,6.59-3.256,44.174,44.174,0,0,1,6.119-1.659,44.038,44.038,0,0,1,8.1,2.419.525.525,0,1,0,.4-.969,45.1,45.1,0,0,0-8.407-2.5A.527.527,0,0,0,72.682,54.159Z" transform="translate(-55.201 -50.361)"/>
      <path id="Trazado_873052" data-name="Trazado 873052" d="M166.837,147.006c-.657.029-1.351.053-2.062.072a1.309,1.309,0,0,0-1.274,1.273c-.019.7-.043,1.391-.072,2.063a.255.255,0,0,1-.2.24,10.457,10.457,0,0,1-4.07,0,.255.255,0,0,1-.2-.239c-.029-.672-.053-1.366-.072-2.063a1.309,1.309,0,0,0-1.274-1.273q-.509-.014-1.019-.031a.525.525,0,0,0-.037,1.049q.513.018,1.027.032a.26.26,0,0,1,.253.252c.019.7.044,1.4.072,2.079a1.3,1.3,0,0,0,1.045,1.224,11.5,11.5,0,0,0,4.477,0,1.3,1.3,0,0,0,1.045-1.224c.029-.677.053-1.377.072-2.079a.26.26,0,0,1,.253-.252c.717-.02,1.417-.044,2.079-.073a1.3,1.3,0,0,0,1.224-1.045,11.5,11.5,0,0,0,0-4.476,1.3,1.3,0,0,0-1.224-1.045c-.677-.03-1.377-.054-2.079-.072a.261.261,0,0,1-.254-.253c-.019-.7-.044-1.4-.072-2.079a1.3,1.3,0,0,0-1.045-1.224,11.5,11.5,0,0,0-4.477,0,1.3,1.3,0,0,0-1.045,1.224c-.029.677-.053,1.376-.072,2.079a.26.26,0,0,1-.253.253c-.7.019-1.4.043-2.08.072a1.3,1.3,0,0,0-1.224,1.045,11.486,11.486,0,0,0-.022,4.362.525.525,0,1,0,1.031-.193,10.443,10.443,0,0,1,.02-3.966.255.255,0,0,1,.24-.2c.671-.029,1.365-.053,2.063-.072a1.31,1.31,0,0,0,1.273-1.274c.019-.7.043-1.391.072-2.063a.255.255,0,0,1,.2-.24,10.456,10.456,0,0,1,4.07,0,.255.255,0,0,1,.2.239c.029.672.053,1.366.072,2.063a1.311,1.311,0,0,0,1.274,1.274c.7.018,1.391.042,2.062.072a.255.255,0,0,1,.24.2,10.451,10.451,0,0,1,0,4.07.255.255,0,0,1-.24.2Z" transform="translate(-143.615 -128.009)"/>
    </g>
  </g>
</svg>
